<svg width="160" height="160" viewBox="0 0 160 160" fill="none" xmlns="http://www.w3.org/2000/svg">
<mask id="mask0_62_784" style="mask-type:luminance" maskUnits="userSpaceOnUse" x="0" y="0" width="160" height="160">
<path d="M159.6 0H0V159.618H159.6V0Z" fill="white"/>
</mask>
<g mask="url(#mask0_62_784)">
<mask id="mask1_62_784" style="mask-type:luminance" maskUnits="userSpaceOnUse" x="0" y="0" width="160" height="160">
<path d="M0 0H159.6V159.618H0V0Z" fill="white"/>
</mask>
<g mask="url(#mask1_62_784)">
<path d="M133 5.32062H26.6003C20.9558 5.32062 15.5401 7.56589 11.5501 11.5563C7.56006 15.5468 5.32031 20.9578 5.32031 26.603V133.015C5.32031 138.66 7.56006 144.076 11.5501 148.067C15.5401 152.057 20.9558 154.297 26.6003 154.297H133C138.645 154.297 144.055 152.057 148.045 148.067C152.035 144.076 154.28 138.66 154.28 133.015V26.603C154.28 20.9578 152.035 15.5468 148.045 11.5563C144.055 7.56589 138.645 5.32062 133 5.32062Z" fill="#F9A825"/>
<path fill-rule="evenodd" clip-rule="evenodd" d="M1.33008 26.603C1.33008 19.9043 3.99011 13.4717 8.73023 8.73642C13.4704 3.99578 19.8969 1.33017 26.6001 1.33017H133C136.32 1.33017 139.602 1.9846 142.667 3.25622C145.736 4.52784 148.519 6.39004 150.865 8.73642C153.211 11.0828 155.073 13.8655 156.344 16.9355C157.616 20.0002 158.27 23.2829 158.27 26.603V133.015C158.27 139.719 155.605 146.146 150.865 150.887C146.13 155.627 139.698 158.288 133 158.288H26.6001C19.8969 158.288 13.4704 155.627 8.73023 150.887C3.99011 146.146 1.33008 139.719 1.33008 133.015V26.603ZM26.6001 9.31105C22.0142 9.31105 17.6146 11.136 14.3747 14.3762C11.1295 17.6218 9.31008 22.0166 9.31008 26.603V133.015C9.31008 137.601 11.1295 142.001 14.3747 145.241C17.6146 148.487 22.0142 150.307 26.6001 150.307H133C137.586 150.307 141.98 148.487 145.225 145.241C148.465 142.001 150.29 137.601 150.29 133.015V26.603C150.29 22.0166 148.465 17.6218 145.225 14.3762C141.98 11.136 137.586 9.31105 133 9.31105H26.6001Z" fill="white"/>
<path fill-rule="evenodd" clip-rule="evenodd" d="M100.064 90.45H58.3926L55.4188 103.746H103.033L100.064 90.45ZM46.5503 119.495H111.891V112.105H46.5503V119.495ZM92.8184 66.5074H65.6332L62.6646 79.8035H95.7869L92.8184 66.5074ZM72.879 39.9044L69.9051 53.2059H88.5411L85.5672 39.9044H72.879Z" fill="#25303B"/>
<path d="M111.891 119.713H46.5503V112.105H55.4134V106.412L72.879 39.9044H85.5672L103.033 106.412V112.105H111.891V119.713Z" stroke="#25303B" stroke-width="0.3"/>
</g>
</g>
<script xmlns=""/></svg>