<svg viewBox="0 0 160 160" fill="none"
    xmlns="http://www.w3.org/2000/svg">
    <mask id="mask0" mask-type="luminance" maskUnits="userSpaceOnUse" x="0" y="0" width="160" height="160">
        <path d="M159.6 0H0V159.618H159.6V0Z" fill="white"/>
    </mask>

    <g mask="url(#mask0)">

        <mask id="mask1" mask-type="luminance" maskUnits="userSpaceOnUse" x="0" y="0" width="320" height="320">
            <path d="M0 0H319.2V319.235H0V0Z" fill="white"/>
        </mask>

        <g mask="url(#mask1)">

            <path d="M132.995 5.31528H26.5999C20.9554 5.31528 15.5449 7.56055 11.5549 11.551C7.5649 15.5414 5.3252 20.9578 5.3252 26.603V133.009C5.3252 138.655 7.5649 144.066 11.5549 148.056C15.5449 152.046 20.9554 154.292 26.5999 154.297H133.005C138.644 154.292 144.055 152.046 148.045 148.056C152.035 144.066 154.28 138.655 154.28 133.009V26.603C154.28 20.9578 152.035 15.5414 148.045 11.551C144.055 7.56055 138.639 5.31528 132.995 5.31528Z" fill="#FDB557"/>

            <path fill-rule="evenodd" clip-rule="evenodd" d="M26.6 9.30571C17.0559 9.30571 9.30471 17.0472 9.30471 26.603V133.009C9.30471 142.565 17.0453 150.307 26.6 150.307H133C142.549 150.307 150.29 142.565 150.29 133.009V26.603C150.29 17.0472 142.549 9.30571 133 9.30571H26.6ZM1.33534 26.603C1.33534 19.899 3.99534 13.4717 8.73014 8.73108C13.4703 3.99043 19.8968 1.32483 26.6 1.32483H133C139.703 1.32483 146.13 3.99043 150.87 8.73108C155.605 13.4717 158.27 19.899 158.27 26.603V133.009C158.27 139.713 155.605 146.141 150.87 150.881C146.13 155.617 139.703 158.282 133 158.288H26.5894C19.8862 158.282 13.4596 155.617 8.72482 150.881C3.9847 146.141 1.32471 139.713 1.32471 133.009V26.603H1.33534Z" fill="#25303B"/>

            <!-- Icône centrale -->
            <path d="M79.7999 116.383C80.6724 116.383 81.5395 116.212 82.3428 115.877C83.1515 115.542 83.8857 115.052 84.5028 114.435C85.1199 113.818 85.6093 113.084 85.9445 112.28C86.2796 111.472 86.4499 110.604 86.4499 109.732C86.4499 108.859 86.2796 107.992 85.9445 107.189C85.6093 106.38 85.1199 105.646 84.5028 105.028C83.8857 104.411 83.1515 103.922 82.3428 103.587C81.5395 103.251 80.6724 103.081 79.7999 103.081C78.0336 103.081 76.3419 103.783 75.097 105.028C73.8468 106.279 73.1499 107.971 73.1499 109.732C73.1499 111.498 73.8468 113.19 75.097 114.435C76.3419 115.686 78.0336 116.383 79.7999 116.383ZM86.4499 53.2059C86.4499 51.4448 85.7476 49.7528 84.4974 48.5025C83.2525 47.2575 81.5608 46.5552 79.7945 46.5552C78.0336 46.5552 76.3419 47.2575 75.0917 48.5025C73.8468 49.7528 73.1445 51.4448 73.1445 53.2059V86.4649C73.1445 88.2314 73.8468 89.9233 75.0917 91.1684C76.3419 92.4187 78.0336 93.1157 79.7945 93.1157C81.5608 93.1157 83.2525 92.4187 84.4974 91.1684C85.7476 89.9233 86.4499 88.2314 86.4499 86.4649V53.2059Z" fill="#25303B"/>

        </g>
    </g>
</svg>
