<svg width="160" height="160" viewBox="0 0 160 160" fill="none" xmlns="http://www.w3.org/2000/svg">
<mask id="mask0_62_739" style="mask-type:luminance" maskUnits="userSpaceOnUse" x="0" y="0" width="160" height="160">
<path d="M159.6 0H0V159.618H159.6V0Z" fill="white"/>
</mask>
<g mask="url(#mask0_62_739)">
<mask id="mask1_62_739" style="mask-type:luminance" maskUnits="userSpaceOnUse" x="0" y="0" width="160" height="160">
<path d="M0 0H159.6V159.618H0V0Z" fill="white"/>
</mask>
<g mask="url(#mask1_62_739)">
<path d="M132.999 5.31528H26.5977C20.9543 5.31528 15.5417 7.55523 11.5512 11.551C7.56118 15.5414 5.31934 20.9525 5.31934 26.5976V133.009C5.31934 138.655 7.56118 144.066 11.5512 148.056C15.5417 152.046 20.9543 154.292 26.5977 154.292H132.999C138.643 154.292 144.055 152.046 148.045 148.056C152.036 144.066 154.278 138.655 154.278 133.009V26.5976C154.278 20.9525 152.036 15.5414 148.045 11.551C144.055 7.55523 138.643 5.31528 132.999 5.31528Z" fill="#1972D2"/>
<path fill-rule="evenodd" clip-rule="evenodd" d="M26.5975 9.30571C22.0122 9.30571 17.6147 11.1253 14.3727 14.3709C11.1301 17.6111 9.3091 22.0113 9.3091 26.5976V133.009C9.3091 137.596 11.1301 141.991 14.3727 145.236C17.6147 148.476 22.0122 150.301 26.5975 150.301H132.999C137.584 150.301 141.981 148.476 145.224 145.236C148.466 141.991 150.288 137.596 150.288 133.009V26.5976C150.288 22.0113 148.466 17.6111 145.224 14.3709C141.981 11.1253 137.584 9.30571 132.999 9.30571H26.5975ZM1.3291 26.5976C1.3291 19.8937 3.99123 13.4665 8.72975 8.72588C13.4688 3.98524 19.8959 1.32483 26.5975 1.32483H132.999C139.701 1.32483 146.128 3.98524 150.866 8.72588C155.605 13.4665 158.268 19.8937 158.268 26.5976V133.009C158.268 139.713 155.605 146.141 150.866 150.881C146.128 155.617 139.701 158.282 132.999 158.282H26.5975C19.8959 158.282 13.4688 155.617 8.72975 150.881C3.99123 146.141 1.3291 139.713 1.3291 133.009V26.5976Z" fill="white"/>
<path d="M79.8 59.862C80.6869 59.8833 81.5694 59.729 82.3951 59.4044C83.2208 59.0799 83.973 58.5903 84.6082 57.9731C85.2429 57.3506 85.7478 56.611 86.092 55.7917C86.4367 54.9776 86.6144 54.0998 86.6144 53.2113C86.6144 52.3227 86.4367 51.4449 86.092 50.6255C85.7478 49.8114 85.2429 49.0717 84.6082 48.4492C83.973 47.832 83.2208 47.3426 82.3951 47.0181C81.5694 46.6935 80.6869 46.5392 79.8 46.5605C78.0646 46.6031 76.4149 47.3213 75.2025 48.5663C73.99 49.806 73.3117 51.4768 73.3117 53.2113C73.3117 54.9458 73.99 56.6164 75.2025 57.8561C76.4149 59.1011 78.0646 59.8194 79.8 59.862ZM86.4473 74.4883C86.4692 73.605 86.3133 72.7218 85.9888 71.8971C85.6642 71.0671 85.178 70.3168 84.5582 69.6837C83.939 69.0452 83.1984 68.5398 82.3807 68.1993C81.5636 67.8534 80.6853 67.6726 79.7979 67.6726C78.911 67.6726 78.0327 67.8534 77.215 68.1993C76.3973 68.5398 75.6573 69.0452 75.0375 69.6837C74.4178 70.3168 73.9315 71.0671 73.6075 71.8971C73.283 72.7218 73.1271 73.605 73.1484 74.4883V107.742C73.1271 108.63 73.283 109.514 73.6075 110.338C73.9315 111.163 74.4178 111.913 75.0375 112.552C75.6573 113.185 76.3973 113.69 77.215 114.036C78.0327 114.382 78.911 114.558 79.7979 114.558C80.6853 114.558 81.5636 114.382 82.3807 114.036C83.1984 113.69 83.939 113.185 84.5582 112.552C85.178 111.913 85.6642 111.163 85.9888 110.338C86.3133 109.514 86.4692 108.63 86.4473 107.742V74.4883Z" fill="white"/>
</g>
</g>
<script xmlns=""/></svg>