<svg viewBox="0 0 107 107" fill="none"
    xmlns="http://www.w3.org/2000/svg">

    <mask id="mask0" mask-type="luminance" maskUnits="userSpaceOnUse" x="0" y="0" width="107" height="107">
        <path d="M0 0H106.4V106.412H0V0Z" fill="white"/>
    </mask>

    <g mask="url(#mask0)">

        <path d="M17.7319 4.04346H88.6636C92.2937 4.04349 95.776 5.48566 98.3433 8.05322C100.91 10.6203 102.352 14.1033 102.352 17.7339V88.6733C102.352 92.3036 100.91 95.7856 98.3433 98.353C95.776 100.92 92.2937 102.363 88.6636 102.363H17.7319C14.1017 102.363 10.6196 100.92 8.05225 98.353C5.48577 95.7856 4.04358 92.3037 4.04346 88.6733V17.7339C4.04346 14.1032 5.48548 10.6203 8.05225 8.05322C10.6196 5.48563 14.1017 4.04346 17.7319 4.04346Z" fill="#EB2132" stroke="black"/>

        <path fill-rule="evenodd" clip-rule="evenodd" d="M17.7317 6.20377C11.3637 6.20377 6.2033 11.3647 6.2033 17.7335V88.6729C6.2033 95.0416 11.3637 100.203 17.7317 100.203H88.6633C95.0313 100.203 100.192 95.0416 100.192 88.6729V17.7335C100.192 11.3647 95.0313 6.20377 88.6633 6.20377H17.7317ZM0.883301 17.7335C0.883301 13.2647 2.65857 8.97846 5.81812 5.81856C8.97767 2.65866 13.2635 0.883179 17.7317 0.883179H88.6633C93.1316 0.883179 97.4174 2.65866 100.577 5.81856C103.736 8.97846 105.512 13.2647 105.512 17.7335V88.6729C105.512 93.1422 103.736 97.4279 100.577 100.588C97.4174 103.748 93.1316 105.523 88.6633 105.523H17.7317C13.2635 105.523 8.97767 103.748 5.81812 100.588C2.65857 97.4279 0.883301 93.1422 0.883301 88.6729V17.7335Z" fill="black"/>

        <path fill-rule="evenodd" clip-rule="evenodd" d="M33.2237 73.2432C32.4279 72.4451 31.981 71.364 31.981 70.2371C31.981 69.1102 32.4279 68.0291 33.2237 67.231L67.2345 33.1686C67.6282 32.7743 68.0958 32.4609 68.6107 32.2476C69.1257 32.0342 69.6774 31.9241 70.235 31.9241C70.7925 31.9241 71.3442 32.0342 71.8592 32.2476C72.3741 32.4609 72.8418 32.7743 73.2354 33.1686C74.0313 33.9667 74.4782 35.0478 74.4782 36.1747C74.4782 37.3016 74.0313 38.3827 73.2354 39.1808L39.2247 73.2432C38.831 73.6375 38.3634 73.9509 37.8484 74.1642C37.3334 74.3776 36.7817 74.4877 36.2242 74.4877C35.6667 74.4877 35.115 74.3776 34.6 74.1642C34.085 73.9509 33.6174 73.6375 33.2237 73.2432Z" fill="white"/>

        <path fill-rule="evenodd" clip-rule="evenodd" d="M73.1768 73.2432C73.9727 72.4451 74.4196 71.364 74.4196 70.2371C74.4196 69.1102 73.9727 68.0291 73.1768 67.231L39.1661 33.1686C38.7724 32.7743 38.3048 32.4609 37.7898 32.2476C37.2748 32.0342 36.7231 31.9241 36.1656 31.9241C35.6081 31.9241 35.0564 32.0342 34.5414 32.2476C34.0264 32.4609 33.5588 32.7743 33.1651 33.1686C32.3693 33.9667 31.9224 35.0478 31.9224 36.1747C31.9224 37.3016 32.3693 38.3827 33.1651 39.1808L67.1759 73.2432C67.5696 73.6375 68.0372 73.9509 68.5522 74.1642C69.0671 74.3776 69.6188 74.4877 70.1764 74.4877C70.7339 74.4877 71.2856 74.3776 71.8006 74.1642C72.3155 73.9509 72.7832 73.6375 73.1768 73.2432Z" fill="white"/>

    </g>
</svg>
