<svg width="30" height="30" viewBox="0 0 30 30" fill="none" xmlns="http://www.w3.org/2000/svg">
<mask id="mask0_5_66" style="mask-type:luminance" maskUnits="userSpaceOnUse" x="0" y="0" width="30" height="30">
<path d="M30 0H0V30H30V0Z" fill="white"/>
</mask>
<g mask="url(#mask0_5_66)">
<path d="M0 15C0 12.033 0.88 9.13323 2.528 6.66653C4.176 4.19973 6.51899 2.27713 9.25999 1.14183C12.001 0.00653005 15.017 -0.290569 17.926 0.288231C20.836 0.867031 23.509 2.29563 25.607 4.39343C27.704 6.49123 29.133 9.16393 29.712 12.074C30.291 14.983 29.994 17.999 28.858 20.74C27.723 23.481 25.8 25.824 23.334 27.472C20.867 29.12 17.967 30 15 30C11.022 30 7.20601 28.42 4.39301 25.607C1.58001 22.794 0 18.978 0 15Z" fill="#FFCE00"/>
<path d="M17.314 22.9371V7.04126H14.544C12.97 8.23296 10.966 9.29236 9.299 9.98986L10.38 12.4241C11.439 11.9051 12.97 11.2071 13.936 10.4421V22.9371H17.314Z" fill="#1D1D1B"/>
</g>
</svg>
