<svg width="30" height="30" viewBox="0 0 30 30" fill="none" xmlns="http://www.w3.org/2000/svg">
<mask id="mask0_5_120" style="mask-type:luminance" maskUnits="userSpaceOnUse" x="0" y="0" width="30" height="30">
<path d="M30 0H0V30H30V0Z" fill="white"/>
</mask>
<g mask="url(#mask0_5_120)">
<path d="M0 15C0 12.033 0.88 9.13323 2.528 6.66653C4.176 4.19973 6.51899 2.27713 9.25999 1.14183C12.001 0.00653005 15.017 -0.290569 17.926 0.288231C20.836 0.867031 23.509 2.29563 25.607 4.39343C27.704 6.49123 29.133 9.16393 29.712 12.074C30.291 14.983 29.994 17.999 28.858 20.74C27.723 23.481 25.8 25.824 23.334 27.472C20.867 29.12 17.967 30 15 30C11.022 30 7.20601 28.42 4.39301 25.607C1.58001 22.794 0 18.978 0 15Z" fill="#E3B32A"/>
<path d="M12.029 22.959V7.06024H9.258C7.685 8.25514 5.679 9.31354 4.013 10.011L5.093 12.445C6.151 11.927 7.685 11.229 8.651 10.463V22.962L12.029 22.959Z" fill="#1D1D1B"/>
<path fill-rule="evenodd" clip-rule="evenodd" d="M25.871 14.986C25.871 11.316 24.925 6.58722 20.128 6.58722C15.33 6.58722 14.295 11.316 14.295 14.986C14.295 18.657 15.24 23.39 20.038 23.39C24.835 23.39 25.871 18.662 25.871 14.99M22.426 14.99C22.426 16.566 22.334 20.733 20.083 20.733C17.832 20.733 17.719 16.589 17.719 14.99C17.719 13.369 17.787 9.27542 20.083 9.27542C22.358 9.27542 22.426 13.33 22.426 14.996" fill="#1D1D1B"/>
</g>
</svg>
