<svg width="30" height="30" viewBox="0 0 30 30" fill="none" xmlns="http://www.w3.org/2000/svg">
<mask id="mask0_5_127" style="mask-type:luminance" maskUnits="userSpaceOnUse" x="0" y="0" width="30" height="30">
<path d="M30 0H0V30H30V0Z" fill="white"/>
</mask>
<g mask="url(#mask0_5_127)">
<path d="M0 15C0 12.033 0.88 9.133 2.528 6.666C4.176 4.2 6.51899 2.277 9.25999 1.142C12.001 0.00600207 15.017 -0.290994 17.926 0.288006C20.836 0.867006 23.509 2.296 25.607 4.393C27.704 6.491 29.133 9.16401 29.712 12.074C30.291 14.983 29.994 17.999 28.858 20.74C27.723 23.481 25.8 25.824 23.334 27.472C20.867 29.12 17.967 30 15 30C13.03 30 11.08 29.612 9.25999 28.858C7.43999 28.105 5.78601 27 4.39301 25.607C3.00001 24.214 1.895 22.56 1.142 20.74C0.387998 18.92 0 16.97 0 15Z" fill="#8D5E2A"/>
<path d="M12.896 22.928V7.03101H10.125C8.548 8.22301 6.546 9.282 4.879 9.98L5.961 12.414C7.019 11.897 8.54801 11.197 9.51801 10.432V22.928H12.896ZM22.796 22.928V7.03101H20.025C18.449 8.22301 16.446 9.282 14.779 9.98L15.86 12.414C16.919 11.897 18.449 11.197 19.418 10.432V22.928H22.796Z" fill="white"/>
</g>
</svg>
