<svg width="30" height="30" viewBox="0 0 30 30" fill="none" xmlns="http://www.w3.org/2000/svg">
<mask id="mask0_5_133" style="mask-type:luminance" maskUnits="userSpaceOnUse" x="0" y="0" width="30" height="30">
<path d="M30 0H0V30H30V0Z" fill="white"/>
</mask>
<g mask="url(#mask0_5_133)">
<path d="M3.73457e-08 15C3.73457e-08 12.033 0.879735 9.13301 2.52796 6.66601C4.17618 4.20001 6.51886 2.27701 9.25975 1.14201C12.0006 0.00600767 15.0166 -0.290996 17.9264 0.288004C20.8361 0.867004 23.5088 2.29602 25.6066 4.39301C27.7044 6.49101 29.133 9.16401 29.7118 12.074C30.2906 14.983 29.9935 17.999 28.8582 20.74C27.7229 23.481 25.8003 25.824 23.3336 27.472C20.8668 29.12 17.9667 30 15 30C13.0301 30 11.0795 29.612 9.25958 28.858C7.43964 28.105 5.78599 27 4.39309 25.607C3.00018 24.214 1.8953 22.56 1.14152 20.74C0.387753 18.92 -0.000138965 16.97 3.73457e-08 15Z" fill="#00814F"/>
<path d="M11.8451 22.955V7.05704H9.0743C7.49947 8.25504 5.49496 9.31303 3.827 10.006L4.90969 12.44C5.96804 11.921 7.49947 11.219 8.4668 10.455V22.955H11.8451ZM24.83 22.955V20.297H18.2777C18.4799 19.374 20.0769 17.979 20.8887 17.234C22.8032 15.502 24.5379 14.218 24.5379 11.493C24.5379 8.25003 21.9026 6.62402 19.1096 6.62402C16.9706 6.62402 15.5525 7.25903 14.02 8.58403L15.6869 10.795C16.07 10.372 17.0384 9.35503 18.4386 9.35503C20.1722 9.35503 21.0707 10.502 21.0707 11.877C21.0707 13.408 19.9245 14.557 18.8662 15.475C16.7495 17.322 14.9238 19.01 14.5184 20.857V22.951L24.83 22.955Z" fill="white"/>
</g>
</svg>
