<svg width="30" height="30" viewBox="0 0 30 30" fill="none" xmlns="http://www.w3.org/2000/svg">
<mask id="mask0_5_139" style="mask-type:luminance" maskUnits="userSpaceOnUse" x="0" y="0" width="30" height="30">
<path d="M30 0H0V30H30V0Z" fill="white"/>
</mask>
<g mask="url(#mask0_5_139)">
<path d="M0 15C0 12.033 0.8797 9.13301 2.528 6.66601C4.1762 4.20001 6.5189 2.27701 9.2597 1.14201C12.0006 0.00600767 15.0166 -0.290996 17.9264 0.288004C20.8361 0.867004 23.5088 2.29602 25.6066 4.39301C27.7044 6.49101 29.133 9.16401 29.7118 12.074C30.2906 14.983 29.9935 17.999 28.8582 20.74C27.7229 23.481 25.8003 25.824 23.3336 27.472C20.8668 29.12 17.9667 30 15 30C11.0218 30 7.2064 28.42 4.3934 25.607C1.5804 22.794 0 18.978 0 15Z" fill="#98D4E2"/>
<path d="M12.0461 22.929V7.03102H9.27642C7.70062 8.22302 5.69711 9.28301 4.02911 9.98001L5.11082 12.414C6.16912 11.896 7.70061 11.198 8.66891 10.432V22.931L12.0461 22.929ZM25.0543 18.204C25.0543 15.973 23.7261 14.622 21.9682 14.288V14.243C23.6615 13.614 24.5368 12.308 24.5368 10.664C24.5368 8.54702 22.6889 6.60901 19.4472 6.60901C17.4427 6.60901 15.979 7.12702 14.6264 8.02802L15.7768 10.371C16.5834 9.63502 17.6347 9.22501 18.7265 9.22101C20.3923 9.22101 21.1607 10.145 21.1607 11.159C21.1607 12.375 20.1944 13.186 18.6397 13.186H16.9706V15.812H18.6132C20.2357 15.812 21.6306 16.447 21.6306 18.267C21.6306 19.619 20.4823 20.701 18.6365 20.701C17.285 20.701 16.1811 20.139 15.507 19.666L14.2666 22.119C15.3249 22.749 16.5865 23.311 18.8619 23.311C22.5545 23.311 25.0543 20.993 25.0543 18.2" fill="#1D1D1B"/>
</g>
</svg>
