<svg width="30" height="30" viewBox="0 0 30 30" fill="none" xmlns="http://www.w3.org/2000/svg">
<mask id="mask0_5_145" style="mask-type:luminance" maskUnits="userSpaceOnUse" x="0" y="0" width="30" height="30">
<path d="M30 0H0V30H30V0Z" fill="white"/>
</mask>
<g mask="url(#mask0_5_145)">
<path d="M0.000488301 14.999C0.000688301 12.033 0.880589 9.13302 2.52889 6.66602C4.17719 4.20002 6.51989 2.27803 9.26068 1.14303C12.0015 0.0070281 15.0174 -0.288976 17.9269 0.289024C20.8364 0.868024 23.509 2.29703 25.6066 4.39503C27.7042 6.49203 29.1327 9.16502 29.7113 12.075C30.29 14.984 29.9929 18 28.8576 20.741C27.7223 23.482 25.7998 25.824 23.3331 27.472C20.8665 29.12 17.9666 30 15 30C13.0302 30 11.0796 29.612 9.25969 28.858C7.43979 28.104 5.78619 26.999 4.39339 25.606C3.00059 24.213 1.89569 22.56 1.14199 20.74C0.388287 18.92 0.000388301 16.969 0.000488301 14.999Z" fill="#662483"/>
<path d="M11.6621 22.948V7.04803H8.89039C7.31449 8.24303 5.31109 9.30102 3.64319 9.99902L4.72589 12.433C5.78419 11.914 7.31449 11.216 8.28289 10.451V22.948H11.6621Z" fill="white"/>
<path fill-rule="evenodd" clip-rule="evenodd" d="M25.6223 19.638V17.16H23.7533V7.04901H19.609L13.4411 16.687V19.638H20.6017V22.947H23.7544V19.638H25.6223ZM20.6006 17.16H16.1652L19.4068 12.072C20.0418 11.081 20.4895 10.11 20.5561 9.84102H20.6006V17.16Z" fill="white"/>
</g>
</svg>
