<svg width="30" height="30" viewBox="0 0 30 30" fill="none" xmlns="http://www.w3.org/2000/svg">
<mask id="mask0_5_8" style="mask-type:luminance" maskUnits="userSpaceOnUse" x="0" y="0" width="30" height="30">
<path d="M30 0H0V30H30V0Z" fill="white"/>
</mask>
<g mask="url(#mask0_5_8)">
<path d="M0.000503559 14.9995C0.000703559 12.0329 0.8806 9.13299 2.5289 6.66649C4.1772 4.19999 6.5199 2.2776 9.2607 1.1425C12.0015 0.00740004 15.0174 -0.289504 17.9269 0.289396C20.836 0.868296 23.509 2.2969 25.607 4.3947C27.704 6.4924 29.133 9.1651 29.711 12.0747C30.29 14.9842 29.993 18.0001 28.858 20.7408C27.722 23.4815 25.8 25.8241 23.333 27.4722C20.867 29.1203 17.9666 30 15 30C13.0301 30 11.0796 29.612 9.2597 28.8581C7.4398 28.1043 5.7862 26.9993 4.3934 25.6064C3.0006 24.2134 1.8957 22.5598 1.142 20.7398C0.388298 18.9199 0.000403559 16.9693 0.000503559 14.9995Z" fill="#B90845"/>
<path d="M8.56649 22.9304V10.4424C7.59919 11.2075 6.06889 11.9504 5.01059 12.4225L3.92999 9.98829C5.59579 9.29199 7.5992 8.23469 9.174 7.04199H11.9425V22.9304H8.56649ZM18.9168 23.3125C17.0701 23.3125 15.653 22.9082 14.438 22.1653L15.7197 19.6899C16.5981 20.2974 17.4987 20.7027 18.7358 20.7027C19.973 20.7027 21.527 19.9619 21.527 18.0918C21.527 16.9436 20.761 15.3688 17.8363 15.3233C16.9357 15.3233 15.8784 15.3011 15.3598 15.3011L15.9948 7.0462H24.342V9.6973H18.6268L18.4025 12.7135C18.4924 12.7135 18.6946 12.7357 18.8523 12.7357C23.191 12.9379 24.951 15.391 24.951 17.7765C24.948 20.8149 22.543 23.3125 18.9168 23.3125Z" fill="white"/>
</g>
</svg>
