<svg width="30" height="30" viewBox="0 0 30 30" fill="none" xmlns="http://www.w3.org/2000/svg">
<mask id="mask0_5_14" style="mask-type:luminance" maskUnits="userSpaceOnUse" x="0" y="0" width="30" height="30">
<path d="M30 0H0V30H30V0Z" fill="white"/>
</mask>
<g mask="url(#mask0_5_14)">
<path fill-rule="evenodd" clip-rule="evenodd" d="M30 15C30 17.9667 29.12 20.8668 27.472 23.3336C25.824 25.8003 23.481 27.7229 20.74 28.8582C17.999 29.9935 14.983 30.2906 12.074 29.7118C9.164 29.133 6.491 27.7044 4.393 25.6066C2.296 23.5088 0.867006 20.8361 0.288006 17.9264C-0.290994 15.0166 0.00600207 12.0006 1.142 9.25975C2.277 6.51886 4.2 4.17618 6.666 2.52796C9.133 0.879735 12.033 3.73457e-08 15 3.73457e-08C16.97 -0.000138965 18.92 0.387753 20.74 1.14152C22.56 1.8953 24.214 3.00018 25.607 4.39309C27 5.78599 28.105 7.43964 28.858 9.25958C29.612 11.0795 30 13.0301 30 15Z" fill="#F3A4BA"/>
<path d="M8.38301 22.9313V10.4428C7.41501 11.2079 5.884 11.9509 4.826 12.4229L3.74701 9.98872C5.41101 9.29338 7.41501 8.23503 8.99601 7.04227H11.758V22.9313H8.38301ZM19.948 23.3144C15.609 23.3144 14.052 20.2981 14.052 16.0901C14.052 10.575 16.639 6.6147 21.726 6.6147C22.529 6.61348 23.329 6.70403 24.111 6.88458L23.616 9.58549C22.918 9.32806 22.178 9.20003 21.434 9.20766C19.206 9.20766 17.586 10.9857 17.36 14.1819C17.9 13.7088 18.935 13.1013 20.646 13.1013C23.278 13.1013 25.395 14.8349 25.395 17.8057C25.4 20.9733 23.284 23.3144 19.948 23.3144ZM19.63 15.5948C18.617 15.5948 17.808 15.9769 17.491 16.4722C17.312 16.7421 17.312 17.3728 17.312 17.848C17.312 19.3562 18.19 20.8188 19.809 20.8188C21.385 20.8188 22.196 19.5361 22.196 18.1634C22.199 16.6743 21.208 15.5948 19.633 15.5948H19.63Z" fill="#1D1D1B"/>
</g>
</svg>
