<svg width="30" height="30" viewBox="0 0 30 30" fill="none" xmlns="http://www.w3.org/2000/svg">
<mask id="mask0_5_20" style="mask-type:luminance" maskUnits="userSpaceOnUse" x="0" y="0" width="30" height="30">
<path d="M30 0H0V30H30V0Z" fill="white"/>
</mask>
<g mask="url(#mask0_5_20)">
<path fill-rule="evenodd" clip-rule="evenodd" d="M29.999 14.9995C29.999 17.9661 29.12 20.8661 27.472 23.3327C25.823 25.7994 23.481 27.7219 20.74 28.8572C17.999 29.9924 14.983 30.2895 12.074 29.7107C9.164 29.132 6.491 27.7034 4.394 25.6057C2.296 23.508 0.868004 20.8353 0.289004 17.9257C-0.289996 15.0161 0.00700068 12.0002 1.142 9.2594C2.278 6.5186 4.2 4.176 6.667 2.5279C9.133 0.879701 12.033 0 15 0C18.978 0 22.793 1.5803 25.606 4.3932C28.419 7.2062 29.999 11.0214 29.999 14.9995Z" fill="#D5C900"/>
<path d="M7.99299 22.9305V10.4424C7.02599 11.2076 5.49499 11.9505 4.43699 12.4225L3.35699 9.98841C5.02199 9.29091 7.02599 8.23262 8.60099 7.03992H11.369V22.9305H7.99299ZM19.176 22.9305H15.551C15.551 20.8382 16.114 19.4867 17.509 16.8981L21.378 9.69732H13.661V7.04202H24.774V9.63071C21.292 15.6842 19.176 20.4329 19.176 22.9305Z" fill="#1D1D1B"/>
</g>
</svg>
