<svg width="30" height="30" viewBox="0 0 30 30" fill="none" xmlns="http://www.w3.org/2000/svg">
<mask id="mask0_5_26" style="mask-type:luminance" maskUnits="userSpaceOnUse" x="0" y="0" width="30" height="30">
<path d="M30 0H0V30H30V0Z" fill="white"/>
</mask>
<g mask="url(#mask0_5_26)">
<path fill-rule="evenodd" clip-rule="evenodd" d="M30 15C30 17.9667 29.12 20.8668 27.472 23.3336C25.824 25.8003 23.481 27.7229 20.74 28.8582C17.999 29.9935 14.983 30.2906 12.074 29.7118C9.164 29.133 6.491 27.7044 4.393 25.6066C2.296 23.5088 0.867006 20.8361 0.288006 17.9264C-0.290994 15.0166 0.00600207 12.0006 1.142 9.2597C2.277 6.5189 4.2 4.1762 6.666 2.528C9.133 0.8797 12.033 1.933e-08 15 1.933e-08C16.97 -9.99807e-05 18.92 0.387799 20.74 1.1415C22.56 1.8953 24.214 3.0002 25.607 4.3931C27 5.786 28.105 7.4396 28.858 9.2596C29.612 11.0795 30 13.0301 30 15Z" fill="#00A88F"/>
<path d="M8.75401 22.9313V10.4428C7.78501 11.2079 6.25601 11.9509 5.19801 12.4229L4.117 9.99078C5.783 9.29338 7.78501 8.23497 9.36101 7.04227H12.129V22.9313H8.75401ZM19.891 23.3589C16.357 23.3589 14.355 21.2422 14.355 18.8355C14.355 16.7188 15.547 15.3916 17.078 14.6021C15.702 13.7469 14.85 12.6664 14.85 11.0238C14.85 8.39058 17.236 6.56708 19.958 6.56708C22.749 6.56708 25.067 7.94288 25.067 10.664C25.067 12.1456 24.303 13.4093 22.817 14.31C24.28 15.0074 25.562 16.3579 25.562 18.4513C25.562 21.4686 23.155 23.3589 19.891 23.3589ZM19.622 15.707C18.586 16.1123 17.551 17.2374 17.551 18.4756C17.551 19.7806 18.406 21.0157 19.936 21.0157C21.444 21.0157 22.277 19.9573 22.277 18.6968C22.277 17.2596 20.971 16.3822 19.622 15.707ZM20.003 8.86578C18.765 8.86578 17.977 9.62988 17.977 10.7338C17.977 12.0387 19.282 12.8505 20.295 13.2738C21.128 12.8918 22.029 11.8567 22.029 10.8661C22.03 9.76537 21.309 8.86578 20.003 8.86578Z" fill="white"/>
</g>
</svg>
