<svg width="30" height="30" viewBox="0 0 30 30" fill="none" xmlns="http://www.w3.org/2000/svg">
<mask id="mask0_5_72" style="mask-type:luminance" maskUnits="userSpaceOnUse" x="0" y="0" width="30" height="30">
<path d="M30 0H0V30H30V0Z" fill="white"/>
</mask>
<g mask="url(#mask0_5_72)">
<path d="M0 15C0 12.033 0.879735 9.13301 2.52796 6.66601C4.17618 4.20001 6.51886 2.27701 9.25975 1.14201C12.0006 0.00600767 15.0166 -0.290996 17.9264 0.288004C20.8361 0.867004 23.5088 2.29602 25.6066 4.39301C27.7044 6.49101 29.133 9.16401 29.7118 12.074C30.2906 14.983 29.9935 17.999 28.8582 20.74C27.7229 23.481 25.8003 25.824 23.3336 27.472C20.8668 29.12 17.9667 30 15 30C11.0218 30 7.20669 28.419 4.39371 25.606C1.58072 22.793 0.000280656 18.978 0 15Z" fill="#0064B0"/>
<path d="M20.532 22.946V20.289H13.9702C14.1724 19.365 15.7694 17.97 16.5801 17.226C18.4957 15.492 20.2304 14.208 20.2304 11.484C20.2304 8.24102 17.594 6.61603 14.8021 6.61603C12.6632 6.61603 11.2439 7.25103 9.71249 8.57503L11.3783 10.78C11.7625 10.357 12.7309 9.34003 14.13 9.34003C15.8636 9.34003 16.7622 10.488 16.7622 11.862C16.7622 13.393 15.6149 14.543 14.5576 15.46C12.4409 17.306 10.6153 18.995 10.2099 20.842V22.937L20.532 22.946Z" fill="white"/>
</g>
</svg>
