<svg width="30" height="30" viewBox="0 0 30 30" fill="none" xmlns="http://www.w3.org/2000/svg">
<mask id="mask0_5_78" style="mask-type:luminance" maskUnits="userSpaceOnUse" x="0" y="0" width="30" height="30">
<path d="M30 0H0V30H30V0Z" fill="white"/>
</mask>
<g mask="url(#mask0_5_78)">
<path d="M0 15C0 12.033 0.8797 9.13301 2.528 6.66601C4.1762 4.20001 6.5189 2.27701 9.2597 1.14201C12.0006 0.00600767 15.0166 -0.290996 17.9264 0.288004C20.8361 0.867004 23.5088 2.29602 25.6066 4.39301C27.7044 6.49101 29.133 9.16401 29.7118 12.074C30.2906 14.983 29.9935 17.999 28.8582 20.74C27.7229 23.481 25.8003 25.824 23.3336 27.472C20.8668 29.12 17.9667 30 15 30C11.0218 30 7.2064 28.42 4.3934 25.607C1.5804 22.794 0 18.978 0 15Z" fill="#9F9825"/>
<path d="M20.569 18.158C20.569 15.929 19.2408 14.578 17.4829 14.242V14.198C19.1763 13.568 20.0515 12.261 20.0515 10.617C20.0515 8.50103 18.2026 6.56403 14.9619 6.56403C12.9574 6.56403 11.4926 7.08103 10.1411 7.98203L11.2905 10.324C12.0976 9.58904 13.1492 9.18003 14.2412 9.17603C15.9081 9.17603 16.6754 10.099 16.6754 11.112C16.6754 12.329 15.7091 13.14 14.1544 13.14H12.4885V15.769H14.129C15.7504 15.769 17.1453 16.404 17.1453 18.224C17.1453 19.576 15.997 20.658 14.1512 20.658C12.7997 20.658 11.6958 20.095 11.0195 19.623L9.78131 22.077C10.8396 22.707 12.1012 23.269 14.3766 23.269C18.0682 23.269 20.569 20.951 20.569 18.157" fill="white"/>
</g>
</svg>
