<svg width="30" height="30" viewBox="0 0 30 30" fill="none" xmlns="http://www.w3.org/2000/svg">
<mask id="mask0_5_155" style="mask-type:luminance" maskUnits="userSpaceOnUse" x="0" y="0" width="30" height="30">
<path d="M30 0H0V30H30V0Z" fill="white"/>
</mask>
<g mask="url(#mask0_5_155)">
<path d="M0 15C0 12.033 0.88 9.13301 2.528 6.66601C4.176 4.20001 6.51899 2.27701 9.25999 1.14201C12.001 0.00600767 15.017 -0.290996 17.926 0.288004C20.836 0.867004 23.509 2.29602 25.607 4.39301C27.704 6.49101 29.133 9.16401 29.712 12.074C30.291 14.983 29.994 17.999 28.858 20.74C27.723 23.481 25.8 25.824 23.334 27.472C20.867 29.12 17.967 30 15 30C11.022 30 7.206 28.42 4.393 25.607C1.58 22.794 0 18.978 0 15Z" fill="#98D4E2"/>
<path fill-rule="evenodd" clip-rule="evenodd" d="M21.253 15.163C21.253 14.052 20.753 12.768 19.547 12.768C18.96 12.768 18.607 13.069 18.298 13.516V11.14H17.082V17.515H18.253V17.303C18.53 17.53 18.877 17.655 19.236 17.656C20.709 17.656 21.253 16.193 21.253 15.159M19.994 15.346C19.994 15.975 19.805 16.81 19.029 16.81C18.478 16.81 18.288 16.526 18.288 16.208V14.645C18.288 14.379 18.315 14.249 18.521 14.052C18.594 13.977 18.681 13.918 18.777 13.878C18.874 13.838 18.977 13.818 19.081 13.819C19.848 13.819 19.994 14.723 19.994 15.344M23.518 11.692C23.518 11.321 23.259 11.057 22.844 11.057C22.43 11.057 22.165 11.323 22.165 11.692C22.165 12.06 22.432 12.327 22.844 12.327C23.257 12.327 23.518 12.059 23.518 11.692ZM23.439 12.912H22.234V17.51H23.439V12.912Z" fill="#1D1D1B"/>
<path d="M27.746 16.136C27.746 15.369 27.28 15.016 26.626 14.775L26.222 14.628C25.997 14.551 25.679 14.417 25.679 14.137C25.679 13.926 25.826 13.681 26.314 13.681C26.643 13.688 26.963 13.783 27.243 13.956L27.614 13.07C27.231 12.872 26.806 12.769 26.374 12.768C25.297 12.768 24.564 13.457 24.564 14.327C24.564 14.999 24.961 15.352 25.557 15.584L25.935 15.73C26.186 15.825 26.614 15.942 26.614 16.29C26.614 16.652 26.228 16.764 25.909 16.764C25.524 16.755 25.15 16.635 24.831 16.419L24.461 17.307C24.875 17.537 25.341 17.658 25.815 17.661C27.021 17.661 27.744 17.026 27.744 16.136M15.387 18.091C15.387 15.863 14.06 14.511 12.304 14.176V14.131C13.998 13.502 14.871 12.195 14.871 10.553C14.871 8.43599 13.025 6.5 9.78301 6.5C7.77901 6.5 6.317 7.01801 4.964 7.91901L6.11401 10.259C6.92101 9.523 7.972 9.11299 9.064 9.10899C10.728 9.10899 11.498 10.033 11.498 11.046C11.498 12.261 10.531 13.073 8.97701 13.073H7.30301V15.705H8.95C10.571 15.705 11.967 16.34 11.967 18.159C11.967 19.51 10.82 20.593 8.97201 20.593C7.62201 20.593 6.51901 20.03 5.84401 19.557L4.604 22.014C5.662 22.642 6.92401 23.206 9.19701 23.206C12.89 23.206 15.387 20.889 15.387 18.097" fill="#1D1D1B"/>
</g>
</svg>
