<svg width="30" height="30" viewBox="0 0 30 30" fill="none"
    xmlns="http://www.w3.org/2000/svg">
    <mask id="mask0_5_84" style="mask-type:luminance" maskUnits="userSpaceOnUse" x="0" y="0" width="30" height="30">
        <path d="M30 0H0V30H30V0Z" fill="white"/>
    </mask>
    <g mask="url(#mask0_5_84)">
        <path d="M0 15C0 12.033 0.8798 9.13301 2.528 6.66601C4.1763 4.20001 6.519 2.27701 9.26 1.14201C12.0009 0.00600767 15.017 -0.290996 17.9267 0.288004C20.8365 0.867004 23.5092 2.29601 25.607 4.39401C27.7047 6.49201 29.1332 9.16501 29.7119 12.074C30.2906 14.984 29.9934 18 28.8579 20.741C27.7224 23.482 25.7997 25.824 23.3328 27.473C20.8659 29.121 17.9657 30 14.9989 30C11.0209 30 7.2058 28.419 4.393 25.606C1.5802 22.793 0 18.978 0 15Z" fill="#A0006E"/>
        <path fill-rule="evenodd" clip-rule="evenodd" d="M20.0123 19.615V17.138H18.1454V7.02698H13.9999L7.83179 16.665V19.615H14.9926V22.925H18.1465V19.615H20.0123ZM14.9915 17.138H10.556L13.7977 12.05C14.4327 11.059 14.8793 10.089 14.9471 9.81898H14.9915V17.138Z" fill="white"/>
    </g>
</svg>
