<svg width="30" height="30" viewBox="0 0 30 30" fill="none" xmlns="http://www.w3.org/2000/svg">
<mask id="mask0_5_90" style="mask-type:luminance" maskUnits="userSpaceOnUse" x="0" y="0" width="30" height="30">
<path d="M30 0H0V30H30V0Z" fill="white"/>
</mask>
<g mask="url(#mask0_5_90)">
<path d="M0 15C0 12.033 0.8797 9.13301 2.528 6.66601C4.1762 4.20001 6.5189 2.27701 9.2597 1.14201C12.001 0.00600767 15.017 -0.290996 17.926 0.288004C20.836 0.867004 23.509 2.29602 25.607 4.39301C27.704 6.49101 29.133 9.16401 29.712 12.074C30.291 14.983 29.994 17.999 28.858 20.74C27.723 23.481 25.8 25.824 23.334 27.472C20.867 29.12 17.967 30 15 30C11.022 30 7.2067 28.419 4.3937 25.606C1.5807 22.793 0.0003 18.978 0 15Z" fill="#F28E42"/>
<path d="M20.39 17.812C20.39 15.424 18.634 12.971 14.288 12.768C14.13 12.768 13.929 12.746 13.838 12.746L14.062 9.728H19.777V7.07001H11.43L10.795 15.334C11.315 15.334 12.373 15.357 13.274 15.357C16.2 15.402 16.966 16.979 16.966 18.127C16.966 19.996 15.414 20.74 14.176 20.74C12.937 20.74 12.036 20.334 11.157 19.727L9.87439 22.202C11.09 22.943 12.51 23.352 14.355 23.352C17.981 23.352 20.388 20.853 20.388 17.812" fill="#1D1D1B"/>
</g>
</svg>
