<svg width="30" height="30" viewBox="0 0 30 30" fill="none" xmlns="http://www.w3.org/2000/svg">
<mask id="mask0_5_96" style="mask-type:luminance" maskUnits="userSpaceOnUse" x="0" y="0" width="30" height="30">
<path d="M30 0H0V30H30V0Z" fill="white"/>
</mask>
<g mask="url(#mask0_5_96)">
<path d="M0 15C0 12.033 0.88 9.13301 2.528 6.66601C4.176 4.20001 6.51899 2.27701 9.25999 1.14201C12.001 0.00600767 15.017 -0.290996 17.926 0.288004C20.836 0.867004 23.509 2.29602 25.607 4.39301C27.704 6.49101 29.133 9.16401 29.712 12.074C30.291 14.983 29.994 17.999 28.858 20.74C27.723 23.481 25.8 25.824 23.334 27.472C20.867 29.12 17.967 30 15 30C11.022 30 7.206 28.42 4.393 25.607C1.58 22.794 0 18.978 0 15Z" fill="#83C491"/>
<path fill-rule="evenodd" clip-rule="evenodd" d="M20.411 17.871C20.411 14.898 18.295 13.166 15.659 13.166C13.947 13.166 12.908 13.773 12.372 14.244C12.598 11.047 14.218 9.27 16.448 9.27C17.371 9.27 18.205 9.47199 18.632 9.65199L19.128 6.95C18.344 6.77 17.543 6.67999 16.74 6.67999C11.651 6.67999 9.062 10.644 9.062 16.161C9.062 20.372 10.615 23.39 14.962 23.39C18.294 23.39 20.411 21.047 20.411 17.871ZM17.213 18.232C17.213 19.608 16.402 20.89 14.825 20.89C13.204 20.89 12.327 19.427 12.327 17.917C12.327 17.444 12.327 16.813 12.507 16.541C12.824 16.046 13.632 15.663 14.645 15.663C16.222 15.663 17.213 16.744 17.213 18.23" fill="#1D1D1B"/>
</g>
</svg>
