<svg width="30" height="30" viewBox="0 0 30 30" fill="none" xmlns="http://www.w3.org/2000/svg">
<mask id="mask0_5_102" style="mask-type:luminance" maskUnits="userSpaceOnUse" x="0" y="0" width="30" height="30">
<path d="M30 0H0V30H30V0Z" fill="white"/>
</mask>
<g mask="url(#mask0_5_102)">
<path d="M0 15C0 12.0333 0.88 9.13319 2.528 6.66645C4.176 4.19972 6.51899 2.27713 9.25999 1.14181C12.001 0.00649941 15.017 -0.290551 17.926 0.288228C20.836 0.867006 23.509 2.29562 25.607 4.3934C27.704 6.49119 29.133 9.16394 29.712 12.0737C30.291 14.9834 29.994 17.9994 28.858 20.7403C27.723 23.4811 25.8 25.8238 23.334 27.472C20.867 29.1203 17.967 30 15 30C11.022 29.9997 7.207 28.4193 4.394 25.6063C1.581 22.7933 0 18.9782 0 15Z" fill="#F3A4BA"/>
<path d="M20.762 9.65743V7.06659H9.636V9.72517H17.362L13.488 16.9336C12.092 19.5223 11.529 20.8738 11.529 22.9662H15.155C15.155 20.4674 17.271 15.7133 20.764 9.65743" fill="#1D1D1B"/>
</g>
</svg>
