<svg width="30" height="30" viewBox="0 0 30 30" fill="none" xmlns="http://www.w3.org/2000/svg">
<mask id="mask0_5_162" style="mask-type:luminance" maskUnits="userSpaceOnUse" x="0" y="0" width="30" height="30">
<path d="M30 0H0V30H30V0Z" fill="white"/>
</mask>
<g mask="url(#mask0_5_162)">
<path d="M0 15C0 12.033 0.88 9.13304 2.528 6.66704C4.176 4.20004 6.51899 2.27703 9.25999 1.14203C12 0.00703025 15.016 -0.290974 17.926 0.288026C20.836 0.867026 23.508 2.29504 25.606 4.39304C27.704 6.49104 29.133 9.16303 29.712 12.073C30.291 14.983 29.994 17.999 28.858 20.74C27.723 23.48 25.801 25.823 23.334 27.472C20.868 29.12 17.968 30 15.001 30C11.023 30 7.207 28.42 4.394 25.607C1.581 22.794 0 18.978 0 15Z" fill="#83C491"/>
<path d="M15.955 9.63702V7.04803H4.83501V9.70503H12.555L8.67799 16.908C7.28399 19.497 6.72099 20.846 6.72099 22.941H10.351C10.351 20.443 12.467 15.692 15.96 9.63702" fill="#1D1D1B"/>
<path fill-rule="evenodd" clip-rule="evenodd" d="M20.532 17.2911C20.532 16.1801 20.031 14.8961 18.826 14.8961C18.241 14.8961 17.888 15.1981 17.578 15.6461V13.2691H16.363V19.6431H17.535V19.4311C17.812 19.6621 18.16 19.7901 18.521 19.7911C19.992 19.7911 20.532 18.3271 20.532 17.2931M19.275 17.4741C19.275 18.1031 19.084 18.9391 18.309 18.9391C17.758 18.9391 17.569 18.6541 17.569 18.3361V16.7751C17.569 16.5071 17.594 16.3781 17.8 16.1801C17.873 16.1061 17.961 16.0471 18.057 16.0071C18.153 15.9671 18.256 15.9471 18.36 15.9471C19.127 15.9471 19.274 16.8521 19.274 17.4721M22.798 13.8201C22.798 13.4501 22.54 13.1851 22.126 13.1851C21.712 13.1851 21.445 13.4521 21.445 13.8201C21.445 14.1881 21.713 14.4551 22.126 14.4551C22.539 14.4551 22.798 14.1881 22.798 13.8201ZM22.721 15.0431H21.514V19.6411H22.721V15.0431Z" fill="#1D1D1B"/>
<path d="M27.026 18.264C27.026 17.498 26.561 17.145 25.906 16.904L25.506 16.757C25.282 16.68 24.963 16.545 24.963 16.266C24.963 16.059 25.11 15.81 25.598 15.81C25.927 15.817 26.248 15.912 26.529 16.085L26.899 15.198C26.515 15 26.09 14.897 25.659 14.896C24.582 14.896 23.85 15.586 23.85 16.455C23.85 17.127 24.247 17.481 24.841 17.714L25.219 17.86C25.469 17.954 25.9 18.071 25.9 18.42C25.9 18.78 25.513 18.893 25.194 18.893C24.809 18.884 24.435 18.765 24.117 18.549L23.747 19.436C24.159 19.666 24.623 19.788 25.096 19.791C26.302 19.791 27.026 19.161 27.026 18.266" fill="#1D1D1B"/>
</g>
</svg>
