<svg width="30" height="30" viewBox="0 0 30 30" fill="none" xmlns="http://www.w3.org/2000/svg">
<mask id="mask0_5_108" style="mask-type:luminance" maskUnits="userSpaceOnUse" x="0" y="0" width="30" height="30">
<path d="M30 0H0V30H30V0Z" fill="white"/>
</mask>
<g mask="url(#mask0_5_108)">
<path d="M0 15C0 12.0333 0.88 9.13323 2.528 6.66653C4.176 4.19973 6.51899 2.27713 9.25999 1.14183C12.001 0.00653005 15.017 -0.290569 17.926 0.288231C20.836 0.867031 23.509 2.29563 25.607 4.39343C27.704 6.49123 29.133 9.16393 29.712 12.0737C30.291 14.9834 29.994 17.9994 28.858 20.7403C27.723 23.4811 25.8 25.8238 23.334 27.472C20.867 29.1203 17.967 30 15 30C11.022 30 7.20601 28.4197 4.39301 25.6066C1.58001 22.7936 0 18.9783 0 15Z" fill="#CEADD2"/>
<path fill-rule="evenodd" clip-rule="evenodd" d="M20.676 18.5211C20.676 16.4256 19.393 15.0741 17.924 14.3788C19.411 13.476 20.176 12.2165 20.176 10.7285C20.176 8.00332 17.856 6.62952 15.062 6.62952C12.34 6.62952 9.952 8.45412 9.952 11.0894C9.952 12.7341 10.809 13.8147 12.182 14.6698C10.65 15.4572 9.45599 16.7865 9.45599 18.9032C9.45599 21.3131 11.461 23.4277 14.995 23.4277C18.261 23.4277 20.671 21.5374 20.671 18.5201M17.145 10.9349C17.145 11.9255 16.245 12.9616 15.41 13.3437C14.397 12.9204 13.092 12.1065 13.092 10.8037C13.092 9.69981 13.879 8.93462 15.117 8.93462C16.426 8.93462 17.145 9.83421 17.145 10.9391M17.393 18.7709C17.393 20.0325 16.56 21.0898 15.05 21.0898C13.519 21.0898 12.663 19.8525 12.663 18.5497C12.663 17.3104 13.698 16.1854 14.734 15.779C16.087 16.4552 17.393 17.3326 17.393 18.7751" fill="#1D1D1B"/>
</g>
</svg>
