<svg width="30" height="30" viewBox="0 0 30 30" fill="none" xmlns="http://www.w3.org/2000/svg">
<mask id="mask0_5_114" style="mask-type:luminance" maskUnits="userSpaceOnUse" x="0" y="0" width="30" height="30">
<path d="M30 0H0V30H30V0Z" fill="white"/>
</mask>
<g mask="url(#mask0_5_114)">
<path d="M0 15C0 12.0333 0.88 9.13323 2.528 6.66653C4.176 4.19973 6.51899 2.27713 9.25999 1.14183C12.001 0.00653005 15.017 -0.290569 17.926 0.288231C20.836 0.867031 23.509 2.29563 25.607 4.39343C27.704 6.49123 29.133 9.16393 29.712 12.0737C30.291 14.9834 29.994 17.9994 28.858 20.7403C27.723 23.4811 25.8 25.8238 23.334 27.472C20.867 29.1203 17.967 30 15 30C11.022 30 7.20601 28.4197 4.39301 25.6066C1.58001 22.7936 0 18.9783 0 15Z" fill="#D5C900"/>
<path fill-rule="evenodd" clip-rule="evenodd" d="M20.82 13.9057C20.82 9.69455 19.262 6.67615 14.923 6.67615C11.59 6.67615 9.47301 9.01824 9.47301 12.1943C9.47301 15.1672 11.59 16.9008 14.224 16.9008C15.937 16.9008 16.976 16.2933 17.513 15.8202C17.287 19.0175 15.666 20.7945 13.437 20.7945C12.691 20.8004 11.951 20.6705 11.251 20.4114L10.757 23.1144C11.539 23.297 12.339 23.3893 13.142 23.3896C18.23 23.3896 20.82 19.426 20.82 13.9089M17.554 12.152C17.554 12.6251 17.554 13.2548 17.374 13.5278C17.056 14.0232 16.248 14.4063 15.234 14.4063C13.659 14.4063 12.667 13.3246 12.667 11.8387C12.667 10.4629 13.479 9.18234 15.055 9.18234C16.675 9.18234 17.554 10.646 17.554 12.1541" fill="#1D1D1B"/>
</g>
</svg>
