<?xml version="1.0" encoding="UTF-8"?>
<!-- Generator: Adobe Illustrator 25.2.1, SVG Export Plug-In . SVG Version: 6.00 Build 0)  -->
<svg version="1.2" baseProfile="tiny" id="Calque_1" xmlns="http://www.w3.org/2000/svg" xmlns:xlink="http://www.w3.org/1999/xlink" x="0px" y="0px" viewBox="0 0 120 77" overflow="visible" xml:space="preserve"><rect y="38.5" fill-rule="evenodd" fill="#0055C8" width="120" height="38.5"/><rect fill-rule="evenodd" fill="#82C8E6" width="120" height="38.5"/><g> <path fill="#FFFFFF" d="M51.272438,66.0800934l-3.4235954-10.4257278H27.5419083L24.118309,66.0800934H12.1359825  L31.587616,11.071723h13.1488152l19.5294991,55.0083694H51.272438z M40.2242088,32.1571579  c-1.1672859-3.5017262-2.1012497-8.0139503-2.3345757-10.0370693h-0.1553268  c-0.2331924,2.023119-1.3224831,6.5353432-2.489769,10.0370693l-4.6682167,14.3933029h14.3161049L40.2242088,32.1571579z"/> <path fill="#FFFFFF" d="M83.8358841,67.4032364c-6.5354767,0-11.8256683-1.8677902-15.4053879-3.657589l3.3457336-9.4925575  c3.03508,1.8679237,8.0926132,3.5797234,12.6834946,3.5797234c5.134201,0,9.0245819-2.0224533,9.0245819-6.613472  c0-4.0462379-3.8903809-5.7580376-7.0799866-7.0799866l-4.0450439-1.7117996  c-7.3153076-3.1130753-13.0721512-7.0806541-13.0721512-16.1058998c0-9.4924259,7.7806244-16.6505432,19.8402863-16.6505432  c4.9015427,0,10.5037231,0.8559656,15.0166092,3.1124096l-3.5797272,9.2585697  c-3.189743-1.86726-7.1566544-3.0344143-11.436882-3.0344143c-6.3808136,0-8.0134201,3.6569233-8.0134201,6.0686951  c0,3.8123837,3.8110504,5.4468517,6.9241333,6.846796l4.0462341,1.7897949  c7.0801239,3.1124115,13.3048096,7.0026588,13.3048096,15.7945786  C105.3891678,62.5783615,95.1181107,67.4032364,83.8358841,67.4032364z"/></g></svg>