<svg width="30" height="30" viewBox="0 0 30 30" fill="none" xmlns="http://www.w3.org/2000/svg">
<mask id="mask0_5_316" style="mask-type:luminance" maskUnits="userSpaceOnUse" x="0" y="0" width="30" height="30">
<path d="M30 0H0V30H30V0Z" fill="white"/>
</mask>
<g mask="url(#mask0_5_316)">
<path d="M23.25 0H6.75C3.022 0 0 3.022 0 6.75V23.25C0 26.978 3.022 30 6.75 30H23.25C26.978 30 30 26.978 30 23.25V6.75C30 3.022 26.978 0 23.25 0Z" fill="#5291CE"/>
<path d="M14.629 22.931H8.845V7.04199H14.877C17.848 7.04199 20.639 7.85199 20.639 11.07C20.639 12.714 19.333 13.951 18.099 14.177V14.221C19.764 14.446 21.161 15.751 21.161 18.003C21.156 22.014 17.645 22.931 14.629 22.931ZM14.089 9.70198H12.356V13.348H14.133C15.979 13.348 17.195 13.056 17.195 11.549C17.195 10.081 16.114 9.69798 14.089 9.69798V9.70198ZM14.246 15.869H12.356V20.302H14.426C16.654 20.302 17.532 19.605 17.532 17.917C17.532 16.157 15.845 15.865 14.246 15.865V15.869Z" fill="white"/>
</g>
</svg>
