<svg xmlns="http://www.w3.org/2000/svg" width="120" height="77" viewBox="0 0 126 81"><path d="M120 61.342V0H83.514c-4.465 1.222-8.494 2.553-11.977 5.018-4.598 3.252-8.248 7.702-10.709 13.453-2.059 4.793-3.652 10.586-4.627 14.579l-.003.003c-.122.692-.492 2.316-.904 4.048 12.552 7.737 19.484 19.839 20.621 29.905.285-.066.568-.119.865-.196 7.933-2.003 20.568-5.462 43.22-5.468z" fill="#a8c855"/><path d="M54.581 36.665C72.45 47.265 79.298 66.769 74.688 77H0V26.989c23.505-2.38 34.417-.825 50.475 7.317l2.316 5.914 1.79-3.555z" fill="#0063ac"/><path d="M97.586 62.331c-10.584 1.297-21.625 4.401-21.625 4.401l-.006.006c.434 3.833.031 7.379-1.225 10.262h-.01H120V61.077s-11.129-.13-22.414 1.254z" fill="#f7af4c"/><path d="M0 0v26.986c23.506-2.38 34.417-.825 50.476 7.317l2.316 5.914 1.789-3.555c.243.143.475.293.708.438.412-1.731.782-3.356.904-4.048l.003-.003c.975-3.993 2.568-9.786 4.627-14.579 2.461-5.751 6.112-10.201 10.709-13.453C75.016 2.553 79.045 1.222 83.51 0H0z" fill="#d2007a"/><path d="M20.611 26.793h1.085v-1.441h-.773c-.705 0-.948-.332-.948-.978V10.969h-1.757v13.505c-.001 1.243.723 2.319 2.393 2.319zm4.512-4.887c-1.996 0-3.013 1.01-3.013 2.42 0 .711.24 1.358.69 1.804.533.515 1.256.763 2.34.763 1.085 0 1.688-.248 2.329-.862v.763h1.718v-5.617c0-1.906-1.206-2.882-3.596-2.882-1.449 0-2.312.282-3.135 1.208l1.152 1.046c.48-.597.945-.812 1.911-.812 1.362 0 1.913.512 1.913 1.573v.596h-2.309zm2.31 1.857c0 .596-.121.993-.379 1.241-.468.431-.966.48-1.635.48-1.108 0-1.606-.429-1.606-1.192 0-.763.534-1.21 1.567-1.21h2.053v.681zm5.528 9.599v-1.01H30.49v10.519h2.523V36.53c0-1.332.856-1.937 1.636-1.937.622 0 .953.221 1.339.626l1.907-2c-.699-.728-1.397-.99-2.394-.99-1.085.001-2.06.527-2.54 1.133zm-16.754-2.363h6.722v11.873h2.701V30.999h3.617v-2.503h-13.04v2.503zm66.221 5.471l-1.594-.162c-.896-.08-1.051-.526-1.051-.908 0-.526.426-1.01 1.439-1.01.877 0 1.77.162 2.352.708l1.557-1.635c-.973-.951-2.297-1.232-3.867-1.232-2.061 0-3.91 1.172-3.91 3.352 0 1.938 1.129 2.765 2.953 2.947l1.598.162c.793.08 1.066.444 1.066.969 0 .788-.912 1.09-1.787 1.09-.777 0-1.869-.119-2.701-.988l-1.652 1.715c1.283 1.334 2.723 1.515 4.316 1.515 2.391 0 4.295-1.11 4.295-3.432-.001-1.779-1.01-2.888-3.014-3.091zm-10.787-3.108v-1.01h-2.469v10.519h2.523V36.53c0-1.332.859-1.937 1.637-1.937.621 0 .953.221 1.338.626l1.908-2c-.703-.728-1.398-.99-2.395-.99-1.085.001-2.058.527-2.542 1.133zm20.119 7.409c-1.418 0-2.219-.99-2.219-2.344h6.34v-1.17c0-2.887-1.594-5.027-4.414-5.027-2.621 0-4.41 1.938-4.41 5.371 0 4.257 2.291 5.369 4.682 5.369h5.635v-2.199H91.76zM89.93 35.5c.27-.625.834-1.088 1.691-1.088.854 0 1.418.463 1.688 1.088.158.385.217.668.238 1.133h-3.852c.018-.466.076-.748.235-1.133zM83.521 0H75.76c-9.213 4.59-14.568 10.814-17.483 16.905-3.226 6.726-5.143 16.48-5.83 20.495l-.003.001-1.603-5.049h-2.66l3.729 10.519h1.982s2.002-7.997 2.316-9.787l-.023.022c.971-3.995 2.57-9.82 4.642-14.635C63.288 12.72 66.939 8.27 71.536 5.018 75.023 2.548 79.055 1.222 83.521 0zM42.482 32.23c-1.688 0-2.66.325-3.655 1.453l1.611 1.635c.527-.626.978-.866 1.949-.866 1.342 0 1.884.503 1.884 1.654v.526h-2.394c-2.349 0-3.457 1.372-3.457 3.047 0 .928.293 1.775.839 2.362.598.625 1.437.927 2.583.927 1.167 0 1.807-.302 2.488-1.007v.909h2.471v-6.924c0-2.464-1.481-3.716-4.319-3.716zm1.789 6.764c0 .646-.095 1.07-.37 1.331-.444.446-.892.503-1.591.503-.995 0-1.46-.48-1.46-1.208 0-.748.506-1.192 1.422-1.192h1.999v.566zm18.153-6.764c-2.625 0-4.411 1.938-4.411 5.371 0 4.257 2.29 5.39 4.684 5.39 1.828 0 2.82-.587 3.85-1.655l-1.539-1.555c-.641.667-1.186.99-2.293.99-1.416 0-2.216-.99-2.216-2.344h6.339v-1.17c0-2.886-1.594-5.027-4.414-5.027zm-1.925 4.403c.021-.465.083-.748.237-1.133.272-.625.834-1.088 1.688-1.088.855 0 1.422.463 1.695 1.088.154.385.213.668.23 1.133h-3.85z" fill="#fff"/><g><g fill="#fff"><path d="M12.478 58.235H9.369v-7.428h2.982c1.451 0 2.297.815 2.297 2.088 0 .823-.545 1.354-.918 1.532.448.21 1.022.68 1.022 1.668.001 1.389-.949 2.14-2.274 2.14zm-.24-6.133H10.82v1.712h1.418c.614 0 .959-.344.959-.856 0-.513-.344-.856-.959-.856zm.092 3.015h-1.51v1.825h1.51c.66 0 .972-.417.972-.919 0-.498-.312-.906-.972-.906zM16.578 51.873v-1.106h1.386v1.106h-1.386zm.021 6.362V52.8h1.354v5.435h-1.354zM21 55.941c0 .699.428 1.209 1.188 1.209.595 0 .887-.166 1.232-.51l.822.803c-.552.553-1.084.855-2.063.855-1.283 0-2.515-.584-2.515-2.784 0-1.774.958-2.777 2.366-2.777 1.514 0 2.37 1.107 2.37 2.601v.604H21zm.729-4.005l-1.188-1.774h1.429l.669 1.774h-.91zm1.21 2.492c-.146-.322-.447-.564-.908-.564-.457 0-.758.242-.906.564a1.557 1.557 0 0 0-.125.585h2.065a1.48 1.48 0 0 0-.126-.585zM28.364 58.235H27.3L25.298 52.8h1.428l1.106 3.357 1.096-3.357h1.43l-1.994 5.435zM34.581 54.283c-.21-.209-.387-.324-.719-.324-.418 0-.877.313-.877 1.002v3.274H31.63V52.8h1.323v.521c.263-.312.783-.585 1.368-.585.531 0 .906.138 1.281.513l-1.021 1.034zM37.586 55.941c0 .699.427 1.209 1.188 1.209.594 0 .886-.166 1.229-.51l.825.803c-.552.553-1.085.855-2.065.855-1.283 0-2.515-.584-2.515-2.784 0-1.774.962-2.777 2.368-2.777 1.516 0 2.368 1.107 2.368 2.601v.604h-3.398zm1.939-1.513c-.145-.322-.45-.564-.908-.564-.457 0-.76.242-.907.564a1.483 1.483 0 0 0-.124.585h2.063a1.446 1.446 0 0 0-.124-.585zM14.648 69.848v-4.33l-1.42 2.816h-.98l-1.428-2.816v4.33H9.369V62.42h1.428l1.941 4.014 1.931-4.014h1.428v7.428h-1.449zM21.949 69.24c-.334.355-.888.67-1.689.67-.803 0-1.346-.314-1.679-.67-.491-.509-.617-1.126-.617-2.117 0-.979.126-1.596.617-2.106.333-.354.876-.667 1.679-.667.802 0 1.355.313 1.689.667.49.511.614 1.128.614 2.106 0 .991-.124 1.608-.614 2.117zm-1.053-3.429c-.158-.158-.366-.24-.637-.24s-.469.082-.626.24c-.282.281-.314.75-.314 1.313 0 .564.032 1.045.314 1.326.157.155.354.239.626.239.271 0 .479-.084.637-.239.28-.281.314-.762.314-1.326.001-.563-.033-1.032-.314-1.313zM27.488 69.848v-3.287c0-.74-.47-.99-.897-.99-.427 0-.906.25-.906.99v3.287H24.33v-5.436h1.324v.502a1.85 1.85 0 0 1 1.355-.564c.542 0 .98.177 1.283.479.437.438.552.949.552 1.543v3.476h-1.356zM32.475 69.848c-1.106 0-1.575-.784-1.575-1.557v-2.689h-.573V64.57h.573v-1.608h1.357v1.608h.959v1.032h-.959v2.608c0 .312.146.489.47.489h.489v1.148h-.741zM36.7 69.91c-.855 0-1.629-.096-2.315-.783l.886-.887c.447.448 1.032.512 1.448.512.47 0 .961-.156.961-.564 0-.27-.147-.457-.574-.5l-.856-.084c-.979-.094-1.585-.52-1.585-1.523 0-1.127.992-1.73 2.098-1.73.846 0 1.555.145 2.074.637l-.832.844c-.313-.281-.793-.365-1.263-.365-.542 0-.772.25-.772.523 0 .197.083.427.563.468l.856.085c1.073.103 1.617.678 1.617 1.594-.001 1.199-1.024 1.773-2.306 1.773zM44.368 69.24c-.337.355-.891.67-1.691.67-.804 0-1.347-.314-1.681-.67-.488-.509-.614-1.126-.614-2.117 0-.979.126-1.596.614-2.106.334-.354.877-.667 1.681-.667.801 0 1.354.313 1.691.667.49.511.614 1.128.614 2.106 0 .991-.124 1.608-.614 2.117zm-1.054-3.429c-.158-.158-.368-.24-.638-.24-.272 0-.469.082-.626.24-.282.281-.313.75-.313 1.313 0 .564.031 1.045.313 1.326.157.155.354.239.626.239.27 0 .479-.084.638-.239.278-.281.312-.762.312-1.326 0-.563-.033-1.032-.312-1.313zM49.872 69.848v-.5a1.854 1.854 0 0 1-1.355.563c-.54 0-.977-.178-1.284-.482-.437-.437-.549-.947-.549-1.543v-3.473h1.355v3.285c0 .742.469.991.895.991.431 0 .909-.249.909-.991v-3.285h1.358v5.436h-1.329zM56.145 65.893c-.207-.209-.384-.322-.721-.322-.416 0-.877.312-.877 1.001v3.276h-1.355v-5.436h1.323v.521c.263-.313.785-.584 1.37-.584.531 0 .906.136 1.281.512l-1.021 1.032zM58.386 63.482v-1.105h1.388v1.105h-1.388zm.02 6.366v-5.436h1.358v5.436h-1.358zM63.529 69.91c-.854 0-1.627-.096-2.318-.783l.892-.887c.443.448 1.028.512 1.447.512.47 0 .963-.156.963-.564 0-.27-.147-.457-.576-.5l-.856-.084c-.978-.094-1.585-.52-1.585-1.523 0-1.127.992-1.73 2.096-1.73.845 0 1.554.145 2.076.637l-.836.844c-.313-.281-.791-.365-1.264-.365-.537 0-.768.25-.768.523 0 .197.083.427.562.468l.855.085c1.075.103 1.618.678 1.618 1.594 0 1.199-1.022 1.773-2.306 1.773z"/></g></g></svg>