<svg width="30" height="30" viewBox="0 0 30 30" fill="none" xmlns="http://www.w3.org/2000/svg">
<mask id="mask0_5_430" style="mask-type:luminance" maskUnits="userSpaceOnUse" x="0" y="0" width="30" height="30">
<path d="M30 0H0V30H30V0Z" fill="white"/>
</mask>
<g mask="url(#mask0_5_430)">
<path d="M23.25 0H6.75C3.022 0 0 3.022 0 6.75V23.25C0 26.978 3.022 30 6.75 30H23.25C26.978 30 30 26.978 30 23.25V6.75C30 3.022 26.978 0 23.25 0Z" fill="#FFCE00"/>
<path d="M15.692 23.313C11.663 23.313 7.815 20.658 7.815 15.164C7.815 10.416 10.582 6.61301 15.692 6.61301C17.65 6.61301 19.091 7.017 20.238 7.535L19.091 10.441C18.108 9.88999 17.002 9.59601 15.875 9.58501C13.441 9.58501 11.465 11.184 11.465 15.01C11.465 18.656 13.851 20.344 16.146 20.344C17.262 20.345 18.358 20.05 19.321 19.487L20.266 22.212C19.05 22.86 17.311 23.313 15.692 23.313Z" fill="#1D1D1B"/>
</g>
</svg>
