<svg width="80" height="25" viewBox="0 0 80 25" fill="none" xmlns="http://www.w3.org/2000/svg"><path d="M0 12.5C0 5.87258 5.37258 0.5 12 0.5H68C74.6274 0.5 80 5.87258 80 12.5C80 19.1274 74.6274 24.5 68 24.5H12C5.37258 24.5 0 19.1274 0 12.5Z" fill="#0055C8"/><path d="M38.52 5.53998H53.48C53.7672 5.53998 54 5.30715 54 5.02004C54 4.73283 53.7672 4.5 53.48 4.5H38.52C38.2328 4.5 38 4.73283 38 5.02004C38 5.30715 38.2328 5.53998 38.52 5.53998Z" fill="white"/><path d="M38.52 20.4999H53.48C53.7672 20.4999 54 20.2671 54 19.9799C54 19.6927 53.7672 19.46 53.48 19.46H38.52C38.2328 19.46 38 19.6927 38 19.9799C38 20.2671 38.2328 20.4999 38.52 20.4999Z" fill="white"/><path d="M52.1762 17.812H39.5999V17.14H52.1762C52.2999 17.14 52.4002 17.2403 52.4002 17.364V17.588C52.4002 17.7117 52.2999 17.812 52.1762 17.812Z" fill="white"/><path fill-rule="evenodd" clip-rule="evenodd" d="M50.7725 10.6068C51.6898 11.609 52.2529 12.8513 52.4007 14.1995C52.418 14.3575 52.4032 14.5811 52.3665 14.7248C52.0999 15.77 51.1596 16.5 50.0801 16.5H39.6001V14.1L41.9678 14.1C42.0296 14.1 42.0798 14.0499 42.0798 13.988V10.932C42.0798 10.8702 42.0296 10.82 41.9678 10.82L39.5996 10.82V10.0999H43.4011L44.8254 8.92935L43.0333 7.45704C42.9562 7.39366 42.945 7.27969 43.0084 7.20253L43.1239 7.06198C43.1875 6.98462 43.3017 6.97343 43.3791 7.03698L45.4265 8.7191C45.4893 8.7708 45.5258 8.84791 45.5259 8.92929C45.5259 9.01062 45.4894 9.08779 45.4265 9.13943L44.2578 10.0999H49.6216C50.0581 10.0999 50.4777 10.2847 50.7725 10.6068ZM44.368 15.78C44.4298 15.78 44.4799 15.7299 44.4799 15.668V10.932C44.4799 10.8702 44.4298 10.82 44.368 10.82H42.9118C42.8499 10.82 42.7998 10.8702 42.7998 10.932V15.668C42.7998 15.7299 42.8499 15.78 42.9118 15.78H44.368ZM46.768 15.78C46.8299 15.78 46.8801 15.7299 46.8801 15.668V10.932C46.8801 10.8702 46.8299 10.82 46.768 10.82H45.3119C45.2501 10.82 45.1999 10.8702 45.1999 10.932V15.668C45.1999 15.7299 45.2501 15.78 45.3119 15.78H46.768ZM47.7121 14.1L50.9748 14.1C51.3437 14.1 51.6134 13.7489 51.5157 13.3931C51.281 12.5385 50.8474 11.7534 50.2369 11.0881C50.0791 10.9161 49.855 10.82 49.6216 10.82L47.7121 10.82C47.6502 10.82 47.6 10.8702 47.6 10.932V13.988C47.6 14.0499 47.6502 14.1 47.7121 14.1Z" fill="white"/><path d="M56.8 6.9H71.2C71.6418 6.9 72 6.54183 72 6.1V5.3C72 4.85817 71.6418 4.5 71.2 4.5H56.8C56.3582 4.5 56 4.85817 56 5.3V6.1C56 6.54183 56.3582 6.9 56.8 6.9Z" fill="white"/><path d="M72 19.7V18.9C72 18.4582 71.6418 18.1 71.2 18.1H56.8C56.3582 18.1 56 18.4582 56 18.9V19.7C56 20.1418 56.3582 20.5 56.8 20.5H71.2C71.6418 20.5 72 20.1418 72 19.7Z" fill="white"/><path d="M62.4909 15.6175V10.5629H64.3851V9.45394H59.2342V10.5629H61.1289V15.6175H62.4909Z" fill="white"/><path d="M67.4564 15.6175V10.7723C67.081 11.069 66.4872 11.3571 66.0768 11.5405L65.6579 10.5975C66.3038 10.3269 67.081 9.91696 67.6919 9.45394H68.7657V15.6175H67.4564Z" fill="white"/><path d="M33.9641 14.4128L34 15.0624L33.9811 15.4929L33.9282 15.8914L33.8187 16.2917L33.7111 16.6637L33.5109 16.9809L33.3202 17.3133L33.1125 17.6022L32.8198 17.8552L32.5573 18.0931L32.2514 18.2933L31.9153 18.4727L31.5603 18.62L31.2091 18.737L30.8182 18.8164L30.4179 18.8749L30.01 18.8994L29.3661 18.856L28.7335 18.737L28.1538 18.586L27.6931 18.3934L27.3098 18.1857L27.1474 18.0535L27.0378 17.9043L26.9472 17.74L26.9113 17.5512V17.3133L26.9925 17.0338L27.0756 16.7864L27.1832 16.5617L27.289 16.388L27.4457 16.2577L27.6006 16.169L27.7724 16.1369L27.999 16.1595L28.2237 16.235L28.5881 16.388L29.0413 16.5315L29.5304 16.6335L30.01 16.6807L30.3178 16.6769L30.6105 16.6108L30.8805 16.5126L31.1355 16.388L31.3337 16.2048L31.498 15.9971L31.5962 15.729L31.6434 15.4193L31.617 15.1852L31.5603 14.9529L31.4716 14.732L31.3526 14.5318L31.2091 14.3505L31.0259 14.1919L30.5897 13.8936L29.5946 13.3233L29.0508 12.9872L28.607 12.6605L28.2067 12.2809L27.8706 11.8844L27.6081 11.4274L27.4268 10.9365L27.289 10.3719L27.2569 9.7544L27.2625 9.34464L27.3286 8.93866L27.4268 8.57988L27.5628 8.23055L27.7176 7.89632L27.9008 7.61118L28.1349 7.32605L28.388 7.08435L28.6523 6.8502L28.9507 6.6727L29.266 6.49142L29.6022 6.35924L29.9572 6.2535L30.3178 6.16286L30.7106 6.1232L31.0977 6.10999L31.6528 6.14775L32.2231 6.23084L32.7216 6.35924L33.1559 6.55751L33.5109 6.76334L33.6469 6.88985L33.7545 7.01826L33.8187 7.18443L33.8546 7.37892L33.8357 7.59608L33.7829 7.85666L33.7111 8.10403L33.611 8.3023L33.4826 8.48169L33.3561 8.61198L33.1918 8.70829L32.9935 8.73472L32.8028 8.70829L32.5875 8.63087L31.8681 8.35895L31.4716 8.25132L31.0448 8.21355L30.7559 8.23055L30.4651 8.3023L30.2366 8.41182L30.01 8.55722L29.8476 8.73472L29.7287 8.93866L29.6569 9.1747L29.6135 9.43717L29.6305 9.66188L29.7022 9.89414L29.7948 10.0886L29.9458 10.2661L30.1177 10.4455L30.2838 10.6022L30.7106 10.8836L31.6793 11.4048L32.14 11.6956L32.5951 12.026L32.9935 12.4037L33.3372 12.8323L33.611 13.3006L33.8187 13.8256L33.9641 14.4128Z" fill="white"/><path d="M25.8142 7.14477V14.5998L25.7953 15.1304L25.7406 15.6308L25.6518 16.0764L25.514 16.49L25.3516 16.8903L25.1798 17.2415L24.9418 17.5512L24.7077 17.8363L24.4169 18.0931L24.1091 18.2933L23.7824 18.4727L23.4199 18.6389L23.0479 18.737L22.6589 18.8428L22.2227 18.8749L21.7959 18.8994L21.2993 18.8749L20.8197 18.8428L20.4005 18.737L20.0039 18.6389L19.6206 18.4935L19.2769 18.3084L18.9673 18.0931L18.7067 17.8363L18.4423 17.5587L18.2346 17.2415L18.0533 16.8903L17.8909 16.49L17.772 16.0764L17.6908 15.6006L17.6266 15.1172L17.619 14.5677V7.14477L17.6643 6.92573L17.7266 6.72746L17.8362 6.55751L17.991 6.43666L18.1817 6.3328L18.3894 6.2535L18.6236 6.19685H19.1051L19.3241 6.2535L19.5319 6.3328L19.7131 6.43666L19.8944 6.55751L20.0209 6.72746L20.0832 6.92573L20.1191 7.14477V14.3014L20.1399 14.8264L20.2381 15.2909L20.357 15.7158L20.5459 16.0594L20.7536 16.3276L21.0444 16.5315L21.3805 16.6335L21.7959 16.6807L22.1868 16.6335L22.5324 16.5126L22.7948 16.3144L23.0309 16.0406L23.1933 15.7007L23.3028 15.272L23.3745 14.8264L23.384 14.3014V7.14477L23.4199 6.92573L23.5029 6.72746L23.6087 6.55751L23.7749 6.43666L23.9561 6.3328L24.1544 6.2535L24.364 6.19685H24.8172L25.0344 6.2535L25.2232 6.3328L25.4347 6.43666L25.5763 6.55751L25.6953 6.72746L25.7765 6.92573L25.8142 7.14477Z" fill="white"/><path fill-rule="evenodd" clip-rule="evenodd" d="M16.0857 14.7924L16.097 15.1493L16.0857 15.6308L16.0045 16.0406L15.9233 16.439L15.7855 16.8015L15.6401 17.1301L15.4323 17.4247L15.1888 17.6928L14.964 17.9043L14.6903 18.1271L14.3994 18.2933L14.1011 18.4387L13.7744 18.5577L13.4383 18.6389L13.0852 18.7068L12.3884 18.7673H9.20662L8.98003 18.737L8.77043 18.6879L8.56271 18.62L8.38144 18.5256L8.21716 18.3877L8.10008 18.2178L8.01889 18.0365L8 17.8231V7.27507L8.01889 7.07302L8.05477 6.88985L8.13596 6.69913L8.24548 6.55751L8.39844 6.414L8.56271 6.3328L8.76098 6.2535L8.9687 6.23084H12.3337L12.9964 6.29315L13.629 6.414L13.9387 6.52352L14.2389 6.65193L14.5014 6.81621L14.7714 6.99182L15.0056 7.19576L15.2152 7.42047L15.3965 7.67161L15.5608 7.94352L15.7062 8.25132L15.7855 8.57988L15.8421 8.92544L15.8591 9.3031L15.8327 9.84126L15.6967 10.3228L15.4984 10.7571L15.2152 11.114L14.9338 11.4482L14.5807 11.7163L14.2389 11.9637L13.9009 12.1355V12.1884L14.2389 12.2677L14.5713 12.4037L14.9338 12.6473L15.2964 12.9362L15.5985 13.3403L15.7326 13.5669L15.8591 13.8482L15.9497 14.1126L16.0328 14.4412L16.0857 14.7924ZM13.3193 10.2907L13.3571 9.89414L13.3193 9.46549L13.2042 9.12371L13.0134 8.85368L12.7604 8.64975L12.4507 8.48169L12.1146 8.38161L11.7521 8.32307L11.3631 8.3023H10.4208V11.4614H11.3631L11.7351 11.4482L12.0995 11.3765L12.4413 11.2707L12.7491 11.114L12.9964 10.9006L13.2042 10.6306L13.3193 10.2907ZM13.6838 15.3098L13.7197 14.8811L13.6932 14.6413L13.6649 14.4128L13.6101 14.2013L13.5271 14.022L13.4119 13.8539L13.2835 13.7274L13.0134 13.4989L12.6792 13.3535L12.3337 13.2459L11.9692 13.1854L11.6255 13.1722H10.5473V16.6807H11.6255L12.1146 16.6637L12.5414 16.5863L12.9039 16.439L13.2136 16.235L13.4383 15.9971L13.6026 15.6742L13.6838 15.3098Z" fill="white"/><script xmlns=""/></svg>