<svg width="30" height="30" viewBox="0 0 30 30" fill="none" xmlns="http://www.w3.org/2000/svg">
<mask id="mask0_12_837" style="mask-type:luminance" maskUnits="userSpaceOnUse" x="0" y="0" width="30" height="30">
<path d="M30 0H0V30H30V0Z" fill="white"/>
</mask>
<g mask="url(#mask0_12_837)">
<path d="M2.728 0H27.273C27.996 0 28.69 0.286996 29.201 0.798996C29.713 1.31 30 2.00401 30 2.72701V27.272C30 27.63 29.929 27.985 29.792 28.316C29.655 28.647 29.454 28.948 29.201 29.201C28.948 29.454 28.647 29.655 28.316 29.792C27.985 29.929 27.63 30 27.272 30H2.728C2.37 30 2.015 29.929 1.684 29.792C1.353 29.655 1.052 29.454 0.799004 29.201C0.546004 28.948 0.345 28.647 0.208 28.316C0.0710002 27.985 0 27.63 0 27.272V2.728C0 2.004 0.287004 1.311 0.799004 0.798996C1.311 0.286996 2.004 0 2.728 0Z" fill="white"/>
<path d="M27.272 5.43999H2.728C2.549 5.43999 2.371 5.40499 2.206 5.33699C2.04 5.26799 1.89 5.16799 1.763 5.04099C1.636 4.91499 1.536 4.76398 1.467 4.59898C1.399 4.43298 1.363 4.25598 1.363 4.07698V2.71298C1.363 2.53398 1.398 2.35599 1.466 2.18999C1.535 2.02399 1.635 1.87298 1.762 1.74698C1.889 1.61998 2.039 1.51898 2.205 1.44998C2.371 1.38198 2.549 1.34698 2.728 1.34698H27.272C27.451 1.34698 27.629 1.38199 27.795 1.45099C27.96 1.51899 28.111 1.61998 28.238 1.74698C28.365 1.87398 28.465 2.02399 28.534 2.18999C28.602 2.35599 28.637 2.53398 28.637 2.71298V4.07698C28.637 4.25598 28.602 4.43398 28.533 4.59898C28.464 4.76498 28.364 4.91499 28.237 5.04199C28.11 5.16899 27.96 5.26899 27.794 5.33699C27.629 5.40599 27.451 5.43999 27.272 5.43999ZM28.637 27.259V25.895C28.636 25.534 28.491 25.188 28.235 24.933C27.98 24.678 27.633 24.535 27.272 24.535H2.728C2.366 24.535 2.019 24.679 1.764 24.934C1.508 25.19 1.364 25.536 1.363 25.898V27.262C1.363 27.441 1.398 27.619 1.467 27.784C1.536 27.95 1.636 28.1 1.763 28.226C1.89 28.353 2.04 28.453 2.206 28.522C2.371 28.59 2.549 28.625 2.728 28.625H27.272C27.451 28.625 27.629 28.59 27.795 28.521C27.96 28.452 28.111 28.352 28.238 28.225C28.364 28.098 28.465 27.947 28.533 27.782C28.602 27.616 28.637 27.438 28.637 27.259Z" fill="#5091CB"/>
</g>
<path d="M11.6938 21C8.78145 21 6 19.0922 6 15.1444C6 11.7327 8.00007 9 11.6938 9C13.1091 9 14.1507 9.2903 14.9798 9.66251L14.1507 11.7507C13.4401 11.3547 12.6407 11.1435 11.826 11.1356C10.0667 11.1356 8.63834 12.2845 8.63834 15.0338C8.63834 17.6536 10.363 18.8666 12.0219 18.8666C12.8286 18.8673 13.6208 18.6553 14.3169 18.2508L15 20.2089C14.121 20.6745 12.864 21 11.6938 21Z" fill="#1D1D1B"/>
<path d="M23 21V9H20.9264C19.7481 9.89963 18.2479 10.6994 17 11.2259L17.8092 13.0636C18.602 12.6718 19.7481 12.1448 20.4712 11.5673V21H23Z" fill="#1D1D1B"/>
</svg>
