<?xml version="1.0" encoding="utf-8"?> <!-- Generator: Adobe Illustrator 21.0.2, SVG Export Plug-In . SVG Version: 6.00 Build 0)  --> <svg version="1.2" baseProfile="tiny" id="Calque_1" xmlns="http://www.w3.org/2000/svg" xmlns:xlink="http://www.w3.org/1999/xlink" x="0px" y="0px" viewBox="0 0 120 77" overflow="scroll" xml:space="preserve"> <g> <g> <path fill="#A8C855" d="M120,61.3418007V0H83.5137024c-4.4649048,1.2217-8.4942017,2.5527-11.9766006,5.0176001 c-4.5976028,3.2524004-8.2480011,7.7016001-10.7095032,13.4530993c-2.0585976,4.7930012-3.652298,10.5859013-4.6268997,14.5791016 L56.1977997,33.0527c-0.1221008,0.6918983-0.4921989,2.3163986-0.9043007,4.0479012 c12.5522041,7.7372971,19.483799,19.8388977,20.6206017,29.9052582c0.2851028-0.0663605,0.5682983-0.1191559,0.8651962-0.1962585 C84.7128983,64.8066025,97.347702,61.3476982,120,61.3418007z"/> </g> <path fill="#0063AC" d="M54.5806007,36.6650009C72.4502029,47.2645988,79.2978973,66.7686005,74.6884995,77H0V26.9888 c23.5049-2.3803997,34.4165001-0.8246994,50.4751015,7.3168983l2.3163986,5.9140015L54.5806007,36.6650009z"/> <path fill="#F7AF4C" d="M97.5858994,62.3311005c-10.5839005,1.2967987-21.625,4.4012985-21.625,4.4012985l-0.0057983,0.0058975 C76.3887024,70.5712891,75.9862976,74.1171875,74.7304993,77h-0.0097961h0.0097961H120V61.0770988 C120,61.0770988,108.8710938,60.9473,97.5858994,62.3311005z"/> <g> <g> <path fill="#D2007A" d="M0,0v26.9857998c23.5058994-2.3803005,34.4174995-0.8246994,50.4761009,7.3169003l2.3163986,5.9141006 l1.7890015-3.5546989c0.2431984,0.1425972,0.4746971,0.293499,0.7080994,0.4384995 c0.4120979-1.7315025,0.7821999-3.3560028,0.9042015-4.0479012l0.0029984-0.0028992 c0.9745979-3.9932003,2.5682983-9.7861004,4.6268997-14.5791016c2.4614983-5.7514992,6.1118011-10.2006989,10.7095032-13.4530993 C75.0156021,2.5527,79.044899,1.2217,83.5098038,0H0z"/> </g> </g> <g> <g> <path fill="#FFFFFF" d="M20.6107998,26.7935009h1.085001v-1.4414005h-0.7734013 c-0.7050991,0-0.9482994-0.3316002-0.9482994-0.9776001V10.9687004h-1.7567997v13.5049 C18.2173004,25.7168007,18.9409008,26.7935009,20.6107998,26.7935009z M25.1226006,21.9057999 c-1.9961014,0-3.012701,1.0097008-3.012701,2.4199009c0,0.7108994,0.2402,1.3583984,0.6904011,1.8041992 c0.5331993,0.5151005,1.2558994,0.7626991,2.3397999,0.7626991c1.0849991,0,1.6884995-0.2475986,2.3290997-0.8617992v0.762701 h1.7178001v-5.6167011c0-1.9062996-1.2059994-2.8824005-3.5957012-2.8824005c-1.4491997,0-2.3114986,0.2818012-3.1348,1.2084999 l1.152401,1.0459003c0.4804993-0.5966988,0.9452991-0.8114986,1.9111004-0.8114986 c1.362299,0,1.9130993,0.5121994,1.9130993,1.5727997v0.5956993H25.1226006z M27.4330997,23.7626991 c0,0.5957012-0.1210995,0.9927006-0.3789005,1.2412014c-0.4678001,0.4312-0.9657993,0.4799995-1.6348,0.4799995 c-1.1083984,0-1.6063995-0.4291992-1.6063995-1.1924c0-0.762701,0.5342007-1.210001,1.5674-1.210001h2.0527V23.7626991z M32.9613991,33.3623009v-1.0102005h-2.4706993v10.519001h2.5234985v-6.3408012 c0-1.3316002,0.8564034-1.9370003,1.6357002-1.9370003c0.6221008,0,0.9531021,0.2206993,1.3389015,0.6264l1.9071999-1.9995003 c-0.6991997-0.7275009-1.3974991-0.9897003-2.3936005-0.9897003 C34.4155006,32.2304993,33.4408989,32.7563019,32.9613991,33.3623009z M16.2064991,30.9985008h6.7217007v11.8726006h2.7012005 V30.9985008h3.6171989V28.4951H16.2064991V30.9985008z M82.4276962,36.4696999l-1.5936966-0.1615982 c-0.8964996-0.0796013-1.0507965-0.5259018-1.0507965-0.9077034c0-0.525898,0.4257965-1.0102997,1.4394989-1.0102997 c0.8768997,0,1.7695007,0.1617012,2.3515015,0.7080002l1.556694-1.6352005 c-0.9726944-0.9506989-2.2968979-1.232399-3.8671951-1.232399c-2.0606003,0-3.910202,1.1718025-3.910202,3.3520012 c0,1.9375,1.1288986,2.7651978,2.9531021,2.9473l1.5976944,0.1615982 c0.7930069,0.080101,1.0664063,0.4443016,1.0664063,0.9687996c0,0.788002-0.9121017,1.0898018-1.7871017,1.0898018 c-0.777298,0-1.8691025-0.1190987-2.7012024-0.9883003l-1.652298,1.714901 c1.2831955,1.3339005,2.7225952,1.5145988,4.3163986,1.5145988c2.3906021,0,4.294899-1.1102982,4.294899-3.4315987 C85.4413986,37.7821999,84.4316025,36.6729012,82.4276962,36.4696999z M71.6406021,33.3623009v-1.0102005h-2.4687042v10.519001 h2.5233994v-6.3408012c0-1.3316002,0.8594055-1.9370003,1.6367035-1.9370003c0.6211014,0,0.9532013,0.2206993,1.3378983,0.6264 l1.9082031-1.9995003c-0.7031021-0.7275009-1.3983994-0.9897003-2.3945007-0.9897003 C73.097702,32.2304993,72.125,32.7563019,71.6406021,33.3623009z M91.7598038,40.7714996 c-1.4180069,0-2.2188034-0.9902992-2.2188034-2.3437996h6.3398972v-1.169899 c0-2.8866997-1.5937958-5.0273018-4.4141006-5.0273018c-2.6210938,0-4.4101944,1.9375-4.4101944,5.3711014 c0,4.2567978,2.2910995,5.3690987,4.681694,5.3690987h5.6347046v-2.1991997H91.7598038z M89.9297028,35.4995003 c0.2695007-0.625,0.8339996-1.0884018,1.6913986-1.0884018c0.8535004,0,1.4179993,0.4634018,1.6875,1.0884018 c0.1581955,0.3852997,0.2167969,0.6679993,0.2382965,1.1333008h-3.8516006 C89.7128983,36.1674995,89.7714996,35.8848,89.9297028,35.4995003z M83.5214996,0h-7.7616959 c-9.2129059,4.5897999-14.5684052,10.8144999-17.4829025,16.9053001 c-3.2256012,6.7255993-5.142601,16.4804001-5.830101,20.4945984l-0.0029984,0.001503l-1.6025009-5.0493011h-2.6601028 l3.7294006,10.519001h1.982502c0,0,2.0018997-7.9966011,2.3163986-9.7871017l-0.0234985,0.0219994 c0.9706993-3.9946995,2.5703011-9.8198986,4.6415977-14.6352997c2.4615021-5.7514992,6.1119003-10.2006989,10.7095032-13.4530993 C75.0233994,2.5483,79.0547028,1.2217,83.5214996,0z M42.4818993,32.2304993c-1.6884003,0-2.660099,0.3246994-3.655201,1.4531021 l1.6113014,1.6352005c0.5273018-0.6264,0.9775009-0.8662033,1.9491997-0.8662033 c1.3418007,0,1.8838005,0.5035019,1.8838005,1.6543007v0.5259018h-2.3936005 c-2.3485985,0-3.4570007,1.3715973-3.4570007,3.0468979c0,0.9277,0.2930031,1.7754021,0.8389015,2.3623009 c0.597599,0.625,1.4365005,0.9267006,2.5830002,0.9267006c1.1669998,0,1.8065987-0.3017006,2.4883003-1.0068016v0.9092026 H46.8013v-6.9243011C46.8013,33.482399,45.3198013,32.2304993,42.4818993,32.2304993z M44.2709999,38.9940987 c0,0.6464996-0.0946999,1.0704002-0.3700981,1.3311005c-0.4444008,0.4463005-0.8916016,0.5028992-1.5908012,0.5028992 c-0.9952011,0-1.4599991-0.4804001-1.4599991-1.2080002c0-0.7479973,0.5058975-1.1923981,1.4218979-1.1923981h1.9990005 V38.9940987z M62.4238014,32.2304993c-2.6245003,0-4.4106026,1.9375-4.4106026,5.3711014 c0,4.2567978,2.2900009,5.3895988,4.6841011,5.3895988c1.8280983,0,2.8203011-0.5868988,3.8495979-1.6553001 l-1.5391006-1.5546989c-0.6405945,0.6669998-1.1854973,0.9902992-2.2929955,0.9902992 c-1.4160004,0-2.216301-0.9902992-2.216301-2.3437996h6.3393974v-1.169899 C66.8378983,34.3711014,65.2441025,32.2304993,62.4238014,32.2304993z M60.4985008,36.6328011 c0.0205002-0.4653015,0.0830002-0.7480011,0.2373009-1.1333008c0.2719994-0.625,0.8344994-1.0884018,1.6879997-1.0884018 c0.8554993,0,1.4218979,0.4634018,1.6953011,1.0884018c0.1542969,0.3852997,0.2128983,0.6679993,0.2304993,1.1333008H60.4985008z "/> </g> </g> <g> <path fill="#FFFFFF" d="M24.7056007,66.5605011v-0.3876038c-0.2998009,0.3172989-0.6075001,0.4355011-1.0635014,0.4355011 c-0.4179993,0-0.8125-0.142601-1.0487995-0.3740005c-0.4296989-0.4081955-0.4356003-1.125-0.4356003-1.7382965 c0-0.6191025,0.0059013-1.3213005,0.4356003-1.7324028c0.2362995-0.2314987,0.6219997-0.3731003,1.0419998-0.3731003 c0.4355011,0,0.7646008,0.1114006,1.0459003,0.4141006v-1.875h1.0664005v5.6308022H24.7056007z M23.9468002,63.3203011 c-0.642601,0-0.7227001,0.5038986-0.7227001,1.1758003c0,0.6718979,0.0800991,1.1875,0.7227001,1.1875 c0.6425991,0,0.7343998-0.5156021,0.7343998-1.1875C24.6812,63.8241997,24.5893993,63.3203011,23.9468002,63.3203011z"/> <path fill="#FFFFFF" d="M28.1977997,64.8183975c0,0.5332031,0.337801,0.9188995,0.9355011,0.9188995 c0.4687996,0,0.6991997-0.1278992,0.9716988-0.3856964l0.6522999,0.607399 c-0.4384995,0.4179993-0.8593998,0.6493988-1.6299,0.6493988c-1.0126991,0-1.9813995-0.4442978-1.9813995-2.1122971 c0-1.3446999,0.7558994-2.1055031,1.8661995-2.1055031c1.1914005,0,1.8662014,0.839901,1.8662014,1.9726982v0.455101H28.1977997z M29.7261009,63.6719017c-0.1123009-0.2451019-0.3526001-0.4258003-0.7139015-0.4258003 c-0.3612995,0-0.6015987,0.1806984-0.7138996,0.4258003c-0.0653992,0.152298-0.0946999,0.2635994-0.1005001,0.4413948h1.6289005 C29.8148994,63.9355011,29.7915001,63.8241997,29.7261009,63.6719017z"/> <path fill="#FFFFFF" d="M36.6313019,66.6083984c-0.6425018,0-1.1669006-0.2216949-1.5791016-0.6161957 c-0.5918007-0.5684052-0.5741997-1.2735062-0.5741997-2.2461014c0-0.9746017-0.017601-1.6758003,0.5741997-2.2481003 C35.4644012,61.1044998,35.9888,60.8848,36.6313019,60.8848c1.0957985,0,1.9462967,0.5985985,2.1533966,1.7773018h-1.1581993 c-0.1152992-0.4502029-0.4111977-0.7988014-0.9864006-0.7988014c-0.3134003,0-0.5653992,0.1093979-0.7313995,0.2890015 c-0.2226982,0.2382965-0.2870979,0.5098-0.2870979,1.5937996c0,1.0820007,0.0643997,1.3516006,0.2870979,1.5878983 C36.0746994,65.517601,36.3266983,65.625,36.6400986,65.625c0.5752029,0,0.8711014-0.3438034,0.9864006-0.7968979h1.1581993 C38.5775986,66.0067978,37.7182999,66.6083984,36.6313019,66.6083984z"/> <path fill="#FFFFFF" d="M42.5591011,66.5605011v-2.5175018c0-0.5419998-0.3613014-0.7226982-0.6991997-0.7226982 c-0.3379021,0-0.6905022,0.1865005-0.6905022,0.7226982v2.5175018h-1.0692978v-5.6308022h1.0692978V62.8223 c0.2871017-0.2901001,0.6494026-0.4317017,1.0284004-0.4317017c0.9355011,0,1.4277,0.6328011,1.4277,1.5039024v2.6660004 H42.5591011z"/> <path fill="#FFFFFF" d="M47.3813019,66.5605011V66.205101c-0.2841034,0.2753983-0.5566025,0.3945007-1.0488014,0.3945007 c-0.485302,0-0.8379021-0.1191025-1.0956993-0.3652039c-0.2246017-0.2276001-0.3496017-0.5625-0.3496017-0.9238968 c0-0.6572037,0.464901-1.1972046,1.4608994-1.1972046h1.0098v-0.2030983c0-0.4511986-0.2285004-0.6464996-0.7938995-0.6464996 c-0.4151001,0-0.6016006,0.0918007-0.8232994,0.3379021l-0.6815987-0.6367989 c0.4179993-0.4453011,0.8290977-0.5742035,1.5458984-0.5742035c1.1972008,0,1.8251991,0.4912033,1.8251991,1.4570999v2.7128029 H47.3813019z M47.3578987,64.8183975h-0.8446999c-0.3876991,0-0.6005974,0.1777039-0.6005974,0.4687042 c0,0.2841949,0.1982002,0.4746017,0.6161995,0.4746017c0.2958984,0,0.4853973-0.0244064,0.6748009-0.1963043 c0.1161995-0.1063995,0.1542969-0.2723999,0.1542969-0.5243988V64.8183975z"/> <path fill="#FFFFFF" d="M52.3168983,63.5625c-0.1630974-0.1601982-0.3027-0.2421989-0.5692978-0.2421989 c-0.3251991,0-0.6865997,0.2362976-0.6865997,0.7578011v2.482399h-1.0693016v-4.1201019h1.0419998v0.3936005 c0.205101-0.2363014,0.6191025-0.4434013,1.0762024-0.4434013c0.419899,0,0.7167969,0.1055031,1.0126991,0.3906021 L52.3168983,63.5625z"/> <path fill="#FFFFFF" d="M56.846199,66.1016006c-0.2636986,0.2695007-0.6991997,0.5067978-1.3330002,0.5067978 c-0.6308975,0-1.0575981-0.2372971-1.3213005-0.5067978c-0.3876991-0.3887024-0.4853973-0.8554993-0.4853973-1.6054993 c0-0.7441025,0.0976982-1.2089996,0.4853973-1.5967026c0.2637024-0.2694969,0.690403-0.5088005,1.3213005-0.5088005 c0.6338005,0,1.0693016,0.2393036,1.3330002,0.5088005c0.3848,0.3877029,0.4824028,0.8526001,0.4824028,1.5967026 C57.3286018,65.2461014,57.230999,65.7128983,56.846199,66.1016006z M56.0141983,63.5009995 c-0.1191978-0.1221008-0.2880974-0.1806984-0.5009995-0.1806984c-0.2099991,0-0.3700981,0.0585976-0.4950981,0.1806984 c-0.2187996,0.2129021-0.2421989,0.5682983-0.2421989,0.9951019c0,0.4296951,0.0233994,0.7910004,0.2421989,1.0038986 c0.125,0.1191025,0.285099,0.1836014,0.4950981,0.1836014c0.2129021,0,0.3818016-0.0644989,0.5009995-0.1836014 c0.2216034-0.2128983,0.2480011-0.5742035,0.2480011-1.0038986 C56.2621994,64.0692978,56.2358017,63.7139015,56.0141983,63.5009995z"/> <path fill="#FFFFFF" d="M61.2519989,66.5605011v-2.4912033c0-0.5624962-0.3686981-0.7489967-0.7056007-0.7489967 c-0.3378983,0-0.7167969,0.1865005-0.7167969,0.7489967v2.4912033h-1.0664024v-4.1201019h1.0419998V62.8223 c0.2783012-0.2901001,0.6758003-0.4317017,1.0693016-0.4317017c0.4263,0,0.7738991,0.1358032,1.0102997,0.3672028 c0.3437004,0.3311005,0.4355011,0.7187996,0.4355011,1.169899v2.6328011H61.2519989z"/> <path fill="#FFFFFF" d="M66.3730011,66.5605011v-2.4912033c0-0.5624962-0.3710022-0.7489967-0.7089005-0.7489967 c-0.3359985,0-0.7128983,0.1865005-0.7128983,0.7489967v2.4912033h-1.0703011v-4.1201019h1.0428963V62.8223 c0.2813034-0.2901001,0.6758041-0.4317017,1.0723038-0.4317017c0.4276962,0,0.7714996,0.1358032,1.0116959,0.3672028 c0.3457031,0.3311005,0.4336014,0.7187996,0.4336014,1.169899v2.6328011H66.3730011z"/> <path fill="#FFFFFF" d="M69.8417969,64.8183975c0,0.5332031,0.3379059,0.9188995,0.9355011,0.9188995 c0.4747009,0,0.6993027-0.1278992,0.972702-0.3856964l0.6503983,0.607399 c-0.4375,0.4179993-0.8554993,0.6493988-1.6288986,0.6493988c-1.0116959,0-1.9785004-0.4442978-1.9785004-2.1122971 c0-1.3446999,0.7518997-2.1055031,1.8633041-2.1055031c1.1932983,0,1.8631973,0.839901,1.8631973,1.9726982v0.455101H69.8417969z M71.3711014,63.6719017c-0.1133041-0.2451019-0.3496017-0.4258003-0.714798-0.4258003 c-0.3614044,0-0.6016006,0.1806984-0.7129059,0.4258003c-0.0663986,0.152298-0.0956955,0.2635994-0.1016006,0.4413948h1.6289063 C71.464798,63.9355011,71.4355011,63.8241997,71.3711014,63.6719017z"/> </g> </g> <g> </g> </svg>