<?xml version="1.0" encoding="UTF-8"?>
<!-- Generator: Adobe Illustrator 21.0.2, SVG Export Plug-In . SVG Version: 6.00 Build 0)  -->
<svg version="1.2" baseProfile="tiny" id="Calque_1" xmlns="http://www.w3.org/2000/svg" xmlns:xlink="http://www.w3.org/1999/xlink" x="0px" y="0px" viewBox="0 0 120 77" overflow="scroll" xml:space="preserve"> <g> <g> <rect fill-rule="evenodd" fill="#DC9600" width="120" height="77"/> </g> <g> <g> <path fill-rule="evenodd" d="M47.0723,33.6436005c-1.2481003-1.4081993-3.0205002-2.7040997-5.9179993-2.6543007 c-2.3358994,0.0400009-3.785202,0.7245998-5.3144989,2.1717987c-1.5293007,1.4473-2.3359032,3.2569008-2.3359032,5.1865997 c0,1.930603,0.3223,3.0166016,1.7315025,4.8652c1.4090996,1.8486023,3.2607002,2.8545036,5.9580002,2.8545036 c2.6982002,0,3.9062004-0.9238014,5.3544998-2.1309013c1.4500999-1.2060013,2.0946999-2.6933022,2.2958984-5.0254021 C49.044899,36.5791016,48.3203011,35.0498009,47.0723,33.6436005z M41.2344017,42.5693016 c-2.1739006,0-3.9053001-1.9257011-3.9053001-3.9393997c0-1.9317017,1.7724991-4.1016006,3.9853973-4.1016006 c1.9736023,0,3.7831993,2.2109985,3.7441025,4.1016006C45.0186005,40.6006012,43.4883003,42.5693016,41.2344017,42.5693016z"/> <g> <path fill="#FFFFFF" d="M76.1308975,31.8799c0.4846268-0.3716908,1.2405548-0.580759,1.8354721-0.6695518 c0.2734833-0.0408192,0.5393219-0.0232677,0.8094406-0.0842152c0.1674118-0.0377731,0.3305206-0.1405754,0.5005875-0.1613331 c0.1274033-0.0155506,0.2857895,0.1269894,0.4091034,0.0967007c0.1965561-0.0482788,0.4414597-0.3219566,0.7046204-0.3883934 c0.3259048-0.0822773,0.6748581-0.1282425,1.0078354-0.1701126c0.6258163-0.0786934,1.2442245-0.1274433,1.8762207-0.1494865 c1.2084579-0.0421505,2.7354507-0.2396774,3.8554153,0.3043213c1.3655777,0.6632938,1.994812,1.7951393,0.7459183,2.9558334 c-1.1415863,1.0609741-2.5493698,1.5586205-3.8794098,2.290638c0.3853836,0.1669998,0.7857819,0.1616974,1.1838989,0.2639923 c0.640358,0.1645393,1.3461609,0.3882866,1.9526367,0.6525536c0.3672256,0.1600189,0.8108826,0.3826218,1.1205139,0.6361732 c0.3515091,0.2878418,0.4669189,0.4637222,0.6745453,0.9111786c0.4235535,0.9127731,0.5753326,1.5050087,0.0664063,2.4384003 c-0.4336243,0.7952843-1.0664902,1.3406296-1.7708206,1.862114c-0.1658478,0.1227913-0.3642197,0.2021866-0.5289841,0.3263855 c-0.0885773,0.0667763-0.1305847,0.2064972-0.2240982,0.2653618c-0.0691147,0.0435028-0.1948853,0.0006256-0.2454987,0.0361023 c-0.1552048,0.1087875-0.3498154,0.3380508-0.5307541,0.447567c-0.2016678,0.1220627-0.4790878,0.0998039-0.6859131,0.2133942 c-0.2579651,0.141674-0.5411072,0.46632-0.8766403,0.6093025c-0.2279205,0.097126-0.4307327,0.0399513-0.6508942,0.1216736 c-0.2088699,0.0775337-0.3591614,0.3049202-0.567955,0.3763695c-0.1244049,0.042572-0.2905655-0.0381584-0.419342-0.0082703 c-0.0918121,0.0213089-0.1438599,0.1952744-0.2333984,0.2294998c-0.1555786,0.0594711-0.2715225,0.0275726-0.4328537,0.1014481 c-0.4751892,0.217598-0.869606,0.4172707-1.3630829,0.5741081c-0.9489594,0.3015938-1.9499969,0.5521507-2.971817,0.7855034 c-0.4805374,0.109745-0.788765,0.147625-1.2347488,0.122242c-0.1057892-0.0060196-0.1263199-0.0972099-0.258255-0.08815 c-0.1391144,0.009552-0.1853638,0.1591682-0.3105698,0.1824341c-0.1871033,0.034771-0.4548111,0.0818253-0.6559601,0.0538063 c-0.0952301-0.0132637-0.1702805-0.1684341-0.2654419-0.182373c-0.040451-0.0059242-0.2688522,0.0168648-0.2827682,0.0119667 c-0.1731339-0.0609169-0.2736816-0.0989151-0.4241257-0.175293c-0.0849152-0.0431099-0.0669403-0.1953735-0.1294785-0.2625923 c-0.0337601-0.0362816-0.1568985,0.1159019-0.2099991,0.0498009c-0.1167145-0.1452789-0.2520142-0.3713264-0.2324066-0.5889015 c0.0722656-0.8017159,1.5231247-1.5357895,2.0729828-1.9228668c0.7750549-0.5456123,1.5972519-0.9884605,2.4297333-1.4400978 c0.2230148-0.1209869,0.4546585-0.2883759,0.6932449-0.3760948c0.1526642-0.0561333,0.3978729-0.0527611,0.5246201-0.1175194 c0.1437607-0.0734482,0.2058716-0.238327,0.3611603-0.3312302c0.1502762-0.0899086,0.3938828-0.1522865,0.5590439-0.2329178 c0.9276657-0.4528999,1.8133392-0.9033928,2.7596207-1.3175697c0.6251984-0.2736473,1.9402161-1.0476418,2.2971954,0.0138168 c0.114357,0.3400192-0.0788956,0.8310242-0.3741989,1.0549164c-0.309166,0.2343941-0.8519974,0.0486374-1.2639542,0.0685234 c-1.654335,0.0798607-3.7944565,1.0525627-5.2266693,1.9859009c-0.3516769,0.2291756-2.2926025,1.0346642-2.2858734,1.5272408 c0.0062103,0.4548912,2.0016861,0.3130646,2.3995056,0.2230949c0.8679123-0.1962814,1.7070313-0.5814285,2.526741-0.8109932 c0.8621292-0.2414474,1.7129288-0.6422501,2.5164032-1.0430336c1.5860901-0.7911682,3.0049667-1.7159386,4.331749-2.9686699 c0.0403137-0.038063,0.1636581,0.0597153,0.2211456,0.0059013c0.0913925-0.0855446-0.0358734-0.1214523,0.0467453-0.2210808 c0.0768433-0.092659,0.2083511-0.1811905,0.2282867-0.2976379c0.0389938-0.2276955-0.0768738-0.4557838-0.1446762-0.6512299 c-0.1068115-0.3078804-0.229126-0.2855453-0.3971481-0.4610329c-0.6096954-0.6367874-1.4998703-0.8412704-2.3722153-0.9510002 c-0.9500809-0.1195068-1.9744186-0.2349968-2.9301682-0.228096c-0.473465,0.003418-2.1754074,0.3503952-2.3668213-0.1308708 c-0.3429031-0.8621559,1.2092896-1.7052116,1.774353-1.9340515c0.920639-0.3728447,1.8420868-0.6942711,2.7301559-1.1513252 c0.4396057-0.2262459,0.8499527-0.5387802,1.264267-0.8101311c0.2394333-0.1568222,0.8832855-0.464489,1.0417709-0.7114449 c0.6177826-0.9626045-1.1131439-1.1005611-1.6660233-1.1623344c-0.4539261-0.0507183-0.8974915-0.1261826-1.3535309-0.0860386 c-0.2969437,0.0261383-0.5949478,0.1521835-0.8925858,0.1579494c-0.0712509,0.0013809-0.1716995-0.1180115-0.2199554-0.1097603 c-0.043335,0.00741-0.1922684,0.0872498-0.2492981,0.0908356c-0.0509644,0.0032043-0.6893539,0.0909328-0.7058792,0.0995045 c-0.2202148,0.1142464-0.1572266,0.1260891-0.1720886,0.3233738c-0.01297,0.1720161,0.1446533,0.4073906,0.1396866,0.6191635 c-0.0074081,0.3159332-0.1334763,0.4380569-0.2241211,0.6972084c-0.6110382,1.7470016-1.5473709,3.4114342-2.3945007,5.0498009 c-0.4433517,0.8574486-0.8755417,1.7254601-1.1591034,2.6317787c-0.2194061,0.7012825-0.5866547,2.1672401-1.3781433,1.2991295 c-0.2306976-0.2530251-0.68853-0.8343849-0.7030029-1.2101593c-0.0163498-0.4245262,0.4645691-1.1391144,0.6502914-1.5323448 c0.3839798-0.8130188,0.8925552-1.609211,1.268158-2.3490067c0.345314-0.6801376,0.6761093-1.4968452,1.3189011-1.9468002 c-0.3793564-0.2930374,0.0816498-0.4423141,0.1747971-0.6991997c0.0426636-0.1176491-0.0332565-0.3379288,0.0057602-0.4833755 c0.0554962-0.2068672,0.2573471-0.5009193,0.3737717-0.6744614c0.0533524-0.0795288,0.2183685-0.2600098,0.2522736-0.3344116 c0.0538483-0.1181908,0.0543671-0.3893242,0.0903549-0.4562759c0.1376877-0.2560921,0.4886246-0.3660736,0.5776443-0.6764736 c-0.4052887-0.2519703-1.0927811,0.1342068-1.5023956,0.2480793c-0.5738602,0.1595383-1.2135696,0.2056198-1.8224106,0.3245201 c-0.8940735,0.1746101-1.8561172,0.4295616-2.5993271,0.9432907c-0.3493576,0.2414894-0.7001877,1.0690651-1.193985,1.0786133 c-0.6620026,0.0127983-0.615448-0.7604485-0.3983002-1.1474571c0.3155518-0.5624008,0.8033981-0.839035,1.3826141-1.0388985 C74.9837112,32.1316338,75.6248245,31.7744026,76.1308975,31.8799z"/> <path fill="#FFFFFF" d="M88.8612976,42.8086014c0.1155701-0.5009727,0.1260376-0.9016571,0.535202-1.2392998 c0.126442-0.1043396,0.3080826-0.1795959,0.417099-0.2571373c0.0345154-0.0245476,0.1848297-0.0184212,0.233139-0.0486031 c0.0726624-0.0453987,0.1782608-0.2902069,0.2518082-0.3576736c0.0490189-0.0449562,0.4417038-0.3199959,0.5184937-0.3670883 c0.154953-0.0950317,0.3552322-0.1088562,0.471817-0.1965485c0.3377075-0.2540321,0.4987411-0.5567894,0.8817444-0.7427483 c0.3499832-0.1699219,0.7763748-0.2576866,1.0826416-0.0858307c0.3800888,0.2132721,0.8563156,0.9638901,0.6979446,1.4207268 c-0.0611191,0.1762924-0.1680069,0.1480675-0.2406006,0.2893639c-0.0740967,0.1442146-0.1492233,0.3530579-0.2198105,0.5344276 c-0.075798,0.1947594-0.1819458,0.362854-0.2898102,0.5261688c-0.1103287,0.167057-0.4588699,0.3243065-0.5173645,0.4187393 c-0.1990128,0.3213005-0.3275223,0.8205757-0.5164413,1.1690331c-0.0666733,0.1229706-0.2778473,0.5844307-0.2462616,0.7167702 c0.0814133,0.3410797,0.1766586,0.1245689,0.3992081,0.0317001c0.41082-0.1714325,0.7491913-0.480793,1.0355072-0.7597122 c0.4475784-0.4360237,0.8493195-0.6072235,1.2405624-1.0052032c0.3247604-0.3303528,0.6980743-0.6353378,1.0327225-0.9484863 c0.0600739-0.0562134,0.1713715,0.0294952,0.2350616-0.03862c0.0681076-0.0728416,0.0498199-0.2325668,0.1211243-0.3020401 c0.2073822-0.2020683,0.4556885-0.4083939,0.6684952-0.6186752c0.5886307-0.5816612,1.2500229-1.459343,2.1067047-1.6182022 c0.5689163-0.1054955,1.0360641,0.2838364,1.3592148,0.7551117c0.3232193,0.4713783,0.0617828,0.7429771-0.1585541,1.2267761 c-0.2206955,0.4846039-0.4117737,0.9470634-0.5792007,1.4516907c-0.1432343,0.4317093-0.5681915,1.1160545-0.475441,1.5258598 c0.9378586-0.3398552,1.9562073-1.2358055,2.5292206-1.8923721c0.3000793-0.3438301,0.8327179-1.0779457,1.2910461-0.8071518 c0.4601898,0.2718887,0.2101593,0.9490585-0.1128387,1.2135735c-0.1517792,0.1242943-0.3876877,0.1791916-0.5402069,0.2933235 c-0.2569199,0.1922531-0.4814529,0.5016022-0.7120743,0.7423172c-0.4289093,0.4476738-0.850502,0.5126495-1.2702103,0.8867683 c-0.4464951,0.3979912-0.8998337,0.6935997-1.3612366,1.06744c-0.6035309,0.4889908-0.8329315,0.2993774-1.3121185-0.2844048 c-0.4994583-0.6084862-0.6800003-0.9677467-0.4528046-1.728363c0.0924301-0.309433,0.154808-0.6267624,0.2458191-0.9296303 c0.0532761-0.1772881,0.2142639-0.3316536,0.2622757-0.5022011c0.0382156-0.1357422-0.0222397-0.3205299,0.0385284-0.4802017 c-0.5465927,0.2338715-0.8788757,0.6961517-1.2573013,1.0292511c-0.2043152,0.1798439-0.4812775,0.198761-0.6252365,0.3227386 c-0.0243454,0.0209656-0.2132111,0.3399658-0.2668915,0.4000015c-0.0727234,0.0813217-0.1695175,0.2029877-0.2528763,0.2743111 c-0.1767578,0.1512489-0.6038513,0.2756805-0.7109985,0.3857994c-0.2004395,0.2060013-0.1614151,0.4687157-0.4665756,0.6773071 c-0.0720062,0.049221-0.3693161,0.0928612-0.377121,0.1009941c-0.0856323,0.0891533-0.0354462,0.2955666-0.1431046,0.3793983 c-0.1671829,0.130188-0.3938675,0.1987915-0.582962,0.3251762c-0.5636368,0.3767242-0.9013214,1.0167732-1.6919327,0.5718231 c-0.4287186-0.2412758-0.9779282-1.0586014-1.1152573-1.4993591c-0.1761169-0.5652237,0.1153564-1.0964088,0.3793488-1.5967903 c0.2124634-0.40271,0.7756729-0.9926491,0.751503-1.3980484c-0.2713928,0.1346283-0.5097351,0.3413467-0.7714005,0.4706993 c-0.1388779,0.0686531-0.3463898,0.026226-0.4189987,0.0703011c-0.1328201,0.0806236-0.2001343,0.3312798-0.3817978,0.4296989 C89.2710419,42.9789352,89.2068481,43.0245056,88.8612976,42.8086014z"/> <path fill="#FFFFFF" d="M101.3710938,42.1221008c0.374649,0.1540642,0.9856644-0.555172,1.2427063-0.7646523 c0.4090347-0.3333511,0.8053741-0.5893059,1.1879807-0.9870262c0.3818359-0.3969078,0.8318481-0.8721085,1.1328201-1.3411217 c0.3309326-0.5157166,0.2326355-1.3033867,0.9218445-1.4882507c1.2027359-0.3226051,1.4815674,1.6728973,1.5630875,2.509407 c0.0567627,0.5824699,0.1339569,0.9605293,0.0468216,1.5398788c-0.0562286,0.3738976-0.4722824,1.2318459-0.3130569,1.5512657 c0.8156509-0.486187,1.4653854-1.1248169,2.2115479-1.695034c0.3894196-0.297596,0.7939529-0.5523376,1.1703033-0.8568115 c0.4093857-0.3311996,0.9528046-0.5648842,0.9160461,0.2373428c-0.0172501,0.3764877-0.3830719,0.7164383-0.6693192,0.9166374 c-0.1657181,0.1159019-0.4375076,0.1579971-0.5836792,0.2923622c-0.2191315,0.2014351-0.2772751,0.4583702-0.5321503,0.6563034 c-0.3436127,0.2668457-0.6455231,0.3890152-0.9472504,0.6718979c-0.1672897,0.1568451-0.3585205,0.3098679-0.5308914,0.465641 c-0.0838852,0.0758057-0.2009506,0.0270462-0.2738037,0.0889587c-0.0912933,0.0775833-0.114563,0.2552414-0.2075043,0.3412552 c-0.3167267,0.2931252-0.7547455,0.4552536-1.1445999,0.6626968c-0.4108887,0.2186356-0.7875366,0.4397316-1.2260971,0.6953468 c-0.6781311,0.3952522-1.5005112,1.0363083-2.3332367,1.1527748c-0.8701859,0.1217079-2.2322311-0.6093445-1.8215179-1.5629234 c0.1648407-0.3827171,0.5481644-0.6141472,0.9224396-0.7422104c0.2686005-0.0919075,0.5194168-0.1665421,0.7440796-0.1316032 c0.0237885,0.0037003,0.2129059,0.1710548,0.2672272,0.1890869c0.039772,0.0132027,0.2267075-0.0116501,0.2907257-0.0094795 c1.0639954,0.0361137,1.5493317-1.1486015,1.9395828-1.9757919c0.0466843-0.0989647,0.0125351-0.2359276,0.0590973-0.3349533 c0.0350494-0.0745354,0.2490921-0.1125183,0.2567978-0.1473999c0.0407944-0.1845512,0.0312271-0.4268036,0.0540619-0.6511765 c0.0555267-0.5456314,0.1091385-0.9846001,0.0055389-1.5422211c-0.5842438,0.277401-0.8861542,0.9053421-1.3544617,1.3069572 c-0.4624023,0.396553-0.9424286,0.7514114-1.4347534,1.1369209c-0.3233185,0.2531662-1.0699234,1.0796738-1.445076,1.1304321 C100.6605225,43.5483627,101.1872025,42.4278717,101.3710938,42.1221008z"/> </g> <path fill-rule="evenodd" d="M74.0858994,30.9491997l-2.1737976,5.3876991l-3.4618988-5.347599l-3.6631012,1.4071999 c0,0-1.892601-1.2861004-3.7441025-1.3671989c-1.8526001-0.080101-4.027401,0.4022999-4.9941978,1.8495979 c-0.9648018,1.4482002-1.2871017,3.0166016-0.4414024,4.7041016c0.8456993,1.6894989,2.5762024,2.0918007,3.8241997,2.4530983 c1.2481003,0.3614006,2.4561005,0.7647018,1.972702,1.7285004c-0.482399,0.9659004-1.8115005,0.8047028-2.8184013,0.5634995 c-1.0057983-0.2411995-1.4892006-1.0048981-1.4892006-1.0048981l-2.2548981,2.9756012 c1.1679993,1.2061005,3.0605011,1.7294998,5.1133003,1.7686005c2.0527,0.0409966,3.2616997-0.4414024,4.4686966-1.6875 c1.2070999-1.2481003,1.2481003-3.177803,0.9668045-4.4639015c-0.2822037-1.2860985-1.2480011-2.2919998-3.4629021-3.0555992 c-2.2148018-0.7637024-2.6571999-1.0059013-2.6972008-1.5284004c-0.0401001-0.5223999,0.4023018-1.0049019,1.5703011-1.0459023 c1.1679993-0.0389977,2.294899,1.1270027,2.294899,1.1270027l2.0527-2.4942017l4.8711014,7.6407013l-2.1737976,5.0253983 l3.9862976,0.4433022L77.75,32.1553001L74.0858994,30.9491997z"/> <path fill-rule="evenodd" d="M13.9375,35.4530983c1.0136995-0.7705002,1.6113005-0.8856964,2.7383003-0.8856964 c1.1268997,0,2.6971989,1.1659966,2.6971989,1.1659966l-0.6844997-4.2616978c0,0-1.0459003-0.522501-2.4560986-0.522501 c-1.4082012,0-3.7431011,0.3213005-5.2734013,2.1319008C9.42871,34.8895988,8.70508,36.1357002,8.7851601,38.6299019 c0.0800695,2.4921989,0.4042902,3.902298,2.29494,5.5487976c1.5692997,1.3671989,2.9385004,1.8496017,5.1122999,1.8887024 c2.1748009,0.0409966,2.7373009-0.6836014,2.7373009-0.6836014l0.4432983-4.1016006c0,0-0.6444988,0.6445999-1.5702991,0.9668007 c-0.9256992,0.3203011-2.2948999,0.5214996-3.6230001-0.4033012s-1.5303001-2.0498009-1.5303001-3.2968979 C12.6493998,37.3017998,13.0917997,36.0966988,13.9375,35.4530983z"/> <path fill="#FFFFFF" stroke="#DC9600" stroke-width="0.462826" d="M32.8642998,41.7061005 c0.0537682-0.4591866,0.5327644,0.1868782,0.7070007-0.1329002c1.1389351,0.4161339,2.3691635-0.0034981,3.4537392-0.4205742 c0.911335-0.3504562,1.7236786-0.9690094,2.6049805-1.3071251c0.1889839-0.072506,0.4639778-0.0391502,0.6359215-0.136837 c0.2758369-0.1567116,0.0825043-0.0496178,0.2156868-0.2510529c0.1330795-0.2012787,0.3681259-0.7599144,0.1863708-0.9879112 c0.4951515-0.137001,0.3312683-0.2359428,0.3459778-0.6893463c0.0069771-0.2150497,0.0481071-0.3815384,0.1061707-0.5864143 c0.028698-0.1012688,0.3146133-0.2391205,0.3153534-0.2671394c-0.1828957-0.545311-2.3407211,0.5141945-2.7674866,0.6271362 c-0.7325478,0.1938629-1.4548683,0.4232025-2.2098007,0.5312386c-0.8403816,0.120266-1.7386513,0.2114372-2.5874329,0.1337585 c-0.8986969-0.0822487-1.6286583-0.2417908-2.5211811,0.0906677c0.0637207,0.0745735,0.0925674,0.186882,0.1620998,0.2557983 c-0.3533554-0.1018333-0.6121063-0.094017-0.7072639,0.269886c-0.0179329,0.0685844,0.0308151,0.7595978,0.0705643,0.8122139 c-0.104269-0.0406685-0.2087688-0.0807343-0.3134995-0.1201973c-0.0526695,0.1167564,0.4165688,0.0622597,0.2656002,0.2314987 c-0.1274624-0.0556793-0.2602634-0.0918121-0.3984013-0.1084023c-0.0069466,0.1745949,0.4372044,0.1919365,0.3662014,0.3564034 c-0.0970287,0.0137939-0.2991428-0.3417435-0.3896008-0.1484032c0.0433445,0.0606842,0.102911,0.0977859,0.1786995,0.1113014 c-0.2812099-0.0493393-0.7512512,0.0020447-0.4102001,0.3652992c-0.1412144-0.086586-0.2896481-0.1582222-0.4452991-0.214901 c0.077486,0.0414276,0.1573124,0.1066856,0.2411995,0.1367035c-0.0797329-0.0299339-0.1594658-0.0598679-0.2392006-0.0898018 c0.1260395,0.1412735-0.2683258,0.0307465,0.1816006,0.1991997c-0.0533657-0.0201645-0.1067333-0.0403328-0.160099-0.0605011 C30.0105991,41.4112206,31.9498539,41.6014404,32.8642998,41.7061005z"/> <path fill="#FFFFFF" stroke="#DC9600" stroke-width="0.462826" d="M48.9804993,31.5508003 c0.0126572,0.5655212-0.7338715-0.1724091-0.7460976,0.2987995c-0.8468246-0.1275272-1.4590569,0.126009-2.1164436,0.4413395 c-0.5771179,0.276825-1.216404,0.7103996-1.7991676,1.1818771c-0.3706245,0.2998505-0.7655907,0.6031227-1.1000481,0.9433708 c-0.2776604,0.2824669-0.4566879,0.6196098-0.8026505,0.8292351c-0.139492,0.0845222-0.3740654,0.1015358-0.4940834,0.2066727 c-0.2603607,0.2280807-0.0566063,0.0587959-0.1465759,0.3145256c-0.0889816,0.2529297-0.1763916,0.9015656,0.043869,1.1073799 c-0.5633507,0.2866173-0.2427406,0.4525948-0.2289009,0.9815712c0.0060196,0.230114-0.0286407,0.5240517-0.1841011,0.7079277 c-0.0999222,0.118187-0.490654,0.1336441-0.5117989,0.2783012c-0.08564,0.5963211,1.2635803-0.2225723,1.3191986-0.2546959 c0.7243538-0.4183578,1.4265556-0.875927,2.1685867-1.2633705c0.7509499-0.3920975,1.4261322-0.8490791,2.2311554-1.1573563 c0.7812691-0.2991829,1.5749702-0.5421753,2.4110298-0.5830345c0.3259735-0.0159302,1.9759712-0.013176,1.6103287-0.6917419 c0.5233383,0.1944733,0.9715271-0.7716789,0.7557983-1.1611023c0.1133652,0.0559235,0.2214317,0.1206894,0.3242035,0.1943016 c0.0656242-0.0918312-0.2635231-0.1656113-0.2900352-0.2326469c-0.0701256-0.17733,0.5026283,0.1644592,0.4775352,0.1447449 c0.0576439-0.190918-0.4661522-0.3490791-0.3691025-0.4940987c0.1373863-0.0023842,0.2941132,0.4478416,0.4580002,0.2753983 c-0.0394173-0.0886536-0.1058159-0.1511536-0.1991997-0.1875c0.3494034,0.1379776,0.9938545,0.4332275,0.6309013-0.2304993 c0.260376,0.2444496,0.4476242,0.5450935,0.6297989,0.8496017c-0.0868568-0.2053871-0.1997566-0.4215508-0.3496017-0.5918007 c0.133667,0.1441994,0.2462349,0.2960777,0.3418007,0.4687996c0.021244-0.2153397-0.0714073-0.3810692-0.2206993-0.5401001 c0.0857201,0.0916748,0.1635208,0.1896744,0.2333984,0.2939987 C52.9900055,31.7811165,50.417778,31.5297546,48.9804993,31.5508003z"/> <polygon fill-rule="evenodd" points="28.6728992,36.4980011 24.4463005,36.4980011 24.4463005,31.0293007 20.5410004,31.3505993  20.5410004,45.9473 24.4463005,45.5049019 24.4463005,39.9961014 28.6728992,39.9961014 28.6728992,45.8671989  32.4570007,45.5049019 32.4570007,30.9491997 28.6728992,31.3115005                  "/> <polygon fill-rule="evenodd" points="49.8905983,45.9473 53.7148018,45.5458984 53.7148018,31.0293007 49.8905983,31.3505993                    "/> </g> </g> </g> <g> </g> </svg>