<svg width="30" height="30" viewBox="0 0 30 30" fill="none" xmlns="http://www.w3.org/2000/svg">
<mask id="mask0_5_250" style="mask-type:luminance" maskUnits="userSpaceOnUse" x="0" y="0" width="30" height="30">
<path d="M30 0H0V30H30V0Z" fill="white"/>
</mask>
<g mask="url(#mask0_5_250)">
<path d="M23.2498 0H6.7502C3.0221 0 0 3.022 0 6.75V23.25C0 26.978 3.0221 30 6.7502 30H23.2498C26.9778 30 30 26.978 30 23.25V6.75C30 3.022 26.9778 0 23.2498 0Z" fill="#00814F"/>
<path d="M13.3066 22.931H8.8288V7.04199H13.4643C18.101 7.04199 23.0953 8.07699 23.0953 14.626C23.0974 21.581 18.1687 22.931 13.3066 22.931ZM13.9596 9.80798H12.3393V20.18H14.0761C17.1358 20.18 19.4736 19.01 19.4736 14.847C19.4736 10.395 16.1197 9.81099 13.9596 9.81099V9.80798Z" fill="white"/>
</g>
</svg>
