<svg width="532" height="532" viewBox="0 0 532 532" fill="none" xmlns="http://www.w3.org/2000/svg">
<rect x="20" y="20" width="492" height="492" rx="38" stroke="#0A0086" stroke-width="40"/>
<path d="M266 183C295.173 183 318.823 158.823 318.823 129C318.823 99.1766 295.173 75 266 75C236.827 75 213.177 99.1766 213.177 129C213.177 158.823 236.827 183 266 183Z" fill="#00008B"/>
<path d="M310.333 224H222.61V438H310.333V224Z" fill="#0A0086"/>
<path d="M250.083 224H197.024C188.233 224 181.106 231.387 181.106 240.5C181.106 249.613 188.233 257 197.024 257H250.083C258.874 257 266 249.613 266 240.5C266 231.387 258.874 224 250.083 224Z" fill="#00008B"/>
<path d="M337.609 430H195.334C187.476 430 181.106 432.91 181.106 436.5V449.5C181.106 453.09 187.476 456 195.334 456H337.609C345.467 456 351.837 453.09 351.837 449.5V436.5C351.837 432.91 345.467 430 337.609 430Z" fill="#0A0086"/>
</svg>
