<svg width="30" height="30" viewBox="0 0 30 30" fill="none" xmlns="http://www.w3.org/2000/svg">
<path d="M23.25 0H6.75C3.022 0 0 3.0221 0 6.7502V23.2498C0 26.9778 3.022 30 6.75 30H23.25C26.978 30 30 26.9778 30 23.2498V6.7502C30 3.0221 26.978 0 23.25 0Z" fill="#D5C900"/>
<path d="M12.356 23.1112C12.086 23.1112 11.815 23.1112 11.546 23.089L11.637 20.478C11.742 20.478 11.883 20.5002 11.996 20.5002C13.863 20.5002 14.944 19.4207 14.944 16.9897V7.0412H18.454V17.2829C18.454 20.1849 16.903 23.1112 12.356 23.1112Z" fill="#1D1D1B"/>
</svg>
