<?xml version="1.0" encoding="UTF-8"?>
<!-- Generator: Adobe Illustrator 21.0.2, SVG Export Plug-In . SVG Version: 6.00 Build 0)  -->
<svg version="1.2" baseProfile="tiny" id="Calque_1" xmlns="http://www.w3.org/2000/svg" xmlns:xlink="http://www.w3.org/1999/xlink" x="0px" y="0px" viewBox="0 0 120 77" overflow="scroll" xml:space="preserve"> <rect fill-rule="evenodd" fill="#82C8E6" width="120" height="77"/> <g>  <path d="M30.8017998,31.4629002V13.5263996h3.9637985v14.7098999h7.2657013v3.2266006H30.8017998z"/>  <path d="M45.9248009,16.1685009c-1.2187004,0-2.0068016-0.7876005-2.0068016-1.8799009s0.7881012-1.8799,2.0068016-1.8799   c1.2196999,0,1.982399,0.7875996,1.982399,1.8799S47.1445007,16.1685009,45.9248009,16.1685009z M44.1211014,31.4629002V17.8959999   H47.6777v13.5669003H44.1211014z"/>  <path d="M55.9238014,36.9253006c-2.1592026,0-5.9961014-0.7113991-5.9961014-3.5825005   c0-1.5498009,1.0166016-2.3628006,1.9824982-2.7437v-0.0508003c-0.6103973-0.2793007-1.3466988-1.0415001-1.3466988-2.1341991   c0-1.4229012,0.7871017-2.4136009,1.4736023-2.8959999c-0.9150009-0.8638-1.3467026-2.0327015-1.3467026-3.3282013   c0-2.4897003,1.7530022-4.7255001,5.3096008-4.7255001c1.0419998,0,2.1601982,0.2793007,2.8711014,0.6860008h3.7343979v2.5405006   h-1.6259995c0.1016006,0.3046989,0.2538986,0.9399986,0.2538986,1.4736996c0,2.4897003-1.7782974,4.6488991-5.3349991,4.6488991   c-0.660099,0-1.2958984-0.1269989-1.7528992-0.2538986c-0.4062004-0.1016006-0.5331993-0.152401-0.8379021,0.1777   c-0.1024971,0.1015987-0.2040977,0.4828987-0.2040977,0.7367992c0,0.5844994,0.4325981,1.0415001,1.2705002,1.0415001h4.344799   c2.235302,0,3.8613014,1.219799,3.8613014,3.5571995C62.580101,35.5023994,59.0996017,36.9253006,55.9238014,36.9253006z    M57.6514015,31.3358994h-3.785202c-0.482399,0-0.8895988,0.330101-0.8895988,1.3208008   c0,1.524498,1.8544998,1.9566002,2.9472008,1.9566002c2.2870979,0,3.1758003-0.9906998,3.1758003-1.9307022   C59.0996017,31.6914005,58.4394989,31.3358994,57.6514015,31.3358994z M56,19.6488991   c-1.4735985,0-1.9561005,1.4990005-1.9561005,2.5410004c0,1.0923004,0.4062996,2.4644012,1.8799019,2.4644012   c1.4736977,0,1.9561005-1.4482002,1.9561005-2.4897003C57.8799019,21.0972004,57.4735985,19.6488991,56,19.6488991z"/>  <path d="M72.6776962,31.4629002v-8.5874004c0-1.3715992-0.482399-2.3115005-2.032196-2.3115005   c-0.7118988,0-1.3467026,0.3047009-1.7275009,0.6601009C68.2313995,21.8848,68.1807022,22.2152996,68.1807022,23.1299v8.3330002   h-3.5567017V17.8959999h3.302803v1.9311008c0.9657974-1.4482002,2.2362976-2.3627014,4.0907974-2.3627014   c3.0233994,0,4.2167969,2.0321999,4.2167969,4.6748009v9.3237H72.6776962z"/>  <path d="M90.4882965,25.2891006h-8.4091949c0,0.0254002,0,0.0506992,0,0.0760994   c0,2.413599,1.7528992,3.7094994,4.0391006,3.7094994c1.219696,0,2.5155945-0.5082989,3.2265015-0.8892002l0.9404984,2.6421013   c-1.0419998,0.4828987-2.8457031,1.0674-4.8272018,1.0674c-4.2432022,0-6.9101028-2.8964996-6.9101028-7.1138   c0-3.5825005,1.930603-7.3168011,6.2744064-7.3168011c4.1922989,0,5.7421951,3.2265015,5.7421951,6.3515015   C90.5644989,24.2476006,90.5391006,24.8320007,90.4882965,25.2891006z M84.669899,19.9540997   c-2.032196,0-2.6669998,1.7275009-2.6669998,2.9214001h5.2080002   C87.3378983,21.4531002,86.4736023,19.9540997,84.669899,19.9540997z"/>  <path d="M35.9091988,61.0956993H29.3799V43.1591988h6.8085995c3.3544998,0,6.5039024,0.9150009,6.5039024,4.547802   c0,1.8544998-1.472702,3.2519989-2.8701019,3.5058975v0.0508003c1.8797989,0.2539024,3.4550018,1.7275009,3.4550018,4.2685013   C43.2773018,60.0536995,39.3134995,61.0956993,35.9091988,61.0956993z M35.2998009,46.1571999h-1.9560013v4.1152992h2.0068016   c2.0830002,0,3.4550972-0.3300972,3.4550972-2.032299C38.8056984,46.5889015,37.5858994,46.1571999,35.2998009,46.1571999z    M35.4775009,53.1181984h-2.1337013v5.0048027h2.3368988c2.5156021,0,3.5058022-0.7871017,3.5058022-2.6923027   C39.1865005,53.4482002,37.2812996,53.1181984,35.4775009,53.1181984z"/>  <path d="M45.9023018,61.0956993V42.294899h3.5566978v18.8008003H45.9023018z"/>  <path d="M63.7812996,54.9219017h-8.4091988c0,0.0253983,0,0.0507965,0,0.0760994   c0,2.4141006,1.7528992,3.7099991,4.0389977,3.7099991c1.2198029,0,2.5157013-0.5088005,3.2266006-0.8895988l0.9403992,2.642498   c-1.0419998,0.482502-2.8456993,1.0664024-4.8270988,1.0664024c-4.2431984,0-6.9101982-2.8964005-6.9101982-7.1132011   c0-3.5820999,1.9306984-7.3174019,6.2743988-7.3174019c4.1923981,0,5.7421989,3.2265015,5.7421989,6.3515015   C63.857399,53.8809013,63.8320007,54.4648018,63.7812996,54.9219017z M57.9628983,49.5868988   c-2.0321999,0-2.6669998,1.7276001-2.6669998,2.9219017h5.2080002   C60.6309013,51.0858994,59.7666016,49.5868988,57.9628983,49.5868988z"/>  <path d="M74.2753983,61.0956993v-1.6767998c-0.9150009,1.2959023-2.0576019,2.1084023-3.7597961,2.1084023   c-2.9217987,0-4.1416016-2.0322037-4.1416016-4.6748009v-9.3232002h3.5567017v8.5868988   c0,1.3721008,0.5340958,2.3368988,1.8797989,2.3368988c0.6612015,0,1.2197952-0.2792969,1.5498962-0.634697   c0.6103058-0.660202,0.6611023-1.0166016,0.6611023-1.9307022v-8.3583984h3.5566025v13.5663986H74.2753983z"/>  <path d="M91.910202,54.9219017h-8.4092026c0,0.0253983,0,0.0507965,0,0.0760994   c0,2.4141006,1.7528992,3.7099991,4.0390015,3.7099991c1.2198029,0,2.5157013-0.5088005,3.2266006-0.8895988l0.9403992,2.642498   c-1.0419998,0.482502-2.8457031,1.0664024-4.8271027,1.0664024c-4.2431946,0-6.9101944-2.8964005-6.9101944-7.1132011   c0-3.5820999,1.9306946-7.3174019,6.2743988-7.3174019c4.1923981,0,5.7421951,3.2265015,5.7421951,6.3515015   C91.9862976,53.8809013,91.9608994,54.4648018,91.910202,54.9219017z M86.0917969,49.5868988   c-2.032196,0-2.6669998,1.7276001-2.6669998,2.9219017h5.2080002   C88.7598038,51.0858994,87.8955002,49.5868988,86.0917969,49.5868988z"/> </g> <g> </g> </svg>