<svg xmlns="http://www.w3.org/2000/svg" width="120" height="77" viewBox="0 0 126 81"><path fill-rule="evenodd" clip-rule="evenodd" fill="#0055c8" d="M0 0h120v77H0z"/><path fill="#fff" d="M49.521 47.477l-4.652-3.401 2.695 5.115-3.996-4.162 1.772 5.508-3.217-4.797.795 5.735-2.342-5.289-.205 5.787-1.394-5.616-1.199 5.663-.405-5.776-2.157 5.365.596-5.757-3.048 4.908 1.579-5.567-3.849 4.299 2.515-5.207-4.53 3.563 3.374-4.688-5.076 2.715 4.13-4.025-5.466 1.785 4.762-3.242-5.692.8 5.248-2.358-5.743-.207 5.575-1.406-5.621-1.207 5.733-.408-5.327-2.174 5.716.602-4.871-3.074 5.525 1.592-4.267-3.878 5.167 2.535-3.535-4.566 4.652 3.4-2.694-5.115 3.994 4.162-1.77-5.508 3.217 4.797-.796-5.734 2.342 5.289.205-5.787 1.394 5.617 1.199-5.664.406 5.777 2.157-5.367-.597 5.76 3.049-4.908-1.58 5.566 3.849-4.3-2.516 5.206 4.532-3.561-3.375 4.687 5.076-2.714-4.13 4.026 5.467-1.786-4.762 3.242 5.692-.802-5.249 2.36 5.743.207-5.574 1.404 5.621 1.209-5.734.408 5.327 2.174-5.715-.601 4.871 3.072-5.526-1.592 4.268 3.877-5.167-2.533 3.534 4.565z"/><path d="M71.17 47.68c-1.141-6.109-1.523-8.168-3.01-8.168-.975 0-1.408.455-2.844 1.961l-1.648 1.707-.695.711c-1.611 1.648-2.495 2.543-3.179 2.699-.192-.426-.511-1.801-.659-6.244-.113-3.393-.65-7.366-2.916-7.366-1.636 0-2.294.752-3.885 2.382a74.465 74.465 0 0 1-3.668 3.548c-3.011 2.719-4.961 4.768-6.385 6.262-1.284 1.348-2.174 2.277-2.615 2.35-.003-.037-.014-.061-.014-.107 0-.949.783-3.691 1.606-6.574l.139-.488c.279-.98.693-2.091 1.093-3.165.793-2.127 1.558-4.181 1.558-5.759 0-.957-.282-1.739-1.01-2.257-1.482-1.055-5.171-.996-20.027 11.62-3.578 3.039-9.368 8.143-17.069 15.537v2.076c8.188-7.906 14.311-13.309 18.029-16.467 14.564-12.368 17.62-11.959 18.208-11.54.988.701-.161 3.784-1.083 6.262-.411 1.101-.834 2.238-1.131 3.276l-.139.488c-1.681 5.893-2.248 7.877-.904 8.469 1.322.584 2.297-.439 4.433-2.682 1.407-1.479 3.335-3.502 6.304-6.184a75.84 75.84 0 0 0 3.737-3.613c1.553-1.593 1.839-1.935 2.823-1.935.207 0 1.242.36 1.428 5.917.197 5.922.65 7.727 1.938 7.727 1.342 0 2.317-.998 4.452-3.18l.693-.707 1.662-1.725c1.129-1.184 1.4-1.443 1.654-1.49.475.576 1.051 3.664 1.664 6.953l1.709 9.109 1.465-.281c-.001.001-1.712-9.103-1.714-9.122z" fill="#fff" stroke="#0055c8" stroke-width=".423"/><g fill="#fff"><path d="M55.443 20.151v12.297a2.32 2.32 0 0 1 .657-.096c.28 0 .529.046.743.11V18.738H20.768v23.457l1.402-1.201V20.151h33.273zM55.959 34.874c-.156 0-.339.081-.517.194v18.877H22.17v-9.91l-1.402 1.184V55.36h36.075V36.24c-.103-.678-.392-1.366-.884-1.366z"/></g><path d="M76.447 45.459h-.008c-2.137 0-3.855 1.615-3.855 4.406s1.475 4.555 3.855 4.555h.008c2.381 0 3.857-1.764 3.857-4.555s-1.718-4.406-3.857-4.406zm0 7.555h-.006c-1.635 0-2.25-1.209-2.25-3.125s.781-3.025 2.25-3.025h.006c1.467 0 2.248 1.109 2.248 3.025s-.613 3.125-2.248 3.125zM85.133 45.525c-1.209 0-2.086.662-2.527 1.088v-.853h-1.518v8.445h1.518v-6.336c.482-.396 1.445-.99 2.293-.99 1.021 0 1.387.734 1.387 1.266v6.061h1.461v-6.311c-.001-.987-.833-2.37-2.614-2.37zM93.367 45.76H90.77v-2.412h-1.49v2.412h-.95v1.281h.949l-.002 5.332s.045 1.994 2.396 1.994c1.227 0 1.664-.309 1.664-.309V52.72s-.467.381-1.475.381-1.094-.729-1.094-.729V47.04h2.598v-1.28zM113.506 45.529h-.025c-1.066 1.504-1.371 3.48-2.041 5.172-.318.803-.73 1.627-1.439 2.141-.973.703-.66-1.188-.582-1.74.092-.627.234-1.248.381-1.861.033-.139.006-.402-.018-.629-.004-.131-.006-.262-.012-.393-.002.01-.004.021-.008.033.002-.014.006-.025.008-.033a18.992 18.992 0 0 1-1.811 2.947c-.541.729-1.406 1.928-2.42 1.92-.328-.004-.918-.479-.867-.832.105-.744.42-1.467.717-2.15.301-.689.648-1.357 1.014-2.016.273-.416.52-.852.736-1.293.082-.166.016-.506-.02-.752-.004-.09-.006-.18-.008-.27a72.63 72.63 0 0 0-.689 1.213c-.813 1.258-1.98 2.559-3.346 2.934.004-.127.006-.256.004-.383-.002-.996-.049-2.469-.963-3.092-.514-.35-1.145.016-1.574.311-.58.395-.713.996-.713 1.65 0 1.361.951 2.469 2.316 2.68.203.031.41.018.619-.023-.395 1.533-1.6 2.781-2.844 3.686-1.145.836-2.781 1.482-4.014.473-.736-.604-1.021-1.723-1.195-2.613-.262-1.334.031-2.703.406-3.984.156-.531.344-1.057.551-1.572 1.324-.041 2.637-.43 3.896-.893a16.307 16.307 0 0 0 4.148-2.281c2.355-1.787 4.266-4.913 3.424-7.999-.719-2.638-4.27.053-5.334 1.072-2.422 2.321-4.459 5.374-5.859 8.413-.096.205-.188.418-.277.631a6.666 6.666 0 0 1-2.004-.24c.016.004-.16 1.012 0 1.061.535.152 1.07.225 1.605.238-.9 2.654-1.207 5.699-.066 8.252 1.578 3.527 5.744.061 7.012-1.885.467-.721.691-1.563.793-2.42.713-.221 1.41-.756 1.9-1.176.08-.068.156-.141.234-.215-.059.143-.115.285-.17.432-.385 1.043-.742 2.59-.141 3.617 1.09 1.863 3.529-1.861 4.555-3.652-.248 1.381-.35 2.822.061 4.123l.016.021c.805-.256 1.355-.928 1.764-1.734-.002.141 0 .279.002.41.021.738.258 1.404.803 1.918.367.35.791.209 1.049-.186.82-1.238.889-3.08.941-4.518.053-1.419.149-3.21-.515-4.513zm-12.537-6.618c1.072-1.213 2.324-2.282 3.844-2.876.641-.252 1.426-.376 1.957.151.936.927.08 2.778-.436 3.724-1.135 2.086-3.262 3.549-5.338 4.57-1.469.725-3.172 1.355-4.861 1.49 1.217-2.587 2.978-4.962 4.834-7.059zm1.177 11.116c-.695-.041-1.367-.559-1.813-1.057-.426-.479-.387-.578.023-1.004a2.23 2.23 0 0 1 1.098-.586c1.268-.262 1.502 1.359 1.451 2.582a2.75 2.75 0 0 1-.759.065zm11.782-.443c-.027 1.012-.162 2.043-.451 3.012-.139.465-.387 1.227-.949 1.301-.73.096-1.254-1.174-1.043-1.695.146-.363.438-.682.828-.742.582-.086.82.803.926 1.203-.047-.18.104-.721.025-1.02-.174-.666-.619-1.584-1.334-1.082.158-.523.295-1.025.434-1.445.168-.512.348-1.016.559-1.512.098-.229.486-1.264.678-.781.34.849.348 1.861.327 2.761z" fill="#fff"/></svg>