<svg width="30" height="30" viewBox="0 0 30 30" fill="none" xmlns="http://www.w3.org/2000/svg">
<mask id="mask0_5_394" style="mask-type:luminance" maskUnits="userSpaceOnUse" x="0" y="0" width="30" height="30">
<path d="M30 0H0V30H30V0Z" fill="white"/>
</mask>
<g mask="url(#mask0_5_394)">
<path d="M23.25 0H6.75C3.022 0 0 3.0221 0 6.7502V23.2498C0 26.9778 3.022 30 6.75 30H23.25C26.978 30 30 26.9778 30 23.2498V6.7502C30 3.0221 26.978 0 23.25 0Z" fill="#00A88F"/>
<path d="M18.602 22.9313L12.886 15.0317C12.326 14.2826 11.863 13.4645 11.511 12.5975H11.465V22.9281H8.203V7.04218H11.422L17.049 15.2339C17.903 16.4721 18.425 17.395 18.512 17.7739H18.556V7.04218H21.802V22.9313H18.602Z" fill="white"/>
</g>
</svg>
