<svg width="30" height="30" viewBox="0 0 30 30" fill="none" xmlns="http://www.w3.org/2000/svg">
<mask id="mask0_5_365" style="mask-type:luminance" maskUnits="userSpaceOnUse" x="0" y="0" width="30" height="30">
<path d="M30 0H0V30H30V0Z" fill="white"/>
</mask>
<g mask="url(#mask0_5_365)">
<path d="M23.25 0H6.75C3.022 0 0 3.022 0 6.75V23.25C0 26.978 3.022 30 6.75 30H23.25C26.978 30 30 26.978 30 23.25V6.75C30 3.022 26.978 0 23.25 0Z" fill="#F28E42"/>
<path d="M15.24 17.35H13.622V22.931H10.111V7.04199H14.995C18.664 7.04199 21.815 8.03198 21.815 11.971C21.815 16.584 17.965 17.35 15.24 17.35ZM15.195 9.76498H13.622V14.65H15.24C16.545 14.65 18.255 14.244 18.255 12.196C18.259 10.035 16.368 9.76498 15.198 9.76498H15.195Z" fill="#1D1D1B"/>
</g>
</svg>
