<svg xmlns="http://www.w3.org/2000/svg" width="120" height="77" viewBox="0 0 126 81"><path fill-rule="evenodd" clip-rule="evenodd" fill="#6e6e00" d="M0 0h120v77H0z"/><g fill="#fff"><path d="M17.387 32.913V12.176h4.582v17.007h8.401v3.73H17.387zM45.23 25.775h-9.723v.088c0 2.791 2.027 4.289 4.67 4.289 1.41 0 2.908-.587 3.73-1.028l1.086 3.055c-1.204.558-3.29 1.234-5.581 1.234-4.905 0-7.99-3.349-7.99-8.225 0-4.142 2.232-8.459 7.255-8.459 4.847 0 6.638 3.73 6.638 7.343.003.499-.026 1.175-.085 1.703zm-6.726-6.168c-2.35 0-3.084 1.998-3.084 3.378h6.021c.147-1.645-.852-3.378-2.937-3.378zM64.906 32.913h-7.549V12.176h7.872c3.877 0 7.52 1.057 7.52 5.258 0 2.144-1.704 3.76-3.319 4.053v.059c2.174.293 3.994 1.997 3.994 4.935 0 5.228-4.582 6.432-8.518 6.432zm-.705-17.271h-2.262V20.4h2.32c2.408 0 3.995-.382 3.995-2.35.001-1.909-1.409-2.408-4.053-2.408zm.205 8.048h-2.467v5.787h2.703c2.907 0 4.053-.911 4.053-3.114 0-2.291-2.203-2.673-4.289-2.673zM85.729 32.913v-1.938c-1.057 1.498-2.379 2.438-4.348 2.438-3.377 0-4.787-2.35-4.787-5.405v-10.78h4.112v9.928c0 1.586.616 2.703 2.173 2.703.764 0 1.41-.323 1.793-.734.704-.764.764-1.175.764-2.232v-9.664h4.111v15.685h-3.818zM97.328 33.413c-1.968 0-3.73-.676-4.611-1.205l1.263-3.025c.999.705 2.438 1.175 3.672 1.175 1.087 0 2.409-.382 2.409-1.615 0-1.028-.853-1.351-2.321-1.909l-1.292-.5c-2.027-.793-3.378-1.998-3.378-4.289 0-2.967 2.497-5.316 6.168-5.316 1.968 0 3.407.617 4.229 1.028l-1.263 3.025c-.911-.587-2.173-.94-3.173-.94-1.674 0-2.173.852-2.173 1.557 0 .822.764 1.292 1.851 1.674l1.381.499c2.232.823 3.818 2.027 3.818 4.641 0 3.055-2.468 5.2-6.58 5.2zM20.883 62.281V60.02c-1.087 1.615-2.232 2.761-4.377 2.761-4.406 0-6.021-4.847-6.021-8.518 0-3.672 1.851-8.166 6.874-8.166 1.204 0 2.438.382 3.202 1.116v-6.668h4.142v21.736h-3.82zm-.294-11.191c0-1.175-.676-2.026-2.673-2.026-2.526 0-3.143 2.438-3.143 4.67 0 2.115.47 5.493 3.202 5.493.823 0 1.469-.411 1.88-.793.646-.646.734-1.204.734-2.027V51.09zM38.063 62.281v-1.938c-1.057 1.498-2.379 2.438-4.347 2.438-3.378 0-4.788-2.35-4.788-5.404v-10.78h4.112v9.929c0 1.586.617 2.702 2.173 2.702.764 0 1.41-.323 1.792-.734.705-.764.764-1.175.764-2.232v-9.664h4.112v15.686h-3.818zM61.676 62.78c-1.117 0-2.438-.353-3.231-1.116v6.492h-4.112v-21.56h3.819v2.32c1.086-1.703 2.408-2.819 4.582-2.819 4.113 0 5.816 4.377 5.816 8.166-.001 3.524-1.852 8.517-6.874 8.517zm-.559-13.13c-.822 0-1.41.353-1.88.794-.705.675-.793 1.086-.793 1.997v5.346c0 1.087.646 2.026 2.526 2.026 2.644 0 3.289-2.819 3.289-4.964.001-2.114-.528-5.199-3.142-5.199zM78.033 62.839c-5.14 0-7.432-3.965-7.432-8.43 0-4.436 2.498-8.371 7.579-8.371 5.14 0 7.431 3.965 7.431 8.43 0 4.435-2.496 8.371-7.578 8.371zm.148-13.57c-2.614 0-3.29 2.908-3.29 5.111s.529 5.229 3.143 5.229c2.615 0 3.29-2.908 3.29-5.111s-.529-5.229-3.143-5.229zM96.742 50.62c-.295-.146-.882-.411-1.439-.411-.881 0-1.352.265-1.733.617-.558.499-.587 1.146-.587 1.997v9.458H88.87v-11.72c0-1.352-.117-3.231-.146-3.966h3.701v2.351c.939-1.498 1.968-2.732 3.906-2.732.588 0 1.176.177 1.498.294l-1.087 4.112zM106.346 62.78c-2.791 0-4.524-1.498-4.524-4.523v-8.43h-2.614V46.89h2.614v-3.172l4.112-1.322v4.494h3.584v2.938h-3.584v7.931c0 1.557.852 1.909 1.792 1.909.852 0 1.439-.205 1.792-.323l.411 3.025c-.764.205-2.203.41-3.583.41z"/></g></svg>