<svg width="30" height="30" viewBox="0 0 30 30" fill="none" xmlns="http://www.w3.org/2000/svg">
<mask id="mask0_5_412" style="mask-type:luminance" maskUnits="userSpaceOnUse" x="0" y="0" width="30" height="30">
<path d="M30 0H0V30H30V0Z" fill="white"/>
</mask>
<g mask="url(#mask0_5_412)">
<path d="M23.25 0H6.75C3.022 0 0 3.022 0 6.75V23.25C0 26.978 3.022 30 6.75 30H23.25C26.978 30 30 26.978 30 23.25V6.75C30 3.022 26.978 0 23.25 0Z" fill="#F3A4BA"/>
<path d="M18.382 22.931L15.207 17.534C14.69 16.655 14.195 16.587 13.832 16.587H12.806V22.938H9.29001V7.04199H14.443C18.023 7.04199 21.286 7.85198 21.286 11.611C21.286 14.267 19.215 15.459 17.819 15.685C18.472 16.832 21.173 20.861 22.636 22.931H18.382ZM14.511 9.76499H12.806V13.97H14.711C16.062 13.97 17.637 13.566 17.637 11.81C17.641 9.99099 15.907 9.76499 14.511 9.76499Z" fill="#1D1D1B"/>
</g>
</svg>
