<svg xmlns="http://www.w3.org/2000/svg" width="120" height="77" viewBox="0 0 126 81"><path fill-rule="evenodd" clip-rule="evenodd" fill="#ff5a00" d="M0 0h120v77H0z"/><path d="M18.584 20.48l-2.761-4.698c-.45-.764-.881-.822-1.194-.822h-.9v5.521h-3.054V6.659h4.483c3.112 0 5.951.705 5.951 3.974 0 2.311-1.801 3.348-3.015 3.544.567.998 2.917 4.503 4.189 6.304h-3.699zM15.217 9.028h-1.488v3.661h1.664c1.175 0 2.545-.352 2.545-1.879 0-1.586-1.507-1.782-2.721-1.782zM25.438 8.695c-.939 0-1.547-.607-1.547-1.449s.607-1.449 1.547-1.449 1.527.607 1.527 1.449-.588 1.449-1.527 1.449zm-1.39 11.785V10.026h2.74V20.48h-2.74zM34.815 20.48h-2.838l-3.368-10.454h3.035l1.351 5.56c.215.881.45 2.075.548 2.486h.039a43.1 43.1 0 0 1 .568-2.506l1.448-5.54h2.584L34.815 20.48zM48.149 15.724h-6.48v.059c0 1.859 1.351 2.858 3.113 2.858.939 0 1.938-.392 2.486-.686l.724 2.036c-.803.372-2.192.822-3.72.822-3.269 0-5.324-2.232-5.324-5.481 0-2.761 1.487-5.639 4.835-5.639 3.23 0 4.425 2.486 4.425 4.895 0 .333-.02.783-.059 1.136zm-4.483-4.112c-1.566 0-2.056 1.331-2.056 2.251h4.014c.098-1.095-.568-2.251-1.958-2.251zM55.902 12.708c-.195-.098-.587-.273-.959-.273-.588 0-.9.176-1.155.411-.372.333-.392.764-.392 1.331v6.304h-2.74v-7.812c0-.9-.079-2.153-.099-2.643h2.467v1.566c.627-.999 1.312-1.821 2.604-1.821.391 0 .782.117.998.196l-.724 2.741zM68.473 15.625h-1.41v4.855h-3.054V6.659h4.248c3.191 0 5.932.861 5.932 4.287-.001 4.014-3.348 4.679-5.716 4.679zm-.04-6.597h-1.37v4.249h1.41c1.135 0 2.623-.353 2.623-2.134 0-1.88-1.645-2.115-2.663-2.115zM76.187 20.48V5.994h2.741V20.48h-2.741zM88.717 20.676c-.979 0-1.468-.606-1.625-1.429-.861 1.018-1.664 1.527-3.093 1.527-1.841 0-3.094-1.331-3.094-3.113 0-2.839 2.977-3.387 5.286-3.387.431 0 .686-.02.686-.372v-.685c0-.744-.47-1.449-1.919-1.449a4.029 4.029 0 0 0-2.584.959l-.959-1.957c1.154-.744 2.427-1.077 4.229-1.077 1.468 0 3.837.528 3.837 3.544v4.815c0 .372.039.686.372.686.117 0 .333-.059.45-.098l.156 1.781c-.411.099-1.096.255-1.742.255zm-1.86-4.698c-.294-.02-.588-.02-.822-.02-.96 0-2.408.235-2.408 1.488 0 .764.548 1.312 1.312 1.312.607 0 1.116-.196 1.469-.567.313-.333.45-.725.45-1.233v-.98zM91.713 20.48v-2.173l4.679-6.206h-4.425v-2.075h7.538v2.311l-4.522 6.068h4.776v2.075h-8.046zM108.844 20.676c-.979 0-1.468-.606-1.625-1.429-.861 1.018-1.664 1.527-3.093 1.527-1.841 0-3.094-1.331-3.094-3.113 0-2.839 2.977-3.387 5.286-3.387.431 0 .686-.02.686-.372v-.685c0-.744-.47-1.449-1.919-1.449a4.029 4.029 0 0 0-2.584.959l-.959-1.957c1.154-.744 2.427-1.077 4.229-1.077 1.468 0 3.837.528 3.837 3.544v4.815c0 .372.039.686.372.686.117 0 .333-.059.45-.098l.156 1.781c-.411.099-1.096.255-1.742.255zm-1.86-4.698c-.294-.02-.588-.02-.822-.02-.96 0-2.408.235-2.408 1.488 0 .764.548 1.312 1.312 1.312.607 0 1.116-.196 1.469-.567.313-.333.45-.725.45-1.233v-.98zM25.76 71.357c-4.705 0-8.319-1.033-11.418-2.927l3.271-6.311c2.237 1.549 4.532 2.582 7.688 2.582 3.155 0 7.113-1.894 7.113-6.655 0-2.927-1.95-6.942-9.408-7.058-2.295 0-4.992-.057-6.312-.057L18.3 29.874h21.285v6.771H25.014l-.574 7.688c.229 0 .746.057 1.147.057 11.073.517 15.548 6.771 15.548 12.852 0 7.747-6.139 14.115-15.375 14.115zM60.007 70.382H50.77c0-5.336 1.435-8.778 4.992-15.376l9.868-18.359H45.951v-6.771h28.342v6.599C65.4 51.907 60.007 64.014 60.007 70.382zM92.132 70.382h-9.237c0-5.336 1.435-8.778 4.992-15.376l9.868-18.359H78.076v-6.771h28.342v6.599c-8.893 15.432-14.286 27.539-14.286 33.907z"/></svg>