<svg width="30" height="30" viewBox="0 0 30 30" fill="none" xmlns="http://www.w3.org/2000/svg">
<mask id="mask0_5_178" style="mask-type:luminance" maskUnits="userSpaceOnUse" x="0" y="0" width="30" height="30">
<path d="M30 0H0V30H30V0Z" fill="white"/>
</mask>
<g mask="url(#mask0_5_178)">
<mask id="mask1_5_178" style="mask-type:luminance" maskUnits="userSpaceOnUse" x="0" y="0" width="30" height="30">
<path d="M0 0H30V30H0V0Z" fill="white"/>
</mask>
<g mask="url(#mask1_5_178)">
<path d="M27.001 0H3.00101C1.34501 0 0.00100708 1.3431 0.00100708 3V27C0.00100708 28.6569 1.34501 30 3.00101 30H27.001C28.658 30 30.001 28.6569 30.001 27V3C30.001 1.3431 28.658 0 27.001 0Z" fill="white"/>
<path d="M12.171 11.3685V20.8507H9.617V11.3677H6.064V9.28953H15.721V11.3677L12.171 11.3685ZM21.484 20.85V11.7622C20.781 12.3187 19.667 12.8595 18.898 13.2022L18.109 11.4322C19.32 10.9237 20.777 10.1557 21.919 9.28723H23.929V20.8515H21.484V20.85Z" fill="#25303B"/>
<path d="M28.5 0H1.5C1.102 0 0.720995 0.158001 0.438995 0.439301C0.157995 0.720601 0 1.1022 0 1.5V3C0 3.3978 0.157995 3.7794 0.438995 4.0607C0.720995 4.342 1.102 4.5 1.5 4.5H28.5C28.898 4.5 29.279 4.342 29.561 4.0607C29.842 3.7794 30 3.3978 30 3V1.5C30 1.1022 29.842 0.720601 29.561 0.439301C29.279 0.158001 28.898 0 28.5 0ZM30.001 28.5V27C30.001 26.6022 29.843 26.2206 29.562 25.9393C29.281 25.658 28.899 25.5 28.501 25.5H1.5C1.102 25.5 0.720995 25.658 0.438995 25.9393C0.157995 26.2206 0 26.6022 0 27V28.5C0 28.8978 0.157995 29.2794 0.438995 29.5607C0.720995 29.842 1.102 30 1.5 30H28.5C28.898 30 29.279 29.842 29.561 29.5607C29.842 29.2794 30 28.8978 30 28.5H30.001Z" fill="#0064B0"/>
</g>
</g>
</svg>
