<svg width="30" height="30" viewBox="0 0 30 30" fill="none" xmlns="http://www.w3.org/2000/svg">
<mask id="mask0_5_509" style="mask-type:luminance" maskUnits="userSpaceOnUse" x="0" y="0" width="30" height="30">
<path d="M30 0H0V30H30V0Z" fill="white"/>
</mask>
<g mask="url(#mask0_5_509)">
<path d="M2.72701 30C2.00401 29.999 1.311 29.712 0.800003 29.2C0.288003 28.689 0.001 27.996 0 27.273V2.728C0.001 2.005 0.288003 1.312 0.800003 0.800003C1.311 0.289003 2.00401 0.001 2.72701 0H27.272C27.995 0.001 28.689 0.288003 29.2 0.800003C29.712 1.311 29.999 2.005 30 2.728V27.273C29.999 27.996 29.712 28.689 29.2 29.201C28.689 29.712 27.995 29.999 27.272 30H2.72701Z" fill="white"/>
<mask id="mask1_5_509" style="mask-type:luminance" maskUnits="userSpaceOnUse" x="1" y="1" width="28" height="28">
<path d="M1.347 1.34698H28.619V28.619H1.347V1.34698Z" fill="white"/>
</mask>
<g mask="url(#mask1_5_509)">
<path d="M7.836 11.699V20.313H5.515V11.699H2.285V9.80801H11.064V11.699H7.836ZM16.3 20.313V12.055C15.66 12.561 14.648 13.052 13.949 13.365L13.234 11.758C14.336 11.297 15.66 10.598 16.701 9.80899H18.532V20.314L16.3 20.313ZM23.826 20.596C20.656 20.596 20.032 17.471 20.032 15.046C20.032 12.62 20.717 9.495 23.886 9.495C27.055 9.495 27.681 12.62 27.681 15.046C27.682 17.471 26.996 20.596 23.826 20.596ZM23.857 11.267C22.337 11.267 22.294 13.975 22.294 15.047C22.294 16.104 22.369 18.842 23.857 18.842C25.343 18.842 25.404 16.089 25.404 15.047C25.404 13.945 25.36 11.267 23.857 11.267Z" fill="#26313C"/>
</g>
<mask id="mask2_5_509" style="mask-type:luminance" maskUnits="userSpaceOnUse" x="1" y="1" width="28" height="28">
<path d="M1.347 1.34698H28.619V28.619H1.347V1.34698Z" fill="white"/>
</mask>
<g mask="url(#mask2_5_509)">
<path d="M27.256 5.43799H2.711C2.349 5.43799 2.00199 5.29399 1.74699 5.03899C1.49099 4.78299 1.347 4.43599 1.347 4.07399V2.70999C1.347 1.95699 1.958 1.34598 2.711 1.34598H27.256C28.009 1.34598 28.619 1.95699 28.619 2.70999V4.07399C28.619 4.82699 28.009 5.43799 27.256 5.43799ZM28.619 27.255V25.891C28.619 25.138 28.009 24.528 27.256 24.528H2.711C1.958 24.528 1.347 25.138 1.347 25.891V27.255C1.347 28.008 1.958 28.618 2.711 28.618H27.256C27.435 28.618 27.612 28.583 27.778 28.515C27.943 28.446 28.093 28.346 28.22 28.219C28.347 28.092 28.447 27.942 28.516 27.777C28.584 27.611 28.619 27.434 28.619 27.255Z" fill="#9B9842"/>
</g>
</g>
</svg>
