<svg width="30" height="30" viewBox="0 0 30 30" fill="none" xmlns="http://www.w3.org/2000/svg">
<mask id="mask0_5_448" style="mask-type:luminance" maskUnits="userSpaceOnUse" x="0" y="0" width="30" height="30">
<path d="M30 0H0V30H30V0Z" fill="white"/>
</mask>
<g mask="url(#mask0_5_448)">
<mask id="mask1_5_448" style="mask-type:luminance" maskUnits="userSpaceOnUse" x="0" y="0" width="30" height="30">
<path d="M0 0H30V30H0V0Z" fill="white"/>
</mask>
<g mask="url(#mask1_5_448)">
<path d="M27.0015 0H3.0015C1.3446 0 0.00149536 1.343 0.00149536 3V27C0.00149536 28.657 1.3446 30 3.0015 30H27.0015C28.6584 30 30.0015 28.657 30.0015 27V3C30.0015 1.343 28.6584 0 27.0015 0Z" fill="white"/>
<path d="M8.57249 11.373V20.849H6.01649V11.373H2.46368V9.29199H12.1222V11.372L8.57249 11.373ZM17.886 20.849V11.765C17.1825 12.322 16.0687 12.862 15.2992 13.205L14.514 11.437C15.7245 10.93 17.1825 10.167 18.324 9.29199H20.3347V20.85L17.886 20.849ZM25.083 20.849V11.765C24.3787 12.322 23.2657 12.862 22.4955 13.205L21.711 11.437C22.9215 10.93 24.3787 10.167 25.521 9.29199H27.5317V20.85L25.083 20.849Z" fill="#25303B"/>
<path d="M28.5 0H1.5C1.1022 0 0.720601 0.157995 0.439301 0.438995C0.158001 0.720995 0 1.102 0 1.5V3C0 3.398 0.158001 3.779 0.439301 4.061C0.720601 4.342 1.1022 4.5 1.5 4.5H28.5C28.8978 4.5 29.2794 4.342 29.5607 4.061C29.842 3.779 30 3.398 30 3V1.5C30 1.102 29.842 0.720995 29.5607 0.438995C29.2794 0.157995 28.8978 0 28.5 0ZM30.0015 28.5V27C30.0015 26.602 29.8435 26.221 29.5622 25.939C29.2809 25.658 28.8993 25.5 28.5015 25.5H1.5C1.1022 25.5 0.720601 25.658 0.439301 25.939C0.158001 26.221 0 26.602 0 27V28.5C0 28.898 0.158001 29.279 0.439301 29.561C0.720601 29.842 1.1022 30 1.5 30H28.5C28.8978 30 29.2794 29.842 29.5607 29.561C29.842 29.279 30 28.898 30 28.5H30.0015Z" fill="#F28E42"/>
</g>
</g>
</svg>
