<svg width="30" height="30" viewBox="0 0 30 30" fill="none" xmlns="http://www.w3.org/2000/svg">
<mask id="mask0_5_477" style="mask-type:luminance" maskUnits="userSpaceOnUse" x="0" y="0" width="30" height="30">
<path d="M30 0H0V30H30V0Z" fill="white"/>
</mask>
<g mask="url(#mask0_5_477)">
<path d="M2.72701 30C2.00401 29.999 1.311 29.712 0.800003 29.2C0.288003 28.689 0.001 27.996 0 27.273V2.728C0.001 2.005 0.288003 1.312 0.800003 0.800003C1.311 0.289003 2.00401 0.001 2.72701 0H27.272C27.995 0.001 28.689 0.288003 29.2 0.800003C29.712 1.311 29.999 2.005 30 2.728V27.273C29.999 27.996 29.712 28.689 29.2 29.201C28.689 29.712 27.995 29.999 27.272 30H2.72701Z" fill="white"/>
<path d="M8.11099 11.686V20.301H5.78999V11.686H2.56V9.79501H11.34V11.686H8.11099Z" fill="#25303B"/>
<mask id="mask1_5_477" style="mask-type:luminance" maskUnits="userSpaceOnUse" x="1" y="1" width="28" height="28">
<path d="M1.347 1.34698H28.619V28.618H1.347V1.34698Z" fill="white"/>
</mask>
<g mask="url(#mask1_5_477)">
<path d="M16.575 20.301V12.042C15.935 12.548 14.923 13.039 14.224 13.351L13.51 11.744C14.611 11.283 15.936 10.584 16.977 9.79401H18.808V20.3H16.575V20.301ZM23.313 20.554C21.811 20.554 20.977 20.182 20.278 19.765L21.096 18.144C21.542 18.456 22.272 18.828 23.164 18.828C24.385 18.828 25.143 18.114 25.143 17.222C25.143 16.017 24.221 15.6 23.15 15.6H22.064V13.858H23.165C24.192 13.858 24.831 13.323 24.831 12.519C24.831 11.85 24.326 11.24 23.226 11.24C22.257 11.24 21.618 11.701 21.275 11.999L20.517 10.451C21.41 9.85599 22.377 9.513 23.701 9.513C25.845 9.513 27.064 10.793 27.064 12.192C27.064 13.278 26.484 14.141 25.368 14.558V14.588C26.529 14.811 27.406 15.704 27.406 17.176C27.405 19.022 25.754 20.554 23.313 20.554Z" fill="#25303B"/>
</g>
<mask id="mask2_5_477" style="mask-type:luminance" maskUnits="userSpaceOnUse" x="1" y="1" width="28" height="28">
<path d="M1.347 1.34698H28.619V28.618H1.347V1.34698Z" fill="white"/>
</mask>
<g mask="url(#mask2_5_477)">
<path d="M27.256 5.43799H2.71001C1.95701 5.43799 1.34599 4.82798 1.34599 4.07498V2.70999C1.34599 1.95699 1.95701 1.34598 2.71001 1.34598H27.255C28.008 1.34598 28.618 1.95699 28.618 2.70999V4.07399C28.618 4.25299 28.583 4.42998 28.515 4.59598C28.447 4.76098 28.346 4.91198 28.22 5.03798C28.093 5.16498 27.943 5.26598 27.778 5.33398C27.612 5.40298 27.435 5.43799 27.256 5.43799ZM28.619 27.256V25.892C28.619 25.139 28.009 24.529 27.256 24.529H2.71001C1.95701 24.529 1.34599 25.139 1.34599 25.892V27.256C1.34599 28.009 1.95701 28.619 2.71001 28.619H27.255C27.434 28.619 27.612 28.584 27.777 28.516C27.943 28.447 28.093 28.347 28.22 28.22C28.346 28.094 28.447 27.943 28.515 27.778C28.584 27.613 28.619 27.435 28.619 27.256Z" fill="#8E6539"/>
</g>
</g>
</svg>
