<svg width="30" height="30" viewBox="0 0 30 30" fill="none" xmlns="http://www.w3.org/2000/svg">
<mask id="mask0_5_189" style="mask-type:luminance" maskUnits="userSpaceOnUse" x="0" y="0" width="30" height="30">
<path d="M30 0H0V30H30V0Z" fill="white"/>
</mask>
<g mask="url(#mask0_5_189)">
<mask id="mask1_5_189" style="mask-type:luminance" maskUnits="userSpaceOnUse" x="0" y="0" width="30" height="30">
<path d="M0 0H30V30H0V0Z" fill="white"/>
</mask>
<g mask="url(#mask1_5_189)">
<path d="M27.001 0H3.00101C1.34501 0 0.00100708 1.3431 0.00100708 3V27C0.00100708 28.6569 1.34501 30 3.00101 30H27.001C28.658 30 30.001 28.6569 30.001 27V3C30.001 1.3431 28.658 0 27.001 0Z" fill="white"/>
<path d="M11.219 11.3685V20.8507H8.66V11.3677H5.10699V9.28947H14.764V11.3677L11.219 11.3685ZM17.397 20.85V19.3237C17.691 17.9812 19.017 16.7535 20.556 15.4072C21.326 14.7367 22.16 13.8997 22.16 12.7867C22.16 11.79 21.505 10.9537 20.246 10.9537C19.23 10.9537 18.527 11.6947 18.247 12.0015L17.039 10.4025C18.153 9.43647 19.184 8.97748 20.744 8.97748C22.774 8.97748 24.688 10.1572 24.688 12.5137C24.688 14.4937 23.428 15.4275 22.042 16.6882C21.453 17.2282 20.291 18.243 20.144 18.9105H24.906V20.85H17.397Z" fill="#25303B"/>
<path d="M28.5 0H1.5C1.102 0 0.720995 0.158001 0.438995 0.439301C0.157995 0.720601 0 1.1022 0 1.5V3C0 3.3978 0.157995 3.7794 0.438995 4.0607C0.720995 4.342 1.102 4.5 1.5 4.5H28.5C28.898 4.5 29.279 4.342 29.561 4.0607C29.842 3.7794 30 3.3978 30 3V1.5C30 1.1022 29.842 0.720601 29.561 0.439301C29.279 0.158001 28.898 0 28.5 0ZM30.001 28.5V27C30.001 26.6022 29.843 26.2206 29.562 25.9393C29.281 25.658 28.899 25.5 28.501 25.5H1.5C1.102 25.5 0.720995 25.658 0.438995 25.9393C0.157995 26.2206 0 26.6022 0 27V28.5C0 28.8978 0.157995 29.2794 0.438995 29.5607C0.720995 29.842 1.102 30 1.5 30H28.5C28.898 30 29.279 29.842 29.561 29.5607C29.842 29.2794 30 28.8978 30 28.5H30.001Z" fill="#C04191"/>
</g>
</g>
</svg>
