<svg width="30" height="30" viewBox="0 0 30 30" fill="none" xmlns="http://www.w3.org/2000/svg">
<mask id="mask0_5_200" style="mask-type:luminance" maskUnits="userSpaceOnUse" x="0" y="0" width="30" height="30">
<path d="M30 0H0V30H30V0Z" fill="white"/>
</mask>
<g mask="url(#mask0_5_200)">
<mask id="mask1_5_200" style="mask-type:luminance" maskUnits="userSpaceOnUse" x="0" y="0" width="30" height="30">
<path d="M0 0H30V30H0V0Z" fill="white"/>
</mask>
<g mask="url(#mask1_5_200)">
<path d="M27.001 0H3.00101C1.34501 0 0.00100708 1.3431 0.00100708 3V27C0.00100708 28.657 1.34501 30 3.00101 30H27.001C28.658 30 30.001 28.657 30.001 27V3C30.001 1.3431 28.658 0 27.001 0Z" fill="white"/>
<path d="M16.597 21.138C14.943 21.138 14.026 20.729 13.257 20.271L14.157 18.486C14.821 18.963 15.616 19.226 16.433 19.24C17.775 19.24 18.61 18.453 18.61 17.471C18.61 16.144 17.595 15.686 16.417 15.686H15.221V13.771H16.433C17.562 13.771 18.266 13.181 18.266 12.298C18.266 11.557 17.71 10.89 16.498 10.89C15.705 10.892 14.94 11.19 14.354 11.725L13.519 10.022C14.499 9.36669 15.565 8.99548 17.022 8.99548C19.379 8.99548 20.727 10.403 20.727 11.943C20.727 13.138 20.092 14.088 18.859 14.545V14.578C20.137 14.824 21.102 15.806 21.102 17.428C21.098 19.453 19.282 21.138 16.597 21.138ZM27.369 18.59C26.752 18.59 26.444 18.208 26.344 17.69C25.802 18.331 25.295 18.652 24.394 18.652C23.23 18.652 22.445 17.812 22.445 16.69C22.445 14.901 24.32 14.556 25.777 14.556C26.047 14.556 26.209 14.543 26.209 14.321V13.889C26.209 13.421 25.913 12.977 25 12.977C24.403 12.981 23.826 13.194 23.371 13.581L22.766 12.347C23.494 11.878 24.296 11.669 25.432 11.669C26.357 11.669 27.85 12.001 27.85 13.902V16.934C27.85 17.168 27.874 17.366 28.084 17.366C28.181 17.357 28.276 17.336 28.368 17.305L28.468 18.427C28.108 18.523 27.74 18.577 27.369 18.59ZM26.197 15.628C26.011 15.616 25.827 15.616 25.678 15.616C25.074 15.616 24.16 15.763 24.16 16.553C24.156 16.663 24.174 16.772 24.214 16.875C24.255 16.977 24.315 17.07 24.393 17.147C24.471 17.225 24.564 17.286 24.666 17.326C24.769 17.366 24.878 17.384 24.988 17.38C25.158 17.387 25.329 17.359 25.488 17.297C25.647 17.236 25.792 17.142 25.913 17.021C26.01 16.917 26.086 16.795 26.135 16.662C26.183 16.528 26.205 16.386 26.197 16.244V15.628ZM7.401 11.38V20.857H4.847V11.38H1.29401V9.29999H10.952V11.38H7.401Z" fill="#25303B"/>
<path d="M28.5 0H1.5C1.102 0 0.720995 0.158001 0.438995 0.439301C0.157995 0.720601 0 1.1022 0 1.5V3C0 3.3978 0.157995 3.7794 0.438995 4.0607C0.720995 4.342 1.102 4.5 1.5 4.5H28.5C28.898 4.5 29.279 4.342 29.561 4.0607C29.842 3.7794 30 3.3978 30 3V1.5C30 1.1022 29.842 0.720601 29.561 0.439301C29.279 0.158001 28.898 0 28.5 0ZM30.001 28.5V27C30.001 26.602 29.843 26.221 29.562 25.939C29.281 25.658 28.899 25.5 28.501 25.5H1.5C1.102 25.5 0.720995 25.658 0.438995 25.939C0.157995 26.221 0 26.602 0 27V28.5C0 28.898 0.157995 29.279 0.438995 29.561C0.720995 29.842 1.102 30 1.5 30H28.5C28.898 30 29.279 29.842 29.561 29.561C29.842 29.279 30 28.898 30 28.5H30.001Z" fill="#F28E42"/>
</g>
</g>
</svg>
