<svg width="30" height="30" viewBox="0 0 30 30" fill="none" xmlns="http://www.w3.org/2000/svg">
<mask id="mask0_5_211" style="mask-type:luminance" maskUnits="userSpaceOnUse" x="0" y="0" width="30" height="30">
<path d="M30 0H0V30H30V0Z" fill="white"/>
</mask>
<g mask="url(#mask0_5_211)">
<mask id="mask1_5_211" style="mask-type:luminance" maskUnits="userSpaceOnUse" x="0" y="0" width="30" height="30">
<path d="M0 0H30V30H0V0Z" fill="white"/>
</mask>
<g mask="url(#mask1_5_211)">
<path d="M27.001 0H3.00101C1.34501 0 0.00100708 1.343 0.00100708 3V27C0.00100708 28.657 1.34501 30 3.00101 30H27.001C28.658 30 30.001 28.657 30.001 27V3C30.001 1.343 28.658 0 27.001 0Z" fill="white"/>
<path d="M16.597 21.138C14.943 21.138 14.026 20.729 13.257 20.271L14.157 18.486C14.821 18.963 15.616 19.226 16.433 19.24C17.776 19.24 18.61 18.453 18.61 17.471C18.61 16.144 17.596 15.686 16.417 15.686H15.222V13.771H16.433C17.562 13.771 18.266 13.181 18.266 12.298C18.266 11.557 17.71 10.89 16.498 10.89C15.705 10.893 14.94 11.19 14.354 11.725L13.519 10.022C14.499 9.367 15.566 8.995 17.022 8.995C19.379 8.995 20.727 10.403 20.727 11.943C20.727 13.138 20.092 14.088 18.859 14.545V14.578C20.137 14.824 21.103 15.806 21.103 17.428C21.099 19.453 19.282 21.138 16.597 21.138ZM25.753 18.676C25.259 18.676 24.678 18.478 24.346 18.17V18.466H22.667V9.33501H24.407V12.741C24.852 12.1 25.36 11.668 26.197 11.668C27.924 11.668 28.639 13.506 28.639 15.098C28.639 16.579 27.862 18.676 25.752 18.676H25.753ZM25.53 13.173C25.381 13.172 25.233 13.202 25.095 13.259C24.957 13.316 24.832 13.401 24.727 13.507C24.431 13.79 24.394 13.975 24.394 14.353V16.588C24.394 17.043 24.667 17.45 25.453 17.45C26.564 17.45 26.835 16.252 26.835 15.353C26.835 14.453 26.628 13.173 25.53 13.173ZM7.401 11.38V20.857H4.847V11.38H1.29401V9.3H10.952V11.38H7.401Z" fill="#25303B"/>
<path d="M28.5 0H1.5C1.102 0 0.720995 0.158003 0.438995 0.439003C0.157995 0.721003 0 1.102 0 1.5V3C0 3.398 0.157995 3.779 0.438995 4.061C0.720995 4.342 1.102 4.5 1.5 4.5H28.5C28.898 4.5 29.279 4.342 29.561 4.061C29.842 3.779 30 3.398 30 3V1.5C30 1.102 29.842 0.721003 29.561 0.439003C29.279 0.158003 28.898 0 28.5 0ZM30.001 28.5V27C30.001 26.602 29.843 26.221 29.562 25.939C29.281 25.658 28.899 25.5 28.501 25.5H1.5C1.102 25.5 0.720995 25.658 0.438995 25.939C0.157995 26.221 0 26.602 0 27V28.5C0 28.898 0.157995 29.279 0.438995 29.561C0.720995 29.842 1.102 30 1.5 30H28.5C28.898 30 29.279 29.842 29.561 29.561C29.842 29.279 30 28.898 30 28.5H30.001Z" fill="#00814F"/>
</g>
</g>
</svg>
