<svg width="30" height="30" viewBox="0 0 30 30" fill="none" xmlns="http://www.w3.org/2000/svg">
<mask id="mask0_5_222" style="mask-type:luminance" maskUnits="userSpaceOnUse" x="0" y="0" width="30" height="30">
<path d="M30 0H0V30H30V0Z" fill="white"/>
</mask>
<g mask="url(#mask0_5_222)">
<mask id="mask1_5_222" style="mask-type:luminance" maskUnits="userSpaceOnUse" x="0" y="0" width="30" height="30">
<path d="M0 0H30V30H0V0Z" fill="white"/>
</mask>
<g mask="url(#mask1_5_222)">
<path d="M27.001 0H3.00101C1.34501 0 0.00100708 1.343 0.00100708 3V27C0.00100708 28.657 1.34501 30 3.00101 30H27.001C28.658 30 30.001 28.657 30.001 27V3C30.001 1.343 28.658 0 27.001 0Z" fill="white"/>
<path d="M10.861 11.368V20.851H8.30701V11.368H4.754V9.289H14.413V11.368H10.861ZM23.888 18.44V20.85H21.596V18.44H16.391V16.299L20.875 9.293H23.887V16.643H25.246V18.442L23.888 18.44ZM21.596 11.319H21.563C21.514 11.516 21.186 12.22 20.728 12.94L18.371 16.645H21.596V11.317V11.319Z" fill="#25303B"/>
<path d="M28.5 0H1.5C1.102 0 0.720995 0.157995 0.438995 0.438995C0.157995 0.720995 0 1.102 0 1.5V3C0 3.398 0.157995 3.779 0.438995 4.061C0.720995 4.342 1.102 4.5 1.5 4.5H28.5C28.898 4.5 29.279 4.342 29.561 4.061C29.842 3.779 30 3.398 30 3V1.5C30 1.102 29.842 0.720995 29.561 0.438995C29.279 0.157995 28.898 0 28.5 0ZM30.001 28.5V27C30.001 26.602 29.843 26.221 29.562 25.939C29.281 25.658 28.899 25.5 28.501 25.5H1.5C1.102 25.5 0.720995 25.658 0.438995 25.939C0.157995 26.221 0 26.602 0 27V28.5C0 28.898 0.157995 29.279 0.438995 29.561C0.720995 29.842 1.102 30 1.5 30H28.5C28.898 30 29.279 29.842 29.561 29.561C29.842 29.279 30 28.898 30 28.5H30.001Z" fill="#E3B32A"/>
</g>
</g>
</svg>
