<svg width="30" height="30" viewBox="0 0 30 30" fill="none" xmlns="http://www.w3.org/2000/svg">
<mask id="mask0_5_233" style="mask-type:luminance" maskUnits="userSpaceOnUse" x="0" y="0" width="30" height="30">
<path d="M30 0H0V30H30V0Z" fill="white"/>
</mask>
<g mask="url(#mask0_5_233)">
<mask id="mask1_5_233" style="mask-type:luminance" maskUnits="userSpaceOnUse" x="0" y="0" width="30" height="30">
<path d="M0 0H30V30H0V0Z" fill="white"/>
</mask>
<g mask="url(#mask1_5_233)">
<path d="M27.0015 0H3.0015C1.34465 0 0.00149536 1.343 0.00149536 3V27C0.00149536 28.657 1.34465 30 3.0015 30H27.0015C28.6584 30 30.0015 28.657 30.0015 27V3C30.0015 1.343 28.6584 0 27.0015 0Z" fill="white"/>
<path d="M11.205 11.368V20.851H8.65123V11.368H5.09698V9.289H14.7555V11.368H11.205ZM20.5148 21.124C19.1723 21.124 18.1418 20.83 17.2575 20.29L18.1905 18.49C18.8258 18.933 19.4843 19.231 20.385 19.231C21.285 19.231 22.4137 18.691 22.4137 17.332C22.4137 16.498 21.858 15.352 19.7295 15.322C19.0747 15.322 18.3045 15.306 17.9303 15.306L18.3885 9.298H24.4628V11.218H20.3025L20.1375 13.411C20.2035 13.411 20.3498 13.429 20.466 13.429C23.6257 13.576 24.9015 15.36 24.9015 17.095C24.9015 19.307 23.1503 21.124 20.5148 21.124Z" fill="#25303B"/>
<path d="M28.5 0H1.5C1.10218 0 0.720644 0.157995 0.43934 0.438995C0.158035 0.720995 0 1.102 0 1.5V3C0 3.398 0.158035 3.779 0.43934 4.061C0.720644 4.342 1.10218 4.5 1.5 4.5H28.5C28.8978 4.5 29.2794 4.342 29.5607 4.061C29.842 3.779 30 3.398 30 3V1.5C30 1.102 29.842 0.720995 29.5607 0.438995C29.2794 0.157995 28.8978 0 28.5 0ZM30.0015 28.5V27C30.0015 26.602 29.8435 26.221 29.5622 25.939C29.2809 25.658 28.8993 25.5 28.5015 25.5H1.5C1.10218 25.5 0.720644 25.658 0.43934 25.939C0.158035 26.221 0 26.602 0 27V28.5C0 28.898 0.158035 29.279 0.43934 29.561C0.720644 29.842 1.10218 30 1.5 30H28.5C28.8978 30 29.2794 29.842 29.5607 29.561C29.842 29.279 30 28.898 30 28.5H30.0015Z" fill="#662483"/>
</g>
</g>
</svg>
