<svg width="30" height="30" viewBox="0 0 30 30" fill="none" xmlns="http://www.w3.org/2000/svg">
<mask id="mask0_5_337" style="mask-type:luminance" maskUnits="userSpaceOnUse" x="0" y="0" width="30" height="30">
<path d="M30 0H0V30H30V0Z" fill="white"/>
</mask>
<g mask="url(#mask0_5_337)">
<mask id="mask1_5_337" style="mask-type:luminance" maskUnits="userSpaceOnUse" x="0" y="0" width="30" height="30">
<path d="M0 0H30V30H0V0Z" fill="white"/>
</mask>
<g mask="url(#mask1_5_337)">
<path d="M27.0015 0H3.0015C1.3446 0 0.00149536 1.343 0.00149536 3V27C0.00149536 28.657 1.3446 30 3.0015 30H27.0015C28.6584 30 30.0015 28.657 30.0015 27V3C30.0015 1.343 28.6584 0 27.0015 0Z" fill="white"/>
<path d="M10.9747 11.368V20.851H8.42099V11.368H4.86819V9.28899H14.526V11.368H10.9747ZM21.1672 21.124C18.0067 21.124 16.8772 18.931 16.8772 15.87C16.8772 11.859 18.7597 8.97699 22.4595 8.97699C23.0437 8.97699 23.6257 9.04298 24.195 9.17398L23.835 11.139C23.3272 10.95 22.789 10.856 22.2472 10.861C20.6265 10.861 19.4482 12.154 19.2847 14.478C19.677 14.134 20.4307 13.693 21.6742 13.693C23.5897 13.693 25.1287 14.953 25.1287 17.113C25.1317 19.422 23.5927 21.124 21.1672 21.124ZM20.9377 15.509C20.1967 15.509 19.6125 15.788 19.383 16.144C19.2525 16.339 19.2525 16.798 19.2525 17.142C19.2525 18.238 19.8877 19.302 21.0682 19.302C22.215 19.302 22.803 18.37 22.803 17.371C22.8067 16.299 22.0867 15.509 20.9407 15.509H20.9377Z" fill="#25303B"/>
<path d="M28.5 0H1.5C1.1022 0 0.720601 0.157995 0.439301 0.438995C0.158001 0.720995 0 1.102 0 1.5V3C0 3.398 0.158001 3.779 0.439301 4.061C0.720601 4.342 1.1022 4.5 1.5 4.5H28.5C28.8978 4.5 29.2794 4.342 29.5607 4.061C29.842 3.779 30 3.398 30 3V1.5C30 1.102 29.842 0.720995 29.5607 0.438995C29.2794 0.157995 28.8978 0 28.5 0ZM30.0015 28.5V27C30.0015 26.602 29.8435 26.221 29.5622 25.939C29.2809 25.658 28.8993 25.5 28.5015 25.5H1.5C1.1022 25.5 0.720601 25.658 0.439301 25.939C0.158001 26.221 0 26.602 0 27V28.5C0 28.898 0.158001 29.279 0.439301 29.561C0.720601 29.842 1.1022 30 1.5 30H28.5C28.8978 30 29.2794 29.842 29.5607 29.561C29.842 29.279 30 28.898 30 28.5H30.0015Z" fill="#E3051C"/>
</g>
</g>
</svg>
