<svg width="30" height="30" viewBox="0 0 30 30" fill="none" xmlns="http://www.w3.org/2000/svg">
<mask id="mask0_5_326" style="mask-type:luminance" maskUnits="userSpaceOnUse" x="0" y="0" width="30" height="30">
<path d="M30 0H0V30H30V0Z" fill="white"/>
</mask>
<g mask="url(#mask0_5_326)">
<mask id="mask1_5_326" style="mask-type:luminance" maskUnits="userSpaceOnUse" x="0" y="0" width="30" height="30">
<path d="M0 0H30V30H0V0Z" fill="white"/>
</mask>
<g mask="url(#mask1_5_326)">
<path d="M27.0015 0H3.0015C1.3446 0 0.00149536 1.343 0.00149536 3V27C0.00149536 28.657 1.3446 30 3.0015 30H27.0015C28.6584 30 30.0015 28.657 30.0015 27V3C30.0015 1.343 28.6584 0 27.0015 0Z" fill="white"/>
<path d="M11.058 11.367V20.848H8.50421V11.367H4.95151V9.28699H14.6055V11.367H11.058ZM20.973 20.848H18.3382C18.3382 19.326 18.7463 18.343 19.7618 16.461L22.578 11.218H16.962V9.28699H25.05V11.17C22.512 15.574 20.973 19.027 20.973 20.848Z" fill="#25303B"/>
<path d="M28.5 0H1.5C1.1022 0 0.720601 0.157995 0.439301 0.438995C0.158001 0.720995 0 1.102 0 1.5V3C0 3.398 0.158001 3.779 0.439301 4.061C0.720601 4.342 1.1022 4.5 1.5 4.5H28.5C28.8978 4.5 29.2794 4.342 29.5607 4.061C29.842 3.779 30 3.398 30 3V1.5C30 1.102 29.842 0.720995 29.5607 0.438995C29.2794 0.157995 28.8978 0 28.5 0ZM30.0015 28.5V27C30.0015 26.602 29.8435 26.221 29.5622 25.939C29.2809 25.658 28.8993 25.5 28.5015 25.5H1.5C1.1022 25.5 0.720601 25.658 0.439301 25.939C0.158001 26.221 0 26.602 0 27V28.5C0 28.898 0.158001 29.279 0.439301 29.561C0.720601 29.842 1.1022 30 1.5 30H28.5C28.8978 30 29.2794 29.842 29.5607 29.561C29.842 29.279 30 28.898 30 28.5H30.0015Z" fill="#8D5E2A"/>
</g>
</g>
</svg>
