<svg width="30" height="30" viewBox="0 0 30 30" fill="none" xmlns="http://www.w3.org/2000/svg">
<mask id="mask0_5_348" style="mask-type:luminance" maskUnits="userSpaceOnUse" x="0" y="0" width="30" height="30">
<path d="M30 0H0V30H30V0Z" fill="white"/>
</mask>
<g mask="url(#mask0_5_348)">
<mask id="mask1_5_348" style="mask-type:luminance" maskUnits="userSpaceOnUse" x="0" y="0" width="30" height="30">
<path d="M0 0H30V30H0V0Z" fill="white"/>
</mask>
<g mask="url(#mask1_5_348)">
<path d="M27.002 0H3.0015C1.3446 0 0.00149536 1.343 0.00149536 3V27C0.00149536 28.657 1.3446 30 3.0015 30H27.002C28.658 30 30.002 28.657 30.002 27V3C30.002 1.343 28.658 0 27.002 0Z" fill="white"/>
<path d="M11.049 11.367V20.848H8.49521V11.367H4.9425V9.287H14.605V11.367H11.049ZM20.932 21.155C18.363 21.155 16.911 19.616 16.911 17.865C16.911 16.327 17.778 15.36 18.891 14.787C17.893 14.166 17.271 13.381 17.271 12.184C17.271 10.269 19.006 8.94299 20.987 8.94299C23.016 8.94299 24.703 9.942 24.703 11.923C24.703 13.003 24.146 13.92 23.067 14.569C24.124 15.076 25.062 16.059 25.062 17.581C25.057 19.78 23.305 21.155 20.932 21.155ZM20.736 15.59C19.982 15.885 19.23 16.702 19.23 17.601C19.23 18.553 19.852 19.451 20.965 19.451C22.062 19.451 22.668 18.682 22.668 17.766C22.668 16.72 21.718 16.085 20.736 15.59ZM21.014 10.616C20.114 10.616 19.541 11.173 19.541 11.975C19.541 12.928 20.494 13.513 21.227 13.825C21.832 13.547 22.487 12.793 22.487 12.073C22.487 11.268 21.964 10.613 21.014 10.613V10.616Z" fill="#25303B"/>
<path d="M28.5 0H1.5C1.1022 0 0.720601 0.157995 0.439301 0.438995C0.158001 0.720995 0 1.102 0 1.5V3C0 3.398 0.158001 3.779 0.439301 4.061C0.720601 4.342 1.1022 4.5 1.5 4.5H28.5C28.898 4.5 29.279 4.342 29.561 4.061C29.842 3.779 30 3.398 30 3V1.5C30 1.102 29.842 0.720995 29.561 0.438995C29.279 0.157995 28.898 0 28.5 0ZM30.001 28.5V27C30.001 26.602 29.843 26.221 29.562 25.939C29.281 25.658 28.899 25.5 28.501 25.5H1.5C1.1022 25.5 0.720601 25.658 0.439301 25.939C0.158001 26.221 0 26.602 0 27V28.5C0 28.898 0.158001 29.279 0.439301 29.561C0.720601 29.842 1.1022 30 1.5 30H28.5C28.898 30 29.279 29.842 29.561 29.561C29.842 29.279 30.001 28.898 30.001 28.5Z" fill="#9F9825"/>
</g>
</g>
</svg>
