<svg width="30" height="30" viewBox="0 0 30 30" fill="none" xmlns="http://www.w3.org/2000/svg">
<mask id="mask0_5_470" style="mask-type:luminance" maskUnits="userSpaceOnUse" x="0" y="0" width="30" height="30">
<path d="M30 0H0V30H30V0Z" fill="white"/>
</mask>
<g mask="url(#mask0_5_470)">
<path d="M2.728 0H27.273C27.996 0 28.69 0.286996 29.201 0.798996C29.713 1.31 30 2.00401 30 2.72701V27.272C30 27.63 29.929 27.985 29.792 28.316C29.655 28.647 29.454 28.948 29.201 29.201C28.948 29.454 28.647 29.655 28.316 29.792C27.985 29.929 27.63 30 27.272 30H2.728C2.37 30 2.015 29.929 1.684 29.792C1.353 29.655 1.052 29.454 0.799004 29.201C0.546004 28.948 0.345 28.647 0.208 28.316C0.0710002 27.985 0 27.63 0 27.272V2.728C0 2.004 0.287004 1.311 0.799004 0.798996C1.311 0.286996 2.004 0 2.728 0Z" fill="white"/>
<path d="M11.431 11.688V20.3H9.109V11.687H5.88V9.797H14.66V11.687H11.43L11.431 11.688ZM19.05 20.59C18.519 20.59 17.99 20.53 17.472 20.412L17.799 18.622C18.261 18.792 18.75 18.878 19.243 18.874C20.715 18.874 21.786 17.699 21.936 15.586C21.579 15.898 20.894 16.3 19.763 16.3C18.023 16.3 16.623 15.154 16.623 13.19C16.623 11.092 18.023 9.54401 20.225 9.54401C23.097 9.54401 24.123 11.539 24.123 14.321C24.12 17.968 22.409 20.59 19.05 20.59ZM20.315 11.2C19.273 11.2 18.737 12.049 18.737 12.956C18.737 13.937 19.393 14.653 20.434 14.653C21.107 14.653 21.639 14.4 21.847 14.076C21.967 13.897 21.967 13.48 21.967 13.168C21.963 12.163 21.382 11.196 20.311 11.196L20.315 11.2Z" fill="#25303B"/>
<path d="M27.272 5.43999H2.728C2.549 5.43999 2.37101 5.40499 2.20601 5.33699C2.04001 5.26799 1.89001 5.16799 1.76301 5.04099C1.63601 4.91499 1.53601 4.76398 1.46701 4.59898C1.39901 4.43298 1.36301 4.25598 1.36301 4.07698V2.71298C1.36301 2.53398 1.39801 2.35599 1.46601 2.18999C1.53501 2.02399 1.63501 1.87298 1.76201 1.74698C1.88901 1.61998 2.03901 1.51898 2.20501 1.44998C2.37101 1.38198 2.549 1.34698 2.728 1.34698H27.272C27.451 1.34698 27.629 1.38199 27.795 1.45099C27.96 1.51899 28.111 1.61998 28.238 1.74698C28.365 1.87398 28.465 2.02399 28.534 2.18999C28.602 2.35599 28.637 2.53398 28.637 2.71298V4.07698C28.637 4.25598 28.602 4.43398 28.533 4.59898C28.464 4.76498 28.364 4.91499 28.237 5.04199C28.11 5.16899 27.96 5.26899 27.794 5.33699C27.629 5.40599 27.451 5.43999 27.272 5.43999ZM28.637 27.259V25.895C28.636 25.534 28.491 25.188 28.235 24.933C27.98 24.678 27.633 24.535 27.272 24.535H2.728C2.366 24.535 2.01901 24.679 1.76401 24.934C1.50801 25.19 1.36401 25.536 1.36301 25.898V27.262C1.36301 27.441 1.39801 27.619 1.46701 27.784C1.53601 27.95 1.63601 28.1 1.76301 28.226C1.89001 28.353 2.04001 28.453 2.20601 28.522C2.37101 28.59 2.549 28.625 2.728 28.625H27.272C27.451 28.625 27.629 28.59 27.795 28.521C27.96 28.452 28.111 28.352 28.238 28.225C28.364 28.098 28.465 27.947 28.533 27.782C28.602 27.616 28.637 27.438 28.637 27.259Z" fill="#5091CB"/>
</g>
</svg>
