<svg width="200" height="200" viewBox="0 0 399 194" fill="none" xmlns="http://www.w3.org/2000/svg"><g clip-path="url(#clip0_3146_4046)"><path d="M143.2 144.6C143.2 143.4 143.3 142.2 143.6 141C145.1 134 150.5 126.7 157.5 122.4C179.7 108.8 198.1 112.8 200.8 114.3C201.1 114.5 200.9 114.7 200.7 115.2C198.2 121.6 175.1 141.9 145.5 152.7C144.1 150.4 143.2 147.3 143.2 144.6ZM220 107.4C217.2 104.3 209.8 100.9 199.8 99.3C190.1 97.8 170 96.7 148.2 107.9C125.4 119.6 110.7 141.3 117.3 161.9C117.4 161.9 98.1 169 83.7 166.1C75.9 164.5 68.6 158.8 66.3 151.1C62.7 139.3 65.7 119.1 85.9 100.7C112.6 76.3 152.7 67.6 169.8 63.9C177.7 62.2 178.7 61.9 178.9 60.8C179 60.3 179.3 58.5 177.7 56.6C175.3 53.8 168.4 50.8 149.4 52.8C129.8 55 103 62.9 95 65.4C100.5 53.9 117.5 23.3 120.5 17.5C125.4 8.10001 127.2 4.10001 127.2 1.90001C127.2 1.30001 127 0.800006 126.7 0.500006C123.9 -2.09999 107.9 6.60001 95.7 21C83.4 35.4 76.9 47 67.2 62.2C56.5 79.2 22.9 87.8 6.69998 92.2C2.39998 93.4 1.09998 93.6 0.499981 94.2C-1.94907e-05 94.8 -0.200019 95.6 -1.94684e-05 96.4C1.39998 101.2 9.59998 106.3 18.1 106.7C24.3 107 31.6 106 43.1 102.8C37 112.5 26.6 134 26.6 154.4C26.6 170.3 33.9 189.2 65 192.2C89.5 194.5 113.2 185.8 129.9 179.4C148.7 194 174.3 193.2 174.4 193.2C240.1 193.2 270.6 140.6 276.2 130.8C276.2 130.9 282.2 150.4 293.7 166.2C309.4 187.9 331.2 194.7 353.5 192.6C380 190.1 397.1 169.6 398.7 165.8C399.5 163.9 398.7 161.9 393.8 164.5C389.7 166.7 385.2 170 374.2 172.1C325 181.4 310.3 130.3 299.8 108.4C298.4 105.3 297.1 103 295.7 102.4C292.7 101.2 269.5 105.3 267 110.2C241.2 158.2 207.6 168.9 182.2 169.3C173.7 169.4 166.5 167.7 160.8 164.7C170.8 159.8 177.8 156 185 151.2C211.4 133.6 221 114.8 221 108.7C220.8 108.3 220.5 107.9 220 107.4Z" fill="#034EA2"/></g><defs><clipPath id="clip0_3146_4046"><rect width="398.9" height="193.4" fill="white"/></clipPath></defs></svg>