<svg xmlns="http://www.w3.org/2000/svg" width="120" height="77" viewBox="0 0 126 81"><path fill-rule="evenodd" clip-rule="evenodd" fill="#5290CD" d="M0 0h119.999v77H0z"/><path clip-rule="evenodd" fill="none" d="M6.983 1.461H112.17v24.236H6.983z"/><text transform="translate(11.143 17.636)" fill="#FFF" font-family="'ParisinePtf-Bold'" font-size="19.05">La Navette</text><g fill="#FFF"><path d="M63.597 25.425l-.837 2.304h-.409l-.839-2.304h.329l.723 2.027.722-2.027h.311zM64.613 25.712h-.329v-.302h.329v.302zm-.018 2.017h-.291v-1.728h.291v1.728zM65.841 27.729h-.291v-2.406h.291v2.406zM67.087 27.729h-.291v-2.406h.291v2.406zM69.484 26.895h-1.273a.73.73 0 0 0 .049.277.506.506 0 0 0 .323.306.803.803 0 0 0 .242.036.959.959 0 0 0 .355-.07.875.875 0 0 0 .255-.138h.015v.316a2.46 2.46 0 0 1-.299.104c-.104.026-.21.041-.322.041-.286 0-.511-.077-.672-.232s-.24-.376-.24-.661c0-.283.076-.507.231-.674a.79.79 0 0 1 .608-.248c.232 0 .412.067.539.204.126.136.188.329.188.58v.159zm-.283-.223c0-.152-.038-.271-.115-.354-.075-.084-.19-.126-.345-.126a.512.512 0 0 0-.373.138.54.54 0 0 0-.157.342h.99zM76.482 27.721h-.291v-.181c-.084.071-.17.128-.262.168a.702.702 0 0 1-.295.061.583.583 0 0 1-.491-.238c-.121-.159-.182-.379-.182-.66 0-.146.021-.276.063-.392a.946.946 0 0 1 .169-.292.712.712 0 0 1 .535-.242c.091 0 .172.009.242.028s.144.049.221.089v-.748h.291v2.407zm-.291-.425v-.992a.97.97 0 0 0-.412-.092.463.463 0 0 0-.382.17c-.09.113-.136.274-.136.482 0 .205.034.361.105.468.07.106.182.159.338.159a.621.621 0 0 0 .25-.055c.085-.036.164-.082.237-.14zM78.738 26.887h-1.272a.76.76 0 0 0 .047.278.518.518 0 0 0 .322.305.79.79 0 0 0 .244.037.936.936 0 0 0 .354-.071.885.885 0 0 0 .255-.138h.015v.317c-.097.04-.197.075-.299.103-.104.028-.21.042-.321.042-.287 0-.511-.077-.673-.232-.16-.155-.24-.376-.24-.661 0-.283.077-.507.231-.673a.79.79 0 0 1 .608-.249c.233 0 .412.068.539.204.126.136.189.329.189.58v.158zm-.283-.222a.52.52 0 0 0-.115-.355c-.075-.083-.191-.124-.346-.124a.504.504 0 0 0-.372.137.53.53 0 0 0-.156.343h.989zM38.654 29.847v6.556c.025.917.271 1.544.737 1.88.466.337 1.006.496 1.62.478.475 0 .901-.066 1.28-.201s.726-.342 1.042-.621l-.356-.524c-.241.178-.479.313-.716.405s-.484.138-.745.138c-.392.003-.684-.124-.875-.383-.191-.26-.286-.669-.285-1.228v-6.499h2.471v-.728h-2.471v-2.715h-.562c-.198.98-.479 1.696-.839 2.146-.36.45-.897.702-1.612.756v.541h1.311M44.051 38.534h3.948v-.578c-.443.021-.727-.054-.849-.222-.123-.169-.178-.558-.162-1.164v-4.982c.433-.552.874-.996 1.325-1.333.451-.338.903-.511 1.354-.521.732.012 1.2.255 1.401.73.202.476.29 1.112.266 1.911v4.176c.016.615-.04 1.009-.169 1.18s-.429.246-.899.225v.578h3.873v-.578c-.479.019-.783-.061-.914-.238s-.188-.566-.172-1.166V32.3c.018-.377-.017-.831-.103-1.361s-.327-1-.723-1.412c-.396-.411-1.05-.629-1.962-.65a3.715 3.715 0 0 0-1.774.453 5.1 5.1 0 0 0-1.467 1.211h-.037v-6.363l-.225-.132c-.426.24-.859.429-1.3.566s-.912.242-1.413.313v.504c.526-.02.864.051 1.016.21s.219.521.201 1.082v9.831c.019.607-.043.999-.187 1.173-.145.174-.488.251-1.03.231v.578"/><path fill-rule="evenodd" clip-rule="evenodd" d="M57.959 28.876a8.469 8.469 0 0 1-1.383.588 7.34 7.34 0 0 1-1.479.291v.522c.612-.024.996.035 1.151.179.154.144.22.521.196 1.132v4.964c.022.607-.045.999-.203 1.173-.159.174-.539.251-1.145.231v.578h4.341v-.578c-.577.02-.938-.057-1.086-.229-.146-.172-.209-.558-.187-1.156v-7.563l-.205-.132M57.192 25.744c-.306.003-.556.094-.748.271-.194.179-.294.425-.3.741.006.322.105.571.3.745.192.176.442.265.748.267.298-.002.548-.091.75-.267.202-.174.308-.423.315-.745a.99.99 0 0 0-.294-.724c-.191-.186-.448-.282-.771-.288zM66.275 36.833a4.024 4.024 0 0 1-.911.704c-.357.206-.777.314-1.263.325-.624-.009-1.08-.178-1.37-.504-.289-.325-.432-.75-.428-1.274-.009-.642.308-1.194.945-1.66.639-.466 1.647-.873 3.026-1.225v3.634m.001-4.327l-1.274.301c-.692.15-1.302.326-1.828.528a6.79 6.79 0 0 0-1.337.67c-.473.29-.813.628-1.021 1.014a2.656 2.656 0 0 0-.306 1.309c.01.572.154 1.037.432 1.396a2.46 2.46 0 0 0 1.062.788c.429.167.872.249 1.332.248.712-.007 1.301-.116 1.772-.328a4.104 4.104 0 0 0 1.225-.831h.056c.11.347.284.607.523.782.24.176.564.264.973.264.314 0 .586-.022.813-.067s.437-.109.629-.193l-.149-.561a.95.95 0 0 1-.253.11 1.146 1.146 0 0 1-.309.039c-.206.003-.36-.105-.464-.325-.103-.219-.155-.566-.155-1.041v-4.701a4.117 4.117 0 0 0-.165-1.241 2.332 2.332 0 0 0-.545-.931c-.262-.29-.606-.505-1.033-.647-.427-.142-.986-.212-1.681-.212-1.176.029-2.073.26-2.695.693-.62.434-.932.895-.937 1.383a.703.703 0 0 0 .154.47c.105.131.277.199.519.204.239-.001.421-.05.545-.147s.218-.235.278-.414c.094-.292.285-.607.571-.946.286-.338.776-.522 1.47-.552.714.018 1.197.225 1.448.623.25.396.367.876.352 1.437v.878zM73.016 28.876a8.497 8.497 0 0 1-1.382.588c-.444.14-.938.237-1.479.291v.522c.612-.024.996.035 1.15.179.155.144.221.521.196 1.132v4.964c.022.607-.045.999-.203 1.173-.157.174-.54.251-1.144.231v.578h4.34v-.578c-.576.02-.938-.057-1.085-.229-.147-.172-.209-.558-.187-1.156v-7.563l-.206-.132M72.249 25.744c-.305.003-.556.094-.748.271-.192.179-.293.425-.299.741.006.322.106.571.299.745.192.176.443.265.748.267.298-.002.549-.091.75-.267.204-.174.307-.423.316-.745a.987.987 0 0 0-.295-.724c-.191-.186-.448-.282-.771-.288z"/><path d="M75.342 35.989c.075.352.147.703.22 1.054.07.352.135.73.191 1.138.396.179.835.32 1.315.423a8.482 8.482 0 0 0 1.697.156c1.186-.013 2.12-.27 2.807-.771.685-.503 1.035-1.182 1.049-2.036a2.395 2.395 0 0 0-.731-1.692 5.644 5.644 0 0 0-1.645-1.117 6.756 6.756 0 0 0-.971-.473 17.72 17.72 0 0 1-1.126-.501 2.158 2.158 0 0 1-.603-.578 1.215 1.215 0 0 1-.223-.677c.01-.334.125-.601.344-.799.217-.198.479-.339.78-.425.303-.085.583-.126.844-.124.62-.015 1.098.116 1.435.393.338.276.577.782.719 1.518l.599-.112a38.77 38.77 0 0 1-.337-2.041 6.818 6.818 0 0 0-1.14-.322 7.553 7.553 0 0 0-1.406-.125c-1.088.012-1.941.23-2.559.656s-.931.986-.942 1.682c.003.316.059.605.164.864.106.259.243.495.415.709.266.264.581.495.945.695s.754.418 1.171.653c.505.252.932.46 1.28.623.348.163.621.343.817.538.132.14.229.291.295.456s.099.351.099.555a1.618 1.618 0 0 1-.598 1.256c-.393.336-.941.511-1.65.523-.646.016-1.188-.141-1.629-.47s-.776-.922-1.011-1.777l-.615.148M71.834 73.196l1.786-2.822s1.9-2.646 4.037-3.374c2.138-.729 4.646-1.66 5.044 1.528.105.84.101 1.554.198 2.104.253 1.42.673 2.019.908 2.679.085.236.074.193.275-.012.185-.813.69-3.571.524-4.968-.226-1.904-3.19-3.228-3.142-3.989.048-.762 1.826-.632 2.858-2.535.812-1.499 2.046-3.829 4.556-4.979 2.512-1.15 2.619-1.087 2.698-1.237.2-.383-2.651-.179-3.882.343-.733.312-2.749 1.468-3.491 2.396-.626.781-2.446 3.193-3.953 3.728-1.505.534-4.069 2.384-4.263 2.821-.195.438 1.813-3.325 5.6-7.474 2.811-3.079 5.458-5.852 5.749-6.435.292-.582 1.297-2.38-.729-3.724-2.023-1.345-5.912-.91-6.641-1.332s-3.022.376-4.123-1.033c-1.104-1.408-1.522-1.579-1.567-3.257-.009-.324.141-.933.141-.933s-.035-.117-.106-.072c-.399.251-1.705 1.136-1.663 1.945.048.956.352 1.738-.338 1.76-.507.017.016-1.538-1.004-1.684-1.021-.146-1.445 2.095-1.445 2.095l.284 1.229v1.272c0 .485.398.609.276.72-.281.255-.72.045-.774.21.355.487 1.411 1.069 1.411 1.069-.066.209.093.549-.034.745-.158.248-.395.523-.787.922l.192.29c.805-.023.906-.048.906-.048l-.089 1.29s.578 1.812 1.243 1.86c.664.049.427-1.918 1.096-2.221-.175.786-.195 2.336.117 2.839.336.541 1.495 1.236 2.327 1.337.54.065-.678-1.197-.434-1.765.242-.568.08-1.867 1.23-1.722s1.288-.995 1.412-1.63c.077-.398 4.417-2.147 6.611-2.803.896-.268.73.846 1.586.608a.964.964 0 0 1 .228.633c0 .681-4.615 5.11-6.288 7.09-1.896 2.244-4.682 6.277-4.682 6.277s-.231-2.529-.342-2.947c-.489-1.867-1.783-1.228-1.783-1.228l-.898.281s-.477-.2-1.562-.253c-.783-.038-1.558-.064-2.347.199-1.119.376-1.815 1.485-3.402 3.753-.745 1.063-.994 1.499-1.411 1.968-.216.243-.975-.012-.854.684.866.589 2.434.183 5.09-3.134 1.804-2.25 1.396-2.749 3.069-2.532 1.404.183 1.681 3.17 1.681 3.17s.239 2.761-.185 4.675c-.485 2.197-1.625 3.739-2.429 5.637-.296.882.209.877 1.515-.014z"/></g></svg>