<?xml version="1.0" encoding="UTF-8"?>
<!-- Generator: Adobe Illustrator 25.2.1, SVG Export Plug-In . SVG Version: 6.00 Build 0)  -->
<svg version="1.2" baseProfile="tiny" id="Calque_1" xmlns="http://www.w3.org/2000/svg" xmlns:xlink="http://www.w3.org/1999/xlink" x="0px" y="0px" viewBox="0 0 120 77" overflow="visible" xml:space="preserve">
<g>
	<rect y="38.5" fill-rule="evenodd" fill="#82DC73" width="120" height="38.5"/>
</g>
<g>
	<rect fill-rule="evenodd" fill="#FFBE00" width="120" height="38.5"/>
</g>
<g>
	<path d="M15.8286133,15.003418v12.2714844h-3.3066406V15.003418H7.9228516v-2.6918945h12.5048828v2.6918945H15.8286133z"/>
	<path d="M28.6328125,27.6352539c-4.3662109,0-6.4643555-2.0136719-6.4643555-6.0405273v-9.2832031h3.3066406v9.1772461   c0,1.9711914,0.8686523,3.4545898,3.2211914,3.4545898c2.331543,0,3.1367188-1.4833984,3.1367188-3.4545898v-9.1772461h3.2216797   v9.2832031C35.0546875,25.621582,33.0625,27.6352539,28.6328125,27.6352539z"/>
	<path d="M44.8505859,27.6352539c-3.793457,0-7.4179688-2.5009766-7.4179688-7.6723633   c0-4.472168,2.6069336-8.0541992,7.4179688-8.0541992c1.8442383,0,3.2006836,0.3818359,4.28125,0.8691406l-1.0805664,2.734375   c-0.9750977-0.5512695-2.0771484-0.8056641-3.0307617-0.8056641c-2.2890625,0-4.1542969,1.5048828-4.1542969,5.1079102   c0,3.4335938,2.246582,5.0229492,4.4086914,5.0229492c1.1865234,0,2.246582-0.3603516,2.9882812-0.8051758l0.8901367,2.5644531   C48.0087891,27.2114258,46.3769531,27.6352539,44.8505859,27.6352539z"/>
	<path d="M56.7670898,27.4443359c-0.2543945,0-0.5087891,0-0.7631836-0.0209961l0.0849609-2.4584961   c0.105957,0,0.2333984,0.0209961,0.3393555,0.0209961c1.7587891,0,2.7763672-1.0170898,2.7763672-3.3061523v-9.3681641h3.3061523   v9.6435547C62.5107422,24.6889648,61.0488281,27.4443359,56.7670898,27.4443359z"/>
	<path d="M73.1308594,27.4868164c-1.0595703,0-1.5898438-0.6572266-1.7587891-1.5473633   c-0.9326172,1.1025391-1.8017578,1.6533203-3.3486328,1.6533203c-1.9921875,0-3.3486328-1.4414062-3.3486328-3.3701172   c0-3.0727539,3.2216797-3.6665039,5.7216797-3.6665039c0.4667969,0,0.7421875-0.0209961,0.7421875-0.402832v-0.7416992   c0-0.8051758-0.5087891-1.5683594-2.0771484-1.5683594c-1.3134766,0-2.3095703,0.6147461-2.796875,1.0385742l-1.0390625-2.1191406   c1.2509766-0.8056641,2.6279297-1.1660156,4.578125-1.1660156c1.5888672,0,4.1542969,0.5722656,4.1542969,3.8364258v5.2138672   c0,0.4023438,0.0419922,0.7416992,0.4023438,0.7416992c0.1269531,0,0.3603516-0.0634766,0.4873047-0.105957l0.1699219,1.9287109   C74.5722656,27.3173828,73.8300781,27.4868164,73.1308594,27.4868164z M71.1171875,22.4003906   c-0.3173828-0.0214844-0.6357422-0.0214844-0.8896484-0.0214844c-1.0380859,0-2.6064453,0.2543945-2.6064453,1.6108398   c0,0.8266602,0.5927734,1.4199219,1.4199219,1.4199219c0.65625,0,1.2080078-0.2119141,1.5888672-0.6147461   c0.3388672-0.3598633,0.4873047-0.7841797,0.4873047-1.3349609V22.4003906z"/>
	<path d="M83.5615234,27.2749023v-1.3989258c-0.7626953,1.0810547-1.7158203,1.7592773-3.1367188,1.7592773   c-2.4365234,0-3.4541016-1.6958008-3.4541016-3.8999023v-7.7783203H79.9375v7.1635742   c0,1.1445312,0.4453125,1.9501953,1.5683594,1.9501953c0.5517578,0,1.0175781-0.2333984,1.2929688-0.5297852   c0.5087891-0.5512695,0.5507812-0.8481445,0.5507812-1.6108398v-6.9731445h2.9677734v11.3178711H83.5615234z"/>
	<path d="M96.0908203,27.2749023v-7.1635742c0-1.1445312-0.4033203-1.9287109-1.6962891-1.9287109   c-0.5927734,0-1.1230469,0.2543945-1.4414062,0.5507812c-0.5722656,0.5512695-0.6142578,0.8266602-0.6142578,1.5898438v6.9516602   h-2.9667969V15.9570312h2.7548828v1.6108398c0.8056641-1.2080078,1.8652344-1.9711914,3.4121094-1.9711914   c2.5224609,0,3.5185547,1.6958008,3.5185547,3.8999023v7.7783203H96.0908203z"/>
	<path d="M111.2050781,22.1245117h-7.0146484c0,0.0214844,0,0.0424805,0,0.0639648   c0,2.0131836,1.4619141,3.0942383,3.3691406,3.0942383c1.0175781,0,2.0986328-0.4238281,2.6923828-0.7416992l0.7841797,2.2041016   c-0.8691406,0.402832-2.3740234,0.8901367-4.0273438,0.8901367c-3.5390625,0-5.7646484-2.4160156-5.7646484-5.9345703   c0-2.9882812,1.6103516-6.1040039,5.2353516-6.1040039c3.4970703,0,4.7890625,2.6918945,4.7890625,5.2988281   C111.2685547,21.2558594,111.2480469,21.7431641,111.2050781,22.1245117z M106.3515625,17.6738281   c-1.6953125,0-2.2246094,1.4414062-2.2246094,2.4375h4.3447266   C108.5771484,18.9243164,107.8564453,17.6738281,106.3515625,17.6738281z"/>
	<path d="M22.8457031,52.5039062v12.2714844h-3.3066406V52.5039062h-4.5991211v-2.6923828h12.5048828v2.6923828H22.8457031z"/>
	<path d="M35.6499023,65.1357422c-4.3662109,0-6.4643555-2.0136719-6.4643555-6.0410156v-9.2832031h3.3066406v9.1777344   c0,1.9707031,0.8686523,3.4541016,3.2211914,3.4541016c2.331543,0,3.137207-1.4833984,3.137207-3.4541016v-9.1777344h3.2211914   v9.2832031C42.0717773,63.1220703,40.0795898,65.1357422,35.6499023,65.1357422z"/>
	<path d="M51.8676758,65.1357422c-3.793457,0-7.4179688-2.5009766-7.4179688-7.6728516   c0-4.4716797,2.6069336-8.0537109,7.4179688-8.0537109c1.8442383,0,3.2006836,0.3818359,4.2817383,0.8691406l-1.0810547,2.734375   c-0.9750977-0.5517578-2.0771484-0.8056641-3.0307617-0.8056641c-2.2890625,0-4.1542969,1.5048828-4.1542969,5.1074219   c0,3.4335938,2.246582,5.0234375,4.4086914,5.0234375c1.1865234,0,2.246582-0.3603516,2.9882812-0.8056641l0.8901367,2.5644531   C55.0258789,64.7119141,53.394043,65.1357422,51.8676758,65.1357422z"/>
	<path d="M71.8808594,64.7958984h-3.4755859l-5.2988281-14.984375h3.5390625l2.6914062,8.1601562   c0.5087891,1.5683594,0.7636719,2.7548828,0.8691406,3.3271484h0.0419922   c0.1064453-0.5722656,0.3398438-1.6523438,0.8691406-3.2851562l2.7128906-8.2021484h3.328125L71.8808594,64.7958984z"/>
	<path d="M86.9951172,59.625h-7.0146484c0,0.0214844,0,0.0419922,0,0.0634766c0,2.0136719,1.4619141,3.0947266,3.3691406,3.0947266   c1.0175781,0,2.0986328-0.4238281,2.6923828-0.7421875l0.7841797,2.2041016   c-0.8691406,0.4033203-2.3740234,0.890625-4.0273438,0.890625c-3.5390625,0-5.7646484-2.4160156-5.7646484-5.9345703   c0-2.9882812,1.6103516-6.1044922,5.2353516-6.1044922c3.4970703,0,4.7890625,2.6923828,4.7890625,5.2988281   C87.0585938,58.7558594,87.0380859,59.2431641,86.9951172,59.625z M82.1416016,55.1738281   c-1.6953125,0-2.2246094,1.4414062-2.2246094,2.4375h4.3447266C84.3671875,56.4248047,83.6464844,55.1738281,82.1416016,55.1738281   z"/>
	<path d="M95.3916016,56.3613281c-0.2119141-0.1064453-0.6367188-0.296875-1.0390625-0.296875   c-0.6357422,0-0.9746094,0.1904297-1.25,0.4453125c-0.4033203,0.359375-0.4238281,0.8261719-0.4238281,1.4404297v6.8251953   h-2.9677734v-8.4570312c0-0.9746094-0.0849609-2.3310547-0.1054688-2.8613281h2.6699219v1.6962891   c0.6787109-1.0810547,1.4199219-1.9716797,2.8193359-1.9716797c0.4238281,0,0.8476562,0.1269531,1.0810547,0.2119141   L95.3916016,56.3613281z"/>
	<path d="M102.2607422,65.1357422c-2.0136719,0-3.2636719-1.0810547-3.2636719-3.2646484v-6.0820312h-1.8867188v-2.1201172   h1.8867188v-2.2890625l2.9667969-0.953125v3.2421875h2.5859375v2.1201172h-2.5859375v5.7216797   c0,1.1240234,0.6142578,1.3779297,1.2929688,1.3779297c0.6142578,0,1.0380859-0.1484375,1.2929688-0.2333984l0.296875,2.1835938   C104.2949219,64.9873047,103.2568359,65.1357422,102.2607422,65.1357422z"/>
</g>
<script xmlns=""/></svg>