<?xml version="1.0" encoding="UTF-8"?>
<svg id="Calque_1" xmlns="http://www.w3.org/2000/svg" baseProfile="tiny" version="1.2" viewBox="0 0 120 77">
  <!-- Generator: Adobe Illustrator 29.0.1, SVG Export Plug-In . SVG Version: 2.1.0 Build 192)  -->
  <rect x=".0000231" y="0" width="39.9999708" height="76.999997" fill="#ff82b4"/>
  <rect x="80.0000166" y="0" width="39.9999708" height="76.999997" fill="#ff5a00"/>
  <rect x="39.9999938" y="0" width="39.9999708" height="76.999997" fill="#ff1400"/>
  <rect y="18.6667583" width="120" height="39.6666667" fill="#1d1d1b"/>
  <g>
    <path d="M17.0585938,30.2139588v21.8847656h-4.9423828v-21.8847656h-5.5878906v-4.9394531h16.1513672v4.9394531h-5.6210938Z" fill="#fff"/>
    <path d="M36.9873047,52.592865c-5.7822266,0-8.5927734-3.9511719-8.5927734-11.0185547v-16.2998047h4.9423828v16.4902344c0,3.5712891.8730469,5.9648438,3.7802734,5.9648438,2.6484375,0,3.7148438-2.1660156,3.7148438-5.9648438v-16.4902344h4.7158203v16.2998047c0,7.0673828-2.6484375,11.0185547-8.5605469,11.0185547Z" fill="#fff"/>
    <path d="M63.796875,52.1368103h-6.4287109l-6.2021484-26.8623047h5.3955078l3.0683594,15.8056641c.4199219,2.2041016.8720703,4.4082031,1.0664062,6.1552734h.1289062c.2255859-1.671875.6455078-3.7988281,1.0976562-6.1171875l3.1660156-15.84375h4.9101562l-6.2021484,26.8623047Z" fill="#fff"/>
    <path d="M75.9072266,52.0987244v-26.8242187h4.9746094v26.8242187h-4.9746094Z" fill="#fff"/>
    <path d="M107.1757812,52.0987244l-.3554688-15.8818359c-.0322266-1.253418-.0322266-3.6474609.0322266-4.7490234h-.1289062c-.1298828,1.1015625-.3876953,3.0395508-.8076172,4.9013672l-3.5859375,15.7294922h-4.7490234l-3.5205078-15.6918945c-.3232422-1.7475586-.6464844-3.875-.7753906-4.9008789h-.0966797c.0322266,1.1015625.0322266,3.1914062,0,4.7109375l-.2910156,15.8818359h-4.328125l.5488281-26.8242187h6.8154297l3.3925781,13.7548828c.3876953,1.8994141.6777344,4.0644531.8398438,5.6611328h.0966797c.1611328-1.671875.4199219-3.7236328.8398438-5.699707l3.2304688-13.7163086h6.8476562l.6464844,26.8242187h-4.6513672Z" fill="#fff"/>
  </g>
</svg>