<svg width="160" height="160" viewBox="0 0 160 160" fill="none" xmlns="http://www.w3.org/2000/svg">
<mask id="mask0_62_754" style="mask-type:luminance" maskUnits="userSpaceOnUse" x="0" y="0" width="160" height="160">
<path d="M0 0H159.6V159.618H0V0Z" fill="white"/>
</mask>
<g mask="url(#mask0_62_754)">
<path d="M132.999 5.31528H26.5978C20.9543 5.31528 15.5418 7.55523 11.5512 11.551C7.5607 15.5414 5.31885 20.9525 5.31885 26.5976V133.009C5.31885 138.655 7.5607 144.066 11.5512 148.056C15.5418 152.046 20.9543 154.292 26.5978 154.292H132.999C138.642 154.292 144.055 152.046 148.045 148.056C152.036 144.066 154.278 138.655 154.278 133.009V26.5976C154.278 20.9525 152.036 15.5414 148.045 11.551C144.055 7.55523 138.642 5.31528 132.999 5.31528Z" fill="#F9A825"/>
<path fill-rule="evenodd" clip-rule="evenodd" d="M26.5975 9.30571C22.0122 9.30571 17.6147 11.1253 14.3727 14.3709C11.1302 17.6111 9.30861 22.0113 9.30861 26.5976V133.009C9.30861 137.596 11.1302 141.991 14.3727 145.236C17.6147 148.476 22.0122 150.301 26.5975 150.301H132.999C137.584 150.301 141.981 148.476 145.224 145.236C148.466 141.991 150.288 137.596 150.288 133.009V26.5976C150.288 22.0113 148.466 17.6111 145.224 14.3709C141.981 11.1253 137.584 9.30571 132.999 9.30571H26.5975ZM1.32861 26.5976C1.32861 19.8937 3.99128 13.4665 8.7298 8.72588C13.4689 3.98524 19.8959 1.32483 26.5975 1.32483H132.999C139.701 1.32483 146.128 3.98524 150.866 8.72588C155.605 13.4665 158.268 19.8937 158.268 26.5976V133.009C158.268 139.713 155.605 146.141 150.866 150.881C146.128 155.617 139.701 158.282 132.999 158.282H26.5975C19.8959 158.282 13.4689 155.617 8.7298 150.881C3.99128 146.141 1.32861 139.713 1.32861 133.009V26.5976Z" fill="white"/>
<path d="M79.4968 58.7978V84.1877L90.2538 91.8653L93.5533 87.4014L85.2344 81.3998V58.7978H79.4968ZM70.1283 63.5225C70.1283 50.5456 59.5707 39.9044 46.7027 39.9044C33.831 39.9044 23.2734 50.5456 23.2734 63.5225C23.2734 76.4941 33.831 87.1406 46.7027 87.1406C59.5707 86.9969 70.1283 76.4941 70.1283 63.5225ZM43.8102 49.8167H49.5957V67.4597H43.8102V49.8167ZM46.1244 77.952C45.9765 77.952 45.8329 77.8083 45.5456 77.8083C45.402 77.8083 45.2546 77.6647 44.9673 77.521C44.8237 77.3721 44.6758 77.2285 44.5321 77.2285C44.3885 77.0795 44.2449 76.9358 44.2449 76.7868C44.0975 76.6432 44.0975 76.4942 43.9539 76.3505C43.8102 76.2069 43.8102 76.0631 43.8102 75.7652V75.1853V74.6C43.8102 74.4563 43.9539 74.3073 43.9539 74.02C43.9539 73.871 44.0975 73.7274 44.2449 73.4348C44.3885 73.2858 44.3885 73.1422 44.5321 72.9985C44.6758 72.8549 44.8237 72.7059 44.9673 72.7059C45.111 72.5623 45.2546 72.5621 45.5456 72.4132C45.6893 72.4132 45.8329 72.2696 46.1244 72.2696H47.2815C47.4251 72.2696 47.7124 72.4132 47.8598 72.4132C48.0034 72.5621 48.1471 72.5623 48.2907 72.7059C48.4386 72.8549 48.5823 72.9985 48.7296 72.9985C48.8695 73.1422 49.0169 73.2858 49.0169 73.4348C49.1605 73.5785 49.1605 73.7274 49.3042 74.02C49.4478 74.1637 49.4478 74.3074 49.4478 74.6V75.7652C49.4478 75.9141 49.3042 76.0632 49.3042 76.3559C49.3042 76.4995 49.1605 76.6432 49.0169 76.7922C48.8695 76.9358 48.8695 77.0795 48.7259 77.2285C48.5822 77.3721 48.4386 77.521 48.2907 77.521C48.1471 77.6647 48.0034 77.6646 47.8598 77.8083C47.7124 77.9573 47.5688 77.9573 47.2815 77.9573H46.7027C46.6229 78.0265 46.5202 78.0637 46.4138 78.0637C46.3074 78.0637 46.2042 78.0212 46.1244 77.952Z" fill="#25303B"/>
<path d="M84.9475 39.9044C79.3615 39.9044 74.0628 41.0165 69.3344 42.9639C70.9107 44.2195 72.3429 45.7517 73.6319 47.2787C77.2936 46.1135 81.1092 45.507 84.9513 45.4697C104.574 45.4697 120.622 61.0591 120.622 80.1227C120.622 99.1917 104.574 114.643 84.9513 114.643C78.3624 114.664 71.8944 112.871 66.2578 109.46C60.6218 106.045 56.0354 101.144 53.0036 95.2918C51.8582 95.4301 50.5697 95.5738 49.2806 95.5738C48.4188 95.5738 47.5612 95.5738 46.7031 95.4301C53.0073 109.907 67.7586 120.203 84.9513 120.203C107.726 120.203 126.351 102.113 126.351 79.9844C126.351 57.8614 107.726 39.9044 84.9475 39.9044Z" fill="#25303B" stroke="#25303B" stroke-width="0.15"/>
</g>
<script xmlns=""/></svg>