<svg width="4206" height="1798" viewBox="0 0 4206 1798" fill="none" xmlns="http://www.w3.org/2000/svg">
<g clip-path="url(#clip0_102_198)">
<rect width="4206" height="1798" fill="white"/>
<path d="M244.18 240L286.84 104.28H320.14L361.18 240H330.76L322.48 209.94H280.18L271.36 240H244.18ZM287.2 186.18H315.82L301.96 136.14L287.2 186.18ZM398.858 241.98C387.098 241.98 376.898 239.82 368.258 235.5V213.36C379.538 218.64 390.278 221.28 400.478 221.28C410.318 221.28 415.238 218.64 415.238 213.36C415.238 210.6 413.798 208.5 410.918 207.06C408.158 205.5 403.298 203.94 396.338 202.38C386.498 200.1 379.238 196.62 374.558 191.94C369.998 187.26 367.718 180.96 367.718 173.04C367.718 163.08 371.258 155.1 378.338 149.1C385.418 142.98 394.838 139.92 406.598 139.92C418.838 139.92 428.558 142.02 435.758 146.22V169.08C426.278 163.8 417.098 161.16 408.218 161.16C398.138 161.16 393.098 163.92 393.098 169.44C393.098 172.08 394.418 174.18 397.058 175.74C399.818 177.18 404.438 178.68 410.918 180.24C420.398 182.4 427.598 185.7 432.518 190.14C437.438 194.46 439.898 200.7 439.898 208.86C439.898 218.94 436.178 226.98 428.738 232.98C421.418 238.98 411.458 241.98 398.858 241.98ZM481.634 240H456.254V168.9L452.654 142.08H477.674L479.654 152.34C488.294 144.06 498.134 139.92 509.174 139.92C517.694 139.92 524.534 142.68 529.694 148.2C534.974 153.72 537.614 162.18 537.614 173.58V240H512.054V182.76C512.054 175.8 510.914 170.88 508.634 168C506.354 165 502.754 163.5 497.834 163.5C492.074 163.5 486.674 165.36 481.634 169.08V240ZM582.52 127.5H556.06V100.32H582.52V127.5ZM581.98 240H556.6V142.08H581.98V240ZM651.627 129.3H632.367L613.647 96.36H636.687L651.627 129.3ZM642.987 241.8C612.387 241.8 597.087 225.6 597.087 193.2C597.087 176.64 600.867 163.62 608.427 154.14C616.107 144.66 626.847 139.92 640.647 139.92C654.327 139.92 664.467 144.6 671.067 153.96C677.787 163.32 681.147 177.96 681.147 197.88H623.547C624.267 205.44 626.427 210.96 630.027 214.44C633.747 217.8 639.567 219.48 647.487 219.48C658.887 219.48 668.847 217.32 677.367 213V233.52C669.327 239.04 657.867 241.8 642.987 241.8ZM639.927 160.8C630.447 160.8 624.987 167.46 623.547 180.78H654.507C654.147 173.7 652.827 168.6 650.547 165.48C648.387 162.36 644.847 160.8 639.927 160.8ZM722.806 240H697.426V168.9L693.826 142.08H718.666L721.186 154.86C728.146 144.66 736.846 139.56 747.286 139.56C749.206 139.56 750.646 139.62 751.606 139.74V164.04C748.366 163.32 745.306 162.96 742.426 162.96C734.626 162.96 728.086 165.96 722.806 171.96V240ZM801.717 241.8C771.117 241.8 755.817 225.6 755.817 193.2C755.817 176.64 759.597 163.62 767.157 154.14C774.837 144.66 785.577 139.92 799.377 139.92C813.057 139.92 823.197 144.6 829.797 153.96C836.517 163.32 839.877 177.96 839.877 197.88H782.277C782.997 205.44 785.157 210.96 788.757 214.44C792.477 217.8 798.297 219.48 806.217 219.48C817.617 219.48 827.577 217.32 836.097 213V233.52C828.057 239.04 816.597 241.8 801.717 241.8ZM798.657 160.8C789.177 160.8 783.717 167.46 782.277 180.78H813.237C812.877 173.7 811.557 168.6 809.277 165.48C807.117 162.36 803.577 160.8 798.657 160.8ZM882.959 241.98C871.199 241.98 860.999 239.82 852.359 235.5V213.36C863.639 218.64 874.379 221.28 884.579 221.28C894.419 221.28 899.339 218.64 899.339 213.36C899.339 210.6 897.899 208.5 895.019 207.06C892.259 205.5 887.399 203.94 880.439 202.38C870.599 200.1 863.339 196.62 858.659 191.94C854.099 187.26 851.819 180.96 851.819 173.04C851.819 163.08 855.359 155.1 862.439 149.1C869.519 142.98 878.939 139.92 890.699 139.92C902.939 139.92 912.659 142.02 919.859 146.22V169.08C910.379 163.8 901.199 161.16 892.319 161.16C882.239 161.16 877.199 163.92 877.199 169.44C877.199 172.08 878.519 174.18 881.159 175.74C883.919 177.18 888.539 178.68 895.019 180.24C904.499 182.4 911.699 185.7 916.619 190.14C921.539 194.46 923.999 200.7 923.999 208.86C923.999 218.94 920.279 226.98 912.839 232.98C905.519 238.98 895.559 241.98 882.959 241.98ZM1007.5 171.96V194.64H938.555V171.96H1007.5ZM1074.15 240V207.6H1019.97V189.24L1054.71 104.28H1080.09L1046.43 184.92H1074.15V157.92L1098.27 146.4V184.92H1113.75L1110.69 207.6H1098.27V240H1074.15ZM1175.05 240V104.28H1214.65C1230.97 104.28 1243.45 108.06 1252.09 115.62C1260.73 123.18 1265.05 134.16 1265.05 148.56C1265.05 166.8 1258.27 180.06 1244.71 188.34L1271.89 240H1240.93L1219.15 196.08C1217.95 196.2 1216.09 196.26 1213.57 196.26H1202.77V240H1175.05ZM1210.69 128.22H1202.77V172.32H1210.87C1228.15 172.32 1236.79 164.64 1236.79 149.28C1236.79 141.72 1234.69 136.32 1230.49 133.08C1226.41 129.84 1219.81 128.22 1210.69 128.22ZM1320.07 242.16C1306.63 242.16 1295.77 237.9 1287.49 229.38C1279.33 220.86 1275.25 208.74 1275.25 193.02C1275.25 177.18 1279.39 164.4 1287.67 154.68C1296.07 144.84 1307.53 139.92 1322.05 139.92C1335.25 139.92 1345.93 144.24 1354.09 152.88C1362.25 161.4 1366.33 173.64 1366.33 189.6C1366.33 205.56 1362.19 218.34 1353.91 227.94C1345.63 237.42 1334.35 242.16 1320.07 242.16ZM1306.39 213.36C1309.87 218.76 1314.73 221.46 1320.97 221.46C1327.21 221.46 1332.01 218.76 1335.37 213.36C1338.73 207.84 1340.41 200.28 1340.41 190.68C1340.41 181.08 1338.79 173.76 1335.55 168.72C1332.31 163.68 1327.57 161.16 1321.33 161.16C1308.01 161.16 1301.35 171.18 1301.35 191.22C1301.35 200.58 1303.03 207.96 1306.39 213.36ZM1380.11 142.08H1405.67V199.14C1405.67 206.22 1406.81 211.26 1409.09 214.26C1411.49 217.14 1415.09 218.58 1419.89 218.58C1425.53 218.58 1430.81 216.84 1435.73 213.36V142.08H1461.29V213.18L1464.89 240H1439.87L1437.89 229.92C1429.37 238.08 1419.59 242.16 1408.55 242.16C1400.03 242.16 1393.13 239.4 1387.85 233.88C1382.69 228.36 1380.11 219.84 1380.11 208.32V142.08ZM1487.12 206.34V162.06H1473.98V142.08H1487.3L1491.8 112.38H1512.14V142.08H1536.26V162.06H1512.14V204.72C1512.14 210.48 1513.1 214.62 1515.02 217.14C1516.94 219.66 1520.36 220.92 1525.28 220.92C1529.6 220.92 1534.28 220.14 1539.32 218.58V238.02C1534.4 240.66 1527.38 241.98 1518.26 241.98C1506.98 241.98 1498.94 239.22 1494.14 233.7C1489.46 228.18 1487.12 219.06 1487.12 206.34ZM1591.68 241.8C1561.08 241.8 1545.78 225.6 1545.78 193.2C1545.78 176.64 1549.56 163.62 1557.12 154.14C1564.8 144.66 1575.54 139.92 1589.34 139.92C1603.02 139.92 1613.16 144.6 1619.76 153.96C1626.48 163.32 1629.84 177.96 1629.84 197.88H1572.24C1572.96 205.44 1575.12 210.96 1578.72 214.44C1582.44 217.8 1588.26 219.48 1596.18 219.48C1607.58 219.48 1617.54 217.32 1626.06 213V233.52C1618.02 239.04 1606.56 241.8 1591.68 241.8ZM1588.62 160.8C1579.14 160.8 1573.68 167.46 1572.24 180.78H1603.2C1602.84 173.7 1601.52 168.6 1599.24 165.48C1597.08 162.36 1593.54 160.8 1588.62 160.8ZM1672.92 241.98C1661.16 241.98 1650.96 239.82 1642.32 235.5V213.36C1653.6 218.64 1664.34 221.28 1674.54 221.28C1684.38 221.28 1689.3 218.64 1689.3 213.36C1689.3 210.6 1687.86 208.5 1684.98 207.06C1682.22 205.5 1677.36 203.94 1670.4 202.38C1660.56 200.1 1653.3 196.62 1648.62 191.94C1644.06 187.26 1641.78 180.96 1641.78 173.04C1641.78 163.08 1645.32 155.1 1652.4 149.1C1659.48 142.98 1668.9 139.92 1680.66 139.92C1692.9 139.92 1702.62 142.02 1709.82 146.22V169.08C1700.34 163.8 1691.16 161.16 1682.28 161.16C1672.2 161.16 1667.16 163.92 1667.16 169.44C1667.16 172.08 1668.48 174.18 1671.12 175.74C1673.88 177.18 1678.5 178.68 1684.98 180.24C1694.46 182.4 1701.66 185.7 1706.58 190.14C1711.5 194.46 1713.96 200.7 1713.96 208.86C1713.96 218.94 1710.24 226.98 1702.8 232.98C1695.48 238.98 1685.52 241.98 1672.92 241.98Z" fill="black"/>
<path d="M2517.66 282.16C2497.38 282.16 2481.72 276.28 2470.68 264.52C2459.64 252.76 2454.12 236.14 2454.12 214.66C2454.12 192.1 2460.12 174.4 2472.12 161.56C2484.24 148.6 2500.8 142.12 2521.8 142.12C2536.8 142.12 2549.52 144.88 2559.96 150.4V177.76C2548.8 170.2 2536.26 166.42 2522.34 166.42C2510.46 166.42 2500.98 170.38 2493.9 178.3C2486.82 186.1 2483.28 197.26 2483.28 211.78C2483.28 226.06 2486.58 237.4 2493.18 245.8C2499.78 254.2 2509.14 258.4 2521.26 258.4C2526.54 258.4 2531.52 257.92 2536.2 256.96V225.64H2516.94V202.6H2563.74V271.9C2551.02 278.74 2535.66 282.16 2517.66 282.16ZM2631.15 280L2630.25 269.38C2624.85 277.9 2616.63 282.16 2605.59 282.16C2596.47 282.16 2589.33 279.7 2584.17 274.78C2579.01 269.86 2576.43 263.02 2576.43 254.26C2576.43 244.66 2579.73 237.1 2586.33 231.58C2592.93 225.94 2601.99 223.12 2613.51 223.12C2619.27 223.12 2624.55 223.72 2629.35 224.92V222.04C2629.35 215.44 2628.03 210.82 2625.39 208.18C2622.75 205.54 2618.07 204.22 2611.35 204.22C2601.75 204.22 2592.03 206.5 2582.19 211.06V187.3C2592.03 182.38 2603.37 179.92 2616.21 179.92C2629.29 179.92 2639.01 183.04 2645.37 189.28C2651.73 195.4 2654.91 204.94 2654.91 217.9V258.58L2656.71 280H2631.15ZM2602.71 251.2C2602.71 254.44 2603.79 257.02 2605.95 258.94C2608.11 260.74 2611.17 261.64 2615.13 261.64C2620.17 261.64 2624.91 260.26 2629.35 257.5V241.84C2625.15 240.88 2621.37 240.4 2618.01 240.4C2607.81 240.4 2602.71 244 2602.71 251.2ZM2700.93 280H2675.55V208.9L2671.95 182.08H2696.79L2699.31 194.86C2706.27 184.66 2714.97 179.56 2725.41 179.56C2727.33 179.56 2728.77 179.62 2729.73 179.74V204.04C2726.49 203.32 2723.43 202.96 2720.55 202.96C2712.75 202.96 2706.21 205.96 2700.93 211.96V280ZM2779.84 281.8C2749.24 281.8 2733.94 265.6 2733.94 233.2C2733.94 216.64 2737.72 203.62 2745.28 194.14C2752.96 184.66 2763.7 179.92 2777.5 179.92C2791.18 179.92 2801.32 184.6 2807.92 193.96C2814.64 203.32 2818 217.96 2818 237.88H2760.4C2761.12 245.44 2763.28 250.96 2766.88 254.44C2770.6 257.8 2776.42 259.48 2784.34 259.48C2795.74 259.48 2805.7 257.32 2814.22 253V273.52C2806.18 279.04 2794.72 281.8 2779.84 281.8ZM2776.78 200.8C2767.3 200.8 2761.84 207.46 2760.4 220.78H2791.36C2791 213.7 2789.68 208.6 2787.4 205.48C2785.24 202.36 2781.7 200.8 2776.78 200.8ZM2938.62 139.96H2964V280H2942.58L2940.6 269.38C2932.68 277.78 2923.08 281.98 2911.8 281.98C2900.28 281.98 2891.34 277.78 2884.98 269.38C2878.74 260.86 2875.62 248.92 2875.62 233.56C2875.62 216.88 2879.4 203.8 2886.96 194.32C2894.52 184.72 2904.66 179.92 2917.38 179.92C2926.02 179.92 2933.1 182.44 2938.62 187.48V139.96ZM2902.8 230.68C2902.8 251.2 2908.86 261.46 2920.98 261.46C2927.46 261.46 2933.34 258.46 2938.62 252.46V207.64C2933.82 203.2 2928.36 200.98 2922.24 200.98C2909.28 200.98 2902.8 210.88 2902.8 230.68ZM3024.7 281.8C2994.1 281.8 2978.8 265.6 2978.8 233.2C2978.8 216.64 2982.58 203.62 2990.14 194.14C2997.82 184.66 3008.56 179.92 3022.36 179.92C3036.04 179.92 3046.18 184.6 3052.78 193.96C3059.5 203.32 3062.86 217.96 3062.86 237.88H3005.26C3005.98 245.44 3008.14 250.96 3011.74 254.44C3015.46 257.8 3021.28 259.48 3029.2 259.48C3040.6 259.48 3050.56 257.32 3059.08 253V273.52C3051.04 279.04 3039.58 281.8 3024.7 281.8ZM3021.64 200.8C3012.16 200.8 3006.7 207.46 3005.26 220.78H3036.22C3035.86 213.7 3034.54 208.6 3032.26 205.48C3030.1 202.36 3026.56 200.8 3021.64 200.8ZM3123.72 274.06V247.78C3128.76 250.78 3135 253.3 3142.44 255.34C3149.88 257.26 3156.72 258.22 3162.96 258.22C3169.92 258.22 3175.2 256.84 3178.8 254.08C3182.4 251.32 3184.2 247.48 3184.2 242.56C3184.2 238.24 3182.28 234.82 3178.44 232.3C3174.72 229.78 3167.88 227.08 3157.92 224.2C3134.4 217.24 3122.64 203.98 3122.64 184.42C3122.64 171.7 3127.08 161.5 3135.96 153.82C3144.84 146.02 3156.3 142.12 3170.34 142.12C3184.98 142.12 3196.98 145 3206.34 150.76V175.96C3202.38 173.08 3197.04 170.74 3190.32 168.94C3183.6 167.02 3177.18 166.06 3171.06 166.06C3164.34 166.06 3159.12 167.32 3155.4 169.84C3151.8 172.24 3150 175.72 3150 180.28C3150 184.84 3151.92 188.56 3155.76 191.44C3159.72 194.2 3166.26 197.02 3175.38 199.9C3187.38 203.74 3196.32 208.84 3202.2 215.2C3208.2 221.44 3211.2 229.78 3211.2 240.22C3211.2 253.3 3206.76 263.56 3197.88 271C3189 278.32 3177.06 281.98 3162.06 281.98C3148.62 281.98 3135.84 279.34 3123.72 274.06ZM3275.92 280L3275.02 269.38C3269.62 277.9 3261.4 282.16 3250.36 282.16C3241.24 282.16 3234.1 279.7 3228.94 274.78C3223.78 269.86 3221.2 263.02 3221.2 254.26C3221.2 244.66 3224.5 237.1 3231.1 231.58C3237.7 225.94 3246.76 223.12 3258.28 223.12C3264.04 223.12 3269.32 223.72 3274.12 224.92V222.04C3274.12 215.44 3272.8 210.82 3270.16 208.18C3267.52 205.54 3262.84 204.22 3256.12 204.22C3246.52 204.22 3236.8 206.5 3226.96 211.06V187.3C3236.8 182.38 3248.14 179.92 3260.98 179.92C3274.06 179.92 3283.78 183.04 3290.14 189.28C3296.5 195.4 3299.68 204.94 3299.68 217.9V258.58L3301.48 280H3275.92ZM3247.48 251.2C3247.48 254.44 3248.56 257.02 3250.72 258.94C3252.88 260.74 3255.94 261.64 3259.9 261.64C3264.94 261.64 3269.68 260.26 3274.12 257.5V241.84C3269.92 240.88 3266.14 240.4 3262.78 240.4C3252.58 240.4 3247.48 244 3247.48 251.2ZM3345.15 167.5H3318.69V140.32H3345.15V167.5ZM3344.61 280H3319.23V182.08H3344.61V280ZM3391.22 280H3365.84V208.9L3362.24 182.08H3387.26L3389.24 192.34C3397.88 184.06 3407.72 179.92 3418.76 179.92C3427.28 179.92 3434.12 182.68 3439.28 188.2C3444.56 193.72 3447.2 202.18 3447.2 213.58V280H3421.64V222.76C3421.64 215.8 3420.5 210.88 3418.22 208C3415.94 205 3412.34 203.5 3407.42 203.5C3401.66 203.5 3396.26 205.36 3391.22 209.08V280ZM3470.34 246.34V202.06H3457.2V182.08H3470.52L3475.02 152.38H3495.36V182.08H3519.48V202.06H3495.36V244.72C3495.36 250.48 3496.32 254.62 3498.24 257.14C3500.16 259.66 3503.58 260.92 3508.5 260.92C3512.82 260.92 3517.5 260.14 3522.54 258.58V278.02C3517.62 280.66 3510.6 281.98 3501.48 281.98C3490.2 281.98 3482.16 279.22 3477.36 273.7C3472.68 268.18 3470.34 259.06 3470.34 246.34ZM3533.84 238.24V212.68H3587.48V238.24H3533.84ZM3608.97 280V144.28H3650.91C3660.75 144.28 3669.45 145.42 3677.01 147.7C3684.57 149.86 3691.29 153.4 3697.17 158.32C3703.17 163.12 3707.73 169.84 3710.85 178.48C3713.97 187 3715.53 197.26 3715.53 209.26C3715.53 232.18 3710.07 249.64 3699.15 261.64C3688.35 273.52 3672.93 279.64 3652.89 280H3608.97ZM3648.39 168.22H3636.69V256.06H3649.83C3674.07 256.06 3686.19 241.42 3686.19 212.14C3686.19 196.54 3683.31 185.32 3677.55 178.48C3671.79 171.64 3662.07 168.22 3648.39 168.22ZM3771.6 281.8C3741 281.8 3725.7 265.6 3725.7 233.2C3725.7 216.64 3729.48 203.62 3737.04 194.14C3744.72 184.66 3755.46 179.92 3769.26 179.92C3782.94 179.92 3793.08 184.6 3799.68 193.96C3806.4 203.32 3809.76 217.96 3809.76 237.88H3752.16C3752.88 245.44 3755.04 250.96 3758.64 254.44C3762.36 257.8 3768.18 259.48 3776.1 259.48C3787.5 259.48 3797.46 257.32 3805.98 253V273.52C3797.94 279.04 3786.48 281.8 3771.6 281.8ZM3768.54 200.8C3759.06 200.8 3753.6 207.46 3752.16 220.78H3783.12C3782.76 213.7 3781.44 208.6 3779.16 205.48C3777 202.36 3773.46 200.8 3768.54 200.8ZM3852.12 280H3826.74V208.9L3823.14 182.08H3848.16L3850.14 192.34C3858.78 184.06 3868.62 179.92 3879.66 179.92C3888.18 179.92 3895.02 182.68 3900.18 188.2C3905.46 193.72 3908.1 202.18 3908.1 213.58V280H3882.54V222.76C3882.54 215.8 3881.4 210.88 3879.12 208C3876.84 205 3873.24 203.5 3868.32 203.5C3862.56 203.5 3857.16 205.36 3852.12 209.08V280ZM3953 167.5H3926.54V140.32H3953V167.5ZM3952.46 280H3927.08V182.08H3952.46V280ZM3999.79 281.98C3988.03 281.98 3977.83 279.82 3969.19 275.5V253.36C3980.47 258.64 3991.21 261.28 4001.41 261.28C4011.25 261.28 4016.17 258.64 4016.17 253.36C4016.17 250.6 4014.73 248.5 4011.85 247.06C4009.09 245.5 4004.23 243.94 3997.27 242.38C3987.43 240.1 3980.17 236.62 3975.49 231.94C3970.93 227.26 3968.65 220.96 3968.65 213.04C3968.65 203.08 3972.19 195.1 3979.27 189.1C3986.35 182.98 3995.77 179.92 4007.53 179.92C4019.77 179.92 4029.49 182.02 4036.69 186.22V209.08C4027.21 203.8 4018.03 201.16 4009.15 201.16C3999.07 201.16 3994.03 203.92 3994.03 209.44C3994.03 212.08 3995.35 214.18 3997.99 215.74C4000.75 217.18 4005.37 218.68 4011.85 220.24C4021.33 222.4 4028.53 225.7 4033.45 230.14C4038.37 234.46 4040.83 240.7 4040.83 248.86C4040.83 258.94 4037.11 266.98 4029.67 272.98C4022.35 278.98 4012.39 281.98 3999.79 281.98Z" fill="black"/>
<line x1="977" y1="416" x2="3273" y2="416" stroke="#5D6461" stroke-opacity="0.6" stroke-width="50" stroke-dasharray="100 100"/>
<line x1="977" y1="521" x2="3273" y2="521" stroke="#5D6461" stroke-opacity="0.6" stroke-width="50" stroke-dasharray="100 100"/>
<line x1="977" y1="468.5" x2="3273" y2="468.5" stroke="#5D6461" stroke-opacity="0.3" stroke-width="55" stroke-dasharray="100 100"/>
<path d="M2337.93 319.245L2193.71 463.467L2188.41 468.771L2193.71 474.074L2337.93 618.296L2274.3 681.935L2130.07 537.713L2124.77 532.41L2119.47 537.713L1975.25 681.934L1911.61 618.295L2055.83 474.074L2061.13 468.771L2055.83 463.467L1911.61 319.246L1975.25 255.607L2119.47 399.828L2124.77 405.131L2130.07 399.828L2274.29 255.606L2337.93 319.245Z" fill="#EB2132" stroke="white" stroke-width="15"/>
<rect x="4254" y="522" width="965.03" height="105" transform="rotate(-180 4254 522)" fill="#0064B0" fill-opacity="0.6" stroke="#0064B0" stroke-width="50"/>
<path d="M3263.97 580C3205.21 580 3157 530.626 3157 469C3157 407.374 3205.21 358 3263.97 358C3322.73 358 3370.94 407.375 3370.94 469C3370.94 530.625 3322.73 580 3263.97 580Z" fill="white" stroke="black" stroke-width="20"/>
<circle cx="984" cy="469" r="103.5" fill="#B6B6B6" stroke="black" stroke-width="35"/>
<circle cx="984.5" cy="468.5" r="83.5" stroke="white" stroke-width="20"/>
<rect x="149" y="718" width="3879" height="595" rx="70" fill="#3F3F3F"/>
<rect x="149" y="1378" width="3879" height="298" rx="70" fill="#3F3F3F"/>
<path d="M255.875 946L273.425 776.35H316.85L350.15 887.95L386.825 776.35H427.325L443.3 946H408.2L399.2 838.45L361.85 946H334.625L300.425 832.375L290.075 946H255.875ZM513.384 948.25C475.134 948.25 456.009 928 456.009 887.5C456.009 866.8 460.734 850.525 470.184 838.675C479.784 826.825 493.209 820.9 510.459 820.9C527.559 820.9 540.234 826.75 548.484 838.45C556.884 850.15 561.084 868.45 561.084 893.35H489.084C489.984 902.8 492.684 909.7 497.184 914.05C501.834 918.25 509.109 920.35 519.009 920.35C533.259 920.35 545.709 917.65 556.359 912.25V937.9C546.309 944.8 531.984 948.25 513.384 948.25ZM509.559 847C497.709 847 490.884 855.325 489.084 871.975H527.784C527.334 863.125 525.684 856.75 522.834 852.85C520.134 848.95 515.709 847 509.559 847ZM614.936 948.475C600.236 948.475 587.486 945.775 576.686 940.375V912.7C590.786 919.3 604.211 922.6 616.961 922.6C629.261 922.6 635.411 919.3 635.411 912.7C635.411 909.25 633.611 906.625 630.011 904.825C626.561 902.875 620.486 900.925 611.786 898.975C599.486 896.125 590.411 891.775 584.561 885.925C578.861 880.075 576.011 872.2 576.011 862.3C576.011 849.85 580.436 839.875 589.286 832.375C598.136 824.725 609.911 820.9 624.611 820.9C639.911 820.9 652.061 823.525 661.061 828.775V857.35C649.211 850.75 637.736 847.45 626.636 847.45C614.036 847.45 607.736 850.9 607.736 857.8C607.736 861.1 609.386 863.725 612.686 865.675C616.136 867.475 621.911 869.35 630.011 871.3C641.861 874 650.861 878.125 657.011 883.675C663.161 889.075 666.236 896.875 666.236 907.075C666.236 919.675 661.586 929.725 652.286 937.225C643.136 944.725 630.686 948.475 614.936 948.475ZM683.756 823.6H715.706V894.925C715.706 903.775 717.131 910.075 719.981 913.825C722.981 917.425 727.481 919.225 733.481 919.225C740.531 919.225 747.131 917.05 753.281 912.7V823.6H785.231V912.475L789.731 946H758.456L755.981 933.4C745.331 943.6 733.106 948.7 719.306 948.7C708.656 948.7 700.031 945.25 693.431 938.35C686.981 931.45 683.756 920.8 683.756 906.4V823.6ZM844.529 946H812.804V857.125L808.304 823.6H839.354L842.504 839.575C851.204 826.825 862.079 820.45 875.129 820.45C877.529 820.45 879.329 820.525 880.529 820.675V851.05C876.479 850.15 872.654 849.7 869.054 849.7C859.304 849.7 851.129 853.45 844.529 860.95V946ZM943.169 948.25C904.919 948.25 885.794 928 885.794 887.5C885.794 866.8 890.519 850.525 899.969 838.675C909.569 826.825 922.994 820.9 940.244 820.9C957.344 820.9 970.019 826.75 978.269 838.45C986.669 850.15 990.869 868.45 990.869 893.35H918.869C919.769 902.8 922.469 909.7 926.969 914.05C931.619 918.25 938.894 920.35 948.794 920.35C963.044 920.35 975.494 917.65 986.144 912.25V937.9C976.094 944.8 961.769 948.25 943.169 948.25ZM939.344 847C927.494 847 920.669 855.325 918.869 871.975H957.569C957.119 863.125 955.469 856.75 952.619 852.85C949.919 848.95 945.494 847 939.344 847ZM1044.72 948.475C1030.02 948.475 1017.27 945.775 1006.47 940.375V912.7C1020.57 919.3 1034 922.6 1046.75 922.6C1059.05 922.6 1065.2 919.3 1065.2 912.7C1065.2 909.25 1063.4 906.625 1059.8 904.825C1056.35 902.875 1050.27 900.925 1041.57 898.975C1029.27 896.125 1020.2 891.775 1014.35 885.925C1008.65 880.075 1005.8 872.2 1005.8 862.3C1005.8 849.85 1010.22 839.875 1019.07 832.375C1027.92 824.725 1039.7 820.9 1054.4 820.9C1069.7 820.9 1081.85 823.525 1090.85 828.775V857.35C1079 850.75 1067.52 847.45 1056.42 847.45C1043.82 847.45 1037.52 850.9 1037.52 857.8C1037.52 861.1 1039.17 863.725 1042.47 865.675C1045.92 867.475 1051.7 869.35 1059.8 871.3C1071.65 874 1080.65 878.125 1086.8 883.675C1092.95 889.075 1096.02 896.875 1096.02 907.075C1096.02 919.675 1091.37 929.725 1082.07 937.225C1072.92 944.725 1060.47 948.475 1044.72 948.475ZM1246.01 770.95H1277.74V946H1250.96L1248.49 932.725C1238.59 943.225 1226.59 948.475 1212.49 948.475C1198.09 948.475 1186.91 943.225 1178.96 932.725C1171.16 922.075 1167.26 907.15 1167.26 887.95C1167.26 867.1 1171.99 850.75 1181.44 838.9C1190.89 826.9 1203.56 820.9 1219.46 820.9C1230.26 820.9 1239.11 824.05 1246.01 830.35V770.95ZM1201.24 884.35C1201.24 910 1208.81 922.825 1223.96 922.825C1232.06 922.825 1239.41 919.075 1246.01 911.575V855.55C1240.01 850 1233.19 847.225 1225.54 847.225C1209.34 847.225 1201.24 859.6 1201.24 884.35ZM1353.62 948.25C1315.37 948.25 1296.24 928 1296.24 887.5C1296.24 866.8 1300.97 850.525 1310.42 838.675C1320.02 826.825 1333.44 820.9 1350.69 820.9C1367.79 820.9 1380.47 826.75 1388.72 838.45C1397.12 850.15 1401.32 868.45 1401.32 893.35H1329.32C1330.22 902.8 1332.92 909.7 1337.42 914.05C1342.07 918.25 1349.34 920.35 1359.24 920.35C1373.49 920.35 1385.94 917.65 1396.59 912.25V937.9C1386.54 944.8 1372.22 948.25 1353.62 948.25ZM1349.79 847C1337.94 847 1331.12 855.325 1329.32 871.975H1368.02C1367.57 863.125 1365.92 856.75 1363.07 852.85C1360.37 848.95 1355.94 847 1349.79 847ZM1513.62 948.475C1498.92 948.475 1486.17 945.775 1475.37 940.375V912.7C1489.47 919.3 1502.89 922.6 1515.64 922.6C1527.94 922.6 1534.09 919.3 1534.09 912.7C1534.09 909.25 1532.29 906.625 1528.69 904.825C1525.24 902.875 1519.17 900.925 1510.47 898.975C1498.17 896.125 1489.09 891.775 1483.24 885.925C1477.54 880.075 1474.69 872.2 1474.69 862.3C1474.69 849.85 1479.12 839.875 1487.97 832.375C1496.82 824.725 1508.59 820.9 1523.29 820.9C1538.59 820.9 1550.74 823.525 1559.74 828.775V857.35C1547.89 850.75 1536.42 847.45 1525.32 847.45C1512.72 847.45 1506.42 850.9 1506.42 857.8C1506.42 861.1 1508.07 863.725 1511.37 865.675C1514.82 867.475 1520.59 869.35 1528.69 871.3C1540.54 874 1549.54 878.125 1555.69 883.675C1561.84 889.075 1564.92 896.875 1564.92 907.075C1564.92 919.675 1560.27 929.725 1550.97 937.225C1541.82 944.725 1529.37 948.475 1513.62 948.475ZM1643.41 807.625H1619.11L1637.79 766.45H1666.81L1643.41 807.625ZM1635.09 948.25C1596.84 948.25 1577.71 928 1577.71 887.5C1577.71 866.8 1582.44 850.525 1591.89 838.675C1601.49 826.825 1614.91 820.9 1632.16 820.9C1649.26 820.9 1661.94 826.75 1670.19 838.45C1678.59 850.15 1682.79 868.45 1682.79 893.35H1610.79C1611.69 902.8 1614.39 909.7 1618.89 914.05C1623.54 918.25 1630.81 920.35 1640.71 920.35C1654.96 920.35 1667.41 917.65 1678.06 912.25V937.9C1668.01 944.8 1653.69 948.25 1635.09 948.25ZM1631.26 847C1619.41 847 1612.59 855.325 1610.79 871.975H1649.49C1649.04 863.125 1647.39 856.75 1644.54 852.85C1641.84 848.95 1637.41 847 1631.26 847ZM1751.96 948.25C1733.36 948.25 1719.26 943.15 1709.66 932.95C1700.21 922.6 1695.49 907.375 1695.49 887.275C1695.49 866.575 1700.59 850.375 1710.79 838.675C1721.14 826.825 1735.99 820.9 1755.34 820.9C1766.29 820.9 1775.29 822.625 1782.34 826.075V854.65C1775.59 851.05 1767.86 849.25 1759.16 849.25C1738.76 849.25 1728.56 860.95 1728.56 884.35C1728.56 908.5 1739.36 920.575 1760.96 920.575C1768.01 920.575 1774.99 919.075 1781.89 916.075V941.95C1774.39 946.15 1764.41 948.25 1751.96 948.25ZM1799.75 823.6H1831.7V894.925C1831.7 903.775 1833.12 910.075 1835.97 913.825C1838.97 917.425 1843.47 919.225 1849.47 919.225C1856.52 919.225 1863.12 917.05 1869.27 912.7V823.6H1901.22V912.475L1905.72 946H1874.45L1871.97 933.4C1861.32 943.6 1849.1 948.7 1835.3 948.7C1824.65 948.7 1816.02 945.25 1809.42 938.35C1802.97 931.45 1799.75 920.8 1799.75 906.4V823.6ZM1960.52 946H1928.8V857.125L1924.3 823.6H1955.35L1958.5 839.575C1967.2 826.825 1978.07 820.45 1991.12 820.45C1993.52 820.45 1995.32 820.525 1996.52 820.675V851.05C1992.47 850.15 1988.65 849.7 1985.05 849.7C1975.3 849.7 1967.12 853.45 1960.52 860.95V946ZM2043.78 805.375H2010.71V771.4H2043.78V805.375ZM2043.11 946H2011.38V823.6H2043.11V946ZM2074.37 903.925V848.575H2057.94V823.6H2074.59L2080.22 786.475H2105.64V823.6H2135.79V848.575H2105.64V901.9C2105.64 909.1 2106.84 914.275 2109.24 917.425C2111.64 920.575 2115.92 922.15 2122.07 922.15C2127.47 922.15 2133.32 921.175 2139.62 919.225V943.525C2133.47 946.825 2124.69 948.475 2113.29 948.475C2099.19 948.475 2089.14 945.025 2083.14 938.125C2077.29 931.225 2074.37 919.825 2074.37 903.925ZM2213.38 807.625H2189.08L2207.76 766.45H2236.78L2213.38 807.625ZM2205.06 948.25C2166.81 948.25 2147.68 928 2147.68 887.5C2147.68 866.8 2152.41 850.525 2161.86 838.675C2171.46 826.825 2184.88 820.9 2202.13 820.9C2219.23 820.9 2231.91 826.75 2240.16 838.45C2248.56 850.15 2252.76 868.45 2252.76 893.35H2180.76C2181.66 902.8 2184.36 909.7 2188.86 914.05C2193.51 918.25 2200.78 920.35 2210.68 920.35C2224.93 920.35 2237.38 917.65 2248.03 912.25V937.9C2237.98 944.8 2223.66 948.25 2205.06 948.25ZM2201.23 847C2189.38 847 2182.56 855.325 2180.76 871.975H2219.46C2219.01 863.125 2217.36 856.75 2214.51 852.85C2211.81 848.95 2207.38 847 2201.23 847ZM2363.28 805.375H2330.2V771.4H2363.28V805.375ZM2362.38 823.6V948.7C2362.38 981.7 2348.2 998.2 2319.85 998.2C2310.25 998.2 2302 996.325 2295.1 992.575V966.7C2302 970 2308.9 971.65 2315.8 971.65C2321.05 971.65 2324.8 970 2327.05 966.7C2329.45 963.55 2330.65 958.375 2330.65 951.175V823.6H2362.38ZM2386.2 823.6H2418.15V894.925C2418.15 903.775 2419.57 910.075 2422.42 913.825C2425.42 917.425 2429.92 919.225 2435.92 919.225C2442.97 919.225 2449.57 917.05 2455.72 912.7V823.6H2487.67V912.475L2492.17 946H2460.9L2458.42 933.4C2447.77 943.6 2435.55 948.7 2421.75 948.7C2411.1 948.7 2402.47 945.25 2395.87 938.35C2389.42 931.45 2386.2 920.8 2386.2 906.4V823.6ZM2547.87 948.475C2533.17 948.475 2520.42 945.775 2509.62 940.375V912.7C2523.72 919.3 2537.15 922.6 2549.9 922.6C2562.2 922.6 2568.35 919.3 2568.35 912.7C2568.35 909.25 2566.55 906.625 2562.95 904.825C2559.5 902.875 2553.42 900.925 2544.72 898.975C2532.42 896.125 2523.35 891.775 2517.5 885.925C2511.8 880.075 2508.95 872.2 2508.95 862.3C2508.95 849.85 2513.37 839.875 2522.22 832.375C2531.07 824.725 2542.85 820.9 2557.55 820.9C2572.85 820.9 2585 823.525 2594 828.775V857.35C2582.15 850.75 2570.67 847.45 2559.57 847.45C2546.97 847.45 2540.67 850.9 2540.67 857.8C2540.67 861.1 2542.32 863.725 2545.62 865.675C2549.07 867.475 2554.85 869.35 2562.95 871.3C2574.8 874 2583.8 878.125 2589.95 883.675C2596.1 889.075 2599.17 896.875 2599.17 907.075C2599.17 919.675 2594.52 929.725 2585.22 937.225C2576.07 944.725 2563.62 948.475 2547.87 948.475ZM2691.17 995.95V934.075C2681.72 943.675 2670.54 948.475 2657.64 948.475C2643.24 948.475 2631.99 943.15 2623.89 932.5C2615.94 921.85 2611.97 906.85 2611.97 887.5C2611.97 866.8 2616.62 850.525 2625.92 838.675C2635.22 826.825 2647.82 820.9 2663.72 820.9C2676.32 820.9 2686.44 825.175 2694.09 833.725L2695.89 823.6H2727.17L2722.89 856.225V995.95H2691.17ZM2645.94 884.575C2645.94 910.075 2653.52 922.825 2668.67 922.825C2676.47 922.825 2683.97 918.7 2691.17 910.45V856C2685.02 850.15 2678.04 847.225 2670.24 847.225C2654.04 847.225 2645.94 859.675 2645.94 884.575ZM2747.65 823.6H2779.6V894.925C2779.6 903.775 2781.02 910.075 2783.87 913.825C2786.87 917.425 2791.37 919.225 2797.37 919.225C2804.42 919.225 2811.02 917.05 2817.17 912.7V823.6H2849.12V912.475L2853.62 946H2822.35L2819.87 933.4C2809.22 943.6 2797 948.7 2783.2 948.7C2772.55 948.7 2763.92 945.25 2757.32 938.35C2750.87 931.45 2747.65 920.8 2747.65 906.4V823.6ZM2893.35 838.675H2869.27C2874.82 827.425 2877.6 811.525 2877.6 790.975V770.95H2906.17V787.15C2906.17 807.7 2901.9 824.875 2893.35 838.675ZM2984.68 946L2983.56 932.725C2976.81 943.375 2966.53 948.7 2952.73 948.7C2941.33 948.7 2932.41 945.625 2925.96 939.475C2919.51 933.325 2916.28 924.775 2916.28 913.825C2916.28 901.825 2920.41 892.375 2928.66 885.475C2936.91 878.425 2948.23 874.9 2962.63 874.9C2969.83 874.9 2976.43 875.65 2982.43 877.15V873.55C2982.43 865.3 2980.78 859.525 2977.48 856.225C2974.18 852.925 2968.33 851.275 2959.93 851.275C2947.93 851.275 2935.78 854.125 2923.48 859.825V830.125C2935.78 823.975 2949.96 820.9 2966.01 820.9C2982.36 820.9 2994.51 824.8 3002.46 832.6C3010.41 840.25 3014.38 852.175 3014.38 868.375V919.225L3016.63 946H2984.68ZM2949.13 910C2949.13 914.05 2950.48 917.275 2953.18 919.675C2955.88 921.925 2959.71 923.05 2964.66 923.05C2970.96 923.05 2976.88 921.325 2982.43 917.875V898.3C2977.18 897.1 2972.46 896.5 2968.26 896.5C2955.51 896.5 2949.13 901 2949.13 910ZM3037.25 823.6H3069.2V894.925C3069.2 903.775 3070.62 910.075 3073.47 913.825C3076.47 917.425 3080.97 919.225 3086.97 919.225C3094.02 919.225 3100.62 917.05 3106.77 912.7V823.6H3138.72V912.475L3143.22 946H3111.95L3109.47 933.4C3098.82 943.6 3086.6 948.7 3072.8 948.7C3062.15 948.7 3053.52 945.25 3046.92 938.35C3040.47 931.45 3037.25 920.8 3037.25 906.4V823.6ZM3276.27 948.475C3256.92 948.475 3242.67 941.575 3233.52 927.775C3224.37 913.825 3219.79 892.45 3219.79 863.65C3219.79 803.2 3239.44 772.975 3278.74 772.975C3300.04 772.975 3314.97 780.325 3323.52 795.025C3332.22 809.575 3336.57 830.875 3336.57 858.925C3336.57 888.175 3331.54 910.45 3321.49 925.75C3311.44 940.9 3296.37 948.475 3276.27 948.475ZM3278.52 923.05C3288.27 923.05 3295.02 917.65 3298.77 906.85C3302.52 895.9 3304.39 880.15 3304.39 859.6C3304.39 818.8 3295.47 798.4 3277.62 798.4C3260.07 798.4 3251.29 819.325 3251.29 861.175C3251.29 881.875 3253.32 897.4 3257.37 907.75C3261.57 917.95 3268.62 923.05 3278.52 923.05ZM3415.24 946H3381.49V815.275L3349.09 829.45V802L3396.11 776.35H3415.24V946ZM3565.2 946L3564.07 932.725C3557.32 943.375 3547.05 948.7 3533.25 948.7C3521.85 948.7 3512.92 945.625 3506.47 939.475C3500.02 933.325 3496.8 924.775 3496.8 913.825C3496.8 901.825 3500.92 892.375 3509.17 885.475C3517.42 878.425 3528.75 874.9 3543.15 874.9C3550.35 874.9 3556.95 875.65 3562.95 877.15V873.55C3562.95 865.3 3561.3 859.525 3558 856.225C3554.7 852.925 3548.85 851.275 3540.45 851.275C3528.45 851.275 3516.3 854.125 3504 859.825V830.125C3516.3 823.975 3530.47 820.9 3546.52 820.9C3562.87 820.9 3575.02 824.8 3582.97 832.6C3590.92 840.25 3594.9 852.175 3594.9 868.375V919.225L3597.15 946H3565.2ZM3529.65 910C3529.65 914.05 3531 917.275 3533.7 919.675C3536.4 921.925 3540.22 923.05 3545.17 923.05C3551.47 923.05 3557.4 921.325 3562.95 917.875V898.3C3557.7 897.1 3552.97 896.5 3548.77 896.5C3536.02 896.5 3529.65 901 3529.65 910ZM3669.07 948.7C3652.27 948.7 3638.69 943.375 3628.34 932.725C3618.14 922.075 3613.04 906.925 3613.04 887.275C3613.04 867.475 3618.22 851.5 3628.57 839.35C3639.07 827.05 3653.39 820.9 3671.54 820.9C3688.04 820.9 3701.39 826.3 3711.59 837.1C3721.79 847.75 3726.89 863.05 3726.89 883C3726.89 902.95 3721.72 918.925 3711.37 930.925C3701.02 942.775 3686.92 948.7 3669.07 948.7ZM3651.97 912.7C3656.32 919.45 3662.39 922.825 3670.19 922.825C3677.99 922.825 3683.99 919.45 3688.19 912.7C3692.39 905.8 3694.49 896.35 3694.49 884.35C3694.49 872.35 3692.47 863.2 3688.42 856.9C3684.37 850.6 3678.44 847.45 3670.64 847.45C3653.99 847.45 3645.67 859.975 3645.67 885.025C3645.67 896.725 3647.77 905.95 3651.97 912.7ZM3785.51 764.65H3806.66L3831.18 807.625H3808.01L3795.41 784.225L3782.13 807.625H3758.96L3785.51 764.65ZM3744.11 823.6H3776.06V894.925C3776.06 903.775 3777.48 910.075 3780.33 913.825C3783.33 917.425 3787.83 919.225 3793.83 919.225C3800.88 919.225 3807.48 917.05 3813.63 912.7V823.6H3845.58V912.475L3850.08 946H3818.81L3816.33 933.4C3805.68 943.6 3793.46 948.7 3779.66 948.7C3769.01 948.7 3760.38 945.25 3753.78 938.35C3747.33 931.45 3744.11 920.8 3744.11 906.4V823.6ZM3876.78 903.925V848.575H3860.36V823.6H3877.01L3882.63 786.475H3908.06V823.6H3938.21V848.575H3908.06V901.9C3908.06 909.1 3909.26 914.275 3911.66 917.425C3914.06 920.575 3918.33 922.15 3924.48 922.15C3929.88 922.15 3935.73 921.175 3942.03 919.225V943.525C3935.88 946.825 3927.11 948.475 3915.71 948.475C3901.61 948.475 3891.56 945.025 3885.56 938.125C3879.71 931.225 3876.78 919.825 3876.78 903.925ZM255.65 1246V1222.6L296.6 1179.85C306.8 1168.9 313.85 1160.12 317.75 1153.52C321.8 1146.77 323.825 1139.8 323.825 1132.6C323.825 1123.6 321.35 1116.7 316.4 1111.9C311.6 1106.95 304.775 1104.47 295.925 1104.47C284.225 1104.47 271.55 1109.95 257.9 1120.9V1090.52C270.95 1079.27 286.325 1073.65 304.025 1073.65C319.775 1073.65 332.45 1078.37 342.05 1087.82C351.8 1097.27 356.675 1109.8 356.675 1125.4C356.675 1136.95 353.525 1148.05 347.225 1158.7C341.075 1169.35 330.8 1181.65 316.4 1195.6L295.025 1216.52H363.875L359.6 1246H255.65ZM435.204 1248.48C415.854 1248.48 401.604 1241.58 392.454 1227.77C383.304 1213.82 378.729 1192.45 378.729 1163.65C378.729 1103.2 398.379 1072.97 437.679 1072.97C458.979 1072.97 473.904 1080.32 482.454 1095.02C491.154 1109.57 495.504 1130.87 495.504 1158.92C495.504 1188.17 490.479 1210.45 480.429 1225.75C470.379 1240.9 455.304 1248.48 435.204 1248.48ZM437.454 1223.05C447.204 1223.05 453.954 1217.65 457.704 1206.85C461.454 1195.9 463.329 1180.15 463.329 1159.6C463.329 1118.8 454.404 1098.4 436.554 1098.4C419.004 1098.4 410.229 1119.32 410.229 1161.17C410.229 1181.87 412.254 1197.4 416.304 1207.75C420.504 1217.95 427.554 1223.05 437.454 1223.05ZM512.071 1246V1222.6L553.021 1179.85C563.221 1168.9 570.271 1160.12 574.171 1153.52C578.221 1146.77 580.246 1139.8 580.246 1132.6C580.246 1123.6 577.771 1116.7 572.821 1111.9C568.021 1106.95 561.196 1104.47 552.346 1104.47C540.646 1104.47 527.971 1109.95 514.321 1120.9V1090.52C527.371 1079.27 542.746 1073.65 560.446 1073.65C576.196 1073.65 588.871 1078.37 598.471 1087.82C608.221 1097.27 613.096 1109.8 613.096 1125.4C613.096 1136.95 609.946 1148.05 603.646 1158.7C597.496 1169.35 587.221 1181.65 572.821 1195.6L551.446 1216.52H620.296L616.021 1246H512.071ZM743.824 1110.32C733.174 1103.87 721.399 1100.65 708.499 1100.65C696.649 1100.65 687.424 1104.55 680.824 1112.35C674.224 1120 670.099 1132 668.449 1148.35C680.299 1140.85 692.449 1137.1 704.899 1137.1C718.699 1137.1 730.099 1141.45 739.099 1150.15C748.249 1158.7 752.824 1171 752.824 1187.05C752.824 1204.9 747.274 1219.6 736.174 1231.15C725.224 1242.7 711.124 1248.48 693.874 1248.48C675.274 1248.48 660.724 1241.42 650.224 1227.32C639.724 1213.22 634.474 1193.8 634.474 1169.05C634.474 1141 640.924 1118.12 653.824 1100.42C666.874 1082.57 684.499 1073.65 706.699 1073.65C712.999 1073.65 719.674 1074.4 726.724 1075.9C733.774 1077.4 739.474 1079.35 743.824 1081.75V1110.32ZM694.324 1162.3C686.074 1162.3 677.224 1165 667.774 1170.4C668.524 1205.2 677.674 1222.6 695.224 1222.6C703.174 1222.6 709.249 1219.45 713.449 1213.15C717.649 1206.85 719.749 1198.9 719.749 1189.3C719.749 1180 717.424 1173.17 712.774 1168.82C708.274 1164.47 702.124 1162.3 694.324 1162.3ZM863.19 1105.38H830.115V1071.4H863.19V1105.38ZM862.515 1246H830.79V1123.6H862.515V1246ZM920.775 1246H889.05V1157.12L884.55 1123.6H915.825L918.3 1136.42C929.1 1126.07 941.4 1120.9 955.2 1120.9C965.85 1120.9 974.4 1124.35 980.85 1131.25C987.45 1138.15 990.75 1148.72 990.75 1162.97V1246H958.8V1174.45C958.8 1165.75 957.375 1159.6 954.525 1156C951.675 1152.25 947.175 1150.37 941.025 1150.37C933.825 1150.37 927.075 1152.7 920.775 1157.35V1246ZM1064.66 1248.25C1046.06 1248.25 1031.96 1243.15 1022.36 1232.95C1012.91 1222.6 1008.18 1207.37 1008.18 1187.27C1008.18 1166.57 1013.28 1150.37 1023.48 1138.67C1033.83 1126.82 1048.68 1120.9 1068.03 1120.9C1078.98 1120.9 1087.98 1122.62 1095.03 1126.07V1154.65C1088.28 1151.05 1080.56 1149.25 1071.86 1149.25C1051.46 1149.25 1041.26 1160.95 1041.26 1184.35C1041.26 1208.5 1052.06 1220.57 1073.66 1220.57C1080.71 1220.57 1087.68 1219.07 1094.58 1216.07V1241.95C1087.08 1246.15 1077.11 1248.25 1064.66 1248.25ZM1113.57 1246V1070.95H1145.52V1246H1113.57ZM1168.69 1123.6H1200.64V1194.92C1200.64 1203.77 1202.07 1210.07 1204.92 1213.82C1207.92 1217.42 1212.42 1219.22 1218.42 1219.22C1225.47 1219.22 1232.07 1217.05 1238.22 1212.7V1123.6H1270.17V1212.47L1274.67 1246H1243.39L1240.92 1233.4C1230.27 1243.6 1218.04 1248.7 1204.24 1248.7C1193.59 1248.7 1184.97 1245.25 1178.37 1238.35C1171.92 1231.45 1168.69 1220.8 1168.69 1206.4V1123.6ZM1330.37 1248.48C1315.67 1248.48 1302.92 1245.78 1292.12 1240.37V1212.7C1306.22 1219.3 1319.64 1222.6 1332.39 1222.6C1344.69 1222.6 1350.84 1219.3 1350.84 1212.7C1350.84 1209.25 1349.04 1206.62 1345.44 1204.82C1341.99 1202.87 1335.92 1200.92 1327.22 1198.97C1314.92 1196.12 1305.84 1191.77 1299.99 1185.92C1294.29 1180.07 1291.44 1172.2 1291.44 1162.3C1291.44 1149.85 1295.87 1139.87 1304.72 1132.38C1313.57 1124.72 1325.34 1120.9 1340.04 1120.9C1355.34 1120.9 1367.49 1123.52 1376.49 1128.77V1157.35C1364.64 1150.75 1353.17 1147.45 1342.07 1147.45C1329.47 1147.45 1323.17 1150.9 1323.17 1157.8C1323.17 1161.1 1324.82 1163.72 1328.12 1165.67C1331.57 1167.47 1337.34 1169.35 1345.44 1171.3C1357.29 1174 1366.29 1178.12 1372.44 1183.67C1378.59 1189.07 1381.67 1196.87 1381.67 1207.07C1381.67 1219.67 1377.02 1229.72 1367.72 1237.22C1358.57 1244.73 1346.12 1248.48 1330.37 1248.48Z" fill="white"/>
<path d="M263.525 1590V1420.35H321.125C356.825 1420.35 374.675 1434.82 374.675 1463.77C374.675 1481.92 367.175 1493.85 352.175 1499.55C371.825 1504.95 381.65 1518.82 381.65 1541.17C381.65 1556.77 376.625 1568.85 366.575 1577.4C356.525 1585.8 342.2 1590 323.6 1590H263.525ZM313.25 1450.05H298.175V1491.67H313.25C330.5 1491.67 339.125 1484.47 339.125 1470.07C339.125 1463.02 337.025 1457.92 332.825 1454.77C328.625 1451.62 322.1 1450.05 313.25 1450.05ZM316.625 1518H298.175V1560.3H317.525C327.275 1560.3 334.4 1558.5 338.9 1554.9C343.55 1551.3 345.875 1545.45 345.875 1537.35C345.875 1530.15 343.775 1525.12 339.575 1522.27C335.375 1519.42 327.725 1518 316.625 1518ZM398.332 1467.6H430.282V1538.92C430.282 1547.77 431.707 1554.07 434.557 1557.82C437.557 1561.42 442.057 1563.22 448.057 1563.22C455.107 1563.22 461.707 1561.05 467.857 1556.7V1467.6H499.807V1556.47L504.307 1590H473.032L470.557 1577.4C459.907 1587.6 447.682 1592.7 433.882 1592.7C423.232 1592.7 414.607 1589.25 408.007 1582.35C401.557 1575.45 398.332 1564.8 398.332 1550.4V1467.6ZM560.005 1592.48C545.305 1592.48 532.555 1589.78 521.755 1584.37V1556.7C535.855 1563.3 549.28 1566.6 562.03 1566.6C574.33 1566.6 580.48 1563.3 580.48 1556.7C580.48 1553.25 578.68 1550.62 575.08 1548.82C571.63 1546.87 565.555 1544.92 556.855 1542.97C544.555 1540.12 535.48 1535.77 529.63 1529.92C523.93 1524.07 521.08 1516.2 521.08 1506.3C521.08 1493.85 525.505 1483.87 534.355 1476.38C543.205 1468.72 554.98 1464.9 569.68 1464.9C584.98 1464.9 597.13 1467.52 606.13 1472.77V1501.35C594.28 1494.75 582.805 1491.45 571.705 1491.45C559.105 1491.45 552.805 1494.9 552.805 1501.8C552.805 1505.1 554.455 1507.72 557.755 1509.67C561.205 1511.47 566.98 1513.35 575.08 1515.3C586.93 1518 595.93 1522.12 602.08 1527.67C608.23 1533.07 611.305 1540.87 611.305 1551.07C611.305 1563.67 606.655 1573.72 597.355 1581.22C588.205 1588.73 575.755 1592.48 560.005 1592.48ZM761.297 1414.95H793.022V1590H766.247L763.772 1576.72C753.872 1587.22 741.872 1592.48 727.772 1592.48C713.372 1592.48 702.197 1587.22 694.247 1576.72C686.447 1566.07 682.547 1551.15 682.547 1531.95C682.547 1511.1 687.272 1494.75 696.722 1482.9C706.172 1470.9 718.847 1464.9 734.747 1464.9C745.547 1464.9 754.397 1468.05 761.297 1474.35V1414.95ZM716.522 1528.35C716.522 1554 724.097 1566.82 739.247 1566.82C747.347 1566.82 754.697 1563.07 761.297 1555.57V1499.55C755.297 1494 748.472 1491.22 740.822 1491.22C724.622 1491.22 716.522 1503.6 716.522 1528.35ZM868.902 1592.25C830.652 1592.25 811.527 1572 811.527 1531.5C811.527 1510.8 816.252 1494.52 825.702 1482.67C835.302 1470.82 848.727 1464.9 865.977 1464.9C883.077 1464.9 895.752 1470.75 904.002 1482.45C912.402 1494.15 916.602 1512.45 916.602 1537.35H844.602C845.502 1546.8 848.202 1553.7 852.702 1558.05C857.352 1562.25 864.627 1564.35 874.527 1564.35C888.777 1564.35 901.227 1561.65 911.877 1556.25V1581.9C901.827 1588.8 887.502 1592.25 868.902 1592.25ZM865.077 1491C853.227 1491 846.402 1499.32 844.602 1515.97H883.302C882.852 1507.12 881.202 1500.75 878.352 1496.85C875.652 1492.95 871.227 1491 865.077 1491ZM1028 1590H996.276V1501.12L991.776 1467.6H1022.83L1025.98 1483.57C1034.68 1470.82 1045.55 1464.45 1058.6 1464.45C1061 1464.45 1062.8 1464.52 1064 1464.67V1495.05C1059.95 1494.15 1056.13 1493.7 1052.53 1493.7C1042.78 1493.7 1034.6 1497.45 1028 1504.95V1590ZM1126.64 1592.25C1088.39 1592.25 1069.27 1572 1069.27 1531.5C1069.27 1510.8 1073.99 1494.52 1083.44 1482.67C1093.04 1470.82 1106.47 1464.9 1123.72 1464.9C1140.82 1464.9 1153.49 1470.75 1161.74 1482.45C1170.14 1494.15 1174.34 1512.45 1174.34 1537.35H1102.34C1103.24 1546.8 1105.94 1553.7 1110.44 1558.05C1115.09 1562.25 1122.37 1564.35 1132.27 1564.35C1146.52 1564.35 1158.97 1561.65 1169.62 1556.25V1581.9C1159.57 1588.8 1145.24 1592.25 1126.64 1592.25ZM1122.82 1491C1110.97 1491 1104.14 1499.32 1102.34 1515.97H1141.04C1140.59 1507.12 1138.94 1500.75 1136.09 1496.85C1133.39 1492.95 1128.97 1491 1122.82 1491ZM1227.29 1590H1195.57V1501.12L1191.07 1467.6H1222.34L1224.82 1480.2C1235.02 1470 1247.02 1464.9 1260.82 1464.9C1275.37 1464.9 1285.27 1470.82 1290.52 1482.67C1301.32 1470.82 1314.07 1464.9 1328.77 1464.9C1339.42 1464.9 1347.74 1468.35 1353.74 1475.25C1359.89 1482 1362.97 1492.65 1362.97 1507.2V1590H1331.24V1518.67C1331.24 1509.67 1329.97 1503.37 1327.42 1499.77C1325.02 1496.17 1320.82 1494.37 1314.82 1494.37C1307.92 1494.37 1301.24 1496.77 1294.79 1501.57C1294.94 1502.77 1295.02 1504.65 1295.02 1507.2V1590H1263.29V1518.67C1263.29 1509.82 1262.02 1503.6 1259.47 1500C1256.92 1496.25 1252.64 1494.37 1246.64 1494.37C1239.74 1494.37 1233.29 1496.7 1227.29 1501.35V1590ZM1419.77 1639.95H1388.05V1501.12L1383.55 1467.6H1414.6L1416.85 1478.62C1425.55 1469.47 1436.42 1464.9 1449.47 1464.9C1464.47 1464.9 1476.1 1470.3 1484.35 1481.1C1492.6 1491.9 1496.72 1507.2 1496.72 1527C1496.72 1547.55 1492.37 1563.6 1483.67 1575.15C1475.12 1586.7 1463.2 1592.48 1447.9 1592.48C1436.8 1592.48 1427.42 1589.18 1419.77 1582.58V1639.95ZM1439.35 1491.22C1432.15 1491.22 1425.62 1494 1419.77 1499.55V1559.62C1425.17 1564.42 1431.47 1566.82 1438.67 1566.82C1454.72 1566.82 1462.75 1554.07 1462.75 1528.57C1462.75 1503.67 1454.95 1491.22 1439.35 1491.22ZM1515.23 1590V1414.95H1547.18V1590H1515.23ZM1633.8 1590L1632.68 1576.72C1625.93 1587.37 1615.65 1592.7 1601.85 1592.7C1590.45 1592.7 1581.53 1589.62 1575.08 1583.47C1568.63 1577.32 1565.4 1568.77 1565.4 1557.82C1565.4 1545.82 1569.53 1536.37 1577.78 1529.47C1586.03 1522.42 1597.35 1518.9 1611.75 1518.9C1618.95 1518.9 1625.55 1519.65 1631.55 1521.15V1517.55C1631.55 1509.3 1629.9 1503.52 1626.6 1500.22C1623.3 1496.92 1617.45 1495.27 1609.05 1495.27C1597.05 1495.27 1584.9 1498.12 1572.6 1503.82V1474.12C1584.9 1467.97 1599.08 1464.9 1615.13 1464.9C1631.48 1464.9 1643.63 1468.8 1651.58 1476.6C1659.53 1484.25 1663.5 1496.17 1663.5 1512.37V1563.22L1665.75 1590H1633.8ZM1598.25 1554C1598.25 1558.05 1599.6 1561.27 1602.3 1563.67C1605 1565.92 1608.83 1567.05 1613.78 1567.05C1620.08 1567.05 1626 1565.32 1631.55 1561.88V1542.3C1626.3 1541.1 1621.58 1540.5 1617.38 1540.5C1604.63 1540.5 1598.25 1545 1598.25 1554ZM1738.12 1592.25C1719.52 1592.25 1705.42 1587.15 1695.82 1576.95C1686.37 1566.6 1681.64 1551.37 1681.64 1531.27C1681.64 1510.57 1686.74 1494.37 1696.94 1482.67C1707.29 1470.82 1722.14 1464.9 1741.49 1464.9C1752.44 1464.9 1761.44 1466.62 1768.49 1470.07V1498.65C1761.74 1495.05 1754.02 1493.25 1745.32 1493.25C1724.92 1493.25 1714.72 1504.95 1714.72 1528.35C1714.72 1552.5 1725.52 1564.57 1747.12 1564.57C1754.17 1564.57 1761.14 1563.07 1768.04 1560.07V1585.95C1760.54 1590.15 1750.57 1592.25 1738.12 1592.25ZM1837.46 1592.25C1799.21 1592.25 1780.08 1572 1780.08 1531.5C1780.08 1510.8 1784.81 1494.52 1794.26 1482.67C1803.86 1470.82 1817.28 1464.9 1834.53 1464.9C1851.63 1464.9 1864.31 1470.75 1872.56 1482.45C1880.96 1494.15 1885.16 1512.45 1885.16 1537.35H1813.16C1814.06 1546.8 1816.76 1553.7 1821.26 1558.05C1825.91 1562.25 1833.18 1564.35 1843.08 1564.35C1857.33 1564.35 1869.78 1561.65 1880.43 1556.25V1581.9C1870.38 1588.8 1856.06 1592.25 1837.46 1592.25ZM1833.63 1491C1821.78 1491 1814.96 1499.32 1813.16 1515.97H1851.86C1851.41 1507.12 1849.76 1500.75 1846.91 1496.85C1844.21 1492.95 1839.78 1491 1833.63 1491ZM1938.11 1590H1906.38V1501.12L1901.88 1467.6H1933.16L1935.63 1480.2C1945.83 1470 1957.83 1464.9 1971.63 1464.9C1986.18 1464.9 1996.08 1470.82 2001.33 1482.67C2012.13 1470.82 2024.88 1464.9 2039.58 1464.9C2050.23 1464.9 2058.56 1468.35 2064.56 1475.25C2070.71 1482 2073.78 1492.65 2073.78 1507.2V1590H2042.06V1518.67C2042.06 1509.67 2040.78 1503.37 2038.23 1499.77C2035.83 1496.17 2031.63 1494.37 2025.63 1494.37C2018.73 1494.37 2012.06 1496.77 2005.61 1501.57C2005.76 1502.77 2005.83 1504.65 2005.83 1507.2V1590H1974.11V1518.67C1974.11 1509.82 1972.83 1503.6 1970.28 1500C1967.73 1496.25 1963.46 1494.37 1957.46 1494.37C1950.56 1494.37 1944.11 1496.7 1938.11 1501.35V1590ZM2148.59 1592.25C2110.34 1592.25 2091.21 1572 2091.21 1531.5C2091.21 1510.8 2095.94 1494.52 2105.39 1482.67C2114.99 1470.82 2128.41 1464.9 2145.66 1464.9C2162.76 1464.9 2175.44 1470.75 2183.69 1482.45C2192.09 1494.15 2196.29 1512.45 2196.29 1537.35H2124.29C2125.19 1546.8 2127.89 1553.7 2132.39 1558.05C2137.04 1562.25 2144.31 1564.35 2154.21 1564.35C2168.46 1564.35 2180.91 1561.65 2191.56 1556.25V1581.9C2181.51 1588.8 2167.19 1592.25 2148.59 1592.25ZM2144.76 1491C2132.91 1491 2126.09 1499.32 2124.29 1515.97H2162.99C2162.54 1507.12 2160.89 1500.75 2158.04 1496.85C2155.34 1492.95 2150.91 1491 2144.76 1491ZM2249.24 1590H2217.52V1501.12L2213.02 1467.6H2244.29L2246.77 1480.42C2257.57 1470.07 2269.87 1464.9 2283.67 1464.9C2294.32 1464.9 2302.87 1468.35 2309.32 1475.25C2315.92 1482.15 2319.22 1492.72 2319.22 1506.97V1590H2287.27V1518.45C2287.27 1509.75 2285.84 1503.6 2282.99 1500C2280.14 1496.25 2275.64 1494.37 2269.49 1494.37C2262.29 1494.37 2255.54 1496.7 2249.24 1501.35V1590ZM2348.14 1547.92V1492.57H2331.72V1467.6H2348.37L2353.99 1430.47H2379.42V1467.6H2409.57V1492.57H2379.42V1545.9C2379.42 1553.1 2380.62 1558.27 2383.02 1561.42C2385.42 1564.57 2389.69 1566.15 2395.84 1566.15C2401.24 1566.15 2407.09 1565.17 2413.39 1563.22V1587.52C2407.24 1590.83 2398.47 1592.48 2387.07 1592.48C2372.97 1592.48 2362.92 1589.03 2356.92 1582.12C2351.07 1575.22 2348.14 1563.82 2348.14 1547.92ZM2562.91 1592.7C2537.86 1592.7 2518.13 1585.35 2503.73 1570.65C2489.48 1555.95 2482.36 1535.25 2482.36 1508.55C2482.36 1481.1 2489.78 1459.12 2504.63 1442.62C2519.48 1425.97 2539.73 1417.65 2565.38 1417.65C2582.33 1417.65 2596.58 1420.65 2608.13 1426.65V1460.4C2596.88 1452.75 2583.08 1448.92 2566.73 1448.92C2551.43 1448.92 2539.66 1453.8 2531.41 1463.55C2523.16 1473.3 2519.03 1487.1 2519.03 1504.95C2519.03 1523.4 2523.31 1537.5 2531.86 1547.25C2540.41 1556.85 2552.41 1561.65 2567.86 1561.65C2581.36 1561.65 2594.78 1557.9 2608.13 1550.4V1582.12C2596.88 1589.18 2581.81 1592.7 2562.91 1592.7ZM2691.13 1590L2690 1576.72C2683.25 1587.37 2672.98 1592.7 2659.18 1592.7C2647.78 1592.7 2638.85 1589.62 2632.4 1583.47C2625.95 1577.32 2622.73 1568.77 2622.73 1557.82C2622.73 1545.82 2626.85 1536.37 2635.1 1529.47C2643.35 1522.42 2654.68 1518.9 2669.08 1518.9C2676.28 1518.9 2682.88 1519.65 2688.88 1521.15V1517.55C2688.88 1509.3 2687.23 1503.52 2683.93 1500.22C2680.63 1496.92 2674.78 1495.27 2666.38 1495.27C2654.38 1495.27 2642.23 1498.12 2629.93 1503.82V1474.12C2642.23 1467.97 2656.4 1464.9 2672.45 1464.9C2688.8 1464.9 2700.95 1468.8 2708.9 1476.6C2716.85 1484.25 2720.83 1496.17 2720.83 1512.37V1563.22L2723.08 1590H2691.13ZM2655.58 1554C2655.58 1558.05 2656.93 1561.27 2659.63 1563.67C2662.33 1565.92 2666.15 1567.05 2671.1 1567.05C2677.4 1567.05 2683.33 1565.32 2688.88 1561.88V1542.3C2683.63 1541.1 2678.9 1540.5 2674.7 1540.5C2661.95 1540.5 2655.58 1545 2655.58 1554ZM2778.34 1590H2746.62V1501.12L2742.12 1467.6H2773.39L2775.87 1480.2C2786.07 1470 2798.07 1464.9 2811.87 1464.9C2826.42 1464.9 2836.32 1470.82 2841.57 1482.67C2852.37 1470.82 2865.12 1464.9 2879.82 1464.9C2890.47 1464.9 2898.79 1468.35 2904.79 1475.25C2910.94 1482 2914.02 1492.65 2914.02 1507.2V1590H2882.29V1518.67C2882.29 1509.67 2881.02 1503.37 2878.47 1499.77C2876.07 1496.17 2871.87 1494.37 2865.87 1494.37C2858.97 1494.37 2852.29 1496.77 2845.84 1501.57C2845.99 1502.77 2846.07 1504.65 2846.07 1507.2V1590H2814.34V1518.67C2814.34 1509.82 2813.07 1503.6 2810.52 1500C2807.97 1496.25 2803.69 1494.37 2797.69 1494.37C2790.79 1494.37 2784.34 1496.7 2778.34 1501.35V1590ZM2997.15 1451.62H2972.85L2991.52 1410.45H3020.55L2997.15 1451.62ZM2988.82 1592.25C2950.57 1592.25 2931.45 1572 2931.45 1531.5C2931.45 1510.8 2936.17 1494.52 2945.62 1482.67C2955.22 1470.82 2968.65 1464.9 2985.9 1464.9C3003 1464.9 3015.67 1470.75 3023.92 1482.45C3032.32 1494.15 3036.52 1512.45 3036.52 1537.35H2964.52C2965.42 1546.8 2968.12 1553.7 2972.62 1558.05C2977.27 1562.25 2984.55 1564.35 2994.45 1564.35C3008.7 1564.35 3021.15 1561.65 3031.8 1556.25V1581.9C3021.75 1588.8 3007.42 1592.25 2988.82 1592.25ZM2985 1491C2973.15 1491 2966.32 1499.32 2964.52 1515.97H3003.22C3002.77 1507.12 3001.12 1500.75 2998.27 1496.85C2995.57 1492.95 2991.15 1491 2985 1491ZM3055.07 1590V1414.95H3087.02V1590H3055.07ZM3171.17 1451.62H3146.87L3165.55 1410.45H3194.57L3171.17 1451.62ZM3162.85 1592.25C3124.6 1592.25 3105.47 1572 3105.47 1531.5C3105.47 1510.8 3110.2 1494.52 3119.65 1482.67C3129.25 1470.82 3142.67 1464.9 3159.92 1464.9C3177.02 1464.9 3189.7 1470.75 3197.95 1482.45C3206.35 1494.15 3210.55 1512.45 3210.55 1537.35H3138.55C3139.45 1546.8 3142.15 1553.7 3146.65 1558.05C3151.3 1562.25 3158.57 1564.35 3168.47 1564.35C3182.72 1564.35 3195.17 1561.65 3205.82 1556.25V1581.9C3195.77 1588.8 3181.45 1592.25 3162.85 1592.25ZM3159.02 1491C3147.17 1491 3140.35 1499.32 3138.55 1515.97H3177.25C3176.8 1507.12 3175.15 1500.75 3172.3 1496.85C3169.6 1492.95 3165.17 1491 3159.02 1491ZM3279.27 1592.7C3262.47 1592.7 3248.9 1587.37 3238.55 1576.72C3228.35 1566.07 3223.25 1550.92 3223.25 1531.27C3223.25 1511.47 3228.42 1495.5 3238.77 1483.35C3249.27 1471.05 3263.6 1464.9 3281.75 1464.9C3298.25 1464.9 3311.6 1470.3 3321.8 1481.1C3332 1491.75 3337.1 1507.05 3337.1 1527C3337.1 1546.95 3331.92 1562.92 3321.57 1574.92C3311.22 1586.77 3297.12 1592.7 3279.27 1592.7ZM3262.17 1556.7C3266.52 1563.45 3272.6 1566.82 3280.4 1566.82C3288.2 1566.82 3294.2 1563.45 3298.4 1556.7C3302.6 1549.8 3304.7 1540.35 3304.7 1528.35C3304.7 1516.35 3302.67 1507.2 3298.62 1500.9C3294.57 1494.6 3288.65 1491.45 3280.85 1491.45C3264.2 1491.45 3255.87 1503.97 3255.87 1529.02C3255.87 1540.72 3257.97 1549.95 3262.17 1556.7ZM3388.96 1590H3357.24V1501.12L3352.74 1467.6H3384.01L3386.49 1480.42C3397.29 1470.07 3409.59 1464.9 3423.39 1464.9C3434.04 1464.9 3442.59 1468.35 3449.04 1475.25C3455.64 1482.15 3458.94 1492.72 3458.94 1506.97V1590H3426.99V1518.45C3426.99 1509.75 3425.56 1503.6 3422.71 1500C3419.86 1496.25 3415.36 1494.37 3409.21 1494.37C3402.01 1494.37 3395.26 1496.7 3388.96 1501.35V1590Z" fill="white"/>
</g>
<defs>
<clipPath id="clip0_102_198">
<rect width="4206" height="1798" fill="white"/>
</clipPath>
</defs>
</svg>
