<svg width="4206" height="1798" viewBox="0 0 4206 1798" fill="none" xmlns="http://www.w3.org/2000/svg">
<g clip-path="url(#clip0_101_178)">
<rect width="4206" height="1798" fill="white"/>
<rect x="102" y="304" width="3879" height="595" rx="70" fill="#25303B"/>
<path d="M208.875 532L226.425 362.35H269.85L303.15 473.95L339.825 362.35H380.325L396.3 532H361.2L352.2 424.45L314.85 532H287.625L253.425 418.375L243.075 532H208.875ZM478.283 532L477.158 518.725C470.408 529.375 460.133 534.7 446.333 534.7C434.933 534.7 426.008 531.625 419.558 525.475C413.108 519.325 409.883 510.775 409.883 499.825C409.883 487.825 414.008 478.375 422.258 471.475C430.508 464.425 441.833 460.9 456.233 460.9C463.433 460.9 470.033 461.65 476.033 463.15V459.55C476.033 451.3 474.383 445.525 471.083 442.225C467.783 438.925 461.933 437.275 453.533 437.275C441.533 437.275 429.383 440.125 417.083 445.825V416.125C429.383 409.975 443.558 406.9 459.608 406.9C475.958 406.9 488.108 410.8 496.058 418.6C504.008 426.25 507.983 438.175 507.983 454.375V505.225L510.233 532H478.283ZM442.733 496C442.733 500.05 444.083 503.275 446.783 505.675C449.483 507.925 453.308 509.05 458.258 509.05C464.558 509.05 470.483 507.325 476.033 503.875V484.3C470.783 483.1 466.058 482.5 461.858 482.5C449.108 482.5 442.733 487 442.733 496ZM565.498 532H533.773V443.125L529.273 409.6H560.548L563.023 422.425C573.823 412.075 586.123 406.9 599.923 406.9C610.573 406.9 619.123 410.35 625.573 417.25C632.173 424.15 635.473 434.725 635.473 448.975V532H603.523V460.45C603.523 451.75 602.098 445.6 599.248 442C596.398 438.25 591.898 436.375 585.748 436.375C578.548 436.375 571.798 438.7 565.498 443.35V532ZM691.605 391.375H658.53V357.4H691.605V391.375ZM690.93 532H659.205V409.6H690.93V532ZM723.315 532V434.575H707.115V409.6H723.315V405.1C723.315 389.05 726.84 376.825 733.89 368.425C741.09 360.025 751.59 355.825 765.39 355.825C774.69 355.825 782.49 357.025 788.79 359.425V384.85C782.64 382.6 776.49 381.475 770.34 381.475C764.79 381.475 760.815 383.05 758.415 386.2C756.015 389.35 754.815 394.45 754.815 401.5V409.6H781.14V434.575H754.815V532H723.315ZM843.435 534.25C805.185 534.25 786.06 514 786.06 473.5C786.06 452.8 790.785 436.525 800.235 424.675C809.835 412.825 823.26 406.9 840.51 406.9C857.61 406.9 870.285 412.75 878.535 424.45C886.935 436.15 891.135 454.45 891.135 479.35H819.135C820.035 488.8 822.735 495.7 827.235 500.05C831.885 504.25 839.16 506.35 849.06 506.35C863.31 506.35 875.76 503.65 886.41 498.25V523.9C876.36 530.8 862.035 534.25 843.435 534.25ZM839.61 433C827.76 433 820.935 441.325 819.135 457.975H857.835C857.385 449.125 855.735 442.75 852.885 438.85C850.185 434.95 845.76 433 839.61 433ZM944.987 534.475C930.287 534.475 917.537 531.775 906.737 526.375V498.7C920.837 505.3 934.262 508.6 947.012 508.6C959.312 508.6 965.462 505.3 965.462 498.7C965.462 495.25 963.662 492.625 960.062 490.825C956.612 488.875 950.537 486.925 941.837 484.975C929.537 482.125 920.462 477.775 914.612 471.925C908.912 466.075 906.062 458.2 906.062 448.3C906.062 435.85 910.487 425.875 919.337 418.375C928.187 410.725 939.962 406.9 954.662 406.9C969.962 406.9 982.112 409.525 991.112 414.775V443.35C979.262 436.75 967.787 433.45 956.687 433.45C944.087 433.45 937.787 436.9 937.787 443.8C937.787 447.1 939.437 449.725 942.737 451.675C946.187 453.475 951.962 455.35 960.062 457.3C971.912 460 980.912 464.125 987.062 469.675C993.212 475.075 996.287 482.875 996.287 493.075C996.287 505.675 991.637 515.725 982.337 523.225C973.187 530.725 960.737 534.475 944.987 534.475ZM1021.46 489.925V434.575H1005.03V409.6H1021.68L1027.31 372.475H1052.73V409.6H1082.88V434.575H1052.73V487.9C1052.73 495.1 1053.93 500.275 1056.33 503.425C1058.73 506.575 1063.01 508.15 1069.16 508.15C1074.56 508.15 1080.41 507.175 1086.71 505.225V529.525C1080.56 532.825 1071.78 534.475 1060.38 534.475C1046.28 534.475 1036.23 531.025 1030.23 524.125C1024.38 517.225 1021.46 505.825 1021.46 489.925ZM1164.05 532L1162.92 518.725C1156.17 529.375 1145.9 534.7 1132.1 534.7C1120.7 534.7 1111.77 531.625 1105.32 525.475C1098.87 519.325 1095.65 510.775 1095.65 499.825C1095.65 487.825 1099.77 478.375 1108.02 471.475C1116.27 464.425 1127.6 460.9 1142 460.9C1149.2 460.9 1155.8 461.65 1161.8 463.15V459.55C1161.8 451.3 1160.15 445.525 1156.85 442.225C1153.55 438.925 1147.7 437.275 1139.3 437.275C1127.3 437.275 1115.15 440.125 1102.85 445.825V416.125C1115.15 409.975 1129.32 406.9 1145.37 406.9C1161.72 406.9 1173.87 410.8 1181.82 418.6C1189.77 426.25 1193.75 438.175 1193.75 454.375V505.225L1196 532H1164.05ZM1128.5 496C1128.5 500.05 1129.85 503.275 1132.55 505.675C1135.25 507.925 1139.07 509.05 1144.02 509.05C1150.32 509.05 1156.25 507.325 1161.8 503.875V484.3C1156.55 483.1 1151.82 482.5 1147.62 482.5C1134.87 482.5 1128.5 487 1128.5 496ZM1223.17 489.925V434.575H1206.74V409.6H1223.39L1229.02 372.475H1254.44V409.6H1284.59V434.575H1254.44V487.9C1254.44 495.1 1255.64 500.275 1258.04 503.425C1260.44 506.575 1264.72 508.15 1270.87 508.15C1276.27 508.15 1282.12 507.175 1288.42 505.225V529.525C1282.27 532.825 1273.49 534.475 1262.09 534.475C1247.99 534.475 1237.94 531.025 1231.94 524.125C1226.09 517.225 1223.17 505.825 1223.17 489.925ZM1336.28 391.375H1303.21V357.4H1336.28V391.375ZM1335.61 532H1303.88V409.6H1335.61V532ZM1410.52 534.7C1393.72 534.7 1380.14 529.375 1369.79 518.725C1359.59 508.075 1354.49 492.925 1354.49 473.275C1354.49 453.475 1359.67 437.5 1370.02 425.35C1380.52 413.05 1394.84 406.9 1412.99 406.9C1429.49 406.9 1442.84 412.3 1453.04 423.1C1463.24 433.75 1468.34 449.05 1468.34 469C1468.34 488.95 1463.17 504.925 1452.82 516.925C1442.47 528.775 1428.37 534.7 1410.52 534.7ZM1393.42 498.7C1397.77 505.45 1403.84 508.825 1411.64 508.825C1419.44 508.825 1425.44 505.45 1429.64 498.7C1433.84 491.8 1435.94 482.35 1435.94 470.35C1435.94 458.35 1433.92 449.2 1429.87 442.9C1425.82 436.6 1419.89 433.45 1412.09 433.45C1395.44 433.45 1387.12 445.975 1387.12 471.025C1387.12 482.725 1389.22 491.95 1393.42 498.7ZM1520.21 532H1488.49V443.125L1483.99 409.6H1515.26L1517.74 422.425C1528.54 412.075 1540.84 406.9 1554.64 406.9C1565.29 406.9 1573.84 410.35 1580.29 417.25C1586.89 424.15 1590.19 434.725 1590.19 448.975V532H1558.24V460.45C1558.24 451.75 1556.81 445.6 1553.96 442C1551.11 438.25 1546.61 436.375 1540.46 436.375C1533.26 436.375 1526.51 438.7 1520.21 443.35V532ZM1647.89 534.475C1633.19 534.475 1620.44 531.775 1609.64 526.375V498.7C1623.74 505.3 1637.17 508.6 1649.92 508.6C1662.22 508.6 1668.37 505.3 1668.37 498.7C1668.37 495.25 1666.57 492.625 1662.97 490.825C1659.52 488.875 1653.44 486.925 1644.74 484.975C1632.44 482.125 1623.37 477.775 1617.52 471.925C1611.82 466.075 1608.97 458.2 1608.97 448.3C1608.97 435.85 1613.39 425.875 1622.24 418.375C1631.09 410.725 1642.87 406.9 1657.57 406.9C1672.87 406.9 1685.02 409.525 1694.02 414.775V443.35C1682.17 436.75 1670.69 433.45 1659.59 433.45C1646.99 433.45 1640.69 436.9 1640.69 443.8C1640.69 447.1 1642.34 449.725 1645.64 451.675C1649.09 453.475 1654.87 455.35 1662.97 457.3C1674.82 460 1683.82 464.125 1689.97 469.675C1696.12 475.075 1699.19 482.875 1699.19 493.075C1699.19 505.675 1694.54 515.725 1685.24 523.225C1676.09 530.725 1663.64 534.475 1647.89 534.475ZM1776.28 532V356.95H1808.23V532H1776.28ZM1884.06 534.25C1845.81 534.25 1826.68 514 1826.68 473.5C1826.68 452.8 1831.41 436.525 1840.86 424.675C1850.46 412.825 1863.88 406.9 1881.13 406.9C1898.23 406.9 1910.91 412.75 1919.16 424.45C1927.56 436.15 1931.76 454.45 1931.76 479.35H1859.76C1860.66 488.8 1863.36 495.7 1867.86 500.05C1872.51 504.25 1879.78 506.35 1889.68 506.35C1903.93 506.35 1916.38 503.65 1927.03 498.25V523.9C1916.98 530.8 1902.66 534.25 1884.06 534.25ZM1880.23 433C1868.38 433 1861.56 441.325 1859.76 457.975H1898.46C1898.01 449.125 1896.36 442.75 1893.51 438.85C1890.81 434.95 1886.38 433 1880.23 433ZM2082.53 356.95H2114.26V532H2087.48L2085.01 518.725C2075.11 529.225 2063.11 534.475 2049.01 534.475C2034.61 534.475 2023.43 529.225 2015.48 518.725C2007.68 508.075 2003.78 493.15 2003.78 473.95C2003.78 453.1 2008.51 436.75 2017.96 424.9C2027.41 412.9 2040.08 406.9 2055.98 406.9C2066.78 406.9 2075.63 410.05 2082.53 416.35V356.95ZM2037.76 470.35C2037.76 496 2045.33 508.825 2060.48 508.825C2068.58 508.825 2075.93 505.075 2082.53 497.575V441.55C2076.53 436 2069.71 433.225 2062.06 433.225C2045.86 433.225 2037.76 445.6 2037.76 470.35ZM2171.46 391.375H2138.39V357.4H2171.46V391.375ZM2170.79 532H2139.06V409.6H2170.79V532ZM2229.05 532H2197.32V443.125L2192.82 409.6H2224.1L2226.57 422.2C2236.77 412 2248.77 406.9 2262.57 406.9C2277.12 406.9 2287.02 412.825 2292.27 424.675C2303.07 412.825 2315.82 406.9 2330.52 406.9C2341.17 406.9 2349.5 410.35 2355.5 417.25C2361.65 424 2364.72 434.65 2364.72 449.2V532H2333V460.675C2333 451.675 2331.72 445.375 2329.17 441.775C2326.77 438.175 2322.57 436.375 2316.57 436.375C2309.67 436.375 2303 438.775 2296.55 443.575C2296.7 444.775 2296.77 446.65 2296.77 449.2V532H2265.05V460.675C2265.05 451.825 2263.77 445.6 2261.22 442C2258.67 438.25 2254.4 436.375 2248.4 436.375C2241.5 436.375 2235.05 438.7 2229.05 443.35V532ZM2450.33 532L2449.2 518.725C2442.45 529.375 2432.18 534.7 2418.38 534.7C2406.98 534.7 2398.05 531.625 2391.6 525.475C2385.15 519.325 2381.93 510.775 2381.93 499.825C2381.93 487.825 2386.05 478.375 2394.3 471.475C2402.55 464.425 2413.88 460.9 2428.28 460.9C2435.48 460.9 2442.08 461.65 2448.08 463.15V459.55C2448.08 451.3 2446.43 445.525 2443.13 442.225C2439.83 438.925 2433.98 437.275 2425.58 437.275C2413.58 437.275 2401.43 440.125 2389.13 445.825V416.125C2401.43 409.975 2415.6 406.9 2431.65 406.9C2448 406.9 2460.15 410.8 2468.1 418.6C2476.05 426.25 2480.03 438.175 2480.03 454.375V505.225L2482.28 532H2450.33ZM2414.78 496C2414.78 500.05 2416.13 503.275 2418.83 505.675C2421.53 507.925 2425.35 509.05 2430.3 509.05C2436.6 509.05 2442.53 507.325 2448.08 503.875V484.3C2442.83 483.1 2438.1 482.5 2433.9 482.5C2421.15 482.5 2414.78 487 2414.78 496ZM2537.54 532H2505.82V443.125L2501.32 409.6H2532.59L2535.07 422.425C2545.87 412.075 2558.17 406.9 2571.97 406.9C2582.62 406.9 2591.17 410.35 2597.62 417.25C2604.22 424.15 2607.52 434.725 2607.52 448.975V532H2575.57V460.45C2575.57 451.75 2574.14 445.6 2571.29 442C2568.44 438.25 2563.94 436.375 2557.79 436.375C2550.59 436.375 2543.84 438.7 2537.54 443.35V532ZM2681.43 534.25C2662.83 534.25 2648.73 529.15 2639.13 518.95C2629.68 508.6 2624.95 493.375 2624.95 473.275C2624.95 452.575 2630.05 436.375 2640.25 424.675C2650.6 412.825 2665.45 406.9 2684.8 406.9C2695.75 406.9 2704.75 408.625 2711.8 412.075V440.65C2705.05 437.05 2697.33 435.25 2688.63 435.25C2668.23 435.25 2658.03 446.95 2658.03 470.35C2658.03 494.5 2668.83 506.575 2690.43 506.575C2697.48 506.575 2704.45 505.075 2711.35 502.075V527.95C2703.85 532.15 2693.88 534.25 2681.43 534.25ZM2800.09 460.45C2800.09 451.75 2798.59 445.6 2795.59 442C2792.74 438.25 2788.31 436.375 2782.31 436.375C2775.41 436.375 2768.74 438.625 2762.29 443.125V532H2730.34V356.95H2762.29V419.95C2772.49 411.25 2783.81 406.9 2796.26 406.9C2806.91 406.9 2815.54 410.35 2822.14 417.25C2828.74 424.15 2832.04 434.725 2832.04 448.975V532H2800.09V460.45ZM2906.67 534.25C2868.42 534.25 2849.29 514 2849.29 473.5C2849.29 452.8 2854.02 436.525 2863.47 424.675C2873.07 412.825 2886.49 406.9 2903.74 406.9C2920.84 406.9 2933.52 412.75 2941.77 424.45C2950.17 436.15 2954.37 454.45 2954.37 479.35H2882.37C2883.27 488.8 2885.97 495.7 2890.47 500.05C2895.12 504.25 2902.39 506.35 2912.29 506.35C2926.54 506.35 2938.99 503.65 2949.64 498.25V523.9C2939.59 530.8 2925.27 534.25 2906.67 534.25ZM2902.84 433C2890.99 433 2884.17 441.325 2882.37 457.975H2921.07C2920.62 449.125 2918.97 442.75 2916.12 438.85C2913.42 434.95 2908.99 433 2902.84 433ZM3085.57 534.475C3066.22 534.475 3051.97 527.575 3042.82 513.775C3033.67 499.825 3029.09 478.45 3029.09 449.65C3029.09 389.2 3048.74 358.975 3088.04 358.975C3109.34 358.975 3124.27 366.325 3132.82 381.025C3141.52 395.575 3145.87 416.875 3145.87 444.925C3145.87 474.175 3140.84 496.45 3130.79 511.75C3120.74 526.9 3105.67 534.475 3085.57 534.475ZM3087.82 509.05C3097.57 509.05 3104.32 503.65 3108.07 492.85C3111.82 481.9 3113.69 466.15 3113.69 445.6C3113.69 404.8 3104.77 384.4 3086.92 384.4C3069.37 384.4 3060.59 405.325 3060.59 447.175C3060.59 467.875 3062.62 483.4 3066.67 493.75C3070.87 503.95 3077.92 509.05 3087.82 509.05ZM3200.68 508.6C3209.98 508.6 3217.41 505.9 3222.96 500.5C3228.51 495.1 3231.28 487.825 3231.28 478.675C3231.28 470.125 3228.81 463.45 3223.86 458.65C3218.91 453.85 3212.08 451.45 3203.38 451.45C3196.93 451.45 3190.56 452.8 3184.26 455.5L3165.81 450.325L3174.36 362.35H3263.91L3260.08 391.6H3199.56L3195.51 428.05C3200.76 427.3 3205.63 426.925 3210.13 426.925C3227.08 426.925 3240.43 431.35 3250.18 440.2C3259.93 449.05 3264.81 461.35 3264.81 477.1C3264.81 494.8 3258.81 508.75 3246.81 518.95C3234.96 529.15 3219.81 534.25 3201.36 534.25C3188.01 534.25 3175.48 531.55 3163.78 526.15V498.025C3176.98 505.075 3189.28 508.6 3200.68 508.6ZM3406.14 532L3405.01 518.725C3398.26 529.375 3387.99 534.7 3374.19 534.7C3362.79 534.7 3353.86 531.625 3347.41 525.475C3340.96 519.325 3337.74 510.775 3337.74 499.825C3337.74 487.825 3341.86 478.375 3350.11 471.475C3358.36 464.425 3369.69 460.9 3384.09 460.9C3391.29 460.9 3397.89 461.65 3403.89 463.15V459.55C3403.89 451.3 3402.24 445.525 3398.94 442.225C3395.64 438.925 3389.79 437.275 3381.39 437.275C3369.39 437.275 3357.24 440.125 3344.94 445.825V416.125C3357.24 409.975 3371.41 406.9 3387.46 406.9C3403.81 406.9 3415.96 410.8 3423.91 418.6C3431.86 426.25 3435.84 438.175 3435.84 454.375V505.225L3438.09 532H3406.14ZM3370.59 496C3370.59 500.05 3371.94 503.275 3374.64 505.675C3377.34 507.925 3381.16 509.05 3386.11 509.05C3392.41 509.05 3398.34 507.325 3403.89 503.875V484.3C3398.64 483.1 3393.91 482.5 3389.71 482.5C3376.96 482.5 3370.59 487 3370.59 496ZM3483.54 532L3446.19 409.6H3479.94L3502.67 495.55L3527.87 409.6H3558.47L3518.64 532H3483.54ZM3605.2 532H3573.47V443.125L3568.97 409.6H3600.02L3603.17 425.575C3611.87 412.825 3622.75 406.45 3635.8 406.45C3638.2 406.45 3640 406.525 3641.2 406.675V437.05C3637.15 436.15 3633.32 435.7 3629.72 435.7C3619.97 435.7 3611.8 439.45 3605.2 446.95V532ZM3643.06 532V493.525H3678.61V532H3643.06ZM208.65 832V808.6L249.6 765.85C259.8 754.9 266.85 746.125 270.75 739.525C274.8 732.775 276.825 725.8 276.825 718.6C276.825 709.6 274.35 702.7 269.4 697.9C264.6 692.95 257.775 690.475 248.925 690.475C237.225 690.475 224.55 695.95 210.9 706.9V676.525C223.95 665.275 239.325 659.65 257.025 659.65C272.775 659.65 285.45 664.375 295.05 673.825C304.8 683.275 309.675 695.8 309.675 711.4C309.675 722.95 306.525 734.05 300.225 744.7C294.075 755.35 283.8 767.65 269.4 781.6L248.025 802.525H316.875L312.6 832H208.65ZM388.204 834.475C368.854 834.475 354.604 827.575 345.454 813.775C336.304 799.825 331.729 778.45 331.729 749.65C331.729 689.2 351.379 658.975 390.679 658.975C411.979 658.975 426.904 666.325 435.454 681.025C444.154 695.575 448.504 716.875 448.504 744.925C448.504 774.175 443.479 796.45 433.429 811.75C423.379 826.9 408.304 834.475 388.204 834.475ZM390.454 809.05C400.204 809.05 406.954 803.65 410.704 792.85C414.454 781.9 416.329 766.15 416.329 745.6C416.329 704.8 407.404 684.4 389.554 684.4C372.004 684.4 363.229 705.325 363.229 747.175C363.229 767.875 365.254 783.4 369.304 793.75C373.504 803.95 380.554 809.05 390.454 809.05ZM465.071 832V808.6L506.021 765.85C516.221 754.9 523.271 746.125 527.171 739.525C531.221 732.775 533.246 725.8 533.246 718.6C533.246 709.6 530.771 702.7 525.821 697.9C521.021 692.95 514.196 690.475 505.346 690.475C493.646 690.475 480.971 695.95 467.321 706.9V676.525C480.371 665.275 495.746 659.65 513.446 659.65C529.196 659.65 541.871 664.375 551.471 673.825C561.221 683.275 566.096 695.8 566.096 711.4C566.096 722.95 562.946 734.05 556.646 744.7C550.496 755.35 540.221 767.65 525.821 781.6L504.446 802.525H573.296L569.021 832H465.071ZM696.824 696.325C686.174 689.875 674.399 686.65 661.499 686.65C649.649 686.65 640.424 690.55 633.824 698.35C627.224 706 623.099 718 621.449 734.35C633.299 726.85 645.449 723.1 657.899 723.1C671.699 723.1 683.099 727.45 692.099 736.15C701.249 744.7 705.824 757 705.824 773.05C705.824 790.9 700.274 805.6 689.174 817.15C678.224 828.7 664.124 834.475 646.874 834.475C628.274 834.475 613.724 827.425 603.224 813.325C592.724 799.225 587.474 779.8 587.474 755.05C587.474 727 593.924 704.125 606.824 686.425C619.874 668.575 637.499 659.65 659.699 659.65C665.999 659.65 672.674 660.4 679.724 661.9C686.774 663.4 692.474 665.35 696.824 667.75V696.325ZM647.324 748.3C639.074 748.3 630.224 751 620.774 756.4C621.524 791.2 630.674 808.6 648.224 808.6C656.174 808.6 662.249 805.45 666.449 799.15C670.649 792.85 672.749 784.9 672.749 775.3C672.749 766 670.424 759.175 665.774 754.825C661.274 750.475 655.124 748.3 647.324 748.3Z" fill="white"/>
<path d="M464.42 1152V1016.28H504.02C520.22 1016.28 532.7 1020.18 541.46 1027.98C550.22 1035.66 554.6 1046.88 554.6 1061.64C554.6 1076.28 549.8 1087.98 540.2 1096.74C530.72 1105.5 518 1109.88 502.04 1109.88H492.14V1152H464.42ZM498.8 1040.22H492.14V1085.94H498.98C507.74 1085.94 514.46 1083.9 519.14 1079.82C523.82 1075.74 526.16 1069.8 526.16 1062C526.16 1047.48 517.04 1040.22 498.8 1040.22ZM698.945 1152L712.985 1016.28H747.725L774.365 1105.56L803.705 1016.28H836.105L848.885 1152H820.805L813.605 1065.96L783.725 1152H761.945L734.585 1061.1L726.305 1152H698.945ZM914.471 1152L913.571 1141.38C908.171 1149.9 899.951 1154.16 888.911 1154.16C879.791 1154.16 872.651 1151.7 867.491 1146.78C862.331 1141.86 859.751 1135.02 859.751 1126.26C859.751 1116.66 863.051 1109.1 869.651 1103.58C876.251 1097.94 885.311 1095.12 896.831 1095.12C902.591 1095.12 907.871 1095.72 912.671 1096.92V1094.04C912.671 1087.44 911.351 1082.82 908.711 1080.18C906.071 1077.54 901.391 1076.22 894.671 1076.22C885.071 1076.22 875.351 1078.5 865.511 1083.06V1059.3C875.351 1054.38 886.691 1051.92 899.531 1051.92C912.611 1051.92 922.331 1055.04 928.691 1061.28C935.051 1067.4 938.231 1076.94 938.231 1089.9V1130.58L940.031 1152H914.471ZM886.031 1123.2C886.031 1126.44 887.111 1129.02 889.271 1130.94C891.431 1132.74 894.491 1133.64 898.451 1133.64C903.491 1133.64 908.231 1132.26 912.671 1129.5V1113.84C908.471 1112.88 904.691 1112.4 901.331 1112.4C891.131 1112.4 886.031 1116 886.031 1123.2ZM983.703 1039.5H957.243V1012.32H983.703V1039.5ZM983.163 1152H957.783V1054.08H983.163V1152ZM1002.95 1152V1011.96H1028.51V1152H1002.95ZM1047.95 1152V1011.96H1073.51V1152H1047.95ZM1133.09 1154.16C1119.65 1154.16 1108.79 1149.9 1100.51 1141.38C1092.35 1132.86 1088.27 1120.74 1088.27 1105.02C1088.27 1089.18 1092.41 1076.4 1100.69 1066.68C1109.09 1056.84 1120.55 1051.92 1135.07 1051.92C1148.27 1051.92 1158.95 1056.24 1167.11 1064.88C1175.27 1073.4 1179.35 1085.64 1179.35 1101.6C1179.35 1117.56 1175.21 1130.34 1166.93 1139.94C1158.65 1149.42 1147.37 1154.16 1133.09 1154.16ZM1119.41 1125.36C1122.89 1130.76 1127.75 1133.46 1133.99 1133.46C1140.23 1133.46 1145.03 1130.76 1148.39 1125.36C1151.75 1119.84 1153.43 1112.28 1153.43 1102.68C1153.43 1093.08 1151.81 1085.76 1148.57 1080.72C1145.33 1075.68 1140.59 1073.16 1134.35 1073.16C1121.03 1073.16 1114.37 1083.18 1114.37 1103.22C1114.37 1112.58 1116.05 1119.96 1119.41 1125.36ZM1197.66 1118.34V1074.06H1184.52V1054.08H1197.84L1202.34 1024.38H1222.68V1054.08H1246.8V1074.06H1222.68V1116.72C1222.68 1122.48 1223.64 1126.62 1225.56 1129.14C1227.48 1131.66 1230.9 1132.92 1235.82 1132.92C1240.14 1132.92 1244.82 1132.14 1249.86 1130.58V1150.02C1244.94 1152.66 1237.92 1153.98 1228.8 1153.98C1217.52 1153.98 1209.48 1151.22 1204.68 1145.7C1200 1140.18 1197.66 1131.06 1197.66 1118.34Z" fill="black"/>
<path d="M573.96 1082.56V1053.04H565.2V1039.72H574.08L577.08 1019.92H590.64V1039.72H606.72V1053.04H590.64V1081.48C590.64 1085.32 591.28 1088.08 592.56 1089.76C593.84 1091.44 596.12 1092.28 599.4 1092.28C602.28 1092.28 605.4 1091.76 608.76 1090.72V1103.68C605.48 1105.44 600.8 1106.32 594.72 1106.32C587.2 1106.32 581.84 1104.48 578.64 1100.8C575.52 1097.12 573.96 1091.04 573.96 1082.56ZM643.663 1106.2C623.263 1106.2 613.063 1095.4 613.063 1073.8C613.063 1062.76 615.583 1054.08 620.623 1047.76C625.743 1041.44 632.903 1038.28 642.103 1038.28C651.223 1038.28 657.983 1041.4 662.383 1047.64C666.863 1053.88 669.103 1063.64 669.103 1076.92H630.703C631.183 1081.96 632.623 1085.64 635.023 1087.96C637.503 1090.2 641.383 1091.32 646.663 1091.32C654.263 1091.32 660.903 1089.88 666.583 1087V1100.68C661.223 1104.36 653.583 1106.2 643.663 1106.2ZM641.623 1052.2C635.303 1052.2 631.663 1056.64 630.703 1065.52H651.343C651.103 1060.8 650.223 1057.4 648.703 1055.32C647.263 1053.24 644.903 1052.2 641.623 1052.2Z" fill="black"/>
<path d="M2753.42 1187V1051.28H2793.02C2809.22 1051.28 2821.7 1055.18 2830.46 1062.98C2839.22 1070.66 2843.6 1081.88 2843.6 1096.64C2843.6 1111.28 2838.8 1122.98 2829.2 1131.74C2819.72 1140.5 2807 1144.88 2791.04 1144.88H2781.14V1187H2753.42ZM2787.8 1075.22H2781.14V1120.94H2787.98C2796.74 1120.94 2803.46 1118.9 2808.14 1114.82C2812.82 1110.74 2815.16 1104.8 2815.16 1097C2815.16 1082.48 2806.04 1075.22 2787.8 1075.22ZM2994.06 1187V1051.28H3036C3045.84 1051.28 3054.54 1052.42 3062.1 1054.7C3069.66 1056.86 3076.38 1060.4 3082.26 1065.32C3088.26 1070.12 3092.82 1076.84 3095.94 1085.48C3099.06 1094 3100.62 1104.26 3100.62 1116.26C3100.62 1139.18 3095.16 1156.64 3084.24 1168.64C3073.44 1180.52 3058.02 1186.64 3037.98 1187H2994.06ZM3033.48 1075.22H3021.78V1163.06H3034.92C3059.16 1163.06 3071.28 1148.42 3071.28 1119.14C3071.28 1103.54 3068.4 1092.32 3062.64 1085.48C3056.88 1078.64 3047.16 1075.22 3033.48 1075.22ZM3164.8 1187L3163.9 1176.38C3158.5 1184.9 3150.28 1189.16 3139.24 1189.16C3130.12 1189.16 3122.98 1186.7 3117.82 1181.78C3112.66 1176.86 3110.08 1170.02 3110.08 1161.26C3110.08 1151.66 3113.38 1144.1 3119.98 1138.58C3126.58 1132.94 3135.64 1130.12 3147.16 1130.12C3152.92 1130.12 3158.2 1130.72 3163 1131.92V1129.04C3163 1122.44 3161.68 1117.82 3159.04 1115.18C3156.4 1112.54 3151.72 1111.22 3145 1111.22C3135.4 1111.22 3125.68 1113.5 3115.84 1118.06V1094.3C3125.68 1089.38 3137.02 1086.92 3149.86 1086.92C3162.94 1086.92 3172.66 1090.04 3179.02 1096.28C3185.38 1102.4 3188.56 1111.94 3188.56 1124.9V1165.58L3190.36 1187H3164.8ZM3136.36 1158.2C3136.36 1161.44 3137.44 1164.02 3139.6 1165.94C3141.76 1167.74 3144.82 1168.64 3148.78 1168.64C3153.82 1168.64 3158.56 1167.26 3163 1164.5V1148.84C3158.8 1147.88 3155.02 1147.4 3151.66 1147.4C3141.46 1147.4 3136.36 1151 3136.36 1158.2ZM3206.85 1089.08H3232.41V1146.14C3232.41 1153.22 3233.55 1158.26 3235.83 1161.26C3238.23 1164.14 3241.83 1165.58 3246.63 1165.58C3252.27 1165.58 3257.55 1163.84 3262.47 1160.36V1089.08H3288.03V1160.18L3291.63 1187H3266.61L3264.63 1176.92C3256.11 1185.08 3246.33 1189.16 3235.29 1189.16C3226.77 1189.16 3219.87 1186.4 3214.59 1180.88C3209.43 1175.36 3206.85 1166.84 3206.85 1155.32V1089.08ZM3335.47 1226.96H3310.09V1115.9L3306.49 1089.08H3331.33L3333.13 1097.9C3340.09 1090.58 3348.79 1086.92 3359.23 1086.92C3371.23 1086.92 3380.53 1091.24 3387.13 1099.88C3393.73 1108.52 3397.03 1120.76 3397.03 1136.6C3397.03 1153.04 3393.55 1165.88 3386.59 1175.12C3379.75 1184.36 3370.21 1188.98 3357.97 1188.98C3349.09 1188.98 3341.59 1186.34 3335.47 1181.06V1226.96ZM3351.13 1107.98C3345.37 1107.98 3340.15 1110.2 3335.47 1114.64V1162.7C3339.79 1166.54 3344.83 1168.46 3350.59 1168.46C3363.43 1168.46 3369.85 1158.26 3369.85 1137.86C3369.85 1117.94 3363.61 1107.98 3351.13 1107.98ZM3467.63 1129.76C3467.63 1122.8 3466.43 1117.88 3464.03 1115C3461.75 1112 3458.21 1110.5 3453.41 1110.5C3447.89 1110.5 3442.55 1112.3 3437.39 1115.9V1187H3411.83V1046.96H3437.39V1097.36C3445.55 1090.4 3454.61 1086.92 3464.57 1086.92C3473.09 1086.92 3479.99 1089.68 3485.27 1095.2C3490.55 1100.72 3493.19 1109.18 3493.19 1120.58V1187H3467.63V1129.76ZM3537.96 1074.5H3511.5V1047.32H3537.96V1074.5ZM3537.42 1187H3512.04V1089.08H3537.42V1187ZM3584.02 1187H3558.64V1115.9L3555.04 1089.08H3580.06L3582.04 1099.34C3590.68 1091.06 3600.52 1086.92 3611.56 1086.92C3620.08 1086.92 3626.92 1089.68 3632.08 1095.2C3637.36 1100.72 3640 1109.18 3640 1120.58V1187H3614.44V1129.76C3614.44 1122.8 3613.3 1117.88 3611.02 1115C3608.74 1112 3605.14 1110.5 3600.22 1110.5C3594.46 1110.5 3589.06 1112.36 3584.02 1116.08V1187ZM3699.85 1188.8C3669.25 1188.8 3653.95 1172.6 3653.95 1140.2C3653.95 1123.64 3657.73 1110.62 3665.29 1101.14C3672.97 1091.66 3683.71 1086.92 3697.51 1086.92C3711.19 1086.92 3721.33 1091.6 3727.93 1100.96C3734.65 1110.32 3738.01 1124.96 3738.01 1144.88H3680.41C3681.13 1152.44 3683.29 1157.96 3686.89 1161.44C3690.61 1164.8 3696.43 1166.48 3704.35 1166.48C3715.75 1166.48 3725.71 1164.32 3734.23 1160V1180.52C3726.19 1186.04 3714.73 1188.8 3699.85 1188.8ZM3696.79 1107.8C3687.31 1107.8 3681.85 1114.46 3680.41 1127.78H3711.37C3711.01 1120.7 3709.69 1115.6 3707.41 1112.48C3705.25 1109.36 3701.71 1107.8 3696.79 1107.8Z" fill="black"/>
<path d="M2867.96 1117.56V1088.04H2859.2V1074.72H2868.08L2871.08 1054.92H2884.64V1074.72H2900.72V1088.04H2884.64V1116.48C2884.64 1120.32 2885.28 1123.08 2886.56 1124.76C2887.84 1126.44 2890.12 1127.28 2893.4 1127.28C2896.28 1127.28 2899.4 1126.76 2902.76 1125.72V1138.68C2899.48 1140.44 2894.8 1141.32 2888.72 1141.32C2881.2 1141.32 2875.84 1139.48 2872.64 1135.8C2869.52 1132.12 2867.96 1126.04 2867.96 1117.56ZM2937.66 1141.2C2917.26 1141.2 2907.06 1130.4 2907.06 1108.8C2907.06 1097.76 2909.58 1089.08 2914.62 1082.76C2919.74 1076.44 2926.9 1073.28 2936.1 1073.28C2945.22 1073.28 2951.98 1076.4 2956.38 1082.64C2960.86 1088.88 2963.1 1098.64 2963.1 1111.92H2924.7C2925.18 1116.96 2926.62 1120.64 2929.02 1122.96C2931.5 1125.2 2935.38 1126.32 2940.66 1126.32C2948.26 1126.32 2954.9 1124.88 2960.58 1122V1135.68C2955.22 1139.36 2947.58 1141.2 2937.66 1141.2ZM2935.62 1087.2C2929.3 1087.2 2925.66 1091.64 2924.7 1100.52H2945.34C2945.1 1095.8 2944.22 1092.4 2942.7 1090.32C2941.26 1088.24 2938.9 1087.2 2935.62 1087.2Z" fill="black"/>
<line x1="955" y1="1323" x2="3251" y2="1323" stroke="#5D6461" stroke-opacity="0.6" stroke-width="50" stroke-dasharray="100 100"/>
<line x1="955" y1="1428" x2="3251" y2="1428" stroke="#5D6461" stroke-opacity="0.6" stroke-width="50" stroke-dasharray="100 100"/>
<line x1="955" y1="1375.5" x2="3251" y2="1375.5" stroke="#5D6461" stroke-opacity="0.3" stroke-width="55" stroke-dasharray="100 100"/>
<rect x="-63" y="1323" width="1000" height="105" fill="#84B8A0" stroke="#008B5B" stroke-width="50"/>
<circle cx="962" cy="1376" r="103.5" fill="white" stroke="black" stroke-width="35"/>
<path d="M2323.01 1226.25L2175.25 1374L2173.48 1375.77L2323.01 1525.3L2252.3 1596.01L2102.77 1446.48L2101 1448.25L1953.25 1596.01L1882.53 1525.29L2030.29 1377.54L2032.06 1375.77L1882.54 1226.25L1953.25 1155.54L2102.77 1305.06L2104.54 1303.29L2252.29 1155.53L2323.01 1226.25Z" fill="#1A2129" stroke="white" stroke-width="5"/>
<rect x="4271" y="1429" width="1000" height="105" transform="rotate(-180 4271 1429)" fill="#84B8A0" stroke="#008B5B" stroke-width="50"/>
<circle cx="3246" cy="1376" r="103.5" transform="rotate(-180 3246 1376)" fill="white" stroke="black" stroke-width="35"/>
</g>
<defs>
<clipPath id="clip0_101_178">
<rect width="4206" height="1798" fill="white"/>
</clipPath>
</defs>
</svg>
