<svg width="4206" height="1798" viewBox="0 0 4206 1798" fill="none" xmlns="http://www.w3.org/2000/svg">
<g clip-path="url(#clip0_99_136)">
<rect width="4206" height="1798" fill="white"/>
<rect x="102" y="304" width="3879" height="595" rx="70" fill="#25303B"/>
<path d="M208.875 532L226.425 362.35H269.85L303.15 473.95L339.825 362.35H380.325L396.3 532H361.2L352.2 424.45L314.85 532H287.625L253.425 418.375L243.075 532H208.875ZM478.283 532L477.158 518.725C470.408 529.375 460.133 534.7 446.333 534.7C434.933 534.7 426.008 531.625 419.558 525.475C413.108 519.325 409.883 510.775 409.883 499.825C409.883 487.825 414.008 478.375 422.258 471.475C430.508 464.425 441.833 460.9 456.233 460.9C463.433 460.9 470.033 461.65 476.033 463.15V459.55C476.033 451.3 474.383 445.525 471.083 442.225C467.783 438.925 461.933 437.275 453.533 437.275C441.533 437.275 429.383 440.125 417.083 445.825V416.125C429.383 409.975 443.558 406.9 459.608 406.9C475.958 406.9 488.108 410.8 496.058 418.6C504.008 426.25 507.983 438.175 507.983 454.375V505.225L510.233 532H478.283ZM442.733 496C442.733 500.05 444.083 503.275 446.783 505.675C449.483 507.925 453.308 509.05 458.258 509.05C464.558 509.05 470.483 507.325 476.033 503.875V484.3C470.783 483.1 466.058 482.5 461.858 482.5C449.108 482.5 442.733 487 442.733 496ZM565.498 532H533.773V443.125L529.273 409.6H560.548L563.023 422.425C573.823 412.075 586.123 406.9 599.923 406.9C610.573 406.9 619.123 410.35 625.573 417.25C632.173 424.15 635.473 434.725 635.473 448.975V532H603.523V460.45C603.523 451.75 602.098 445.6 599.248 442C596.398 438.25 591.898 436.375 585.748 436.375C578.548 436.375 571.798 438.7 565.498 443.35V532ZM691.605 391.375H658.53V357.4H691.605V391.375ZM690.93 532H659.205V409.6H690.93V532ZM723.315 532V434.575H707.115V409.6H723.315V405.1C723.315 389.05 726.84 376.825 733.89 368.425C741.09 360.025 751.59 355.825 765.39 355.825C774.69 355.825 782.49 357.025 788.79 359.425V384.85C782.64 382.6 776.49 381.475 770.34 381.475C764.79 381.475 760.815 383.05 758.415 386.2C756.015 389.35 754.815 394.45 754.815 401.5V409.6H781.14V434.575H754.815V532H723.315ZM843.435 534.25C805.185 534.25 786.06 514 786.06 473.5C786.06 452.8 790.785 436.525 800.235 424.675C809.835 412.825 823.26 406.9 840.51 406.9C857.61 406.9 870.285 412.75 878.535 424.45C886.935 436.15 891.135 454.45 891.135 479.35H819.135C820.035 488.8 822.735 495.7 827.235 500.05C831.885 504.25 839.16 506.35 849.06 506.35C863.31 506.35 875.76 503.65 886.41 498.25V523.9C876.36 530.8 862.035 534.25 843.435 534.25ZM839.61 433C827.76 433 820.935 441.325 819.135 457.975H857.835C857.385 449.125 855.735 442.75 852.885 438.85C850.185 434.95 845.76 433 839.61 433ZM944.987 534.475C930.287 534.475 917.537 531.775 906.737 526.375V498.7C920.837 505.3 934.262 508.6 947.012 508.6C959.312 508.6 965.462 505.3 965.462 498.7C965.462 495.25 963.662 492.625 960.062 490.825C956.612 488.875 950.537 486.925 941.837 484.975C929.537 482.125 920.462 477.775 914.612 471.925C908.912 466.075 906.062 458.2 906.062 448.3C906.062 435.85 910.487 425.875 919.337 418.375C928.187 410.725 939.962 406.9 954.662 406.9C969.962 406.9 982.112 409.525 991.112 414.775V443.35C979.262 436.75 967.787 433.45 956.687 433.45C944.087 433.45 937.787 436.9 937.787 443.8C937.787 447.1 939.437 449.725 942.737 451.675C946.187 453.475 951.962 455.35 960.062 457.3C971.912 460 980.912 464.125 987.062 469.675C993.212 475.075 996.287 482.875 996.287 493.075C996.287 505.675 991.637 515.725 982.337 523.225C973.187 530.725 960.737 534.475 944.987 534.475ZM1021.46 489.925V434.575H1005.03V409.6H1021.68L1027.31 372.475H1052.73V409.6H1082.88V434.575H1052.73V487.9C1052.73 495.1 1053.93 500.275 1056.33 503.425C1058.73 506.575 1063.01 508.15 1069.16 508.15C1074.56 508.15 1080.41 507.175 1086.71 505.225V529.525C1080.56 532.825 1071.78 534.475 1060.38 534.475C1046.28 534.475 1036.23 531.025 1030.23 524.125C1024.38 517.225 1021.46 505.825 1021.46 489.925ZM1164.05 532L1162.92 518.725C1156.17 529.375 1145.9 534.7 1132.1 534.7C1120.7 534.7 1111.77 531.625 1105.32 525.475C1098.87 519.325 1095.65 510.775 1095.65 499.825C1095.65 487.825 1099.77 478.375 1108.02 471.475C1116.27 464.425 1127.6 460.9 1142 460.9C1149.2 460.9 1155.8 461.65 1161.8 463.15V459.55C1161.8 451.3 1160.15 445.525 1156.85 442.225C1153.55 438.925 1147.7 437.275 1139.3 437.275C1127.3 437.275 1115.15 440.125 1102.85 445.825V416.125C1115.15 409.975 1129.32 406.9 1145.37 406.9C1161.72 406.9 1173.87 410.8 1181.82 418.6C1189.77 426.25 1193.75 438.175 1193.75 454.375V505.225L1196 532H1164.05ZM1128.5 496C1128.5 500.05 1129.85 503.275 1132.55 505.675C1135.25 507.925 1139.07 509.05 1144.02 509.05C1150.32 509.05 1156.25 507.325 1161.8 503.875V484.3C1156.55 483.1 1151.82 482.5 1147.62 482.5C1134.87 482.5 1128.5 487 1128.5 496ZM1223.17 489.925V434.575H1206.74V409.6H1223.39L1229.02 372.475H1254.44V409.6H1284.59V434.575H1254.44V487.9C1254.44 495.1 1255.64 500.275 1258.04 503.425C1260.44 506.575 1264.72 508.15 1270.87 508.15C1276.27 508.15 1282.12 507.175 1288.42 505.225V529.525C1282.27 532.825 1273.49 534.475 1262.09 534.475C1247.99 534.475 1237.94 531.025 1231.94 524.125C1226.09 517.225 1223.17 505.825 1223.17 489.925ZM1336.28 391.375H1303.21V357.4H1336.28V391.375ZM1335.61 532H1303.88V409.6H1335.61V532ZM1410.52 534.7C1393.72 534.7 1380.14 529.375 1369.79 518.725C1359.59 508.075 1354.49 492.925 1354.49 473.275C1354.49 453.475 1359.67 437.5 1370.02 425.35C1380.52 413.05 1394.84 406.9 1412.99 406.9C1429.49 406.9 1442.84 412.3 1453.04 423.1C1463.24 433.75 1468.34 449.05 1468.34 469C1468.34 488.95 1463.17 504.925 1452.82 516.925C1442.47 528.775 1428.37 534.7 1410.52 534.7ZM1393.42 498.7C1397.77 505.45 1403.84 508.825 1411.64 508.825C1419.44 508.825 1425.44 505.45 1429.64 498.7C1433.84 491.8 1435.94 482.35 1435.94 470.35C1435.94 458.35 1433.92 449.2 1429.87 442.9C1425.82 436.6 1419.89 433.45 1412.09 433.45C1395.44 433.45 1387.12 445.975 1387.12 471.025C1387.12 482.725 1389.22 491.95 1393.42 498.7ZM1520.21 532H1488.49V443.125L1483.99 409.6H1515.26L1517.74 422.425C1528.54 412.075 1540.84 406.9 1554.64 406.9C1565.29 406.9 1573.84 410.35 1580.29 417.25C1586.89 424.15 1590.19 434.725 1590.19 448.975V532H1558.24V460.45C1558.24 451.75 1556.81 445.6 1553.96 442C1551.11 438.25 1546.61 436.375 1540.46 436.375C1533.26 436.375 1526.51 438.7 1520.21 443.35V532ZM1647.89 534.475C1633.19 534.475 1620.44 531.775 1609.64 526.375V498.7C1623.74 505.3 1637.17 508.6 1649.92 508.6C1662.22 508.6 1668.37 505.3 1668.37 498.7C1668.37 495.25 1666.57 492.625 1662.97 490.825C1659.52 488.875 1653.44 486.925 1644.74 484.975C1632.44 482.125 1623.37 477.775 1617.52 471.925C1611.82 466.075 1608.97 458.2 1608.97 448.3C1608.97 435.85 1613.39 425.875 1622.24 418.375C1631.09 410.725 1642.87 406.9 1657.57 406.9C1672.87 406.9 1685.02 409.525 1694.02 414.775V443.35C1682.17 436.75 1670.69 433.45 1659.59 433.45C1646.99 433.45 1640.69 436.9 1640.69 443.8C1640.69 447.1 1642.34 449.725 1645.64 451.675C1649.09 453.475 1654.87 455.35 1662.97 457.3C1674.82 460 1683.82 464.125 1689.97 469.675C1696.12 475.075 1699.19 482.875 1699.19 493.075C1699.19 505.675 1694.54 515.725 1685.24 523.225C1676.09 530.725 1663.64 534.475 1647.89 534.475ZM1776.28 532V356.95H1808.23V532H1776.28ZM1884.06 534.25C1845.81 534.25 1826.68 514 1826.68 473.5C1826.68 452.8 1831.41 436.525 1840.86 424.675C1850.46 412.825 1863.88 406.9 1881.13 406.9C1898.23 406.9 1910.91 412.75 1919.16 424.45C1927.56 436.15 1931.76 454.45 1931.76 479.35H1859.76C1860.66 488.8 1863.36 495.7 1867.86 500.05C1872.51 504.25 1879.78 506.35 1889.68 506.35C1903.93 506.35 1916.38 503.65 1927.03 498.25V523.9C1916.98 530.8 1902.66 534.25 1884.06 534.25ZM1880.23 433C1868.38 433 1861.56 441.325 1859.76 457.975H1898.46C1898.01 449.125 1896.36 442.75 1893.51 438.85C1890.81 434.95 1886.38 433 1880.23 433ZM2082.53 356.95H2114.26V532H2087.48L2085.01 518.725C2075.11 529.225 2063.11 534.475 2049.01 534.475C2034.61 534.475 2023.43 529.225 2015.48 518.725C2007.68 508.075 2003.78 493.15 2003.78 473.95C2003.78 453.1 2008.51 436.75 2017.96 424.9C2027.41 412.9 2040.08 406.9 2055.98 406.9C2066.78 406.9 2075.63 410.05 2082.53 416.35V356.95ZM2037.76 470.35C2037.76 496 2045.33 508.825 2060.48 508.825C2068.58 508.825 2075.93 505.075 2082.53 497.575V441.55C2076.53 436 2069.71 433.225 2062.06 433.225C2045.86 433.225 2037.76 445.6 2037.76 470.35ZM2171.46 391.375H2138.39V357.4H2171.46V391.375ZM2170.79 532H2139.06V409.6H2170.79V532ZM2229.05 532H2197.32V443.125L2192.82 409.6H2224.1L2226.57 422.2C2236.77 412 2248.77 406.9 2262.57 406.9C2277.12 406.9 2287.02 412.825 2292.27 424.675C2303.07 412.825 2315.82 406.9 2330.52 406.9C2341.17 406.9 2349.5 410.35 2355.5 417.25C2361.65 424 2364.72 434.65 2364.72 449.2V532H2333V460.675C2333 451.675 2331.72 445.375 2329.17 441.775C2326.77 438.175 2322.57 436.375 2316.57 436.375C2309.67 436.375 2303 438.775 2296.55 443.575C2296.7 444.775 2296.77 446.65 2296.77 449.2V532H2265.05V460.675C2265.05 451.825 2263.77 445.6 2261.22 442C2258.67 438.25 2254.4 436.375 2248.4 436.375C2241.5 436.375 2235.05 438.7 2229.05 443.35V532ZM2450.33 532L2449.2 518.725C2442.45 529.375 2432.18 534.7 2418.38 534.7C2406.98 534.7 2398.05 531.625 2391.6 525.475C2385.15 519.325 2381.93 510.775 2381.93 499.825C2381.93 487.825 2386.05 478.375 2394.3 471.475C2402.55 464.425 2413.88 460.9 2428.28 460.9C2435.48 460.9 2442.08 461.65 2448.08 463.15V459.55C2448.08 451.3 2446.43 445.525 2443.13 442.225C2439.83 438.925 2433.98 437.275 2425.58 437.275C2413.58 437.275 2401.43 440.125 2389.13 445.825V416.125C2401.43 409.975 2415.6 406.9 2431.65 406.9C2448 406.9 2460.15 410.8 2468.1 418.6C2476.05 426.25 2480.03 438.175 2480.03 454.375V505.225L2482.28 532H2450.33ZM2414.78 496C2414.78 500.05 2416.13 503.275 2418.83 505.675C2421.53 507.925 2425.35 509.05 2430.3 509.05C2436.6 509.05 2442.53 507.325 2448.08 503.875V484.3C2442.83 483.1 2438.1 482.5 2433.9 482.5C2421.15 482.5 2414.78 487 2414.78 496ZM2537.54 532H2505.82V443.125L2501.32 409.6H2532.59L2535.07 422.425C2545.87 412.075 2558.17 406.9 2571.97 406.9C2582.62 406.9 2591.17 410.35 2597.62 417.25C2604.22 424.15 2607.52 434.725 2607.52 448.975V532H2575.57V460.45C2575.57 451.75 2574.14 445.6 2571.29 442C2568.44 438.25 2563.94 436.375 2557.79 436.375C2550.59 436.375 2543.84 438.7 2537.54 443.35V532ZM2681.43 534.25C2662.83 534.25 2648.73 529.15 2639.13 518.95C2629.68 508.6 2624.95 493.375 2624.95 473.275C2624.95 452.575 2630.05 436.375 2640.25 424.675C2650.6 412.825 2665.45 406.9 2684.8 406.9C2695.75 406.9 2704.75 408.625 2711.8 412.075V440.65C2705.05 437.05 2697.33 435.25 2688.63 435.25C2668.23 435.25 2658.03 446.95 2658.03 470.35C2658.03 494.5 2668.83 506.575 2690.43 506.575C2697.48 506.575 2704.45 505.075 2711.35 502.075V527.95C2703.85 532.15 2693.88 534.25 2681.43 534.25ZM2800.09 460.45C2800.09 451.75 2798.59 445.6 2795.59 442C2792.74 438.25 2788.31 436.375 2782.31 436.375C2775.41 436.375 2768.74 438.625 2762.29 443.125V532H2730.34V356.95H2762.29V419.95C2772.49 411.25 2783.81 406.9 2796.26 406.9C2806.91 406.9 2815.54 410.35 2822.14 417.25C2828.74 424.15 2832.04 434.725 2832.04 448.975V532H2800.09V460.45ZM2906.67 534.25C2868.42 534.25 2849.29 514 2849.29 473.5C2849.29 452.8 2854.02 436.525 2863.47 424.675C2873.07 412.825 2886.49 406.9 2903.74 406.9C2920.84 406.9 2933.52 412.75 2941.77 424.45C2950.17 436.15 2954.37 454.45 2954.37 479.35H2882.37C2883.27 488.8 2885.97 495.7 2890.47 500.05C2895.12 504.25 2902.39 506.35 2912.29 506.35C2926.54 506.35 2938.99 503.65 2949.64 498.25V523.9C2939.59 530.8 2925.27 534.25 2906.67 534.25ZM2902.84 433C2890.99 433 2884.17 441.325 2882.37 457.975H2921.07C2920.62 449.125 2918.97 442.75 2916.12 438.85C2913.42 434.95 2908.99 433 2902.84 433ZM3085.57 534.475C3066.22 534.475 3051.97 527.575 3042.82 513.775C3033.67 499.825 3029.09 478.45 3029.09 449.65C3029.09 389.2 3048.74 358.975 3088.04 358.975C3109.34 358.975 3124.27 366.325 3132.82 381.025C3141.52 395.575 3145.87 416.875 3145.87 444.925C3145.87 474.175 3140.84 496.45 3130.79 511.75C3120.74 526.9 3105.67 534.475 3085.57 534.475ZM3087.82 509.05C3097.57 509.05 3104.32 503.65 3108.07 492.85C3111.82 481.9 3113.69 466.15 3113.69 445.6C3113.69 404.8 3104.77 384.4 3086.92 384.4C3069.37 384.4 3060.59 405.325 3060.59 447.175C3060.59 467.875 3062.62 483.4 3066.67 493.75C3070.87 503.95 3077.92 509.05 3087.82 509.05ZM3200.68 508.6C3209.98 508.6 3217.41 505.9 3222.96 500.5C3228.51 495.1 3231.28 487.825 3231.28 478.675C3231.28 470.125 3228.81 463.45 3223.86 458.65C3218.91 453.85 3212.08 451.45 3203.38 451.45C3196.93 451.45 3190.56 452.8 3184.26 455.5L3165.81 450.325L3174.36 362.35H3263.91L3260.08 391.6H3199.56L3195.51 428.05C3200.76 427.3 3205.63 426.925 3210.13 426.925C3227.08 426.925 3240.43 431.35 3250.18 440.2C3259.93 449.05 3264.81 461.35 3264.81 477.1C3264.81 494.8 3258.81 508.75 3246.81 518.95C3234.96 529.15 3219.81 534.25 3201.36 534.25C3188.01 534.25 3175.48 531.55 3163.78 526.15V498.025C3176.98 505.075 3189.28 508.6 3200.68 508.6ZM3406.14 532L3405.01 518.725C3398.26 529.375 3387.99 534.7 3374.19 534.7C3362.79 534.7 3353.86 531.625 3347.41 525.475C3340.96 519.325 3337.74 510.775 3337.74 499.825C3337.74 487.825 3341.86 478.375 3350.11 471.475C3358.36 464.425 3369.69 460.9 3384.09 460.9C3391.29 460.9 3397.89 461.65 3403.89 463.15V459.55C3403.89 451.3 3402.24 445.525 3398.94 442.225C3395.64 438.925 3389.79 437.275 3381.39 437.275C3369.39 437.275 3357.24 440.125 3344.94 445.825V416.125C3357.24 409.975 3371.41 406.9 3387.46 406.9C3403.81 406.9 3415.96 410.8 3423.91 418.6C3431.86 426.25 3435.84 438.175 3435.84 454.375V505.225L3438.09 532H3406.14ZM3370.59 496C3370.59 500.05 3371.94 503.275 3374.64 505.675C3377.34 507.925 3381.16 509.05 3386.11 509.05C3392.41 509.05 3398.34 507.325 3403.89 503.875V484.3C3398.64 483.1 3393.91 482.5 3389.71 482.5C3376.96 482.5 3370.59 487 3370.59 496ZM3483.54 532L3446.19 409.6H3479.94L3502.67 495.55L3527.87 409.6H3558.47L3518.64 532H3483.54ZM3605.2 532H3573.47V443.125L3568.97 409.6H3600.02L3603.17 425.575C3611.87 412.825 3622.75 406.45 3635.8 406.45C3638.2 406.45 3640 406.525 3641.2 406.675V437.05C3637.15 436.15 3633.32 435.7 3629.72 435.7C3619.97 435.7 3611.8 439.45 3605.2 446.95V532ZM3643.06 532V493.525H3678.61V532H3643.06ZM208.65 832V808.6L249.6 765.85C259.8 754.9 266.85 746.125 270.75 739.525C274.8 732.775 276.825 725.8 276.825 718.6C276.825 709.6 274.35 702.7 269.4 697.9C264.6 692.95 257.775 690.475 248.925 690.475C237.225 690.475 224.55 695.95 210.9 706.9V676.525C223.95 665.275 239.325 659.65 257.025 659.65C272.775 659.65 285.45 664.375 295.05 673.825C304.8 683.275 309.675 695.8 309.675 711.4C309.675 722.95 306.525 734.05 300.225 744.7C294.075 755.35 283.8 767.65 269.4 781.6L248.025 802.525H316.875L312.6 832H208.65ZM388.204 834.475C368.854 834.475 354.604 827.575 345.454 813.775C336.304 799.825 331.729 778.45 331.729 749.65C331.729 689.2 351.379 658.975 390.679 658.975C411.979 658.975 426.904 666.325 435.454 681.025C444.154 695.575 448.504 716.875 448.504 744.925C448.504 774.175 443.479 796.45 433.429 811.75C423.379 826.9 408.304 834.475 388.204 834.475ZM390.454 809.05C400.204 809.05 406.954 803.65 410.704 792.85C414.454 781.9 416.329 766.15 416.329 745.6C416.329 704.8 407.404 684.4 389.554 684.4C372.004 684.4 363.229 705.325 363.229 747.175C363.229 767.875 365.254 783.4 369.304 793.75C373.504 803.95 380.554 809.05 390.454 809.05ZM465.071 832V808.6L506.021 765.85C516.221 754.9 523.271 746.125 527.171 739.525C531.221 732.775 533.246 725.8 533.246 718.6C533.246 709.6 530.771 702.7 525.821 697.9C521.021 692.95 514.196 690.475 505.346 690.475C493.646 690.475 480.971 695.95 467.321 706.9V676.525C480.371 665.275 495.746 659.65 513.446 659.65C529.196 659.65 541.871 664.375 551.471 673.825C561.221 683.275 566.096 695.8 566.096 711.4C566.096 722.95 562.946 734.05 556.646 744.7C550.496 755.35 540.221 767.65 525.821 781.6L504.446 802.525H573.296L569.021 832H465.071ZM696.824 696.325C686.174 689.875 674.399 686.65 661.499 686.65C649.649 686.65 640.424 690.55 633.824 698.35C627.224 706 623.099 718 621.449 734.35C633.299 726.85 645.449 723.1 657.899 723.1C671.699 723.1 683.099 727.45 692.099 736.15C701.249 744.7 705.824 757 705.824 773.05C705.824 790.9 700.274 805.6 689.174 817.15C678.224 828.7 664.124 834.475 646.874 834.475C628.274 834.475 613.724 827.425 603.224 813.325C592.724 799.225 587.474 779.8 587.474 755.05C587.474 727 593.924 704.125 606.824 686.425C619.874 668.575 637.499 659.65 659.699 659.65C665.999 659.65 672.674 660.4 679.724 661.9C686.774 663.4 692.474 665.35 696.824 667.75V696.325ZM647.324 748.3C639.074 748.3 630.224 751 620.774 756.4C621.524 791.2 630.674 808.6 648.224 808.6C656.174 808.6 662.249 805.45 666.449 799.15C670.649 792.85 672.749 784.9 672.749 775.3C672.749 766 670.424 759.175 665.774 754.825C661.274 750.475 655.124 748.3 647.324 748.3Z" fill="white"/>
<path d="M299.42 1190V1054.28H339.02C355.22 1054.28 367.7 1058.18 376.46 1065.98C385.22 1073.66 389.6 1084.88 389.6 1099.64C389.6 1114.28 384.8 1125.98 375.2 1134.74C365.72 1143.5 353 1147.88 337.04 1147.88H327.14V1190H299.42ZM333.8 1078.22H327.14V1123.94H333.98C342.74 1123.94 349.46 1121.9 354.14 1117.82C358.82 1113.74 361.16 1107.8 361.16 1100C361.16 1085.48 352.04 1078.22 333.8 1078.22ZM595.685 1049.96H621.065V1190H599.645L597.665 1179.38C589.745 1187.78 580.145 1191.98 568.865 1191.98C557.345 1191.98 548.405 1187.78 542.045 1179.38C535.805 1170.86 532.685 1158.92 532.685 1143.56C532.685 1126.88 536.465 1113.8 544.025 1104.32C551.585 1094.72 561.725 1089.92 574.445 1089.92C583.085 1089.92 590.165 1092.44 595.685 1097.48V1049.96ZM559.865 1140.68C559.865 1161.2 565.925 1171.46 578.045 1171.46C584.525 1171.46 590.405 1168.46 595.685 1162.46V1117.64C590.885 1113.2 585.425 1110.98 579.305 1110.98C566.345 1110.98 559.865 1120.88 559.865 1140.68ZM681.768 1191.8C651.168 1191.8 635.868 1175.6 635.868 1143.2C635.868 1126.64 639.648 1113.62 647.208 1104.14C654.888 1094.66 665.628 1089.92 679.428 1089.92C693.108 1089.92 703.248 1094.6 709.848 1103.96C716.568 1113.32 719.928 1127.96 719.928 1147.88H662.328C663.048 1155.44 665.208 1160.96 668.808 1164.44C672.528 1167.8 678.348 1169.48 686.268 1169.48C697.668 1169.48 707.628 1167.32 716.148 1163V1183.52C708.108 1189.04 696.648 1191.8 681.768 1191.8ZM678.708 1110.8C669.228 1110.8 663.768 1117.46 662.328 1130.78H693.288C692.928 1123.7 691.608 1118.6 689.328 1115.48C687.168 1112.36 683.628 1110.8 678.708 1110.8ZM782.228 1190V1049.96H807.788V1190H782.228ZM877.088 1190L876.188 1179.38C870.788 1187.9 862.568 1192.16 851.528 1192.16C842.408 1192.16 835.268 1189.7 830.108 1184.78C824.948 1179.86 822.368 1173.02 822.368 1164.26C822.368 1154.66 825.668 1147.1 832.268 1141.58C838.868 1135.94 847.928 1133.12 859.448 1133.12C865.208 1133.12 870.488 1133.72 875.288 1134.92V1132.04C875.288 1125.44 873.968 1120.82 871.328 1118.18C868.688 1115.54 864.008 1114.22 857.288 1114.22C847.688 1114.22 837.968 1116.5 828.128 1121.06V1097.3C837.968 1092.38 849.308 1089.92 862.148 1089.92C875.228 1089.92 884.948 1093.04 891.308 1099.28C897.668 1105.4 900.848 1114.94 900.848 1127.9V1168.58L902.648 1190H877.088ZM848.648 1161.2C848.648 1164.44 849.728 1167.02 851.888 1168.94C854.048 1170.74 857.108 1171.64 861.068 1171.64C866.108 1171.64 870.848 1170.26 875.288 1167.5V1151.84C871.088 1150.88 867.308 1150.4 863.948 1150.4C853.748 1150.4 848.648 1154 848.648 1161.2ZM1071.64 1054.28L1028.8 1190H996.038L954.458 1054.28H985.058L1013.5 1156.7L1042.84 1054.28H1071.64ZM1106.98 1077.5H1080.52V1050.32H1106.98V1077.5ZM1106.44 1190H1081.06V1092.08H1106.44V1190ZM1126.23 1190V1049.96H1151.79V1190H1126.23ZM1171.23 1190V1049.96H1196.79V1190H1171.23ZM1257.45 1191.8C1226.85 1191.8 1211.55 1175.6 1211.55 1143.2C1211.55 1126.64 1215.33 1113.62 1222.89 1104.14C1230.57 1094.66 1241.31 1089.92 1255.11 1089.92C1268.79 1089.92 1278.93 1094.6 1285.53 1103.96C1292.25 1113.32 1295.61 1127.96 1295.61 1147.88H1238.01C1238.73 1155.44 1240.89 1160.96 1244.49 1164.44C1248.21 1167.8 1254.03 1169.48 1261.95 1169.48C1273.35 1169.48 1283.31 1167.32 1291.83 1163V1183.52C1283.79 1189.04 1272.33 1191.8 1257.45 1191.8ZM1254.39 1110.8C1244.91 1110.8 1239.45 1117.46 1238.01 1130.78H1268.97C1268.61 1123.7 1267.29 1118.6 1265.01 1115.48C1262.85 1112.36 1259.31 1110.8 1254.39 1110.8ZM1314.97 1156.34V1112.06H1301.83V1092.08H1315.15L1319.65 1062.38H1339.99V1092.08H1364.11V1112.06H1339.99V1154.72C1339.99 1160.48 1340.95 1164.62 1342.87 1167.14C1344.79 1169.66 1348.21 1170.92 1353.13 1170.92C1357.45 1170.92 1362.13 1170.14 1367.17 1168.58V1188.02C1362.25 1190.66 1355.23 1191.98 1346.11 1191.98C1334.83 1191.98 1326.79 1189.22 1321.99 1183.7C1317.31 1178.18 1314.97 1169.06 1314.97 1156.34ZM1384.4 1156.34V1112.06H1371.26V1092.08H1384.58L1389.08 1062.38H1409.42V1092.08H1433.54V1112.06H1409.42V1154.72C1409.42 1160.48 1410.38 1164.62 1412.3 1167.14C1414.22 1169.66 1417.64 1170.92 1422.56 1170.92C1426.88 1170.92 1431.56 1170.14 1436.6 1168.58V1188.02C1431.68 1190.66 1424.66 1191.98 1415.54 1191.98C1404.26 1191.98 1396.22 1189.22 1391.42 1183.7C1386.74 1178.18 1384.4 1169.06 1384.4 1156.34ZM1488.96 1191.8C1458.36 1191.8 1443.06 1175.6 1443.06 1143.2C1443.06 1126.64 1446.84 1113.62 1454.4 1104.14C1462.08 1094.66 1472.82 1089.92 1486.62 1089.92C1500.3 1089.92 1510.44 1094.6 1517.04 1103.96C1523.76 1113.32 1527.12 1127.96 1527.12 1147.88H1469.52C1470.24 1155.44 1472.4 1160.96 1476 1164.44C1479.72 1167.8 1485.54 1169.48 1493.46 1169.48C1504.86 1169.48 1514.82 1167.32 1523.34 1163V1183.52C1515.3 1189.04 1503.84 1191.8 1488.96 1191.8ZM1485.9 1110.8C1476.42 1110.8 1470.96 1117.46 1469.52 1130.78H1500.48C1500.12 1123.7 1498.8 1118.6 1496.52 1115.48C1494.36 1112.36 1490.82 1110.8 1485.9 1110.8Z" fill="black"/>
<path d="M2863.42 1190V1054.28H2903.02C2919.34 1054.28 2931.82 1058.06 2940.46 1065.62C2949.1 1073.18 2953.42 1084.16 2953.42 1098.56C2953.42 1116.8 2946.64 1130.06 2933.08 1138.34L2960.26 1190H2929.3L2907.52 1146.08C2906.32 1146.2 2904.46 1146.26 2901.94 1146.26H2891.14V1190H2863.42ZM2899.06 1078.22H2891.14V1122.32H2899.24C2916.52 1122.32 2925.16 1114.64 2925.16 1099.28C2925.16 1091.72 2923.06 1086.32 2918.86 1083.08C2914.78 1079.84 2908.18 1078.22 2899.06 1078.22ZM3008.44 1192.16C2995 1192.16 2984.14 1187.9 2975.86 1179.38C2967.7 1170.86 2963.62 1158.74 2963.62 1143.02C2963.62 1127.18 2967.76 1114.4 2976.04 1104.68C2984.44 1094.84 2995.9 1089.92 3010.42 1089.92C3023.62 1089.92 3034.3 1094.24 3042.46 1102.88C3050.62 1111.4 3054.7 1123.64 3054.7 1139.6C3054.7 1155.56 3050.56 1168.34 3042.28 1177.94C3034 1187.42 3022.72 1192.16 3008.44 1192.16ZM2994.76 1163.36C2998.24 1168.76 3003.1 1171.46 3009.34 1171.46C3015.58 1171.46 3020.38 1168.76 3023.74 1163.36C3027.1 1157.84 3028.78 1150.28 3028.78 1140.68C3028.78 1131.08 3027.16 1123.76 3023.92 1118.72C3020.68 1113.68 3015.94 1111.16 3009.7 1111.16C2996.38 1111.16 2989.72 1121.18 2989.72 1141.22C2989.72 1150.58 2991.4 1157.96 2994.76 1163.36ZM3096.91 1191.98C3085.15 1191.98 3074.95 1189.82 3066.31 1185.5V1163.36C3077.59 1168.64 3088.33 1171.28 3098.53 1171.28C3108.37 1171.28 3113.29 1168.64 3113.29 1163.36C3113.29 1160.6 3111.85 1158.5 3108.97 1157.06C3106.21 1155.5 3101.35 1153.94 3094.39 1152.38C3084.55 1150.1 3077.29 1146.62 3072.61 1141.94C3068.05 1137.26 3065.77 1130.96 3065.77 1123.04C3065.77 1113.08 3069.31 1105.1 3076.39 1099.1C3083.47 1092.98 3092.89 1089.92 3104.65 1089.92C3116.89 1089.92 3126.61 1092.02 3133.81 1096.22V1119.08C3124.33 1113.8 3115.15 1111.16 3106.27 1111.16C3096.19 1111.16 3091.15 1113.92 3091.15 1119.44C3091.15 1122.08 3092.47 1124.18 3095.11 1125.74C3097.87 1127.18 3102.49 1128.68 3108.97 1130.24C3118.45 1132.4 3125.65 1135.7 3130.57 1140.14C3135.49 1144.46 3137.95 1150.7 3137.95 1158.86C3137.95 1168.94 3134.23 1176.98 3126.79 1182.98C3119.47 1188.98 3109.51 1191.98 3096.91 1191.98ZM3202.73 1190L3201.83 1179.38C3196.43 1187.9 3188.21 1192.16 3177.17 1192.16C3168.05 1192.16 3160.91 1189.7 3155.75 1184.78C3150.59 1179.86 3148.01 1173.02 3148.01 1164.26C3148.01 1154.66 3151.31 1147.1 3157.91 1141.58C3164.51 1135.94 3173.57 1133.12 3185.09 1133.12C3190.85 1133.12 3196.13 1133.72 3200.93 1134.92V1132.04C3200.93 1125.44 3199.61 1120.82 3196.97 1118.18C3194.33 1115.54 3189.65 1114.22 3182.93 1114.22C3173.33 1114.22 3163.61 1116.5 3153.77 1121.06V1097.3C3163.61 1092.38 3174.95 1089.92 3187.79 1089.92C3200.87 1089.92 3210.59 1093.04 3216.95 1099.28C3223.31 1105.4 3226.49 1114.94 3226.49 1127.9V1168.58L3228.29 1190H3202.73ZM3174.29 1161.2C3174.29 1164.44 3175.37 1167.02 3177.53 1168.94C3179.69 1170.74 3182.75 1171.64 3186.71 1171.64C3191.75 1171.64 3196.49 1170.26 3200.93 1167.5V1151.84C3196.73 1150.88 3192.95 1150.4 3189.59 1150.4C3179.39 1150.4 3174.29 1154 3174.29 1161.2ZM3295.14 1190V1054.28H3334.74C3350.94 1054.28 3363.42 1058.18 3372.18 1065.98C3380.94 1073.66 3385.32 1084.88 3385.32 1099.64C3385.32 1114.28 3380.52 1125.98 3370.92 1134.74C3361.44 1143.5 3348.72 1147.88 3332.76 1147.88H3322.86V1190H3295.14ZM3329.52 1078.22H3322.86V1123.94H3329.7C3338.46 1123.94 3345.18 1121.9 3349.86 1117.82C3354.54 1113.74 3356.88 1107.8 3356.88 1100C3356.88 1085.48 3347.76 1078.22 3329.52 1078.22ZM3446.01 1190L3445.11 1179.38C3439.71 1187.9 3431.49 1192.16 3420.45 1192.16C3411.33 1192.16 3404.19 1189.7 3399.03 1184.78C3393.87 1179.86 3391.29 1173.02 3391.29 1164.26C3391.29 1154.66 3394.59 1147.1 3401.19 1141.58C3407.79 1135.94 3416.85 1133.12 3428.37 1133.12C3434.13 1133.12 3439.41 1133.72 3444.21 1134.92V1132.04C3444.21 1125.44 3442.89 1120.82 3440.25 1118.18C3437.61 1115.54 3432.93 1114.22 3426.21 1114.22C3416.61 1114.22 3406.89 1116.5 3397.05 1121.06V1097.3C3406.89 1092.38 3418.23 1089.92 3431.07 1089.92C3444.15 1089.92 3453.87 1093.04 3460.23 1099.28C3466.59 1105.4 3469.77 1114.94 3469.77 1127.9V1168.58L3471.57 1190H3446.01ZM3417.57 1161.2C3417.57 1164.44 3418.65 1167.02 3420.81 1168.94C3422.97 1170.74 3426.03 1171.64 3429.99 1171.64C3435.03 1171.64 3439.77 1170.26 3444.21 1167.5V1151.84C3440.01 1150.88 3436.23 1150.4 3432.87 1150.4C3422.67 1150.4 3417.57 1154 3417.57 1161.2ZM3515.78 1190H3490.4V1118.9L3486.8 1092.08H3511.64L3514.16 1104.86C3521.12 1094.66 3529.82 1089.56 3540.26 1089.56C3542.18 1089.56 3543.62 1089.62 3544.58 1089.74V1114.04C3541.34 1113.32 3538.28 1112.96 3535.4 1112.96C3527.6 1112.96 3521.06 1115.96 3515.78 1121.96V1190ZM3556.11 1190V1049.96H3581.67V1127.72H3590.67L3613.17 1092.08H3639.99L3609.57 1136.18L3639.09 1190H3610.83L3589.23 1148.78H3581.67V1190H3556.11ZM3675.94 1191.98C3664.18 1191.98 3653.98 1189.82 3645.34 1185.5V1163.36C3656.62 1168.64 3667.36 1171.28 3677.56 1171.28C3687.4 1171.28 3692.32 1168.64 3692.32 1163.36C3692.32 1160.6 3690.88 1158.5 3688 1157.06C3685.24 1155.5 3680.38 1153.94 3673.42 1152.38C3663.58 1150.1 3656.32 1146.62 3651.64 1141.94C3647.08 1137.26 3644.8 1130.96 3644.8 1123.04C3644.8 1113.08 3648.34 1105.1 3655.42 1099.1C3662.5 1092.98 3671.92 1089.92 3683.68 1089.92C3695.92 1089.92 3705.64 1092.02 3712.84 1096.22V1119.08C3703.36 1113.8 3694.18 1111.16 3685.3 1111.16C3675.22 1111.16 3670.18 1113.92 3670.18 1119.44C3670.18 1122.08 3671.5 1124.18 3674.14 1125.74C3676.9 1127.18 3681.52 1128.68 3688 1130.24C3697.48 1132.4 3704.68 1135.7 3709.6 1140.14C3714.52 1144.46 3716.98 1150.7 3716.98 1158.86C3716.98 1168.94 3713.26 1176.98 3705.82 1182.98C3698.5 1188.98 3688.54 1191.98 3675.94 1191.98Z" fill="black"/>
<path d="M403.96 1118.56V1089.04H395.2V1075.72H404.08L407.08 1055.92H420.64V1075.72H436.72V1089.04H420.64V1117.48C420.64 1121.32 421.28 1124.08 422.56 1125.76C423.84 1127.44 426.12 1128.28 429.4 1128.28C432.28 1128.28 435.4 1127.76 438.76 1126.72V1139.68C435.48 1141.44 430.8 1142.32 424.72 1142.32C417.2 1142.32 411.84 1140.48 408.64 1136.8C405.52 1133.12 403.96 1127.04 403.96 1118.56ZM473.663 1142.2C453.263 1142.2 443.063 1131.4 443.063 1109.8C443.063 1098.76 445.583 1090.08 450.623 1083.76C455.743 1077.44 462.903 1074.28 472.103 1074.28C481.223 1074.28 487.983 1077.4 492.383 1083.64C496.863 1089.88 499.103 1099.64 499.103 1112.92H460.703C461.183 1117.96 462.623 1121.64 465.023 1123.96C467.503 1126.2 471.383 1127.32 476.663 1127.32C484.263 1127.32 490.903 1125.88 496.583 1123V1136.68C491.223 1140.36 483.583 1142.2 473.663 1142.2ZM471.623 1088.2C465.303 1088.2 461.663 1092.64 460.703 1101.52H481.343C481.103 1096.8 480.223 1093.4 478.703 1091.32C477.263 1089.24 474.903 1088.2 471.623 1088.2Z" fill="black"/>
<line x1="955" y1="1323" x2="3251" y2="1323" stroke="#5D6461" stroke-opacity="0.6" stroke-width="50" stroke-dasharray="100 100"/>
<line x1="955" y1="1428" x2="3251" y2="1428" stroke="#5D6461" stroke-opacity="0.6" stroke-width="50" stroke-dasharray="100 100"/>
<line x1="955" y1="1375.5" x2="3251" y2="1375.5" stroke="#5D6461" stroke-opacity="0.3" stroke-width="55" stroke-dasharray="100 100"/>
<rect x="-63" y="1323" width="1000" height="105" fill="#84B8A0" stroke="#008B5B" stroke-width="50"/>
<circle cx="962" cy="1376" r="103.5" fill="white" stroke="black" stroke-width="35"/>
<path d="M2323.01 1226.25L2175.25 1374L2173.48 1375.77L2323.01 1525.3L2252.3 1596.01L2102.77 1446.48L2101 1448.25L1953.25 1596.01L1882.53 1525.29L2030.29 1377.54L2032.06 1375.77L1882.54 1226.25L1953.25 1155.54L2102.77 1305.06L2104.54 1303.29L2252.29 1155.53L2323.01 1226.25Z" fill="#1A2129" stroke="white" stroke-width="5"/>
<rect x="4271" y="1429" width="1000" height="105" transform="rotate(-180 4271 1429)" fill="#84B8A0" stroke="#008B5B" stroke-width="50"/>
<circle cx="3246" cy="1376" r="103.5" transform="rotate(-180 3246 1376)" fill="white" stroke="black" stroke-width="35"/>
</g>
<defs>
<clipPath id="clip0_99_136">
<rect width="4206" height="1798" fill="white"/>
</clipPath>
</defs>
</svg>
