<svg width="4206" height="1798" viewBox="0 0 4206 1798" fill="none" xmlns="http://www.w3.org/2000/svg">
<path d="M285.24 1296.21C301.557 1293.33 317.117 1304.23 319.994 1320.54L378.456 1652.1C381.333 1668.41 370.438 1683.97 354.121 1686.85L187.425 1716.24C171.108 1719.12 155.549 1708.23 152.671 1691.91L94.2094 1360.36C91.3326 1344.04 102.228 1328.48 118.544 1325.6L285.24 1296.21ZM265.527 1660.27C257.714 1661.65 252.497 1669.1 253.875 1676.91C255.252 1684.72 262.703 1689.94 270.516 1688.56C278.329 1687.18 283.546 1679.73 282.169 1671.92C280.791 1664.11 273.34 1658.89 265.527 1660.27ZM140.487 1383.79C132.329 1385.23 126.882 1393.01 128.32 1401.17L172.193 1649.98C173.631 1658.14 181.411 1663.59 189.569 1662.15L332.728 1636.91C340.887 1635.47 346.334 1627.69 344.896 1619.53L301.023 1370.72C299.584 1362.56 291.804 1357.11 283.646 1358.55L140.487 1383.79ZM175.218 1326.11C172.498 1326.59 170.682 1329.19 171.162 1331.91L173.167 1343.28C173.647 1346 176.24 1347.81 178.959 1347.33L239.845 1336.6C242.564 1336.12 244.38 1333.52 243.901 1330.81L241.896 1319.43C241.416 1316.71 238.823 1314.9 236.104 1315.38L175.218 1326.11Z" fill="#3F3F3F"/>
<path d="M321.35 946.85C326.6 1002.15 298.25 1039.6 244.35 1039.6C231.4 1039.6 224.75 1032.95 222.3 1023.5C213.2 1033.3 202 1041.35 181.35 1041.35C156.5 1041.35 139 1023.85 139 1001.1C139 965.05 180.3 957.35 210.75 957.35C215.3 957.35 219.15 958.05 219.15 953.85V946.15C219.15 934.25 212.15 930.05 194.3 930.05C179.25 930.05 167.35 936.35 159.3 941.95L146.7 916.4C162.8 906.6 179.25 902.4 203.4 902.4C223 902.4 255.2 909.05 255.2 947.55V1005.65C255.2 1009.15 255.2 1013.7 259.4 1013.7C287.4 1013.7 295.1 973.45 292.65 949.3C288.1 902.05 255.9 866.35 199.2 866.35C143.55 866.35 97.7 911.5 104.7 983.25C111 1045.9 153.7 1075.65 205.85 1075.65C226.15 1075.65 250.65 1070.4 267.45 1062.35L275.85 1086.5C253.1 1097.7 226.5 1100.85 200.95 1100.85C134.1 1100.85 82.65 1061.3 75.3 985.7C67.95 910.45 116.6 843.25 200.95 843.25C273.4 843.25 315.75 888.05 321.35 946.85ZM218.8 991.3V981.15C216 980.8 212.15 981.15 208.65 981.15C195.7 981.15 176.8 983.25 176.8 998.3C176.8 1007.4 184.15 1013.35 193.95 1013.35C206.9 1013.35 218.8 1004.6 218.8 991.3Z" fill="#3F3F3F"/>
<path d="M152.52 333V152.12H90.36V121.88H250.52V152.12H187.24V333H152.52ZM279.347 333H247.147V224.92L241.267 181.8H273.187L276.827 201.4C287.654 185.533 300.907 177.6 316.587 177.6C319.76 177.6 322.747 177.88 325.547 178.44V209.8C322 208.68 317.614 208.12 312.387 208.12C298.76 208.12 287.747 214.093 279.347 226.04V333ZM422.832 333L421.152 316.2C411.445 329.827 397.818 336.64 380.272 336.64C366.645 336.64 355.912 332.813 348.072 325.16C340.418 317.32 336.592 306.68 336.592 293.24C336.592 278.493 341.538 267.013 351.432 258.8C361.512 250.4 375.512 246.2 393.432 246.2C402.578 246.2 411.352 247.32 419.752 249.56V239.48C419.752 228.653 417.325 220.813 412.472 215.96C407.805 210.92 400.152 208.4 389.512 208.4C374.018 208.4 359.178 212.413 344.992 220.44V189.64C359.552 181.8 376.165 177.88 394.832 177.88C414.058 177.88 428.338 182.64 437.672 192.16C447.005 201.68 451.672 216.24 451.672 235.84V299.68L455.032 333H422.832ZM369.632 290.16C369.632 296.32 371.498 301.08 375.232 304.44C378.965 307.8 384.285 309.48 391.192 309.48C402.018 309.48 411.538 305.56 419.752 297.72V272.24C411.725 270.373 404.725 269.44 398.752 269.44C379.338 269.44 369.632 276.347 369.632 290.16ZM516.417 333L469.377 181.8H503.817L535.457 295.2L569.057 181.8H601.257L552.257 333H516.417ZM695.722 333L694.042 316.2C684.336 329.827 670.709 336.64 653.162 336.64C639.536 336.64 628.802 332.813 620.962 325.16C613.309 317.32 609.482 306.68 609.482 293.24C609.482 278.493 614.429 267.013 624.322 258.8C634.402 250.4 648.402 246.2 666.322 246.2C675.469 246.2 684.242 247.32 692.642 249.56V239.48C692.642 228.653 690.216 220.813 685.362 215.96C680.696 210.92 673.042 208.4 662.402 208.4C646.909 208.4 632.069 212.413 617.882 220.44V189.64C632.442 181.8 649.056 177.88 667.722 177.88C686.949 177.88 701.229 182.64 710.562 192.16C719.896 201.68 724.562 216.24 724.562 235.84V299.68L727.922 333H695.722ZM642.522 290.16C642.522 296.32 644.389 301.08 648.122 304.44C651.856 307.8 657.176 309.48 664.082 309.48C674.909 309.48 684.429 305.56 692.642 297.72V272.24C684.616 270.373 677.616 269.44 671.642 269.44C652.229 269.44 642.522 276.347 642.522 290.16ZM758.956 181.8H791.156V272.24C791.156 284.747 793.21 293.613 797.316 298.84C801.61 304.067 807.77 306.68 815.796 306.68C827.93 306.68 838.103 302.48 846.316 294.08V181.8H878.236V289.88L884.116 333H852.196L849.396 317.04C836.33 330.107 821.023 336.64 803.476 336.64C789.29 336.64 778.276 332.067 770.436 322.92C762.783 313.587 758.956 300.147 758.956 282.6V181.8ZM898.582 333L948.422 257.68L902.222 181.8H939.742L965.782 229.68L994.342 181.8H1027.94L980.062 254.32L1028.22 333H990.702L962.702 282.6L933.582 333H898.582ZM1151.34 395.16H1119.14V224.92L1113.26 181.8H1145.18L1148.26 197.76C1159.65 184.693 1173.65 178.16 1190.26 178.16C1208.18 178.16 1222.27 184.88 1232.54 198.32C1242.81 211.573 1247.94 230.333 1247.94 254.6C1247.94 279.613 1242.62 299.493 1231.98 314.24C1221.34 328.8 1206.59 336.08 1187.74 336.08C1173.37 336.08 1161.23 331.32 1151.34 321.8V395.16ZM1181.58 205.6C1170.01 205.6 1159.93 210.453 1151.34 220.16V295.2C1159.37 304.533 1169.07 309.2 1180.46 309.2C1202.67 309.2 1213.78 291.747 1213.78 256.84C1213.78 222.68 1203.05 205.6 1181.58 205.6ZM1310.21 333H1278.01V224.92L1272.13 181.8H1304.05L1307.69 201.4C1318.51 185.533 1331.77 177.6 1347.45 177.6C1350.62 177.6 1353.61 177.88 1356.41 178.44V209.8C1352.86 208.68 1348.47 208.12 1343.25 208.12C1329.62 208.12 1318.61 214.093 1310.21 226.04V333ZM1441.7 160.8H1417.06L1441.14 109.56H1471.66L1441.7 160.8ZM1434.42 336.36C1389.06 336.36 1366.38 311.067 1366.38 260.48C1366.38 234.907 1372.08 214.747 1383.46 200C1395.04 185.253 1411 177.88 1431.34 177.88C1451.32 177.88 1466.16 185.067 1475.86 199.44C1485.57 213.813 1490.42 235.747 1490.42 265.24L1399.42 265.52C1400.36 280.08 1403.9 290.72 1410.06 297.44C1416.22 304.16 1426.12 307.52 1439.74 307.52C1456.17 307.52 1471.57 303.6 1485.94 295.76V322.92C1472.13 331.88 1454.96 336.36 1434.42 336.36ZM1430.22 205.6C1412.86 205.6 1402.78 217.827 1399.98 242.28H1456.82C1455.89 229.587 1453.37 220.347 1449.26 214.56C1445.16 208.587 1438.81 205.6 1430.22 205.6ZM1546.46 333L1499.42 181.8H1533.86L1565.5 295.2L1599.1 181.8H1631.3L1582.3 333H1546.46ZM1651.73 181.8H1683.93V272.24C1683.93 284.747 1685.98 293.613 1690.09 298.84C1694.38 304.067 1700.54 306.68 1708.57 306.68C1720.7 306.68 1730.88 302.48 1739.09 294.08V181.8H1771.01V289.88L1776.89 333H1744.97L1742.17 317.04C1729.1 330.107 1713.8 336.64 1696.25 336.64C1682.06 336.64 1671.05 332.067 1663.21 322.92C1655.56 313.587 1651.73 300.147 1651.73 282.6V181.8ZM1891.6 322.92C1880.58 331.88 1866.12 336.36 1848.2 336.36C1830.28 336.36 1815.16 332.907 1802.84 326V296.6C1819.26 304.813 1835.22 308.92 1850.72 308.92C1867.89 308.92 1876.48 303.133 1876.48 291.56C1876.48 285.96 1874.14 281.76 1869.48 278.96C1864.81 275.973 1856.88 273.173 1845.68 270.56C1816.56 264.213 1802 249.56 1802 226.6C1802 212.04 1807.22 200.28 1817.68 191.32C1828.13 182.36 1841.85 177.88 1858.84 177.88C1876.76 177.88 1891.13 181.147 1901.96 187.68V217.64C1888.33 209.613 1874.52 205.6 1860.52 205.6C1842.97 205.6 1834.2 211.2 1834.2 222.4C1834.2 227.627 1836.34 231.733 1840.64 234.72C1845.12 237.52 1852.21 239.947 1861.92 242C1877.04 245.36 1888.52 250.493 1896.36 257.4C1904.2 264.307 1908.12 274.013 1908.12 286.52C1908.12 301.64 1902.61 313.773 1891.6 322.92ZM1947.34 380.04H1923.82C1931.1 364.92 1934.74 344.667 1934.74 319.28V287.08H1966.38V308.36C1966.38 337.107 1960.03 361 1947.34 380.04ZM138.8 695.16H106.6V524.92L100.72 481.8H132.64L135.72 497.76C147.107 484.693 161.107 478.16 177.72 478.16C195.64 478.16 209.733 484.88 220 498.32C230.267 511.573 235.4 530.333 235.4 554.6C235.4 579.613 230.08 599.493 219.44 614.24C208.8 628.8 194.053 636.08 175.2 636.08C160.827 636.08 148.693 631.32 138.8 621.8V695.16ZM169.04 505.6C157.467 505.6 147.387 510.453 138.8 520.16V595.2C146.827 604.533 156.533 609.2 167.92 609.2C190.133 609.2 201.24 591.747 201.24 556.84C201.24 522.68 190.507 505.6 169.04 505.6ZM264.067 633V415.16H296.267V633H264.067ZM331.3 481.8H363.5V572.24C363.5 584.747 365.553 593.613 369.66 598.84C373.953 604.067 380.113 606.68 388.14 606.68C400.273 606.68 410.447 602.48 418.66 594.08V481.8H450.58V589.88L456.46 633H424.54L421.74 617.04C408.673 630.107 393.367 636.64 375.82 636.64C361.633 636.64 350.62 632.067 342.78 622.92C335.127 613.587 331.3 600.147 331.3 582.6V481.8ZM571.166 622.92C560.153 631.88 545.686 636.36 527.766 636.36C509.846 636.36 494.726 632.907 482.406 626V596.6C498.833 604.813 514.793 608.92 530.286 608.92C547.459 608.92 556.046 603.133 556.046 591.56C556.046 585.96 553.713 581.76 549.046 578.96C544.379 575.973 536.446 573.173 525.246 570.56C496.126 564.213 481.566 549.56 481.566 526.6C481.566 512.04 486.793 500.28 497.246 491.32C507.699 482.36 521.419 477.88 538.406 477.88C556.326 477.88 570.699 481.147 581.526 487.68V517.64C567.899 509.613 554.086 505.6 540.086 505.6C522.539 505.6 513.766 511.2 513.766 522.4C513.766 527.627 515.913 531.733 520.206 534.72C524.686 537.52 531.779 539.947 541.486 542C556.606 545.36 568.086 550.493 575.926 557.4C583.766 564.307 587.686 574.013 587.686 586.52C587.686 601.64 582.179 613.773 571.166 622.92ZM779.442 415.16H811.362V633H785.322L781.962 614.8C769.829 629.173 754.709 636.36 736.602 636.36C718.869 636.36 705.056 629.733 695.162 616.48C685.456 603.227 680.602 584.933 680.602 561.6C680.602 535.84 686.389 515.493 697.962 500.56C709.722 485.627 725.216 478.16 744.442 478.16C758.256 478.16 769.922 482.64 779.442 491.6V415.16ZM714.762 557.96C714.762 592.307 725.402 609.48 746.682 609.48C759.189 609.48 770.109 603.227 779.442 590.72V521C771.229 510.733 761.056 505.6 748.922 505.6C726.149 505.6 714.762 523.053 714.762 557.96ZM865.49 499.44H840.57C847.476 485.44 850.93 465.653 850.93 440.08V415.16H881.45V435.32C881.45 460.893 876.13 482.267 865.49 499.44ZM944.887 454.36H910.727V417.96H944.887V454.36ZM943.767 633H911.847V481.8H943.767V633ZM1014.07 633H981.873V524.92L975.993 481.8H1008.19L1011.27 498.32C1024.53 484.693 1039.83 477.88 1057.19 477.88C1070.63 477.88 1081.37 482.36 1089.39 491.32C1097.61 500.28 1101.71 513.16 1101.71 529.96V633H1069.79V540.04C1069.79 518.573 1061.49 507.84 1044.87 507.84C1033.3 507.84 1023.03 512.507 1014.07 521.84V633ZM1145 633V507.56H1125.12V481.8H1145V469.48C1145 432.333 1160.49 413.76 1191.48 413.76C1201.56 413.76 1210.05 415.067 1216.96 417.68V444C1209.68 441.573 1202.59 440.36 1195.68 440.36C1189.15 440.36 1184.39 442.227 1181.4 445.96C1178.41 449.693 1176.92 455.76 1176.92 464.16V481.8H1208.56V507.56H1176.92V633H1145ZM1284.54 636.64C1264.38 636.64 1248.23 629.827 1236.1 616.2C1223.97 602.387 1217.9 583.44 1217.9 559.36C1217.9 535.093 1224.06 515.493 1236.38 500.56C1248.89 485.44 1265.78 477.88 1287.06 477.88C1307.03 477.88 1322.99 484.787 1334.94 498.6C1346.89 512.413 1352.86 531.547 1352.86 556C1352.86 580.64 1346.7 600.24 1334.38 614.8C1322.25 629.36 1305.63 636.64 1284.54 636.64ZM1260.18 595.48C1266.15 604.627 1274.65 609.2 1285.66 609.2C1296.67 609.2 1305.17 604.627 1311.14 595.48C1317.11 586.333 1320.1 573.547 1320.1 557.12C1320.1 540.88 1317.11 528.28 1311.14 519.32C1305.17 510.36 1296.77 505.88 1285.94 505.88C1274.93 505.88 1266.34 510.36 1260.18 519.32C1254.21 528.093 1251.22 540.88 1251.22 557.68C1251.22 573.733 1254.21 586.333 1260.18 595.48ZM1414.93 633H1382.73V524.92L1376.85 481.8H1408.77L1412.41 501.4C1423.24 485.533 1436.49 477.6 1452.17 477.6C1455.35 477.6 1458.33 477.88 1461.13 478.44V509.8C1457.59 508.68 1453.2 508.12 1447.97 508.12C1434.35 508.12 1423.33 514.093 1414.93 526.04V633ZM1516.65 633H1484.45V524.92L1478.57 481.8H1510.77L1513.57 497.76C1525.89 484.507 1540.45 477.88 1557.25 477.88C1576.29 477.88 1589.26 485.907 1596.17 501.96C1609.05 485.907 1624.73 477.88 1643.21 477.88C1657.02 477.88 1667.66 482.453 1675.13 491.6C1682.78 500.56 1686.61 514.093 1686.61 532.2V633H1655.25V542.28C1655.25 519.32 1647.22 507.84 1631.17 507.84C1619.97 507.84 1609.98 513.067 1601.21 523.52C1601.4 525.387 1601.49 528.28 1601.49 532.2V633H1569.29V542.28C1569.29 519.32 1561.17 507.84 1544.93 507.84C1534.1 507.84 1524.68 512.32 1516.65 521.28V633ZM1799.04 633L1797.36 616.2C1787.66 629.827 1774.03 636.64 1756.48 636.64C1742.86 636.64 1732.12 632.813 1724.28 625.16C1716.63 617.32 1712.8 606.68 1712.8 593.24C1712.8 578.493 1717.75 567.013 1727.64 558.8C1737.72 550.4 1751.72 546.2 1769.64 546.2C1778.79 546.2 1787.56 547.32 1795.96 549.56V539.48C1795.96 528.653 1793.54 520.813 1788.68 515.96C1784.02 510.92 1776.36 508.4 1765.72 508.4C1750.23 508.4 1735.39 512.413 1721.2 520.44V489.64C1735.76 481.8 1752.38 477.88 1771.04 477.88C1790.27 477.88 1804.55 482.64 1813.88 492.16C1823.22 501.68 1827.88 516.24 1827.88 535.84V599.68L1831.24 633H1799.04ZM1745.84 590.16C1745.84 596.32 1747.71 601.08 1751.44 604.44C1755.18 607.8 1760.5 609.48 1767.4 609.48C1778.23 609.48 1787.75 605.56 1795.96 597.72V572.24C1787.94 570.373 1780.94 569.44 1774.96 569.44C1755.55 569.44 1745.84 576.347 1745.84 590.16ZM1869.31 584V507.56H1848.59V481.8H1869.87L1874.63 437.56H1900.95V481.8H1937.07V507.56H1900.95V581.2C1901.14 591.28 1902.63 598.373 1905.43 602.48C1908.42 606.587 1913.64 608.64 1921.11 608.64C1927.27 608.64 1933.9 607.52 1940.99 605.28V630.48C1933.52 634.213 1924.19 636.08 1912.99 636.08C1897.31 636.08 1886.11 632.067 1879.39 624.04C1872.67 615.827 1869.31 602.48 1869.31 584ZM1997.35 454.36H1963.19V417.96H1997.35V454.36ZM1996.23 633H1964.31V481.8H1996.23V633ZM2091.45 636.64C2071.29 636.64 2055.15 629.827 2043.01 616.2C2030.88 602.387 2024.81 583.44 2024.81 559.36C2024.81 535.093 2030.97 515.493 2043.29 500.56C2055.8 485.44 2072.69 477.88 2093.97 477.88C2113.95 477.88 2129.91 484.787 2141.85 498.6C2153.8 512.413 2159.77 531.547 2159.77 556C2159.77 580.64 2153.61 600.24 2141.29 614.8C2129.16 629.36 2112.55 636.64 2091.45 636.64ZM2067.09 595.48C2073.07 604.627 2081.56 609.2 2092.57 609.2C2103.59 609.2 2112.08 604.627 2118.05 595.48C2124.03 586.333 2127.01 573.547 2127.01 557.12C2127.01 540.88 2124.03 528.28 2118.05 519.32C2112.08 510.36 2103.68 505.88 2092.85 505.88C2081.84 505.88 2073.25 510.36 2067.09 519.32C2061.12 528.093 2058.13 540.88 2058.13 557.68C2058.13 573.733 2061.12 586.333 2067.09 595.48ZM2221.85 633H2189.65V524.92L2183.77 481.8H2215.97L2219.05 498.32C2232.3 484.693 2247.61 477.88 2264.97 477.88C2278.41 477.88 2289.14 482.36 2297.17 491.32C2305.38 500.28 2309.49 513.16 2309.49 529.96V633H2277.57V540.04C2277.57 518.573 2269.26 507.84 2252.65 507.84C2241.07 507.84 2230.81 512.507 2221.85 521.84V633ZM2427.53 622.92C2416.52 631.88 2402.05 636.36 2384.13 636.36C2366.21 636.36 2351.09 632.907 2338.77 626V596.6C2355.2 604.813 2371.16 608.92 2386.65 608.92C2403.83 608.92 2412.41 603.133 2412.41 591.56C2412.41 585.96 2410.08 581.76 2405.41 578.96C2400.75 575.973 2392.81 573.173 2381.61 570.56C2352.49 564.213 2337.93 549.56 2337.93 526.6C2337.93 512.04 2343.16 500.28 2353.61 491.32C2364.07 482.36 2377.79 477.88 2394.77 477.88C2412.69 477.88 2427.07 481.147 2437.89 487.68V517.64C2424.27 509.613 2410.45 505.6 2396.45 505.6C2378.91 505.6 2370.13 511.2 2370.13 522.4C2370.13 527.627 2372.28 531.733 2376.57 534.72C2381.05 537.52 2388.15 539.947 2397.85 542C2412.97 545.36 2424.45 550.493 2432.29 557.4C2440.13 564.307 2444.05 574.013 2444.05 586.52C2444.05 601.64 2438.55 613.773 2427.53 622.92ZM2627.69 622.92C2616.68 631.88 2602.21 636.36 2584.29 636.36C2566.37 636.36 2551.25 632.907 2538.93 626V596.6C2555.36 604.813 2571.32 608.92 2586.81 608.92C2603.98 608.92 2612.57 603.133 2612.57 591.56C2612.57 585.96 2610.24 581.76 2605.57 578.96C2600.9 575.973 2592.97 573.173 2581.77 570.56C2552.65 564.213 2538.09 549.56 2538.09 526.6C2538.09 512.04 2543.32 500.28 2553.77 491.32C2564.22 482.36 2577.94 477.88 2594.93 477.88C2612.85 477.88 2627.22 481.147 2638.05 487.68V517.64C2624.42 509.613 2610.61 505.6 2596.61 505.6C2579.06 505.6 2570.29 511.2 2570.29 522.4C2570.29 527.627 2572.44 531.733 2576.73 534.72C2581.21 537.52 2588.3 539.947 2598.01 542C2613.13 545.36 2624.61 550.493 2632.45 557.4C2640.29 564.307 2644.21 574.013 2644.21 586.52C2644.21 601.64 2638.7 613.773 2627.69 622.92ZM2670.83 481.8H2703.03V572.24C2703.03 584.747 2705.08 593.613 2709.19 598.84C2713.48 604.067 2719.64 606.68 2727.67 606.68C2739.8 606.68 2749.98 602.48 2758.19 594.08V481.8H2790.11V589.88L2795.99 633H2764.07L2761.27 617.04C2748.2 630.107 2732.9 636.64 2715.35 636.64C2701.16 636.64 2690.15 632.067 2682.31 622.92C2674.66 613.587 2670.83 600.147 2670.83 582.6V481.8ZM2861.42 633H2829.22V524.92L2823.34 481.8H2855.26L2858.9 501.4C2869.72 485.533 2882.98 477.6 2898.66 477.6C2901.83 477.6 2904.82 477.88 2907.62 478.44V509.8C2904.07 508.68 2899.68 508.12 2894.46 508.12C2880.83 508.12 2869.82 514.093 2861.42 526.04V633ZM2993.48 524.92V481.8H3030.72V524.92H2993.48ZM2993.48 633V589.88H3030.72V633H2993.48Z" fill="black"/>
<path d="M535.5 1441.75H510L490 1418L469.75 1441.75H444.25L471.5 1403H508.25L535.5 1441.75ZM507.5 1588H472.25V1454.5H507.5V1588ZM580.684 1588H545.434V1403H580.684V1588ZM727.234 1513.25C727.234 1517.5 727.234 1522.75 726.484 1527.75H643.984C644.234 1547.25 657.234 1563.25 682.234 1563.25C694.484 1563.25 707.734 1558.5 714.984 1554.5L724.484 1581.25C714.234 1586 696.484 1591.75 676.984 1591.75C635.234 1591.75 608.984 1564 608.984 1522.5C608.984 1487.25 627.984 1451.25 670.734 1451.25C711.984 1451.25 727.234 1482.5 727.234 1513.25ZM693.984 1504.5C695.234 1490.5 686.984 1475.75 669.234 1475.75C649.234 1475.75 643.234 1492.75 643.234 1504.5H693.984ZM809.789 1534.75H744.289V1501.75H809.789V1534.75ZM943.607 1588H910.857V1568.25C901.607 1582 892.107 1591.75 873.857 1591.75C836.357 1591.75 822.607 1551.25 822.607 1520C822.607 1488.75 838.357 1451 881.107 1451C891.357 1451 901.857 1454.5 908.357 1460.75V1403H943.607V1588ZM908.357 1537.5V1493.75C908.357 1483.75 902.607 1476.5 885.607 1476.5C864.107 1476.5 859.357 1496.5 859.357 1515.5C859.357 1533.5 862.857 1561.5 886.107 1561.5C893.107 1561.5 898.607 1558 902.107 1554.75C907.607 1549.25 908.357 1544.5 908.357 1537.5ZM1090.03 1513.25C1090.03 1517.5 1090.03 1522.75 1089.28 1527.75H1006.78C1007.03 1547.25 1020.03 1563.25 1045.03 1563.25C1057.28 1563.25 1070.53 1558.5 1077.78 1554.5L1087.28 1581.25C1077.03 1586 1059.28 1591.75 1039.78 1591.75C998.027 1591.75 971.777 1564 971.777 1522.5C971.777 1487.25 990.777 1451.25 1033.53 1451.25C1074.78 1451.25 1090.03 1482.5 1090.03 1513.25ZM1056.78 1504.5C1058.03 1490.5 1049.78 1475.75 1032.03 1475.75C1012.03 1475.75 1006.03 1492.75 1006.03 1504.5H1056.78ZM1172.58 1534.75H1107.08V1501.75H1172.58V1534.75ZM1303.4 1443.5H1232.15V1483.25H1300.9V1514.75H1232.15V1588H1192.9V1411.5H1303.4V1443.5ZM1405.88 1454.25L1396.63 1489.25C1394.13 1488.25 1389.63 1485.75 1384.88 1485.75C1378.38 1485.75 1373.38 1488 1370.38 1491C1366.38 1495.25 1365.38 1500.5 1365.38 1508V1588H1330.13V1488.25C1330.13 1476.75 1329.13 1460.75 1328.88 1454.5H1360.38V1475C1368.38 1462.25 1376.63 1451.75 1393.13 1451.75C1398.13 1451.75 1403.13 1453.25 1405.88 1454.25ZM1536.85 1587.25C1531.6 1588.5 1522.85 1590.5 1514.6 1590.5C1502.1 1590.5 1495.85 1582.75 1493.85 1572.25C1482.85 1585.25 1472.6 1592.25 1454.35 1592.25C1430.85 1592.25 1414.85 1574.75 1414.85 1552C1414.85 1515.75 1452.85 1508.75 1482.35 1508.75C1487.85 1508.75 1491.1 1508.5 1491.1 1504V1494.75C1491.1 1484.5 1483.35 1477.75 1466.6 1477.75C1451.1 1477.75 1439.35 1485 1433.6 1490L1422.1 1465.75C1437.85 1455.75 1453.85 1451.75 1475.35 1451.75C1494.1 1451.75 1524.35 1458.5 1524.35 1497V1557C1524.35 1561.75 1524.85 1565.75 1529.1 1565.75C1530.6 1565.75 1533.35 1565 1534.85 1564.5L1536.85 1587.25ZM1490.85 1543V1530.25C1487.85 1530 1484.1 1530.25 1480.35 1530.25C1468.1 1530.25 1449.6 1533.25 1449.6 1549.25C1449.6 1559 1456.6 1566 1466.35 1566C1474.1 1566 1480.6 1563.5 1485.1 1558.75C1489.1 1554.5 1490.85 1549.5 1490.85 1543ZM1676.29 1588H1641.29V1504.5C1641.29 1491 1636.54 1481.75 1621.29 1481.75C1614.29 1481.75 1608.04 1484.75 1604.29 1488.25C1597.54 1494.75 1597.04 1498 1597.04 1507V1588H1562.04V1454.5H1594.54V1474.5C1604.04 1460.25 1616.54 1451.25 1634.79 1451.25C1664.54 1451.25 1676.29 1471.25 1676.29 1497.25V1588ZM1808.21 1461.25L1795.96 1491C1791.46 1488 1781.96 1482.25 1770.46 1482.25C1750.21 1482.25 1739.96 1499.75 1739.96 1522.5C1739.96 1547.5 1756.71 1561.5 1772.46 1561.5C1782.46 1561.5 1792.21 1557.5 1798.21 1553.75L1807.96 1580.75C1800.21 1585.75 1783.21 1591.75 1768.21 1591.75C1727.21 1591.75 1703.71 1562.25 1703.71 1523.25C1703.71 1486.75 1722.96 1451.75 1768.21 1451.75C1787.21 1451.75 1800.21 1457.25 1808.21 1461.25ZM1939.15 1513.25C1939.15 1517.5 1939.15 1522.75 1938.4 1527.75H1855.9C1856.15 1547.25 1869.15 1563.25 1894.15 1563.25C1906.4 1563.25 1919.65 1558.5 1926.9 1554.5L1936.4 1581.25C1926.15 1586 1908.4 1591.75 1888.9 1591.75C1847.15 1591.75 1820.9 1564 1820.9 1522.5C1820.9 1487.25 1839.9 1451.25 1882.65 1451.25C1923.9 1451.25 1939.15 1482.5 1939.15 1513.25ZM1905.9 1504.5C1907.15 1490.5 1898.9 1475.75 1881.15 1475.75C1861.15 1475.75 1855.15 1492.75 1855.15 1504.5H1905.9ZM2227.89 1588H2190.14L2187.64 1486.25C2187.39 1479.25 2187.89 1467.5 2187.89 1463H2187.39C2186.64 1468.25 2185.64 1474.5 2181.39 1486.25L2144.39 1588H2116.64L2078.89 1484.5C2075.64 1475.75 2074.64 1469.5 2073.89 1464H2073.39C2073.39 1469.5 2073.89 1479.75 2073.64 1485.25L2070.64 1588H2036.64L2042.64 1411.5H2086.14L2125.64 1518.5C2129.64 1529.5 2132.39 1538.75 2132.64 1543H2133.14C2133.89 1538.75 2136.39 1529.5 2140.14 1518.5L2176.39 1411.5H2220.89L2227.89 1588ZM2383.95 1521.5C2383.95 1559.25 2362.7 1592.75 2319.45 1592.75C2275.7 1592.75 2256.2 1559.75 2256.2 1521.75C2256.2 1484 2277.45 1450.75 2320.7 1450.75C2364.45 1450.75 2383.95 1483.5 2383.95 1521.5ZM2347.7 1521.5C2347.7 1502.75 2342.7 1478.25 2320.45 1478.25C2298.2 1478.25 2292.7 1503 2292.7 1521.75C2292.7 1540.5 2297.2 1565.25 2319.45 1565.25C2341.7 1565.25 2347.7 1540.25 2347.7 1521.5ZM2533.13 1519.5C2533.13 1549.5 2517.38 1591.25 2474.63 1591.25C2464.63 1591.25 2452.88 1587.25 2446.13 1581V1588H2412.13V1403H2447.38V1472.75C2456.38 1459.75 2466.63 1450.75 2483.63 1450.75C2518.63 1450.75 2533.13 1487.25 2533.13 1519.5ZM2496.38 1524.5C2496.38 1506.5 2492.63 1481 2470.38 1481C2463.38 1481 2457.88 1484 2454.13 1487.75C2448.13 1493.5 2447.38 1497.25 2447.38 1505V1548.75C2447.38 1558 2452.88 1566.25 2468.88 1566.25C2491.38 1566.25 2496.38 1542.75 2496.38 1524.5ZM2600.55 1419C2600.55 1429.75 2593.05 1437.5 2581.05 1437.5C2569.05 1437.5 2561.3 1429.75 2561.3 1419C2561.3 1408.25 2569.05 1400.5 2581.05 1400.5C2593.05 1400.5 2600.55 1408.25 2600.55 1419ZM2598.55 1588H2563.3V1454.5H2598.55V1588ZM2672.24 1588H2636.99V1403H2672.24V1588ZM2747.04 1419C2747.04 1429.75 2739.54 1437.5 2727.54 1437.5C2715.54 1437.5 2707.79 1429.75 2707.79 1419C2707.79 1408.25 2715.54 1400.5 2727.54 1400.5C2739.54 1400.5 2747.04 1408.25 2747.04 1419ZM2745.04 1588H2709.79V1454.5H2745.04V1588ZM2859.47 1586.25C2852.97 1588 2840.72 1589.75 2828.97 1589.75C2805.22 1589.75 2790.47 1577 2790.47 1551.25V1482.25H2767.72V1457.25H2790.97V1430L2825.72 1418.75V1457.25H2855.97V1482.25H2825.72V1547C2825.72 1560.25 2832.72 1563.25 2840.72 1563.25C2847.97 1563.25 2852.97 1561.5 2855.97 1560.5L2859.47 1586.25ZM2984.63 1403L2944.63 1441.75H2918.88L2946.38 1403H2984.63ZM2991.88 1513.25C2991.88 1517.5 2991.88 1522.75 2991.13 1527.75H2908.63C2908.88 1547.25 2921.88 1563.25 2946.88 1563.25C2959.13 1563.25 2972.38 1558.5 2979.63 1554.5L2989.13 1581.25C2978.88 1586 2961.13 1591.75 2941.63 1591.75C2899.88 1591.75 2873.63 1564 2873.63 1522.5C2873.63 1487.25 2892.63 1451.25 2935.38 1451.25C2976.63 1451.25 2991.88 1482.5 2991.88 1513.25ZM2958.63 1504.5C2959.88 1490.5 2951.63 1475.75 2933.88 1475.75C2913.88 1475.75 2907.88 1492.75 2907.88 1504.5H2958.63ZM3106.05 1548C3106.05 1574 3085.05 1592.5 3050.05 1592.5C3033.3 1592.5 3018.3 1586.75 3010.8 1582.25L3021.55 1556C3030.05 1562 3042.3 1566 3052.8 1566C3062.05 1566 3073.3 1563 3073.3 1552.5C3073.3 1543.25 3063.3 1540.5 3056.3 1537.75L3040.55 1531.75C3021.55 1524.5 3013.8 1512.25 3013.8 1496.5C3013.8 1471.25 3035.05 1451.5 3066.3 1451.5C3083.05 1451.5 3095.3 1456.75 3102.3 1460.25L3091.55 1486C3083.8 1481 3073.05 1478 3064.55 1478C3052.8 1478 3046.05 1482.75 3046.05 1490.75C3046.05 1497.75 3051.55 1501 3060.05 1504L3076.3 1510C3094.3 1516.75 3106.05 1527.75 3106.05 1548Z" fill="#0A0086"/>
<path d="M509 877C509 887.75 501.5 895.5 489.5 895.5C477.5 895.5 469.75 887.75 469.75 877C469.75 866.25 477.5 858.5 489.5 858.5C501.5 858.5 509 866.25 509 877ZM507 1046H471.75V912.5H507V1046ZM580.684 1046H545.434V861H580.684V1046ZM727.234 971.25C727.234 975.5 727.234 980.75 726.484 985.75H643.984C644.234 1005.25 657.234 1021.25 682.234 1021.25C694.484 1021.25 707.734 1016.5 714.984 1012.5L724.484 1039.25C714.234 1044 696.484 1049.75 676.984 1049.75C635.234 1049.75 608.984 1022 608.984 980.5C608.984 945.25 627.984 909.25 670.734 909.25C711.984 909.25 727.234 940.5 727.234 971.25ZM693.984 962.5C695.234 948.5 686.984 933.75 669.234 933.75C649.234 933.75 643.234 950.75 643.234 962.5H693.984ZM868.656 1046H835.906V1026.25C826.656 1040 817.156 1049.75 798.906 1049.75C761.406 1049.75 747.656 1009.25 747.656 978C747.656 946.75 763.406 909 806.156 909C816.406 909 826.906 912.5 833.406 918.75V861H868.656V1046ZM833.406 995.5V951.75C833.406 941.75 827.656 934.5 810.656 934.5C789.156 934.5 784.406 954.5 784.406 973.5C784.406 991.5 787.906 1019.5 811.156 1019.5C818.156 1019.5 823.656 1016 827.156 1012.75C832.656 1007.25 833.406 1002.5 833.406 995.5ZM1015.08 971.25C1015.08 975.5 1015.08 980.75 1014.33 985.75H931.826C932.076 1005.25 945.076 1021.25 970.076 1021.25C982.326 1021.25 995.576 1016.5 1002.83 1012.5L1012.33 1039.25C1002.08 1044 984.326 1049.75 964.826 1049.75C923.076 1049.75 896.826 1022 896.826 980.5C896.826 945.25 915.826 909.25 958.576 909.25C999.826 909.25 1015.08 940.5 1015.08 971.25ZM981.826 962.5C983.076 948.5 974.826 933.75 957.076 933.75C937.076 933.75 931.076 950.75 931.076 962.5H981.826ZM1137.25 864L1129 890.75C1125 888.5 1117 884.75 1106.5 884.75C1092.25 884.75 1085 892.25 1085 904V915H1115.75V940H1085.5V1046H1050.25V940H1027.5V915H1050V905C1050 877 1076.25 858.25 1103.5 858.25C1119.25 858.25 1128.75 861 1137.25 864ZM1215.45 912.25L1206.2 947.25C1203.7 946.25 1199.2 943.75 1194.45 943.75C1187.95 943.75 1182.95 946 1179.95 949C1175.95 953.25 1174.95 958.5 1174.95 966V1046H1139.7V946.25C1139.7 934.75 1138.7 918.75 1138.45 912.5H1169.95V933C1177.95 920.25 1186.2 909.75 1202.7 909.75C1207.7 909.75 1212.7 911.25 1215.45 912.25ZM1346.42 1045.25C1341.17 1046.5 1332.42 1048.5 1324.17 1048.5C1311.67 1048.5 1305.42 1040.75 1303.42 1030.25C1292.42 1043.25 1282.17 1050.25 1263.92 1050.25C1240.42 1050.25 1224.42 1032.75 1224.42 1010C1224.42 973.75 1262.42 966.75 1291.92 966.75C1297.42 966.75 1300.67 966.5 1300.67 962V952.75C1300.67 942.5 1292.92 935.75 1276.17 935.75C1260.67 935.75 1248.92 943 1243.17 948L1231.67 923.75C1247.42 913.75 1263.42 909.75 1284.92 909.75C1303.67 909.75 1333.92 916.5 1333.92 955V1015C1333.92 1019.75 1334.42 1023.75 1338.67 1023.75C1340.17 1023.75 1342.92 1023 1344.42 1022.5L1346.42 1045.25ZM1300.42 1001V988.25C1297.42 988 1293.67 988.25 1289.92 988.25C1277.67 988.25 1259.17 991.25 1259.17 1007.25C1259.17 1017 1266.17 1024 1275.92 1024C1283.67 1024 1290.17 1021.5 1294.67 1016.75C1298.67 1012.5 1300.42 1007.5 1300.42 1001ZM1485.86 1046H1450.86V962.5C1450.86 949 1446.11 939.75 1430.86 939.75C1423.86 939.75 1417.61 942.75 1413.86 946.25C1407.11 952.75 1406.61 956 1406.61 965V1046H1371.61V912.5H1404.11V932.5C1413.61 918.25 1426.11 909.25 1444.36 909.25C1474.11 909.25 1485.86 929.25 1485.86 955.25V1046ZM1617.78 919.25L1605.53 949C1601.03 946 1591.53 940.25 1580.03 940.25C1559.78 940.25 1549.53 957.75 1549.53 980.5C1549.53 1005.5 1566.28 1019.5 1582.03 1019.5C1592.03 1019.5 1601.78 1015.5 1607.78 1011.75L1617.53 1038.75C1609.78 1043.75 1592.78 1049.75 1577.78 1049.75C1536.78 1049.75 1513.28 1020.25 1513.28 981.25C1513.28 944.75 1532.53 909.75 1577.78 909.75C1596.78 909.75 1609.78 915.25 1617.78 919.25ZM1748.72 971.25C1748.72 975.5 1748.72 980.75 1747.97 985.75H1665.47C1665.72 1005.25 1678.72 1021.25 1703.72 1021.25C1715.97 1021.25 1729.22 1016.5 1736.47 1012.5L1745.97 1039.25C1735.72 1044 1717.97 1049.75 1698.47 1049.75C1656.72 1049.75 1630.47 1022 1630.47 980.5C1630.47 945.25 1649.47 909.25 1692.22 909.25C1733.47 909.25 1748.72 940.5 1748.72 971.25ZM1715.47 962.5C1716.72 948.5 1708.47 933.75 1690.72 933.75C1670.72 933.75 1664.72 950.75 1664.72 962.5H1715.47ZM1831.27 992.75H1765.77V959.75H1831.27V992.75ZM2036.09 1046H2001.09V962.5C2001.09 949 1996.09 939.75 1982.84 939.75C1976.34 939.75 1971.09 942.5 1967.84 946C1961.84 952.5 1961.34 956.5 1961.34 965V1046H1926.09V962.5C1926.09 949 1921.34 939.75 1908.09 939.75C1901.59 939.75 1896.09 942.5 1892.84 946C1886.84 952.5 1886.34 956 1886.34 965V1046H1851.34V912.5H1882.09V932.25C1891.34 917.75 1902.34 909.25 1920.84 909.25C1938.59 909.25 1950.34 917.5 1956.84 933.25C1966.09 919.25 1978.09 909.25 1995.84 909.25C2024.59 909.25 2036.09 929.25 2036.09 955.25V1046ZM2191.32 979.5C2191.32 1017.25 2170.07 1050.75 2126.82 1050.75C2083.07 1050.75 2063.57 1017.75 2063.57 979.75C2063.57 942 2084.82 908.75 2128.07 908.75C2171.82 908.75 2191.32 941.5 2191.32 979.5ZM2155.07 979.5C2155.07 960.75 2150.07 936.25 2127.82 936.25C2105.57 936.25 2100.07 961 2100.07 979.75C2100.07 998.5 2104.57 1023.25 2126.82 1023.25C2149.07 1023.25 2155.07 998.25 2155.07 979.5ZM2340.51 977.5C2340.51 1007.5 2324.76 1049.25 2282.01 1049.25C2272.01 1049.25 2260.26 1045.25 2253.51 1039V1046H2219.51V861H2254.76V930.75C2263.76 917.75 2274.01 908.75 2291.01 908.75C2326.01 908.75 2340.51 945.25 2340.51 977.5ZM2303.76 982.5C2303.76 964.5 2300.01 939 2277.76 939C2270.76 939 2265.26 942 2261.51 945.75C2255.51 951.5 2254.76 955.25 2254.76 963V1006.75C2254.76 1016 2260.26 1024.25 2276.26 1024.25C2298.76 1024.25 2303.76 1000.75 2303.76 982.5ZM2407.93 877C2407.93 887.75 2400.43 895.5 2388.43 895.5C2376.43 895.5 2368.68 887.75 2368.68 877C2368.68 866.25 2376.43 858.5 2388.43 858.5C2400.43 858.5 2407.93 866.25 2407.93 877ZM2405.93 1046H2370.68V912.5H2405.93V1046ZM2479.61 1046H2444.36V861H2479.61V1046ZM2554.41 877C2554.41 887.75 2546.91 895.5 2534.91 895.5C2522.91 895.5 2515.16 887.75 2515.16 877C2515.16 866.25 2522.91 858.5 2534.91 858.5C2546.91 858.5 2554.41 866.25 2554.41 877ZM2552.41 1046H2517.16V912.5H2552.41V1046ZM2666.84 1044.25C2660.34 1046 2648.09 1047.75 2636.34 1047.75C2612.59 1047.75 2597.84 1035 2597.84 1009.25V940.25H2575.09V915.25H2598.34V888L2633.09 876.75V915.25H2663.34V940.25H2633.09V1005C2633.09 1018.25 2640.09 1021.25 2648.09 1021.25C2655.34 1021.25 2660.34 1019.5 2663.34 1018.5L2666.84 1044.25ZM2799.26 971.25C2799.26 975.5 2799.26 980.75 2798.51 985.75H2716.01C2716.26 1005.25 2729.26 1021.25 2754.26 1021.25C2766.51 1021.25 2779.76 1016.5 2787.01 1012.5L2796.51 1039.25C2786.26 1044 2768.51 1049.75 2749.01 1049.75C2707.26 1049.75 2681.01 1022 2681.01 980.5C2681.01 945.25 2700.01 909.25 2742.76 909.25C2784.01 909.25 2799.26 940.5 2799.26 971.25ZM2766.01 962.5C2767.26 948.5 2759.01 933.75 2741.26 933.75C2721.26 933.75 2715.26 950.75 2715.26 962.5H2766.01ZM2913.43 1006C2913.43 1032 2892.43 1050.5 2857.43 1050.5C2840.68 1050.5 2825.68 1044.75 2818.18 1040.25L2828.93 1014C2837.43 1020 2849.68 1024 2860.18 1024C2869.43 1024 2880.68 1021 2880.68 1010.5C2880.68 1001.25 2870.68 998.5 2863.68 995.75L2847.93 989.75C2828.93 982.5 2821.18 970.25 2821.18 954.5C2821.18 929.25 2842.43 909.5 2873.68 909.5C2890.43 909.5 2902.68 914.75 2909.68 918.25L2898.93 944C2891.18 939 2880.43 936 2871.93 936C2860.18 936 2853.43 940.75 2853.43 948.75C2853.43 955.75 2858.93 959 2867.43 962L2883.68 968C2901.68 974.75 2913.43 985.75 2913.43 1006ZM2976.75 1027.5C2976.75 1039 2968.75 1047.5 2955.75 1047.5C2942.75 1047.5 2934.5 1039 2934.5 1027.5C2934.5 1016 2942.75 1007.5 2955.75 1007.5C2968.75 1007.5 2976.75 1016 2976.75 1027.5ZM3103.07 864L3094.82 890.75C3090.82 888.5 3082.82 884.75 3072.32 884.75C3058.07 884.75 3050.82 892.25 3050.82 904V915H3081.57V940H3051.32V1046H3016.07V940H2993.32V915H3015.82V905C3015.82 877 3042.07 858.25 3069.32 858.25C3085.07 858.25 3094.57 861 3103.07 864ZM3181.27 912.25L3172.02 947.25C3169.52 946.25 3165.02 943.75 3160.27 943.75C3153.77 943.75 3148.77 946 3145.77 949C3141.77 953.25 3140.77 958.5 3140.77 966V1046H3105.52V946.25C3105.52 934.75 3104.52 918.75 3104.27 912.5H3135.77V933C3143.77 920.25 3152.02 909.75 3168.52 909.75C3173.52 909.75 3178.52 911.25 3181.27 912.25Z" fill="#0A0086"/>
</svg>
