  <svg
    width="30"
    height="30"
    viewBox="0 0 30 30"
    fill="#0a0086"
    xmlns="http://www.w3.org/2000/svg"
  >
    <mask
      id="mask0_5_553"
      style="mask-type: luminance"
      maskUnits="userSpaceOnUse"
      x="0"
      y="0"
      width="30"
      height="30"
    >
      <path d="M30 0H0V30H30V0Z" fill="white" />
    </mask>
    <g mask="url(#mask0_5_553)">
      <mask
        id="mask1_5_553"
        style="mask-type: luminance"
        maskUnits="userSpaceOnUse"
        x="0"
        y="0"
        width="30"
        height="30"
      >
        <path d="M0 0H30V30H0V0Z" fill="white" />
      </mask>
      <g mask="url(#mask1_5_553)">
        <path
          d="M29.025 0H0.975006C0.716006 0 0.468011 0.102995 0.286011 0.285995C0.103011 0.467995 0 0.716006 0 0.975006C0 1.23401 0.103011 1.48299 0.286011 1.66499C0.468011 1.84799 0.716006 1.951 0.975006 1.951H29.025C29.153 1.951 29.28 1.926 29.398 1.877C29.517 1.828 29.624 1.75599 29.715 1.66499C29.805 1.57499 29.877 1.467 29.926 1.349C29.975 1.23 30 1.10401 30 0.975006V0.973999C30 0.715999 29.897 0.468004 29.714 0.285004C29.531 0.103004 29.283 0 29.025 0ZM29.025 28.051H0.975006C0.716006 28.051 0.468011 28.154 0.286011 28.337C0.103011 28.519 0 28.767 0 29.026C0 29.284 0.103011 29.533 0.286011 29.716C0.468011 29.899 0.716006 30.001 0.975006 30.001H29.025C29.284 30.001 29.532 29.899 29.714 29.716C29.897 29.533 30 29.285 30 29.027V29.025C30 28.767 29.897 28.519 29.714 28.336C29.532 28.153 29.284 28.051 29.025 28.051ZM24.721 6.177L24.66 5.841C24.644 5.752 24.593 5.67399 24.519 5.62199C24.446 5.56999 24.354 5.54999 24.265 5.56599L17.216 6.81L17.184 6.631C17.165 6.523 17.125 6.419 17.066 6.326C17.006 6.233 16.929 6.153 16.839 6.089C16.749 6.026 16.647 5.98099 16.539 5.95799C16.431 5.93399 16.32 5.932 16.212 5.951L13.434 6.44C13.326 6.459 13.222 6.50001 13.129 6.55901C13.036 6.61801 12.955 6.695 12.892 6.786C12.829 6.876 12.784 6.978 12.76 7.086C12.736 7.193 12.734 7.30499 12.753 7.41299L12.785 7.59L5.73199 8.834C5.64399 8.85 5.56501 8.9 5.51401 8.974C5.46201 9.047 5.442 9.138 5.457 9.226L5.51599 9.563C5.52299 9.607 5.53899 9.65 5.56299 9.688C5.58699 9.726 5.618 9.759 5.655 9.785C5.691 9.811 5.733 9.829 5.776 9.839C5.82 9.849 5.865 9.851 5.91 9.843L14.49 8.33V12.005H10.372C9.79401 12.004 9.22899 12.174 8.74899 12.494C8.26799 12.814 7.894 13.27 7.673 13.804C7.072 15.254 6.763 16.808 6.763 18.377C6.763 19.946 7.072 21.5 7.673 22.95C7.894 23.484 8.26799 23.94 8.74899 24.26C9.22899 24.58 9.79401 24.751 10.372 24.75H19.625C20.202 24.751 20.767 24.58 21.248 24.26C21.728 23.94 22.103 23.484 22.323 22.95C23.536 20.022 23.536 16.733 22.323 13.805C22.103 13.271 21.728 12.815 21.248 12.495C20.767 12.175 20.202 12.005 19.625 12.006H15.508V8.149L24.448 6.57001C24.536 6.55401 24.614 6.50299 24.665 6.42999C24.716 6.35599 24.736 6.266 24.721 6.177ZM11.865 19.562H8.37299C8.31999 19.562 8.26901 19.543 8.23001 19.508C8.19101 19.472 8.166 19.424 8.16 19.372C8.129 19.04 8.11401 18.708 8.11401 18.375C8.11101 16.983 8.38501 15.605 8.92001 14.32C9.03901 14.033 9.23999 13.787 9.49899 13.614C9.75699 13.442 10.061 13.35 10.372 13.35H11.863C11.919 13.35 11.973 13.372 12.013 13.412C12.052 13.452 12.075 13.505 12.075 13.561V19.351C12.074 19.407 12.052 19.46 12.013 19.499C11.974 19.539 11.92 19.561 11.865 19.562ZM17.925 19.35V13.561C17.925 13.533 17.93 13.505 17.941 13.479C17.952 13.454 17.967 13.43 17.987 13.411C18.007 13.391 18.03 13.376 18.056 13.365C18.082 13.354 18.109 13.349 18.137 13.349H19.629C19.94 13.349 20.244 13.441 20.502 13.613C20.761 13.786 20.962 14.032 21.081 14.319C21.616 15.604 21.89 16.982 21.888 18.374C21.888 18.709 21.872 19.042 21.841 19.371C21.836 19.423 21.811 19.472 21.772 19.507C21.733 19.542 21.682 19.561 21.629 19.56H18.137C18.081 19.561 18.027 19.539 17.988 19.499C17.948 19.46 17.925 19.405 17.925 19.35ZM16.365 23.4H13.635C13.608 23.4 13.58 23.395 13.555 23.384C13.529 23.373 13.506 23.358 13.486 23.338C13.466 23.318 13.451 23.295 13.44 23.269C13.429 23.244 13.424 23.216 13.424 23.188V13.557C13.424 13.53 13.429 13.502 13.44 13.476C13.451 13.451 13.466 13.427 13.486 13.408C13.505 13.388 13.529 13.372 13.554 13.362C13.58 13.351 13.608 13.345 13.635 13.345H16.365C16.393 13.346 16.421 13.351 16.446 13.362C16.472 13.372 16.495 13.388 16.515 13.408C16.534 13.427 16.55 13.451 16.561 13.477C16.571 13.502 16.577 13.53 16.576 13.557V23.188C16.576 23.216 16.571 23.244 16.56 23.269C16.55 23.295 16.534 23.318 16.515 23.338C16.495 23.358 16.472 23.373 16.446 23.384C16.42 23.395 16.393 23.4 16.365 23.4Z"
        />
      </g>
    </g>
  </svg>