<svg width="564" height="532" viewBox="0 0 564 532" fill="none" xmlns="http://www.w3.org/2000/svg">
<rect x="17.5" y="17.5" width="529" height="497" rx="40.5" stroke="#0A0086" stroke-width="35"/>
<path d="M282 183C312.928 183 338 158.823 338 129C338 99.1766 312.928 75 282 75C251.072 75 226 99.1766 226 129C226 158.823 251.072 183 282 183Z" fill="#00008B"/>
<path d="M329 224H236V438H329V224Z" fill="#0A0086"/>
<path d="M265.125 224H208.875C199.555 224 192 231.387 192 240.5C192 249.613 199.555 257 208.875 257H265.125C274.445 257 282 249.613 282 240.5C282 231.387 274.445 224 265.125 224Z" fill="#00008B"/>
<path d="M357.917 430H207.083C198.753 430 192 432.91 192 436.5V449.5C192 453.09 198.753 456 207.083 456H357.917C366.247 456 373 453.09 373 449.5V436.5C373 432.91 366.247 430 357.917 430Z" fill="#0A0086"/>
</svg>
